<svg xmlns="http://www.w3.org/2000/svg" xmlns:xlink="http://www.w3.org/1999/xlink" xmlns:inkscape="http://www.inkscape.org/namespaces/inkscape" version="1.1" width="351" height="206" viewBox="0 0 351 206">
<defs>
<path id="font_1_4" d="M.2539978 .6693268C.25498963 .6733246 .25698854 .6793213 .25698854 .6843262 .25698854 .69433596 .24699402 .69433596 .24499512 .69433596 .24398804 .69433596 .20799256 .69132998 .18998719 .68933108 .17298889 .688324 .1579895 .6863251 .13999939 .68533328 .115997318 .68333438 .10899353 .6823273 .10899353 .6643219 .10899353 .6543274 .11898804 .6543274 .1289978 .6543274 .17999268 .6543274 .17999268 .6453247 .17999268 .63531497 .17999268 .63131716 .17999268 .62931826 .1749878 .61131289L.050994874 .115249637C.04798889 .10424805 .04598999 .09623718 .04598999 .08023071 .04598999 .030227662 .08299255-.009765625 .13398743-.009765625 .16699219-.009765625 .18899536 .01222229 .20498657 .04322815 .22200012 .07623291 .23599243 .13925171 .23599243 .14324951 .23599243 .1482544 .23199463 .1522522 .22599793 .1522522 .21699524 .1522522 .21598816 .14724732 .21199036 .13224793 .19400025 .06323242 .17599488 .010223389 .13598633 .010223389 .10598755 .010223389 .10598755 .042236329 .10598755 .056228639 .10598755 .0602417 .10598755 .08123779 .11299133 .10923767L.2539978 .6693268Z"/>
<path id="font_2_43" d="M.38398744 .11817932C.38398744 .122177127 .3829956 .1251831 .37599183 .1251831 .36898805 .1251831 .36799623 .124176029 .3639984 .11117554 .33799745 .030181885 .2809906 .010177612 .23799134 .010177612 .17399597 .010177612 .09700012 .06918335 .09700012 .21717835 .09700012 .36930848 .17098999 .42437745 .22999573 .42437745 .2689972 .42437745 .32699586 .40534974 .34899903 .35029603 .32998658 .35029603 .3019867 .35029603 .3019867 .31529237 .3019867 .28729249 .32499696 .27929688 .33799745 .27929688 .34498597 .27931214 .37399293 .28230287 .37399293 .31732179 .37399293 .3883667 .30599977 .4423828 .22898865 .4423828 .12298584 .4423828 .032989503 .3443451 .032989503 .21627808 .032989503 .083221439 .1269989-.0078125 .22898865-.0078125 .35299684-.0078125 .38398744 .10722351 .38398744 .1182251V.11817932Z"/>
<path id="font_2_109" d="M.48298646 .00018310547V.026184082C.42399598 .026184082 .4149933 .032180787 .4149933 .080215457V.43847657L.2939911 .42747499V.401474C.35299684 .401474 .3619995 .39546205 .3619995 .34742738V.1652832C.3619995 .081222537 .31698609 .008178711 .24299622 .008178711 .16099549 .008178711 .1539917 .0572052 .1539917 .10923767V.43847657L.032989503 .42747499V.401474C.07299805 .401474 .099990848 .401474 .100997928 .36143495V.16929627C.100997928 .10223389 .100997928 .0592041 .1269989 .031188965 .13999939 .018173218 .16499329-.0078125 .23699951-.0078125 .32199098-.0078125 .35499574 .064208988 .36299134 .08522034H.3639984V-.0078125L.48298646 .00018310547Z"/>
<path id="font_2_96" d="M.33299256 .3864746C.33299256 .4184723 .30099488 .43847657 .2669983 .43847657 .19099427 .43847657 .1579895 .36447145 .147995 .32946778H.14698792V.43847657L.0309906 .4273529V.4013672C.08999634 .4013672 .09899902 .39535523 .09899902 .3473053V.06903076C.09899902 .0309906 .09498596 .025985718 .0309906 .025985718V0C.054992677 .0019989014 .100997928 .0019989014 .1269989 .0019989014 .1559906 .0019989014 .20698548 .0019989014 .23399353 0V.025985718C.1619873 .026351929 .1499939 .026351929 .1499939 .07136536V.23635865C.1499939 .33236695 .19099427 .4224701 .2659912 .4224701 .272995 .4224701 .27999879 .421463 .2869873 .41844178 .2869873 .41844178 .2649994 .41140748 .2649994 .38536073 .2649994 .36135865 .28399659 .35136415 .29899598 .35136415 .31098939 .35136415 .33299256 .35835267 .33299256 .38635255V.3864746Z"/>
<path id="font_2_112" d="M.47399903 .40368653V.4296875L.41099549 .42767335C.3899994 .42767335 .35699464 .42767335 .33699037 .4296875V.40368653C.3619995 .40167237 .37599183 .3896942 .37599183 .36372376 .37599183 .35473634 .37599183 .35273744 .36999513 .33876039L.2599945 .06109619 .14099121 .36073304C.1349945 .37371827 .1349945 .37571717 .1349945 .3796997 .1349945 .40368653 .16799927 .40368653 .18299866 .40368653V.4296875C.15899658 .42767335 .114990238 .42767335 .08999634 .42767335 .06298828 .42767335 .03199768 .42767335 .009994507 .4296875V.40368653C.04798889 .40368653 .068984989 .40368653 .08099365 .37271119L.22599793 .009155273C.23199463-.0058288576 .23298645-.0078125 .24198914-.0078125 .25099183-.0078125 .2519989-.0058288576 .2579956 .009155273L.3909912 .3397522C.3999939 .36172486 .41600038 .40167237 .47399903 .40368653Z"/>
<path id="font_2_50" d="M.3849945 .25134278C.3849945 .35336305 .33099366 .4423828 .21699524 .4423828 .11099243 .4423828 .026992798 .34135438 .026992798 .21833802 .026992798 .08824158 .12199402-.0078125 .22799683-.0078125 .33999635-.0078125 .38398744 .09825134 .38398744 .119262699 .38398744 .12626648 .37599183 .12626648 .37599183 .12626648 .36898805 .12626648 .36799623 .12426758 .3639984 .11225891 .34199525 .044204713 .2869873 .010177612 .23498535 .010177612 .19198609 .010177612 .14898682 .034194948 .12199402 .07823181 .09098816 .12927246 .09098816 .18830872 .09098816 .23535156H.3809967C.3849945 .23934937 .3849945 .24134827 .3849945 .25134278M.33099366 .25035096H.09199524C.09899902 .3943634 .17599488 .42637635 .21598816 .42637635 .28399659 .42637635 .32998658 .36236573 .33099366 .25035096Z"/>
<path id="font_2_47" d="M.47898866 0V.025985718C.41999818 .025985718 .41099549 .03201294 .41099549 .080078128V.69433596L.2919922 .6826172V.6566162C.35099793 .6566162 .3600006 .65063479 .3600006 .602829V.36943055C.35598756 .37443543 .31498719 .43847657 .23399353 .43847657 .13198853 .43847657 .032989503 .3474121 .032989503 .21533203 .032989503 .084228519 .12599182-.0078125 .22399903-.0078125 .30899049-.0078125 .35299684 .05821228 .35798646 .065216068V-.0078125L.47898866 0M.35798646 .12007141C.35798646 .09007263 .33999635 .063064578 .31698609 .04307556 .2829895 .013183594 .24899292 .008178711 .22999573 .008178711 .20098877 .008178711 .09700012 .02319336 .09700012 .21432495 .09700012 .41046144 .21299744 .4224701 .23899842 .4224701 .2849884 .4224701 .32199098 .39645387 .34498597 .36042787 .35798646 .3394165 .35798646 .33641053 .35798646 .31840516V.12007141Z"/>
<path id="font_2_98" d="M.33299256 .12454224C.33299256 .17553711 .30599977 .20254517 .29299928 .21453858 .2630005 .24554444 .22799683 .25253297 .18598938 .26054383 .1309967 .27253724 .06098938 .2865448 .06098938 .3474884 .06098938 .37345887 .07499695 .42837525 .17599488 .42837525 .2829895 .42837525 .2889862 .32852174 .29100038 .2965393 .2919922 .29153443 .29699708 .2905426 .2999878 .2905426 .30899049 .2905426 .30899049 .29353334 .30899049 .31054688V.42237855C.30899049 .44039918 .30799867 .44140626 .3019867 .44140626 .2979889 .44140626 .29699708 .44039918 .2849884 .42539979 .28199769 .42140199 .272995 .4113922 .269989 .4073944 .23799134 .44137574 .19299317 .4423828 .17599488 .4423828 .06498718 .4423828 .024993897 .38427735 .024993897 .32617188 .024993897 .23616028 .1269989 .21516419 .1559906 .20916748 .21899414 .19616699 .24099732 .19216919 .2619934 .17416382 .2749939 .16217041 .29699708 .14016724 .29699708 .10417175 .29699708 .062179567 .272995 .008178711 .18099976 .008178711 .09399414 .008178711 .06298828 .07417297 .04499817 .16217041 .041992189 .17599488 .041992189 .1769867 .033996583 .1769867 .025985718 .1769867 .024993897 .17599488 .024993897 .1559906V.011993408C.024993897-.006011963 .025985718-.007003784 .03199768-.007003784 .036987306-.007003784 .037994386-.006011963 .042999269 .0019989014L.069992069 .045181276C.08999634 .018173218 .125-.0078125 .18099976-.0078125 .27999879-.0078125 .33299256 .046173097 .33299256 .124176029V.12454224Z"/>
<path id="font_2_55" d="M.31298829 .64056399C.31298829 .6785431 .2769928 .7015381 .23699951 .7015381 .17999268 .7015381 .101989749 .6545563 .101989749 .5486145V.4296875H.021987915V.40368653H.101989749V.06895447C.101989749 .0309906 .09799194 .025985718 .033996583 .025985718V0C.057998659 .0019989014 .10398865 .0019989014 .12998963 .0019989014 .15899658 .0019989014 .20999146 .0019989014 .23699951 0V.025985718C.16499329 .025680542 .15299988 .025680542 .15299988 .07067871V.40368653H.2669983V.4296875H.15098572V.550766C.15098572 .6338043 .19299317 .6855469 .23599243 .6855469 .24899292 .6855469 .2639923 .6816406 .27398683 .6748047 .2659912 .6727905 .24499512 .665802 .24499512 .64079287 .24499512 .61479189 .2649994 .60679629 .2789917 .60679629 .29299928 .60679629 .31298829 .61479189 .31298829 .64079287V.64056399Z"/>
<path id="font_2_28" d="M.44898988 .08898926V.14498902H.43099977V.08799744C.43099977 .026992798 .4039917 .018997193 .3909912 .018997193 .34999085 .018997193 .34999085 .070999149 .34999085 .114990238V.25898744C.34999085 .32499696 .34999085 .3600006 .30799867 .39898683 .2709961 .43199159 .22799683 .44198609 .19400025 .44198609 .114990238 .44198609 .057998659 .37998963 .057998659 .31399537 .057998659 .2769928 .08799744 .2749939 .09399414 .2749939 .10699463 .2749939 .12998963 .2829895 .12998963 .31098939 .12998963 .33599855 .11099243 .34700013 .09399414 .34700013 .08999634 .34700013 .084991458 .34599305 .08198547 .34498597 .102996829 .4079895 .15699768 .42599488 .19198609 .42599488 .24198914 .42599488 .29699708 .38198854 .29699708 .2979889V.2539978C.23799134 .2519989 .16699219 .24398804 .11099243 .21398926 .04798889 .1789856 .02999878 .1289978 .02999878 .09098816 .02999878 .01399231 .11999512-.008010864 .17298889-.008010864 .22799683-.008010864 .2789917 .022994996 .30099488 .07998657 .30299378 .035995485 .33099366-.0040130617 .375-.0040130617 .3959961-.0040130617 .44898988 .009994507 .44898988 .08898926M.29699708 .13899231C.29699708 .051986696 .23498535 .0079956059 .17999268 .0079956059 .12998963 .0079956059 .09098816 .04499817 .09098816 .09098816 .09098816 .12098694 .10398865 .17399597 .1619873 .20599365 .20999146 .23298645 .2649994 .23699951 .29699708 .23899842V.13899231Z"/>
<path id="font_1_3" d="M.16999817 .1111145C.1349945 .05203247 .100997928 .03199768 .052993776 .0289917 .041992189 .027999878 .033996583 .027999878 .033996583 .009994507 .033996583 .0039978029 .038986207 0 .04598999 0 .06399536 0 .10899353 .0019989014 .1269989 .0019989014 .1559906 .0019989014 .18798828 0 .21598816 0 .22200012 0 .23399353 0 .23399353 .018997193 .23399353 .027999878 .22599793 .0289917 .21998596 .0289917 .19699097 .0309906 .17799378 .039001466 .17799378 .06304932 .17799378 .07707214 .18399048 .08808899 .19699097 .11012268L.272995 .23632813H.5279999C.5289917 .22731018 .5289917 .21929932 .5299988 .21028137 .5329895 .18423462 .54499819 .080078128 .54499819 .061050416 .54499819 .0309906 .49398805 .0289917 .47799684 .0289917 .46699525 .0289917 .45599366 .0289917 .45599366 .010986328 .45599366 0 .46499635 0 .47099305 0 .48799134 0 .5079956 .0019989014 .5249939 .0019989014H.58200076C.6429901 .0019989014 .68699648 0 .6879883 0 .69499209 0 .70599368 0 .70599368 .018997193 .70599368 .0289917 .69699099 .0289917 .6819916 .0289917 .6269989 .0289917 .6259918 .038009645 .6230011 .0680542L.56199648 .691864C.55999758 .711853 .55599978 .7138672 .54499819 .7138672 .5349884 .7138672 .5289917 .711853 .519989 .69685366L.16999817 .1111145M.2899933 .26531983 .4909973 .6009674 .5249939 .26531983H.2899933Z"/>
<path id="font_3_1" d="M.6429901 .32128907C.6579895 .32128907 .6729889 .32128907 .6729889 .33828736 .6729889 .35627748 .6559906 .35627748 .6389923 .35627748H.07998657C.06298828 .35627748 .04598999 .35627748 .04598999 .33828736 .04598999 .32128907 .06098938 .32128907 .07598877 .32128907H.6429901M.6389923 .14273072C.6559906 .14273072 .6729889 .14273072 .6729889 .16072083 .6729889 .17773438 .6579895 .17773438 .6429901 .17773438H.07598877C.06098938 .17773438 .04598999 .17773438 .04598999 .16072083 .04598999 .14273072 .06298828 .14273072 .07998657 .14273072H.6389923Z"/>
<path id="font_1_2" d="M.25898744 .3766632H.37199403C.34498597 .26483155 .32798768 .19194031 .32798768 .112075809 .32798768 .098083499 .32798768-.009765625 .36898805-.009765625 .3899994-.009765625 .4079895 .009231567 .4079895 .02619934 .4079895 .031188965 .4079895 .033187868 .40098573 .048171998 .37399293 .11706543 .37399293 .20292664 .37399293 .20991516 .37399293 .21591187 .37399293 .28678895 .394989 .3766632H.5069885C.519989 .3766632 .5529938 .3766632 .5529938 .4086609 .5529938 .43066407 .5339966 .43066407 .5159912 .43066407H.18699646C.1639862 .43066407 .12998963 .43066407 .083999637 .38165284 .057998659 .35269166 .025985718 .29977418 .025985718 .29377748 .025985718 .28779603 .0309906 .28579713 .036987306 .28579713 .04399109 .28579713 .04499817 .28878785 .049987794 .29478456 .101989749 .3766632 .1539917 .3766632 .1789856 .3766632H.23599243C.21398926 .30177308 .18899536 .21490479 .10699463 .04017639 .09899902 .02420044 .09899902 .022216797 .09899902 .016220093 .09899902-.004776001 .116989139-.009765625 .12599182-.009765625 .15499878-.009765625 .16299439 .016220093 .1749878 .058151246 .19099427 .109069827 .19099427 .111068729 .20098877 .15100098L.25898744 .3766632Z"/>
<path id="font_1_5" d="M.3889923 .40924073C.35798646 .4032135 .34199525 .3812256 .34199525 .3592224 .34199525 .33522035 .36099244 .32722474 .375 .32722474 .40299989 .32722474 .42599488 .35121156 .42599488 .3812256 .42599488 .41329957 .394989 .44140626 .34498597 .44140626 .30499269 .44140626 .25898744 .42340089 .21699524 .36221314 .20999146 .41532899 .16999817 .44140626 .12998963 .44140626 .09098816 .44140626 .070999149 .41127015 .05899048 .3892212 .041992189 .3532257 .026992798 .2932129 .026992798 .28822328 .026992798 .28422547 .0309906 .27922059 .037994386 .27922059 .04598999 .27922059 .04699707 .2802124 .052993776 .30322267 .067993167 .3632202 .08699036 .42140199 .1269989 .42140199 .15098572 .42140199 .1579895 .40422059 .1579895 .37521363 .1579895 .3532257 .147995 .31422425 .14099121 .28321839L.11299133 .17521668C.10899353 .15621948 .09799194 .11122131 .09298706 .0932312 .085998538 .067230228 .07499695 .020233155 .07499695 .0152282719 .07499695 .0012207031 .085998538-.009765625 .100997928-.009765625 .11199951-.009765625 .1309967-.0027770997 .13699341 .017227173 .13999939 .025222779 .1769867 .17622376 .18299866 .19921875 .18798828 .22122193 .19400025 .24221802 .19898987 .2642212 .20298767 .2782135 .20698548 .29421998 .20999146 .30722047 .21299744 .31622315 .23999024 .36521913 .2649994 .3872223 .2769928 .39822389 .30299378 .42140199 .34399415 .42140199 .3600006 .42140199 .37599183 .41836549 .3889923 .40924073Z"/>
<path id="font_1_1" d="M.44299317 .50320437C.44299317 .6051483 .41099549 .70410159 .32899476 .70410159 .18899536 .70410159 .039993287 .41127015 .039993287 .19126892 .039993287 .14524842 .049987794-.009765625 .15499878-.009765625 .29100038-.009765625 .44299317 .27627564 .44299317 .50320437M.13999939 .3623047C.15499878 .42126466 .17599488 .50520327 .21598816 .5761566 .24899292 .63612368 .28399659 .6840973 .32798768 .6840973 .36099244 .6840973 .3829956 .6561127 .3829956 .56018069 .3829956 .52420046 .37998963 .4742279 .35099793 .3623047H.13999939M.34399415 .33229066C.31900025 .23426819 .2979889 .17126465 .2619934 .10824585 .23298645 .057235719 .19799805 .010223389 .1559906 .010223389 .125 .010223389 .099990848 .034225465 .099990848 .133255 .099990848 .1982727 .115997318 .26628114 .13198853 .33229066H.34399415Z"/>
<path id="font_2_66" d="M.21398926 0V.025985718C.15499878 .025985718 .15299988 .03199768 .15299988 .06803894V.43847657L.037994386 .4273529V.4013672C.09399414 .4013672 .101989749 .39535523 .101989749 .3473053V.06903076C.101989749 .0309906 .09799194 .025985718 .033996583 .025985718V0C.057998659 .0019989014 .100997928 .0019989014 .12599182 .0019989014 .1499939 .0019989014 .19099427 .0019989014 .21398926 0M.16499329 .60446169C.16499329 .62846377 .1459961 .64546206 .125 .64546206 .100997928 .64546206 .083999637 .62646487 .083999637 .60446169 .083999637 .58047488 .102996829 .56347659 .12399292 .56347659 .147995 .56347659 .16499329 .58247378 .16499329 .60446169Z"/>
<path id="font_2_72" d="M.22099304 0V.025985718C.15699768 .025985718 .15299988 .02999878 .15299988 .0690155V.69433596L.033996583 .6826172V.6566162C.09298706 .6566162 .101989749 .65060427 .101989749 .6026459V.06896973C.101989749 .0309906 .09799194 .025985718 .033996583 .025985718V0C.057998659 .0019989014 .101989749 .0019989014 .1269989 .0019989014 .15299988 .0019989014 .19699097 .0019989014 .22099304 0Z"/>
<path id="font_2_35" d="M.47698976 .21632385C.47698976 .3444214 .3869934 .43847657 .28599549 .43847657 .22399903 .43847657 .17999268 .40545655 .1499939 .36642457V.69433596L.0309906 .68333438V.6573334C.08999634 .6573334 .09899902 .65133669 .09899902 .60336306V.00018310547H.116989139L.1459961 .07122803C.1749878 .02418518 .21798706-.0078125 .27598573-.0078125 .37599183-.0078125 .47698976 .08023071 .47698976 .21632385M.41299439 .21733094C.41299439 .019180298 .29499818 .008178711 .2709961 .008178711 .23999024 .008468628 .19499207 .020462037 .16299439 .07846069 .1519928 .097473148 .1519928 .099472049 .1519928 .11746216V.31547547C.1519928 .33346559 .1519928 .33647157 .1659851 .35746766 .20498657 .4174652 .26098634 .4224701 .27999879 .4224701 .30999757 .4224701 .41299439 .40646363 .41299439 .21746826V.21733094Z"/>
<path id="font_4_1" d="M.43998719 .16790772H.41799928C.4149933 .15092469 .40699769 .09597778 .39698792 .07998657 .3899994 .070999149 .33299256 .070999149 .30299378 .070999149H.117996219C.14498902 .09397888 .20599365 .15792847 .23199463 .18190003 .38398744 .3217926 .43998719 .37374879 .43998719 .47270204 .43998719 .5878906 .34899903 .66503909 .23298645 .66503909 .116989139 .66503909 .04899597 .5658264 .04899597 .4797058 .04899597 .42871095 .09298706 .42871095 .09599304 .42871095 .116989139 .42871095 .14299011 .44371034 .14299011 .475708 .14299011 .5037079 .12399292 .5227051 .09599304 .5227051 .08699036 .5227051 .084991458 .5227051 .08198547 .521698 .100997928 .5899048 .15499878 .6360321 .21998596 .6360321 .30499269 .6360321 .35699464 .56481936 .35699464 .47270204 .35699464 .3877411 .30799867 .313797 .25099183 .24984741L.04899597 .023986817V0H.4139862L.43998719 .16790772Z"/>
<path id="font_5_96" d="M.3639984 .38137818C.3639984 .41337586 .33299256 .4423828 .2899933 .4423828 .21699524 .4423828 .18099976 .37538148 .16699219 .3323822V.4423828L.027999878 .43066407V.3996582C.09799194 .3996582 .10598755 .39266969 .10598755 .34370423V.07595825C.10598755 .0309906 .09498596 .0309906 .027999878 .0309906V0L.14199829 .0029907227C.18199158 .0029907227 .22898865 .0029907227 .2689972 0V.0309906H.24798584C.17399597 .0309906 .17199707 .04197693 .17199707 .07795715V.23181153C.17199707 .33137513 .21398926 .42037965 .2899933 .42037965 .29699708 .42037965 .29899598 .42037965 .30099488 .41937257 .2979889 .41838075 .27799989 .40637208 .27799989 .3803711 .27799989 .35237123 .29899598 .33737184 .32099916 .33737184 .33898927 .33737184 .3639984 .3493805 .3639984 .38137818Z"/>
</defs>
<path transform="matrix(1.00006,0,0,-1.00005,1.4940109,101.41426)" stroke-width="1.19553" stroke-linecap="butt" stroke-miterlimit="10" stroke-linejoin="miter" fill="none" stroke="#000000" d="M0 0 113.38724 99.21382"/>
<use data-text="l" xlink:href="#font_1_4" transform="matrix(20.66374,0,0,-20.663533,47.790788,47.886587)"/>
<path transform="matrix(1.00006,0,0,-1.00005,1.4940109,101.41426)" stroke-width="1.19553" stroke-linecap="butt" stroke-miterlimit="10" stroke-linejoin="miter" fill="none" stroke="#000000" d="M0 0 113.38724-99.21382"/>
<use data-text="l" xlink:href="#font_1_4" transform="matrix(20.66374,0,0,-20.663533,47.790788,169.29166)"/>
<path transform="matrix(1.00006,0,0,-1.00005,1.4940109,101.41426)" stroke-width="1.19553" stroke-linecap="butt" stroke-miterlimit="10" stroke-linejoin="miter" fill="none" stroke="#000000" d="M113.38724 99.21382C167.61884 67.90326 186.20067-1.44469 154.8901-55.67628 144.94174-72.90858 130.61954-87.23079 113.38724-97.17915"/>
<path transform="matrix(1.00006,0,0,-1.00005,1.4940109,101.41426)" stroke-width="1.19553" stroke-linecap="butt" stroke-dasharray="2.98883,2.98883" stroke-miterlimit="10" stroke-linejoin="miter" fill="none" stroke="#000000" d="M90.7097 42.5202 169.1802 70.54535"/>
<path transform="matrix(.9417564,-.33633683,-.3363402,-.941747,170.68436,30.865387)" stroke-width=".9564" stroke-linecap="round" stroke-linejoin="round" fill="none" stroke="#000000" d="M-1.91284 2.55046C-1.75343 1.59402 0 .15938 .4782 0 0-.15938-1.75343-1.59402-1.91284-2.55046"/>
<use data-text="c" xlink:href="#font_2_43" transform="matrix(20.66374,0,0,-20.663533,175.50345,37.71408)"/>
<use data-text="u" xlink:href="#font_2_109" transform="matrix(20.66374,0,0,-20.663533,183.89292,37.71408)"/>
<use data-text="r" xlink:href="#font_2_96" transform="matrix(20.66374,0,0,-20.663533,194.45209,37.71408)"/>
<use data-text="v" xlink:href="#font_2_112" transform="matrix(20.66374,0,0,-20.663533,201.76706,37.71408)"/>
<use data-text="e" xlink:href="#font_2_50" transform="matrix(20.66374,0,0,-20.663533,211.27237,37.71408)"/>
<use data-text="d" xlink:href="#font_2_47" transform="matrix(20.66374,0,0,-20.663533,219.66187,37.71408)"/>
<use data-text="s" xlink:href="#font_2_98" transform="matrix(20.66374,0,0,-20.663533,236.44083,37.71408)"/>
<use data-text="u" xlink:href="#font_2_109" transform="matrix(20.66374,0,0,-20.663533,243.8591,37.71408)"/>
<use data-text="r" xlink:href="#font_2_96" transform="matrix(20.66374,0,0,-20.663533,254.41825,37.71408)"/>
<use data-text="f" xlink:href="#font_2_55" transform="matrix(20.66374,0,0,-20.663533,261.73323,37.71408)"/>
<use data-text="a" xlink:href="#font_2_28" transform="matrix(20.66374,0,0,-20.663533,267.4364,37.71408)"/>
<use data-text="c" xlink:href="#font_2_43" transform="matrix(20.66374,0,0,-20.663533,276.92109,37.71408)"/>
<use data-text="e" xlink:href="#font_2_50" transform="matrix(20.66374,0,0,-20.663533,285.31056,37.71408)"/>
<use data-text="A" xlink:href="#font_1_3" transform="matrix(20.66374,0,0,-20.663533,162.14664,24.1884)"/>
<use data-text="=" xlink:href="#font_3_1" transform="matrix(20.66374,0,0,-20.663533,183.0549,24.1884)"/>
<use data-text="&#x03c0;" xlink:href="#font_1_2" transform="matrix(20.66374,0,0,-20.663533,203.66913,24.1884)"/>
<use data-text="r" xlink:href="#font_1_5" transform="matrix(20.66374,0,0,-20.663533,215.86075,24.1884)"/>
<use data-text="l" xlink:href="#font_1_4" transform="matrix(20.66374,0,0,-20.663533,225.55204,24.1884)"/>
<use data-text="&#x03b8;" xlink:href="#font_1_1" transform="matrix(20.66374,0,0,-20.663533,30.51675,102.919338)"/>
<path transform="matrix(1.00006,0,0,-1.00005,1.4940109,101.41426)" d="M255.12126 0C255.12126 23.48355 236.08463 42.5202 212.60106 42.5202 189.1175 42.5202 170.08086 23.48355 170.08086 0 170.08086-23.48355 189.1175-42.5202 212.60106-42.5202 236.08463-42.5202 255.12126-23.48355 255.12126 0ZM212.60106 0" fill="#00aeef"/>
<path transform="matrix(1.00006,0,0,-1.00005,1.4940109,101.41426)" stroke-width="1.19553" stroke-linecap="butt" stroke-miterlimit="10" stroke-linejoin="miter" fill="none" stroke="#000000" d="M255.12126 0C255.12126 23.48355 236.08463 42.5202 212.60106 42.5202 189.1175 42.5202 170.08086 23.48355 170.08086 0 170.08086-23.48355 189.1175-42.5202 212.60106-42.5202 236.08463-42.5202 255.12126-23.48355 255.12126 0ZM212.60106 0"/>
<path transform="matrix(1.00006,0,0,-1.00005,1.4940109,101.41426)" stroke-width="1.19553" stroke-linecap="butt" stroke-dasharray="2.98883,2.98883" stroke-miterlimit="10" stroke-linejoin="miter" fill="none" stroke="#000000" d="M212.60106 5.66927 240.6157-69.97018"/>
<path transform="matrix(.34732083,.9377468,.9377562,-.34731735,242.12415,171.38793)" stroke-width=".9564" stroke-linecap="round" stroke-linejoin="round" fill="none" stroke="#000000" d="M-1.91284 2.55046C-1.75343 1.59402 0 .15938 .4782 0 0-.15938-1.75343-1.59402-1.91284-2.55046"/>
<use data-text="c" xlink:href="#font_2_43" transform="matrix(20.66374,0,0,-20.663533,246.37468,179.37216)"/>
<use data-text="i" xlink:href="#font_2_66" transform="matrix(20.66374,0,0,-20.663533,254.76416,179.37216)"/>
<use data-text="r" xlink:href="#font_2_96" transform="matrix(20.66374,0,0,-20.663533,259.9301,179.37216)"/>
<use data-text="c" xlink:href="#font_2_43" transform="matrix(20.66374,0,0,-20.663533,267.24507,179.37216)"/>
<use data-text="u" xlink:href="#font_2_109" transform="matrix(20.66374,0,0,-20.663533,275.63453,179.37216)"/>
<use data-text="l" xlink:href="#font_2_72" transform="matrix(20.66374,0,0,-20.663533,286.19374,179.37216)"/>
<use data-text="a" xlink:href="#font_2_28" transform="matrix(20.66374,0,0,-20.663533,291.35966,179.37216)"/>
<use data-text="r" xlink:href="#font_2_96" transform="matrix(20.66374,0,0,-20.663533,300.8443,179.37216)"/>
<use data-text="b" xlink:href="#font_2_35" transform="matrix(20.66374,0,0,-20.663533,314.39973,179.37216)"/>
<use data-text="a" xlink:href="#font_2_28" transform="matrix(20.66374,0,0,-20.663533,324.9589,179.37216)"/>
<use data-text="s" xlink:href="#font_2_98" transform="matrix(20.66374,0,0,-20.663533,334.44355,179.37216)"/>
<use data-text="e" xlink:href="#font_2_50" transform="matrix(20.66374,0,0,-20.663533,341.86183,179.37216)"/>
<use data-text="A" xlink:href="#font_1_3" transform="matrix(20.66374,0,0,-20.663533,249.50688,203.88838)"/>
<use data-text="=" xlink:href="#font_3_1" transform="matrix(20.66374,0,0,-20.663533,270.41514,203.88838)"/>
<use data-text="&#x03c0;" xlink:href="#font_1_2" transform="matrix(20.66374,0,0,-20.663533,291.02937,203.88838)"/>
<use data-text="r" xlink:href="#font_1_5" transform="matrix(20.66374,0,0,-20.663533,303.22099,203.88838)"/>
<use data-text="2" xlink:href="#font_4_1" transform="matrix(14.34706,0,0,-14.346916,312.92768,196.389)"/>
<path transform="matrix(1.00006,0,0,-1.00005,1.4940109,101.41426)" stroke-width="1.19553" stroke-linecap="butt" stroke-miterlimit="10" stroke-linejoin="miter" fill="none" stroke="#000000" d="M212.60106 0H254.16487"/>
<path transform="matrix(1.00006,0,0,-1.00005,255.67414,101.41426)" stroke-width=".9564" stroke-linecap="round" stroke-linejoin="round" fill="none" stroke="#000000" d="M-1.91284 2.55046C-1.75343 1.59402 0 .15938 .4782 0 0-.15938-1.75343-1.59402-1.91284-2.55046"/>
<use data-text="r" xlink:href="#font_5_96" transform="matrix(9.963197,0,0,-9.963098,240.50334,97.89409)"/>
</svg>
