<svg xmlns="http://www.w3.org/2000/svg" xmlns:xlink="http://www.w3.org/1999/xlink" xmlns:inkscape="http://www.inkscape.org/namespaces/inkscape" version="1.1" width="396" height="323" viewBox="0 0 396 323">
<defs>
<path id="font_1_116" d="M.47399903 .021987915C.47399903 .02999878 .46998597 .033996583 .46299745 .042999269L.30099488 .23699951 .44599916 .4149933C.45599366 .42700196 .45599366 .43099977 .45599366 .43600465 .45599366 .4580078 .43598939 .4580078 .42099 .4580078H.37799073C.3600006 .4580078 .34799195 .4580078 .33399964 .44299317 .32899476 .43800355 .2639923 .35099793 .24699402 .32800294L.16099549 .43600465C.14399719 .45700074 .1329956 .4580078 .10998535 .4580078H.06599426C.052993776 .4580078 .0309906 .4580078 .0309906 .43600465 .0309906 .42900086 .033996583 .42500306 .040985109 .4169922L.19198609 .23699951 .033996583 .041992189C.027999878 .034988405 .023986817 .02999878 .023986817 .021987915 .023986817 0 .04598999 0 .05999756 0H.102996829C.13598633 0 .13798523 .0029907227 .1599884 .035995485L.24598694 .16400147 .34799195 .019989014C.3619995 0 .37399293 0 .394989 0H.43899537C.45298768 0 .47399903 0 .47399903 .021987915Z"/>
<path id="font_1_64" d="M.30499269 .2286377C.30499269 .26464845 .2689972 .26464845 .25698854 .26464845H.05999756C.04798889 .26464845 .011993408 .26464845 .011993408 .2286377 .011993408 .19264221 .04798889 .19264221 .05999756 .19264221H.25698854C.2689972 .19264221 .30499269 .19264221 .30499269 .2286377Z"/>
<path id="font_1_28" d="M.47399903 .04824829V.31578065C.47399903 .4736023 .32199098 .47460938 .27198792 .47460938 .22499085 .47460938 .1749878 .4705963 .10798645 .44259645 .08699036 .433609 .08198547 .43060304 .08198547 .41960145 .08198547 .41259767 .08799744 .3547058 .08898926 .34672547 .08999634 .34072877 .09498596 .33573915 .101989749 .33573915 .10699463 .33573915 .10998535 .33872987 .11299133 .34172059 .1559906 .38664247 .20599365 .40859986 .2679901 .40859986 .32199098 .40859986 .33799745 .3756714 .33799745 .31677247V.2818451C.30299378 .2818451 .040985109 .2798462 .040985109 .13311768 .040985109 .06324768 .09700012-.0107421879 .18499756-.0107421879 .21899414-.0107421879 .2939911-.00074768069 .34098817 .068237308V.04824829C.34098817 .01625061 .34799195 .00024414063 .3889923 .00024414063H.42599488C.46398927 .00024414063 .47399903 .013244629 .47399903 .04824829M.33799745 .15408325C.33799745 .06124878 .24299622 .06124878 .23999024 .06124878 .19799805 .06124878 .17098999 .09718323 .17098999 .13511658 .17098999 .23292542 .30999757 .23991394 .33799745 .24092102V.15408325Z"/>
<path id="font_1_66" d="M.19400025 .04798889V.41000367C.19400025 .44200135 .18699646 .4580078 .1459961 .4580078H.10899353C.07299805 .4580078 .06098938 .44700624 .06098938 .41000367V.04798889C.06098938 .011993408 .07199097 0 .10899353 0H.1459961C.18399048 0 .19400025 .0129852299 .19400025 .04798889M.20098877 .6058502V.6248474C.20098877 .6568451 .19400025 .67285159 .15299988 .67285159H.101989749C.06399536 .67285159 .053985597 .6598511 .053985597 .6248474V.6058502C.053985597 .57684329 .05899048 .55784609 .101989749 .55784609H.15299988C.19499207 .55784609 .20098877 .5758362 .20098877 .6058502Z"/>
<path id="font_1_98" d="M.3959961 .14111328C.3959961 .19700623 .3659973 .2319336 .34799195 .24790955 .30799867 .28382875 .272995 .28982545 .23098755 .2978058 .17599488 .30778504 .13598633 .31576539 .13598633 .35469056 .13598633 .39561463 .16899109 .40359498 .20799256 .40359498 .2749939 .40359498 .31098939 .37864686 .33699037 .35668946 .34700013 .3467102 .34899903 .3467102 .35299684 .3467102 .36299134 .3467102 .36499024 .35569764 .3659973 .35968019 .36799623 .36767579 .37799073 .42359925 .37799073 .42860414 .37799073 .44459535 .32499696 .4586029 .31399537 .4626007 .27398683 .4736023 .24198914 .47460938 .21598816 .47460938 .17098999 .47460938 .036987306 .47460938 .036987306 .33174134 .036987306 .2828369 .05899048 .25289918 .085998538 .22894287 .12098694 .19700623 .1599884 .1900177 .21699524 .17903137 .24598694 .17404175 .29699708 .16506958 .29699708 .12113953 .29699708 .07423401 .2579956 .06724548 .21899414 .06724548 .1749878 .06724548 .11898804 .08023071 .07199097 .13612366 .066986087 .14111328 .06399536 .144104 .057998659 .144104 .04798889 .144104 .04598999 .13511658 .04499817 .12913513 .042999269 .11515808 .0309906 .058242799 .0309906 .04824829 .0309906 .03024292 .10598755 .0062561037 .10598755 .0062561037 .16099549-.0107421879 .20199585-.0107421879 .21899414-.0107421879 .269989-.0107421879 .3959961-.0067443849 .3959961 .14111328Z"/>
<path id="font_1_118" d="M.47299195 .43099977C.47299195 .4580078 .44599916 .4580078 .43299867 .4580078H.41099549C.394989 .4580078 .37298585 .4580078 .35798646 .43499757 .35499574 .42999269 .27398683 .20896912 .2689972 .14195252H.2679901C.2630005 .19096375 .22200012 .28398133 .1789856 .37998963 .15098572 .44299317 .14399719 .4580078 .09399414 .4580078H.067993167C.053985597 .4580078 .0289917 .4580078 .0289917 .43199159 .0289917 .42799378 .03199768 .42099 .033996583 .41600038L.22299195-.000061035159C.21499634-.021072388 .21199036-.032073976 .20899964-.04206848 .19699097-.07507324 .17999268-.12008667 .12599182-.12008667 .09298706-.12008667 .069992069-.1060791 .05899048-.09907532 .053985597-.096084598 .051986696-.095077518 .04899597-.095077518 .04399109-.095077518 .035995485-.098083499 .035995485-.110076908 .035995485-.11808777 .041992189-.18708802 .04499817-.19108582 .053985597-.20307923 .10798645-.20507813 .12399292-.20507813 .24798584-.20507813 .29699708-.08708191 .30499269-.063079837L.46798707 .41099549C.47299195 .42399598 .47299195 .42599488 .47299195 .43099977Z"/>
<path id="font_2_121" d="M.45700074 .32554627C.45700074 .4045868 .45298768 .49765016 .41099549 .57870486 .36999513 .6537323 .30099488 .6777344 .25 .6777344 .19099427 .6777344 .12098694 .6507263 .07998657 .5616913 .04699707 .48864747 .041992189 .40559388 .041992189 .32554627 .041992189 .24649048 .04598999 .17344666 .07598877 .10043335 .115997318 .0045318605 .19198609-.022460938 .24899292-.022460938 .32199098-.022460938 .3849945 .01852417 .4169922 .08743286 .44699098 .1524353 .45700074 .21847534 .45700074 .32554627M.3789978 .33755494C.3789978 .27149964 .3789978 .20846558 .36099244 .14543152 .33499146 .054504396 .28199769 .038528444 .25 .038528444 .19799805 .038528444 .15699768 .07644653 .13699341 .1484375 .12098694 .20599365 .11999512 .2599945 .11999512 .33799745 .11999512 .40072633 .11999512 .46072389 .13699341 .5157318 .14299011 .534729 .16799927 .61672976 .24899292 .61672976 .32699586 .61672976 .35299684 .5407257 .3600006 .52272036 .3789978 .46672059 .3789978 .39971925 .3789978 .33772279V.33755494Z"/>
<path id="font_2_82" d="M.42399598 0V.057998659H.29899598V.6777344H.2789917C.21998596 .6166992 .13699341 .6137085 .08898926 .6117096V.55371096C.12199402 .55470278 .16999817 .55670168 .21998596 .57769778V.057998659H.09498596V0H.42399598Z"/>
<path id="font_2_107" d="M.44898988 0V.070999149H.2669983C.25498963 .070999149 .24299622 .069992069 .23098755 .069992069H.12199402C.1539917 .09794617 .22999573 .17280579 .26098634 .20178223 .27999879 .2197876 .33099366 .2617798 .34999085 .27978517 .394989 .32476808 .44898988 .37776185 .44898988 .4627533 .44898988 .5777283 .36799623 .6777344 .23599243 .6777344 .12199402 .6777344 .06599426 .59973147 .041992189 .51374819 .053985597 .49674989 .05899048 .49075318 .06098938 .4877472 .06298828 .4857483 .07299805 .4727478 .08299255 .4587555 .102996829 .5357361 .1309967 .61372378 .22200012 .61372378 .31599427 .61372378 .36698915 .53874209 .36698915 .4607544 .36698915 .37576295 .30999757 .31877137 .25099183 .25878907L.17399597 .18777466 .049987794 .06399536V0H.44898988Z"/>
<path id="font_2_106" d="M.45700074 .17964173C.45700074 .27072145 .3869934 .33276368 .31900025 .35375978 .394989 .39476014 .42999269 .4627533 .42999269 .5257416 .42999269 .61172488 .34700013 .6777344 .24798584 .6777344 .17098999 .6777344 .09799194 .63772585 .055999757 .56773379L.09199524 .51374819C.12098694 .583725 .18598938 .61972048 .24699402 .61972048 .29899598 .61972048 .34799195 .58973696 .34799195 .5257416 .34799195 .4647522 .30699159 .40576173 .24598694 .39175416 .23999024 .39076234 .23799134 .39076234 .16699219 .38476563V.323761H.23799134C.34599305 .323761 .36799623 .23068238 .36799623 .1806488 .36799623 .10258484 .32199098 .038528444 .24499512 .038528444 .17599488 .038528444 .09700012 .07356262 .052993776 .14161682L.041992189 .08155823C.114990238-.012466431 .20698548-.022460938 .24699402-.022460938 .36898805-.022460938 .45700074 .07455444 .45700074 .17964173Z"/>
<path id="font_2_57" d="M.47099305 .17089844V.23188782H.37199403V.65625H.2809906L.027999878 .23188782V.17089844H.29299928V0H.37199403V.17089844H.47099305M.29899598 .23188782H.10598755C.1579895 .31796266 .2979889 .5551605 .29899598 .6121979V.23188782Z"/>
<path id="font_2_56" d="M.44898988 .2028656C.44898988 .328125 .36299134 .42720033 .2599945 .42720033 .21998596 .42720033 .18199158 .41220094 .15299988 .38619996V.5922394H.41600038V.65625H.08099365V.28704835H.14698792C.1639862 .32711793 .20098877 .36621095 .25898744 .36621095 .30599977 .36621095 .3600006 .32511903 .3600006 .20487976 .3600006 .038528444 .23799134 .038528444 .22898865 .038528444 .1619873 .038528444 .100997928 .0776062 .07199097 .13172913L.038986207 .0756073C.07998657 .01852417 .14898682-.022460938 .22999573-.022460938 .34899903-.022460938 .44898988 .07661438 .44898988 .2028656Z"/>
<path id="font_1_52" d="M.7939911 .36521913C.7939911 .40722657 .7509918 .40722657 .7409973 .40722657H.11399841C.10398865 .40722657 .06098938 .40722657 .06098938 .36521913 .06098938 .32321168 .10398865 .32321168 .114990238 .32321168H.73999026C.7519989 .32321168 .7939911 .32321168 .7939911 .36521913M.7939911 .13476563C.7939911 .17677307 .7509918 .17677307 .73999026 .17677307H.114990238C.102996829 .17677307 .06098938 .17677307 .06098938 .13476563 .06098938 .09277344 .10398865 .09277344 .11399841 .09277344H.7409973C.7509918 .09277344 .7939911 .09277344 .7939911 .13476563Z"/>
<path id="font_1_107" d="M.49398805 .04798889V.05999756C.49398805 .07598877 .49398805 .09498596 .47299195 .10398865 .46598817 .10798645 .43399049 .10798645 .4139862 .10798645L.34599305 .10699463H.18399048L.31599427 .23199463C.33099366 .24499512 .36898805 .27598573 .38398744 .2899933 .43899537 .34381105 .49398805 .3968048 .49398805 .48580934 .49398805 .6078186 .4059906 .7158203 .25898744 .7158203 .22399903 .7158203 .16699219 .7108154 .11898804 .67181399 .10998535 .6648102 .06399536 .6288147 .04598999 .56181338L.09599304 .497818C.101989749 .48980714 .10499573 .48580934 .11199951 .48580934 .12098694 .48580934 .12298584 .4928131 .12599182 .5048065 .1459961 .57380679 .17999268 .6158142 .24398804 .6158142 .32199098 .6159973 .35398866 .54499819 .35398866 .48399354 .35398866 .41999818 .31599427 .35299684 .2559967 .2889862L.06498718 .084991458C.054992677 .07499695 .054992677 .07299805 .054992677 .055999757V.04798889C.054992677 .011993408 .06599426 0 .102996829 0H.44599916C.48399354 0 .49398805 .0129852299 .49398805 .04798889Z"/>
<path id="font_1_89" d="M.7939911 .25C.7939911 .29200746 .7509918 .29200746 .7409973 .29200746H.46998597V.56414797C.46998597 .5741577 .46998597 .6171875 .42799378 .6171875 .38598634 .6171875 .38598634 .5741577 .38598634 .56414797V.29200746H.11399841C.10398865 .29200746 .06098938 .29200746 .06098938 .25 .06098938 .20800781 .10398865 .20800781 .11399841 .20800781H.38598634V-.06416321C.38598634-.07417297 .38598634-.1171875 .42799378-.1171875 .46998597-.1171875 .46998597-.07417297 .46998597-.06416321V.20800781H.7409973C.7509918 .20800781 .7939911 .20800781 .7939911 .25Z"/>
<path id="font_1_56" d="M.49398805 .220932C.49398805 .35313417 .43899537 .45117188 .28599549 .45117188 .26098634 .45117188 .23699951 .4471588 .21299744 .4381714V.59432986H.40899659C.45599366 .59432986 .45700074 .6173248 .45700074 .6443329 .45700074 .67033389 .45700074 .69433596 .40899659 .69433596H.1309967C.09899902 .69433596 .08299255 .688324 .08299255 .6483307V.3421173C.08299255 .29704286 .10598755 .29605104 .1329956 .29605104 .15899658 .29605104 .16799927 .29605104 .18199158 .32008363 .20599365 .35913087 .23999024 .37916566 .28199769 .37916566 .34700013 .37916566 .34700013 .3030548 .34700013 .22494507 .34700013 .14787293 .34700013 .0718689 .24198914 .0718689 .21099854 .0718689 .14299011 .08087158 .102996829 .15986634 .099990848 .16586304 .09700012 .171875 .08999634 .171875 .08198547 .171875 .07998657 .16687012 .07398987 .15887451 .05999756 .13586426 .036987306 .100860599 .036987306 .09387207 .036987306 .08552551 .101989749-.022460938 .24499512-.022460938 .4059906-.022460938 .49398805 .058532716 .49398805 .22053528V.220932Z"/>
<path id="font_2_85" d="M.33198548-.25C.28399659-.20201111 .15699768-.073013309 .15699768 .25 .15699768 .30599977 .1599884 .4229889 .20098877 .54100039 .24198914 .6569977 .29899598 .71699526 .33198548 .75H.2709961C.23899842 .7200012 .17199707 .6589966 .12599182 .5359955 .085998538 .42900086 .07899475 .32299806 .07899475 .25 .07899475-.073013309 .22299195-.20600891 .2709961-.25H.33198548Z"/>
<path id="font_2_45" d="M.17999268 .0009918213V.08299255H.09700012V0H.12199402L.09700012-.125H.13798523L.17999268 .0009918213Z"/>
<path id="font_2_86" d="M.30899049 .25C.30899049 .57299807 .16499329 .70599368 .116989139 .75H.055999757C.10398865 .70199587 .23098755 .57299807 .23098755 .25 .23098755 .19400025 .22799683 .07699585 .18699646-.041000368 .1459961-.15701294 .08898926-.2170105 .055999757-.25H.116989139C.14898682-.22000122 .21598816-.15901184 .2619934-.036010744 .3019867 .070999149 .30899049 .1769867 .30899049 .25Z"/>
<path id="font_2_78" d="M.45700074 .33436585C.45700074 .6147156 .33799745 .6777344 .25299073 .6777344 .18299866 .6777344 .14199829 .64772036 .10699463 .6107178 .04399109 .54263308 .041992189 .47654725 .041992189 .43348695 .041992189 .3053589 .10798645 .19335938 .20399475 .19335938 .2659912 .19335938 .32998658 .22235108 .37298585 .2763672 .3619995 .115448 .2849884 .038528444 .20599365 .038528444 .17199707 .038528444 .13899231 .046524049 .102996829 .07649231L.07199097 .023529053C.10598755-.0014648438 .14299011-.022460938 .20498657-.022460938 .33599855-.022460938 .45700074 .11643982 .45700074 .33436585M.37098695 .41046144C.37098695 .32835389 .32199098 .25434876 .24299622 .25434876 .19599915 .25434876 .16799927 .277359 .14698792 .31436158 .125 .3533783 .12399292 .39042665 .12399292 .43348695 .12399292 .47753907 .125 .51860049 .15299988 .5626526 .17298889 .59169009 .20098877 .61972048 .25299073 .61972048 .35099793 .61972048 .36799623 .48355104 .36999513 .43449403 .37098695 .42747499 .37098695 .4174652 .37098695 .41046144Z"/>
</defs>
<path transform="matrix(1.00006,0,0,-1.00008,25.039666,296.8738)" stroke-width=".79701" stroke-linecap="butt" stroke-miterlimit="10" stroke-linejoin="miter" fill="none" stroke="#000000" d="M0 0H339.45445"/>
<path transform="matrix(1.00006,0,0,-1.00008,364.51448,296.8738)" stroke-width=".6376" stroke-linecap="round" stroke-linejoin="round" fill="none" stroke="#000000" d="M-1.55415 2.0722C-1.42464 1.29512 0 .1295 .38852 0 0-.1295-1.42464-1.29512-1.55415-2.0722"/>
<use data-text="x" xlink:href="#font_1_116" transform="matrix(9.963197,0,0,-9.963397,368.94129,300.17207)"/>
<use data-text="-" xlink:href="#font_1_64" transform="matrix(9.963197,0,0,-9.963397,373.9229,300.17207)"/>
<use data-text="a" xlink:href="#font_1_28" transform="matrix(9.963197,0,0,-9.963397,377.5794,300.17207)"/>
<use data-text="x" xlink:href="#font_1_116" transform="matrix(9.963197,0,0,-9.963397,382.81007,300.17207)"/>
<use data-text="i" xlink:href="#font_1_66" transform="matrix(9.963197,0,0,-9.963397,387.79167,300.17207)"/>
<use data-text="s" xlink:href="#font_1_98" transform="matrix(9.963197,0,0,-9.963397,390.34223,300.17207)"/>
<path transform="matrix(1.00006,0,0,-1.00008,25.039666,296.8738)" stroke-width=".79701" stroke-linecap="butt" stroke-miterlimit="10" stroke-linejoin="miter" fill="none" stroke="#000000" d="M0 0V282.76057"/>
<path transform="matrix(0,-1.00008,-1.00006,-0,25.039666,14.090637)" stroke-width=".6376" stroke-linecap="round" stroke-linejoin="round" fill="none" stroke="#000000" d="M-1.55415 2.0722C-1.42464 1.29512 0 .1295 .38852 0 0-.1295-1.42464-1.29512-1.55415-2.0722"/>
<use data-text="y" xlink:href="#font_1_118" transform="matrix(9.963197,0,0,-9.963397,12.2369,7.6216738)"/>
<use data-text="-" xlink:href="#font_1_64" transform="matrix(9.963197,0,0,-9.963397,17.218499,7.6216738)"/>
<use data-text="a" xlink:href="#font_1_28" transform="matrix(9.963197,0,0,-9.963397,20.874993,7.6216738)"/>
<use data-text="x" xlink:href="#font_1_116" transform="matrix(9.963197,0,0,-9.963397,26.105668,7.6216738)"/>
<use data-text="i" xlink:href="#font_1_66" transform="matrix(9.963197,0,0,-9.963397,31.087258,7.6216738)"/>
<use data-text="s" xlink:href="#font_1_98" transform="matrix(9.963197,0,0,-9.963397,33.63784,7.6216738)"/>
<path transform="matrix(1.00006,0,0,-1.00008,25.039666,296.8738)" stroke-width=".19925" stroke-linecap="butt" stroke-dasharray="2.98883,2.98883" stroke-miterlimit="10" stroke-linejoin="miter" fill="none" stroke="#7f807f" d="M0 0H340.1618M0 70.86697H340.1618M0 141.73397H340.1618M0 212.60095H340.1618M0 283.45799H340.1618M0 0V283.46794M56.69363 0V283.46794M113.38727 0V283.46794M170.0809 0V283.46794M226.77454 0V283.46794M283.46818 0V283.46794M340.15184 0V283.46794M340.1618 283.46794"/>
<path transform="matrix(1.00006,0,0,-1.00008,25.039666,296.8738)" stroke-width=".3985" stroke-linecap="butt" stroke-miterlimit="10" stroke-linejoin="miter" fill="none" stroke="#000000" d="M0 0V-14.17339"/>
<use data-text="0" xlink:href="#font_2_121" transform="matrix(9.963197,0,0,-9.963397,22.548516,321.32377)"/>
<path transform="matrix(1.00006,0,0,-1.00008,25.039666,296.8738)" stroke-width=".3985" stroke-linecap="butt" stroke-miterlimit="10" stroke-linejoin="miter" fill="none" stroke="#000000" d="M56.69363 0V-14.17339"/>
<use data-text="1" xlink:href="#font_2_82" transform="matrix(9.963197,0,0,-9.963397,79.24591,321.32377)"/>
<path transform="matrix(1.00006,0,0,-1.00008,25.039666,296.8738)" stroke-width=".3985" stroke-linecap="butt" stroke-miterlimit="10" stroke-linejoin="miter" fill="none" stroke="#000000" d="M113.38727 0V-14.17339"/>
<use data-text="2" xlink:href="#font_2_107" transform="matrix(9.963197,0,0,-9.963397,135.94333,321.32377)"/>
<path transform="matrix(1.00006,0,0,-1.00008,25.039666,296.8738)" stroke-width=".3985" stroke-linecap="butt" stroke-miterlimit="10" stroke-linejoin="miter" fill="none" stroke="#000000" d="M170.0809 0V-14.17339"/>
<use data-text="3" xlink:href="#font_2_106" transform="matrix(9.963197,0,0,-9.963397,192.63971,321.32377)"/>
<path transform="matrix(1.00006,0,0,-1.00008,25.039666,296.8738)" stroke-width=".3985" stroke-linecap="butt" stroke-miterlimit="10" stroke-linejoin="miter" fill="none" stroke="#000000" d="M226.77454 0V-14.17339"/>
<use data-text="4" xlink:href="#font_2_57" transform="matrix(9.963197,0,0,-9.963397,249.33712,321.10475)"/>
<path transform="matrix(1.00006,0,0,-1.00008,25.039666,296.8738)" stroke-width=".3985" stroke-linecap="butt" stroke-miterlimit="10" stroke-linejoin="miter" fill="none" stroke="#000000" d="M283.46818 0V-14.17339"/>
<use data-text="5" xlink:href="#font_2_56" transform="matrix(9.963197,0,0,-9.963397,306.0335,321.10475)"/>
<path transform="matrix(1.00006,0,0,-1.00008,25.039666,296.8738)" stroke-width=".3985" stroke-linecap="butt" stroke-miterlimit="10" stroke-linejoin="miter" fill="none" stroke="#000000" d="M0 0H-11.33855"/>
<use data-text="0" xlink:href="#font_2_121" transform="matrix(9.963197,0,0,-9.963397,5.198471,300.14207)"/>
<path transform="matrix(1.00006,0,0,-1.00008,25.039666,296.8738)" stroke-width=".3985" stroke-linecap="butt" stroke-miterlimit="10" stroke-linejoin="miter" fill="none" stroke="#000000" d="M0 70.86697H-11.33855"/>
<use data-text="5" xlink:href="#font_2_56" transform="matrix(9.963197,0,0,-9.963397,5.198471,229.1594)"/>
<path transform="matrix(1.00006,0,0,-1.00008,25.039666,296.8738)" stroke-width=".3985" stroke-linecap="butt" stroke-miterlimit="10" stroke-linejoin="miter" fill="none" stroke="#000000" d="M0 141.73397H-11.33855"/>
<use data-text="1" xlink:href="#font_2_82" transform="matrix(9.963197,0,0,-9.963397,.21717835,158.39673)"/>
<use data-text="0" xlink:href="#font_2_121" transform="matrix(9.963197,0,0,-9.963397,5.1987764,158.39673)"/>
<path transform="matrix(1.00006,0,0,-1.00008,25.039666,296.8738)" stroke-width=".3985" stroke-linecap="butt" stroke-miterlimit="10" stroke-linejoin="miter" fill="none" stroke="#000000" d="M0 212.60095H-11.33855"/>
<use data-text="1" xlink:href="#font_2_82" transform="matrix(9.963197,0,0,-9.963397,.21717835,87.52408)"/>
<use data-text="5" xlink:href="#font_2_56" transform="matrix(9.963197,0,0,-9.963397,5.1987764,87.52408)"/>
<path transform="matrix(1.00006,0,0,-1.00008,25.039666,296.8738)" stroke-width="1.19553" stroke-linecap="butt" stroke-miterlimit="10" stroke-linejoin="miter" fill="none" stroke="#0000ff" d="M0 70.86697 11.81087 76.77242 23.62175 82.67786 35.43265 88.58328 47.24353 94.48872 59.05441 100.39417 70.8653 106.29959 82.67618 112.20503 94.48706 118.11047 106.29796 124.01591 118.10884 129.92134 129.91974 135.8268 141.7306 141.73224 153.54149 147.63767 165.35239 153.5431 177.16327 159.44855 188.97415 165.35398 200.78504 171.25942 212.59592 177.16486 224.40682 183.07028 236.2177 188.97573 248.02858 194.88118 259.83949 200.7866 271.65034 206.69205 283.46125 212.59749"/>
<use data-text="y" xlink:href="#font_1_118" transform="matrix(9.963197,0,0,-9.963397,312.4369,78.298328)" fill="#0000ff"/>
<use data-text="=" xlink:href="#font_1_52" transform="matrix(9.963197,0,0,-9.963397,321.06504,78.298328)" fill="#0000ff"/>
<use data-text="2" xlink:href="#font_1_107" transform="matrix(9.963197,0,0,-9.963397,333.25004,78.298328)" fill="#0000ff"/>
<use data-text="x" xlink:href="#font_1_116" transform="matrix(9.963197,0,0,-9.963397,338.7298,78.298328)" fill="#0000ff"/>
<use data-text="+" xlink:href="#font_1_89" transform="matrix(9.963197,0,0,-9.963397,347.3679,78.298328)" fill="#0000ff"/>
<use data-text="5" xlink:href="#font_1_56" transform="matrix(9.963197,0,0,-9.963397,359.55287,78.298328)" fill="#0000ff"/>
<path transform="matrix(1.00006,0,0,-1.00008,25.039666,296.8738)" d="M1.99255 70.86697C1.99255 71.96745 1.10046 72.85953 0 72.85953-1.10046 72.85953-1.99255 71.96745-1.99255 70.86697-1.99255 69.76651-1.10046 68.87442 0 68.87442 1.10046 68.87442 1.99255 69.76651 1.99255 70.86697ZM0 70.86697" fill="#ff0000"/>
<path transform="matrix(1.00006,0,0,-1.00008,25.039666,296.8738)" stroke-width=".3985" stroke-linecap="butt" stroke-miterlimit="10" stroke-linejoin="miter" fill="none" stroke="#ff0000" d="M1.99255 70.86697C1.99255 71.96745 1.10046 72.85953 0 72.85953-1.10046 72.85953-1.99255 71.96745-1.99255 70.86697-1.99255 69.76651-1.10046 68.87442 0 68.87442 1.10046 68.87442 1.99255 69.76651 1.99255 70.86697ZM0 70.86697"/>
<use data-text="(" xlink:href="#font_2_85" transform="matrix(9.963197,0,0,-9.963397,28.559876,236.99402)" fill="#ff0000"/>
<use data-text="0" xlink:href="#font_2_121" transform="matrix(9.963197,0,0,-9.963397,32.435556,236.99402)" fill="#ff0000"/>
<use data-text="," xlink:href="#font_2_45" transform="matrix(9.963197,0,0,-9.963397,37.417154,236.99402)" fill="#ff0000"/>
<use data-text="5" xlink:href="#font_2_56" transform="matrix(9.963197,0,0,-9.963397,40.18692,236.99402)" fill="#ff0000"/>
<use data-text=")" xlink:href="#font_2_86" transform="matrix(9.963197,0,0,-9.963397,45.168519,236.99402)" fill="#ff0000"/>
<path transform="matrix(1.00006,0,0,-1.00008,25.039666,296.8738)" d="M115.37982 127.56056C115.37982 128.66104 114.48773 129.55312 113.38727 129.55312 112.28679 129.55312 111.39471 128.66104 111.39471 127.56056 111.39471 126.4601 112.28679 125.56801 113.38727 125.56801 114.48773 125.56801 115.37982 126.4601 115.37982 127.56056ZM113.38727 127.56056" fill="#ff0000"/>
<path transform="matrix(1.00006,0,0,-1.00008,25.039666,296.8738)" stroke-width=".3985" stroke-linecap="butt" stroke-miterlimit="10" stroke-linejoin="miter" fill="none" stroke="#ff0000" d="M115.37982 127.56056C115.37982 128.66104 114.48773 129.55312 113.38727 129.55312 112.28679 129.55312 111.39471 128.66104 111.39471 127.56056 111.39471 126.4601 112.28679 125.56801 113.38727 125.56801 114.48773 125.56801 115.37982 126.4601 115.37982 127.56056ZM113.38727 127.56056"/>
<use data-text="(" xlink:href="#font_2_85" transform="matrix(9.963197,0,0,-9.963397,141.95368,180.29549)" fill="#ff0000"/>
<use data-text="2" xlink:href="#font_2_107" transform="matrix(9.963197,0,0,-9.963397,145.82935,180.29549)" fill="#ff0000"/>
<use data-text="," xlink:href="#font_2_45" transform="matrix(9.963197,0,0,-9.963397,150.81095,180.29549)" fill="#ff0000"/>
<use data-text="9" xlink:href="#font_2_78" transform="matrix(9.963197,0,0,-9.963397,153.58072,180.29549)" fill="#ff0000"/>
<use data-text=")" xlink:href="#font_2_86" transform="matrix(9.963197,0,0,-9.963397,158.56232,180.29549)" fill="#ff0000"/>
<path transform="matrix(1.00006,0,0,-1.00008,25.039666,296.8738)" d="M228.76709 184.25415C228.76709 185.35463 227.875 186.2467 226.77454 186.2467 225.67406 186.2467 224.78199 185.35463 224.78199 184.25415 224.78199 183.15369 225.67406 182.2616 226.77454 182.2616 227.875 182.2616 228.76709 183.15369 228.76709 184.25415ZM226.77454 184.25415" fill="#ff0000"/>
<path transform="matrix(1.00006,0,0,-1.00008,25.039666,296.8738)" stroke-width=".3985" stroke-linecap="butt" stroke-miterlimit="10" stroke-linejoin="miter" fill="none" stroke="#ff0000" d="M228.76709 184.25415C228.76709 185.35463 227.875 186.2467 226.77454 186.2467 225.67406 186.2467 224.78199 185.35463 224.78199 184.25415 224.78199 183.15369 225.67406 182.2616 226.77454 182.2616 227.875 182.2616 228.76709 183.15369 228.76709 184.25415ZM226.77454 184.25415"/>
<use data-text="(" xlink:href="#font_2_85" transform="matrix(9.963197,0,0,-9.963397,255.34749,123.59796)" fill="#ff0000"/>
<use data-text="4" xlink:href="#font_2_57" transform="matrix(9.963197,0,0,-9.963397,259.22319,123.59796)" fill="#ff0000"/>
<use data-text="," xlink:href="#font_2_45" transform="matrix(9.963197,0,0,-9.963397,264.20478,123.59796)" fill="#ff0000"/>
<use data-text="1" xlink:href="#font_2_82" transform="matrix(9.963197,0,0,-9.963397,266.97456,123.59796)" fill="#ff0000"/>
<use data-text="3" xlink:href="#font_2_106" transform="matrix(9.963197,0,0,-9.963397,271.95613,123.59796)" fill="#ff0000"/>
<use data-text=")" xlink:href="#font_2_86" transform="matrix(9.963197,0,0,-9.963397,276.93775,123.59796)" fill="#ff0000"/>
</svg>
