<svg xmlns="http://www.w3.org/2000/svg" xmlns:xlink="http://www.w3.org/1999/xlink" xmlns:inkscape="http://www.inkscape.org/namespaces/inkscape" version="1.1" width="399" height="372" viewBox="0 0 399 372">
<defs>
<path id="font_1_78" d="M.41999818 .33032228C.41999818 .60417178 .30799867 .6611328 .23199463 .6611328 .1329956 .6611328 .037994386 .57421877 .037994386 .4404297 .037994386 .3163147 .11898804 .2242279 .22099304 .2242279 .30499269 .2242279 .34199525 .30229188 .35198976 .33532716V.29629518C.35198976 .07608032 .26098634 .008361816 .18598938 .008361816 .16299439 .008361816 .10699463 .011352539 .083999637 .050079347 .10998535 .046081544 .1289978 .06008911 .1289978 .08508301 .1289978 .112091068 .10699463 .12109375 .09298706 .12109375 .083999637 .121292117 .056991579 .11729431 .056991579 .08331299 .056991579 .015365601 .115997318-.015625 .18798828-.015625 .30299378-.015625 .41999818 .110305789 .41999818 .3302307V.33032228M.34999085 .41722108C.34999085 .34622193 .31799317 .24023438 .22299195 .24023438 .19599915 .24023438 .1579895 .245224 .1269989 .30522157 .10598755 .3444214 .10598755 .39042665 .10598755 .4394226 .10598755 .4983368 .10598755 .5392761 .13398743 .5832062 .147995 .60417178 .17399597 .63812258 .23199463 .63812258 .34999085 .63812258 .34999085 .45739747 .34999085 .41741944V.41722108Z"/>
<path id="font_1_75" d="M.74398806 0V.025985718C.6799927 .025985718 .6759949 .02999878 .6759949 .06904602V.3043213C.6759949 .35438539 .6669922 .43847657 .5479889 .43847657 .47999574 .43847657 .43299867 .3924408 .4149933 .33836366H.4139862C.4019928 .4204712 .34298707 .43847657 .2869873 .43847657 .20799256 .43847657 .16699219 .3774109 .1519928 .33737184H.15098572V.43847657L.032989503 .4273529V.4013672C.09199524 .4013672 .100997928 .39535523 .100997928 .3473053V.06903076C.100997928 .0309906 .09700012 .025985718 .032989503 .025985718V0C.056991579 .0019989014 .100997928 .0019989014 .1269989 .0019989014 .15299988 .0019989014 .19799805 .0019989014 .22200012 0V.025985718C.1579895 .025985718 .1539917 .02999878 .1539917 .06903076V.26123048C.1539917 .35339356 .20999146 .4224701 .27999879 .4224701 .35398866 .4224701 .3619995 .35638429 .3619995 .30833436V.06904602C.3619995 .03100586 .35798646 .025985718 .2939911 .025985718V0C.31799317 .0019989014 .3619995 .0019989014 .3880005 .0019989014 .4139862 .0019989014 .45899964 .0019989014 .48298646 0V.025985718C.4189911 .025985718 .4149933 .02999878 .4149933 .06904602V.26127626C.4149933 .35339356 .47099305 .4224701 .54100039 .4224701 .61499026 .4224701 .6230011 .35638429 .6230011 .30833436V.06904602C.6230011 .03100586 .61898806 .025985718 .5549927 .025985718V0C.57899478 .0019989014 .6230011 .0019989014 .6489868 .0019989014 .6749878 .0019989014 .7200012 .0019989014 .74398806 0Z"/>
<path id="font_1_51" d="M.4249878 .16331482C.4249878 .25427247 .3639984 .2962494 .32398988 .3232422 .30999757 .3332367 .3019867 .33824159 .27198792 .3602295 .33499146 .3922119 .39898683 .4402008 .39898683 .51716616 .39898683 .60813906 .31098939 .6611328 .22999573 .6611328 .13899231 .6611328 .05899048 .59513857 .05899048 .5041809 .05899048 .479187 .06498718 .436203 .10398865 .39822389 .11399841 .3882141 .1559906 .3582306 .18299866 .3392334 .13798523 .31625367 .032989503 .26127626 .032989503 .15130615 .032989503 .048355104 .1309967-.015625 .22799683-.015625 .33499146-.015625 .4249878 .061340333 .4249878 .16331482M.36499024 .51716616C.36499024 .4242096 .26098634 .37123109 .2559967 .37123109 .2559967 .37123109 .2539978 .37123109 .24598694 .37722779L.14099121 .4481964C.1329956 .4532013 .09298706 .48417665 .09298706 .53115847 .09298706 .5921478 .1559906 .63812258 .22799683 .63812258 .30699159 .63812258 .36499024 .5821533 .36499024 .51716616M.3880005 .13832093C.3880005 .06434631 .31399537 .008361816 .22999573 .008361816 .13899231 .008361816 .069992069 .073349 .069992069 .15231323 .069992069 .23127747 .1309967 .29725648 .19999695 .32824708L.32499696 .24327088C.33999635 .23228455 .3880005 .19929505 .3880005 .13832093Z"/>
<path id="font_2_65" d="M.3869934 0V.042999269H.2749939V.64253237H.3869934V.6855469C.35099793 .6835327 .25099183 .6835327 .20899964 .6835327 .16699219 .6835327 .066986087 .6835327 .0309906 .6855469V.64253237H.14299011V.042999269H.0309906V0C.066986087 .0019989014 .16699219 .0019989014 .20899964 .0019989014 .25099183 .0019989014 .35099793 .0019989014 .3869934 0Z"/>
<path id="font_2_43" d="M.46798707 .117126468C.46798707 .12913513 .45700074 .12913513 .44699098 .12913513 .43099977 .12913513 .42999269 .12812805 .4249878 .11613464 .41799928 .09713745 .3909912 .030136109 .29899598 .030136109 .1579895 .030136109 .1579895 .1821289 .1579895 .22712708 .1579895 .28611756 .15899658 .41711427 .2899933 .41711427 .29699708 .41711427 .35598756 .41511537 .35598756 .41011048 .35598756 .41011048 .35499574 .40811158 .35299684 .40711976 .34999085 .40411378 .33699037 .38911439 .33699037 .36412049 .33699037 .32211305 .37098695 .30511476 .3959961 .30511476 .4169922 .30511476 .45498658 .31811524 .45498658 .3651123 .45498658 .44711305 .33999635 .453125 .28599549 .453125 .10798645 .453125 .037994386 .33711244 .037994386 .22212219 .037994386 .086135867 .1329956-.005859375 .27999879-.005859375 .43699647-.005859375 .46798707 .11012268 .46798707 .117126468Z"/>
<path id="font_2_50" d="M.48098756 .11706543C.48098756 .13206482 .46598817 .13206482 .45999146 .13206482 .44400025 .13206482 .44299317 .12905884 .43699647 .11607361 .41099549 .051116945 .34498597 .030136109 .29699708 .030136109 .1519928 .030136109 .15098572 .16503906 .15098572 .22099304H.45199586C.47499085 .22099304 .48098756 .22099304 .48098756 .24598694 .48098756 .27601625 .47399903 .35105897 .42799378 .3981018 .38598634 .4401245 .32998658 .453125 .27198792 .453125 .115997318 .453125 .0309906 .35105897 .0309906 .22499085 .0309906 .08509827 .13398743-.005859375 .2849884-.005859375 .43598939-.005859375 .48098756 .1000824 .48098756 .11706543M.3889923 .25H.15098572C.15299988 .29101563 .1539917 .3300476 .1749878 .3660736 .19400025 .3981018 .22898865 .42012025 .27198792 .42012025 .3789978 .42012025 .3880005 .30003358 .3889923 .25Z"/>
<path id="font_2_96" d="M.4269867 .3711853C.4269867 .42218019 .375 .4501953 .32699586 .4501953 .24798584 .4501953 .21398926 .38119508 .19999695 .33918763H.19898987V.4501953L.034988405 .4423828V.3993683C.09700012 .3993683 .10398865 .3993683 .10398865 .3603363V.042999269H.034988405V0C.057998659 .0019989014 .1329956 .0019989014 .16099549 .0019989014 .18998719 .0019989014 .2709961 .0019989014 .29499818 0V.042999269H.20799256V.22518921C.20799256 .25819398 .21499634 .41719056 .33198548 .41719056 .31799317 .40618897 .31098939 .38919068 .31098939 .3711853 .31098939 .33018495 .34399415 .31318666 .36898805 .31318666 .3939972 .31318666 .4269867 .33018495 .4269867 .3711853Z"/>
<path id="font_2_28" d="M.54100039 .022140503C.54100039 .043136598 .5319977 .043136598 .5179901 .043136598 .45498658 .044128419 .45498658 .060134889 .45498658 .08312988V.29911805C.45498658 .39111329 .38198854 .453125 .24099732 .453125 .18499756 .453125 .066986087 .44812013 .066986087 .36412049 .066986087 .32211305 .09899902 .30412293 .12599182 .30412293 .1559906 .30412293 .18499756 .32511903 .18499756 .3631134 .18499756 .3821106 .17799378 .40011598 .16099549 .41111756 .19400025 .42012025 .21798706 .42012025 .23699951 .42012025 .30499269 .42012025 .34599305 .3821106 .34599305 .30012513V.26011659C.18798828 .26011659 .0289917 .21612549 .0289917 .10513306 .0289917 .014129639 .14498902-.005859375 .21398926-.005859375 .29100038-.005859375 .33999635 .036132814 .3600006 .0801239 .3600006 .042999269 .3600006 0 .46099855 0H.5119934C.5329895 0 .54100039 0 .54100039 .021987915V.022140503M.34599305 .13899231C.34599305 .04499817 .2619934 .026992798 .22999573 .026992798 .18099976 .026992798 .13999939 .05999756 .13999939 .10598755 .13999939 .19699097 .24798584 .22799683 .34599305 .23298645V.13899231Z"/>
<path id="font_2_75" d="M.9129944 0V.042999269H.84399417V.30636598C.84399417 .39823915 .8049927 .4501953 .69299319 .4501953 .59199526 .4501953 .54499819 .38227845 .5289917 .3503723 .5130005 .43518067 .44499208 .4501953 .3809967 .4501953 .2849884 .4501953 .23298645 .38827516 .21199036 .3403778H.21099854V.4501953L.041992189 .4423828V.3993683C.10398865 .3993683 .11099243 .3993683 .11099243 .36035157V.042999269H.041992189V0C.06498718 .0019989014 .13699341 .0019989014 .16499329 .0019989014 .19299317 .0019989014 .2659912 .0019989014 .2889862 0V.042999269H.21998596V.25627137C.21998596 .36532594 .30099488 .41719056 .3639984 .41719056 .40098573 .41719056 .4229889 .3952484 .4229889 .3173828V.042999269H.35398866V0C.3769989 .0019989014 .44898988 .0019989014 .47698976 .0019989014 .5049896 .0019989014 .5779877 .0019989014 .6009979 0V.042999269H.5319977V.25628663C.5319977 .36532594 .61299136 .41719056 .6759949 .41719056 .71299746 .41719056 .7350006 .3952484 .7350006 .3173828V.042999269H.66600039V0C.68899539 .0019989014 .7609863 .0019989014 .78900149 .0019989014 .81700137 .0019989014 .8899994 .0019989014 .9129944 0Z"/>
</defs>
<path transform="matrix(1.00005,0,0,-1.00005,28.055649,343.3703)" d="M0 0H255.12128V226.77448H0Z" fill="#add8e6"/>
<path transform="matrix(1.00005,0,0,-1.00005,28.055649,343.3703)" d="M0 226.77448H255.12128L368.5085 340.1617H113.38724Z" fill="#90ee90"/>
<path transform="matrix(1.00005,0,0,-1.00005,28.055649,343.3703)" d="M255.12128 0 368.5085 113.38724V340.1617L255.12128 226.77448Z" fill="#ffc864"/>
<path transform="matrix(1.00005,0,0,-1.00005,28.055649,343.3703)" stroke-width="1.19553" stroke-linecap="butt" stroke-miterlimit="10" stroke-linejoin="miter" fill="none" stroke="#000000" d="M0 0H255.12128L368.5085 113.38724H113.38724Z"/>
<path transform="matrix(1.00005,0,0,-1.00005,28.055649,343.3703)" stroke-width="1.19553" stroke-linecap="butt" stroke-miterlimit="10" stroke-linejoin="miter" fill="none" stroke="#000000" d="M0 0V226.77448L113.38724 340.1617V113.38724"/>
<path transform="matrix(1.00005,0,0,-1.00005,28.055649,343.3703)" stroke-width="1.19553" stroke-linecap="butt" stroke-miterlimit="10" stroke-linejoin="miter" fill="none" stroke="#000000" d="M255.12128 0V226.77448L368.5085 340.1617V113.38724"/>
<path transform="matrix(1.00005,0,0,-1.00005,28.055649,343.3703)" stroke-width="1.19553" stroke-linecap="butt" stroke-miterlimit="10" stroke-linejoin="miter" fill="none" stroke="#000000" d="M0 226.77448H255.12128L368.5085 340.1617H113.38724Z"/>
<use data-text="9" xlink:href="#font_1_78" transform="matrix(20.663533,0,0,-20.663533,142.90439,369.87763)"/>
<use data-text="m" xlink:href="#font_1_75" transform="matrix(20.663533,0,0,-20.663533,158.60868,369.87763)"/>
<use data-text="8" xlink:href="#font_1_51" transform="matrix(0,-20.663533,-20.663533,-0,14.876007,245.81645)"/>
<use data-text="m" xlink:href="#font_1_75" transform="matrix(0,-20.663533,-20.663533,-0,14.876007,230.11219)"/>
<use data-text="8" xlink:href="#font_1_51" transform="matrix(16.92653,-11.85219,-11.85219,-16.92653,361.63847,299.42808)"/>
<use data-text="m" xlink:href="#font_1_75" transform="matrix(16.92653,-11.85219,-11.85219,-16.92653,374.5026,290.4204)"/>
<use data-text="I" xlink:href="#font_2_65" transform="matrix(0,-20.663533,-20.663533,-0,176.82209,279.2091)" fill="#0000ff"/>
<use data-text="c" xlink:href="#font_2_43" transform="matrix(0,-20.663533,-20.663533,-0,176.82209,270.5511)" fill="#0000ff"/>
<use data-text="e" xlink:href="#font_2_50" transform="matrix(0,-20.663533,-20.663533,-0,176.82209,260.2193)" fill="#0000ff"/>
<use data-text="c" xlink:href="#font_2_43" transform="matrix(0,-20.663533,-20.663533,-0,176.82209,241.89076)" fill="#0000ff"/>
<use data-text="r" xlink:href="#font_2_96" transform="matrix(0,-20.663533,-20.663533,-0,176.82209,231.55899)" fill="#0000ff"/>
<use data-text="e" xlink:href="#font_2_50" transform="matrix(0,-20.663533,-20.663533,-0,176.82209,222.05377)" fill="#0000ff"/>
<use data-text="a" xlink:href="#font_2_28" transform="matrix(0,-20.663533,-20.663533,-0,176.82209,211.45337)" fill="#0000ff"/>
<use data-text="m" xlink:href="#font_2_75" transform="matrix(0,-20.663533,-20.663533,-0,176.82209,200.15042)" fill="#0000ff"/>
</svg>
