<svg xmlns="http://www.w3.org/2000/svg" xmlns:xlink="http://www.w3.org/1999/xlink" xmlns:inkscape="http://www.inkscape.org/namespaces/inkscape" version="1.1" width="134" height="159" viewBox="0 0 134 159">
<defs>
<path id="font_1_107" d="M.44898988 .17396546H.42399598C.4189911 .14398194 .4119873 .099990848 .4019928 .084991458 .394989 .07699585 .32899476 .07699585 .30699159 .07699585H.1269989L.23298645 .17996216C.3889923 .31803895 .44898988 .37210084 .44898988 .47216798 .44898988 .5860901 .35899354 .6660156 .23699951 .6660156 .12399292 .6660156 .049987794 .57411196 .049987794 .48516847 .049987794 .4291687 .099990848 .4291687 .102996829 .4291687 .11999512 .4291687 .15499878 .44117738 .15499878 .48217774 .15499878 .5081787 .13699341 .5341797 .101989749 .5341797 .09399414 .5341797 .09199524 .5341797 .08898926 .5331726 .11199951 .59806826 .1659851 .63500979 .22399903 .63500979 .31498719 .63500979 .35798646 .5541382 .35798646 .47216798 .35798646 .39196778 .30799867 .31297303 .25299073 .25097657L.06098938 .036987306C.049987794 .025985718 .049987794 .023986817 .049987794 0H.42099L.44898988 .17396546Z"/>
<path id="font_1_57" d="M.47099305 .16503906V.19602967H.37098695V.6507721C.37098695 .6707611 .37098695 .6767578 .35499574 .6767578 .34599305 .6767578 .34298707 .6767578 .33499146 .6647644L.027999878 .19602967V.16503906H.2939911V.07800293C.2939911 .041992189 .2919922 .0309906 .21798706 .0309906H.19699097V0C.23799134 .0029907227 .2899933 .0029907227 .33198548 .0029907227 .37399293 .0029907227 .4269867 .0029907227 .46798707 0V.0309906H.44699098C.37298585 .0309906 .37098695 .041992189 .37098695 .07800293V.16503906H.47099305M.2999878 .19602967H.055999757L.2999878 .56881716V.19602967Z"/>
<path id="font_1_106" d="M.45700074 .17037964C.45700074 .252594 .3939972 .33088685 .2899933 .35191346 .37199403 .37893678 .42999269 .4490509 .42999269 .52809146 .42999269 .6100464 .34199525 .6660156 .24598694 .6660156 .14498902 .6660156 .068984989 .60606387 .068984989 .53009036 .068984989 .49710084 .09098816 .47808839 .11999512 .47808839 .15098572 .47808839 .17098999 .50009158 .17098999 .5290985 .17098999 .57910159 .12399292 .57910159 .10899353 .57910159 .13999939 .62802127 .20599365 .64100649 .24198914 .64100649 .2829895 .64100649 .33799745 .6190338 .33799745 .5290985 .33799745 .51708987 .33599855 .45906068 .30999757 .4149933 .27999879 .36691285 .24598694 .36390687 .22099304 .36291505 .21299744 .36190797 .18899536 .35990907 .18199158 .35990907 .17399597 .35890199 .16699219 .35791017 .16699219 .3479004 .16699219 .33691407 .17399597 .33691407 .19099427 .33691407H.23498535C.31698609 .33691407 .35398866 .2686615 .35398866 .17037964 .35398866 .034469606 .2849884 .0055389406 .24099732 .0055389406 .19799805 .0055389406 .12298584 .022491456 .08799744 .08137512 .12298584 .07637024 .1539917 .09837341 .1539917 .1363678 .1539917 .17237854 .1269989 .19238281 .09799194 .19238281 .07398987 .19238281 .041992189 .17837525 .041992189 .1343689 .041992189 .043441774 .1349945-.022460938 .24398804-.022460938 .3659973-.022460938 .45700074 .06838989 .45700074 .17037964Z"/>
<path id="font_1_51" d="M.45700074 .16764832C.45700074 .20367432 .44599916 .24871826 .4079895 .29074098 .3889923 .31176759 .37298585 .32176209 .30899049 .36180116 .3809967 .39881898 .42999269 .4508667 .42999269 .51690676 .42999269 .6089783 .34098817 .6660156 .25 .6660156 .1499939 .6660156 .068984989 .5919647 .068984989 .49890138 .068984989 .48088075 .070999149 .43585206 .11299133 .38882447 .12399292 .3768158 .16099549 .35179139 .18598938 .33477784 .12799073 .30575563 .041992189 .24971009 .041992189 .15063477 .041992189 .044555665 .14399719-.022460938 .24899292-.022460938 .3619995-.022460938 .45700074 .060577394 .45700074 .16764832M.38598634 .51690676C.38598634 .45986939 .34700013 .41183473 .2869873 .3768158L.16299439 .4568634C.116989139 .4868927 .11299133 .5209198 .11299133 .53793337 .11299133 .5989685 .17799378 .64100649 .24899292 .64100649 .32199098 .64100649 .38598634 .588974 .38598634 .51690676M.40699769 .13162232C.40699769 .05757141 .33198548 .0055389406 .25 .0055389406 .1639862 .0055389406 .09199524 .06758118 .09199524 .15063477 .09199524 .2086792 .12399292 .2727356 .20899964 .31976319L.33198548 .24171448C.3600006 .22268677 .40699769 .19267273 .40699769 .13162232Z"/>
<path id="font_1_82" d="M.4189911 0V.0309906H.3869934C.29699708 .0309906 .2939911 .041992189 .2939911 .07902527V.64012148C.2939911 .6640167 .2939911 .6660156 .2709961 .6660156 .20899964 .60227969 .12098694 .60227969 .08898926 .60227969V.57128909C.10899353 .57128909 .16799927 .57128909 .21998596 .5972748V.07902527C.21998596 .042999269 .21699524 .0309906 .1269989 .0309906H.09498596V0C.12998963 .0029907227 .21699524 .0029907227 .25698854 .0029907227 .29699708 .0029907227 .38398744 .0029907227 .4189911 0Z"/>
<path id="font_1_100" d="M.4850006 .6435547H.24198914C.11999512 .6435547 .117996219 .6566467 .11399841 .67578127H.08898926L.055999757 .46954347H.08099365C.083999637 .48554994 .09298706 .54855349 .10598755 .5605469 .11299133 .5665436 .19099427 .5665436 .20399475 .5665436H.41099549L.29899598 .40853883C.20899964 .2735443 .17599488 .13453675 .17599488 .03253174 .17599488 .022537232 .17599488-.022460938 .22200012-.022460938 .2679901-.022460938 .2679901 .022537232 .2679901 .03253174V.08354187C.2679901 .13853455 .2709961 .19354248 .2789917 .24754334 .2829895 .27053834 .29699708 .35653688 .34098817 .41854859L.47599793 .608551C.4850006 .62054446 .4850006 .62254336 .4850006 .6435547Z"/>
<path id="font_1_78" d="M.45700074 .32888795C.45700074 .598114 .34199525 .6660156 .25299073 .6660156 .19799805 .6660156 .14898682 .64801028 .10598755 .6031189 .06498718 .5580902 .041992189 .5160217 .041992189 .44091798 .041992189 .3158722 .12998963 .21777344 .24198914 .21777344 .30299378 .21777344 .34399415 .25979615 .36698915 .3178711V.28582765C.36698915 .05178833 .2630005 .0055389406 .20498657 .0055389406 .18798828 .0055389406 .13398743 .007537842 .10699463 .041778566 .15098572 .041778566 .15899658 .07078552 .15899658 .08778381 .15899658 .118774417 .1349945 .13378906 .11299133 .13378906 .09700012 .13378906 .066986087 .12478638 .066986087 .08578491 .066986087 .018615723 .12098694-.022460938 .20599365-.022460938 .33499146-.022460938 .45700074 .11378479 .45700074 .32888795M.36499024 .42089845C.36499024 .33789063 .33099366 .24076844 .24299622 .24076844 .22698975 .2407074 .18099976 .2407074 .1499939 .30371095 .13198853 .34072877 .13198853 .3908081 .13198853 .43988038 .13198853 .49397279 .13198853 .5410614 .15299988 .578125 .17999268 .62805178 .21798706 .64100649 .25299073 .64100649 .29899598 .64100649 .33198548 .60710147 .34899903 .562088 .36099244 .52989199 .36499024 .46688844 .36499024 .42089845Z"/>
</defs>
<path transform="matrix(1.00002,0,0,-1.00006,33.27729,12.714804)" stroke-width=".3985" stroke-linecap="butt" stroke-miterlimit="10" stroke-linejoin="miter" fill="none" stroke="#000000" d="M10.91405 0C10.91405 6.02773 6.02773 10.91405 0 10.91405-6.02773 10.91405-10.91405 6.02773-10.91405 0-10.91405-6.02773-6.02773-10.91405 0-10.91405 6.02773-10.91405 10.91405-6.02773 10.91405 0ZM0 0"/>
<use data-text="2" xlink:href="#font_1_107" transform="matrix(9.962799,0,0,-9.963197,25.805138,15.977999)"/>
<use data-text="4" xlink:href="#font_1_57" transform="matrix(9.962799,0,0,-9.963197,30.786538,15.977999)"/>
<use data-text="3" xlink:href="#font_1_106" transform="matrix(9.962799,0,0,-9.963197,35.767938,15.977999)"/>
<path transform="matrix(1.00002,0,0,-1.00006,33.27729,12.714804)" stroke-width=".3985" stroke-linecap="butt" stroke-miterlimit="10" stroke-linejoin="miter" fill="none" stroke="#000000" d="M-14.17348-34.0161C-14.17348-29.3194-17.98082-25.51205-22.67752-25.51205-27.3742-25.51205-31.18155-29.3194-31.18155-34.0161-31.18155-38.71278-27.3742-42.52013-22.67752-42.52013-17.98082-42.52013-14.17348-38.71278-14.17348-34.0161ZM-22.67752-34.0161"/>
<use data-text="3" xlink:href="#font_1_106" transform="matrix(9.962799,0,0,-9.963197,8.108788,49.941038)"/>
<path transform="matrix(1.00002,0,0,-1.00006,33.27729,12.714804)" stroke-width=".3985" stroke-linecap="butt" stroke-miterlimit="10" stroke-linejoin="miter" fill="none" stroke="#000000" d="M-6.16423-9.24643-17.85005-26.77483"/>
<path transform="matrix(1.00002,0,0,-1.00006,33.27729,12.714804)" stroke-width=".3985" stroke-linecap="butt" stroke-miterlimit="10" stroke-linejoin="miter" fill="none" stroke="#000000" d="M31.51563-34.0161C31.51563-29.1349 27.55875-25.17802 22.67755-25.17802 17.79637-25.17802 13.8395-29.1349 13.8395-34.0161 13.8395-38.89728 17.79637-42.85416 22.67755-42.85416 27.55875-42.85416 31.51563-38.89728 31.51563-34.0161ZM22.67755-34.0161"/>
<use data-text="8" xlink:href="#font_1_51" transform="matrix(9.962799,0,0,-9.963197,50.973646,49.941038)"/>
<use data-text="1" xlink:href="#font_1_82" transform="matrix(9.962799,0,0,-9.963197,55.955045,49.941038)"/>
<path transform="matrix(1.00002,0,0,-1.00006,33.27729,12.714804)" stroke-width=".3985" stroke-linecap="butt" stroke-miterlimit="10" stroke-linejoin="miter" fill="none" stroke="#000000" d="M6.16423-9.24643 17.66481-26.4969"/>
<path transform="matrix(1.00002,0,0,-1.00006,33.27729,12.714804)" stroke-width=".3985" stroke-linecap="butt" stroke-miterlimit="10" stroke-linejoin="miter" fill="none" stroke="#000000" d="M8.50407-68.0322C8.50407-63.3355 4.69673-59.52815 .00003-59.52815-4.69664-59.52815-8.50398-63.3355-8.50398-68.0322-8.50398-72.72888-4.69664-76.53622 .00003-76.53622 4.69673-76.53622 8.50407-72.72888 8.50407-68.0322ZM.00003-68.0322"/>
<use data-text="3" xlink:href="#font_1_106" transform="matrix(9.962799,0,0,-9.963197,30.78624,83.95907)"/>
<path transform="matrix(1.00002,0,0,-1.00006,33.27729,12.714804)" stroke-width=".3985" stroke-linecap="butt" stroke-miterlimit="10" stroke-linejoin="miter" fill="none" stroke="#000000" d="M17.66481-41.53528 4.8275-60.79092"/>
<path transform="matrix(1.00002,0,0,-1.00006,33.27729,12.714804)" stroke-width=".3985" stroke-linecap="butt" stroke-miterlimit="10" stroke-linejoin="miter" fill="none" stroke="#000000" d="M54.19319-68.0322C54.19319-63.151 50.23631-59.19412 45.35512-59.19412 40.47394-59.19412 36.51706-63.151 36.51706-68.0322 36.51706-72.91338 40.47394-76.87025 45.35512-76.87025 50.23631-76.87025 54.19319-72.91338 54.19319-68.0322ZM45.35512-68.0322"/>
<use data-text="2" xlink:href="#font_1_107" transform="matrix(9.962799,0,0,-9.963197,73.6521,84.00907)"/>
<use data-text="7" xlink:href="#font_1_100" transform="matrix(9.962799,0,0,-9.963197,78.6335,84.00907)"/>
<path transform="matrix(1.00002,0,0,-1.00006,33.27729,12.714804)" stroke-width=".3985" stroke-linecap="butt" stroke-miterlimit="10" stroke-linejoin="miter" fill="none" stroke="#000000" d="M27.6903-41.53528 40.34238-60.513"/>
<path transform="matrix(1.00002,0,0,-1.00006,33.27729,12.714804)" stroke-width=".3985" stroke-linecap="butt" stroke-miterlimit="10" stroke-linejoin="miter" fill="none" stroke="#000000" d="M31.18164-102.0483C31.18164-97.3516 27.3743-93.54425 22.6776-93.54425 17.98091-93.54425 14.17357-97.3516 14.17357-102.0483 14.17357-106.74498 17.98091-110.55232 22.6776-110.55232 27.3743-110.55232 31.18164-106.74498 31.18164-102.0483ZM22.6776-102.0483"/>
<use data-text="3" xlink:href="#font_1_106" transform="matrix(9.962799,0,0,-9.963197,53.464696,117.977108)"/>
<path transform="matrix(1.00002,0,0,-1.00006,33.27729,12.714804)" stroke-width=".3985" stroke-linecap="butt" stroke-miterlimit="10" stroke-linejoin="miter" fill="none" stroke="#000000" d="M40.34238-75.55138 27.50507-94.80702"/>
<path transform="matrix(1.00002,0,0,-1.00006,33.27729,12.714804)" stroke-width=".3985" stroke-linecap="butt" stroke-miterlimit="10" stroke-linejoin="miter" fill="none" stroke="#000000" d="M76.53673-102.0483C76.53673-97.3516 72.72939-93.54425 68.03268-93.54425 63.336-93.54425 59.52866-97.3516 59.52866-102.0483 59.52866-106.74498 63.336-110.55232 68.03268-110.55232 72.72939-110.55232 76.53673-106.74498 76.53673-102.0483ZM68.03268-102.0483"/>
<use data-text="9" xlink:href="#font_1_78" transform="matrix(9.962799,0,0,-9.963197,98.8206,117.977108)"/>
<path transform="matrix(1.00002,0,0,-1.00006,33.27729,12.714804)" stroke-width=".3985" stroke-linecap="butt" stroke-miterlimit="10" stroke-linejoin="miter" fill="none" stroke="#000000" d="M50.36787-75.55138 63.20523-94.80702"/>
<path transform="matrix(1.00002,0,0,-1.00006,33.27729,12.714804)" stroke-width=".3985" stroke-linecap="butt" stroke-miterlimit="10" stroke-linejoin="miter" fill="none" stroke="#000000" d="M53.8592-136.06439C53.8592-131.36769 50.05186-127.56035 45.35516-127.56035 40.65848-127.56035 36.85114-131.36769 36.85114-136.06439 36.85114-140.76108 40.65848-144.56842 45.35516-144.56842 50.05186-144.56842 53.8592-140.76108 53.8592-136.06439ZM45.35516-136.06439"/>
<use data-text="3" xlink:href="#font_1_106" transform="matrix(9.962799,0,0,-9.963197,76.14215,151.99517)"/>
<path transform="matrix(1.00002,0,0,-1.00006,33.27729,12.714804)" stroke-width=".3985" stroke-linecap="butt" stroke-miterlimit="10" stroke-linejoin="miter" fill="none" stroke="#000000" d="M63.20523-109.28955 50.18263-128.82312"/>
<path transform="matrix(1.00002,0,0,-1.00006,33.27729,12.714804)" stroke-width=".3985" stroke-linecap="butt" stroke-miterlimit="10" stroke-linejoin="miter" fill="none" stroke="#000000" d="M99.2143-136.06439C99.2143-131.36769 95.40695-127.56035 90.71025-127.56035 86.01357-127.56035 82.20622-131.36769 82.20622-136.06439 82.20622-140.76108 86.01357-144.56842 90.71025-144.56842 95.40695-144.56842 99.2143-140.76108 99.2143-136.06439ZM90.71025-136.06439"/>
<use data-text="3" xlink:href="#font_1_106" transform="matrix(9.962799,0,0,-9.963197,121.49906,151.99517)"/>
<path transform="matrix(1.00002,0,0,-1.00006,33.27729,12.714804)" stroke-width=".3985" stroke-linecap="butt" stroke-miterlimit="10" stroke-linejoin="miter" fill="none" stroke="#000000" d="M72.86015-109.28955 85.8828-128.82312"/>
</svg>
