<svg xmlns="http://www.w3.org/2000/svg" xmlns:xlink="http://www.w3.org/1999/xlink" xmlns:inkscape="http://www.inkscape.org/namespaces/inkscape" version="1.1" width="225" height="295" viewBox="0 0 225 295">
<defs>
<path id="font_1_56" d="M.44898988 .20091248C.44898988 .31991578 .36698915 .41992188 .25898744 .41992188 .21099854 .41992188 .16799927 .4039154 .13198853 .36891175V.5641022C.1519928 .55778506 .18499756 .55078127 .21699524 .55078127 .33999635 .55078127 .4099884 .6418457 .4099884 .65493777 .4099884 .6609802 .40699769 .6660156 .3999939 .6660156 .3999939 .66607668 .39698792 .66607668 .3919983 .66308596 .37199403 .65408328 .32299806 .63378909 .2559967 .63378909 .21598816 .63409426 .16999817 .641098 .12298584 .6621094 .114990238 .6651001 .11099243 .6651001 .11099243 .6651001 .100997928 .66508486 .100997928 .657074 .100997928 .64108279V.3447113C.100997928 .3266449 .100997928 .31861878 .114990238 .31861878 .12199402 .31861878 .12399292 .32164 .12799073 .32765199 .13899231 .34371949 .17599488 .3979187 .25698854 .3979187 .30899049 .3979187 .33399964 .3517456 .34199525 .3336792 .35798646 .2965393 .3600006 .2574005 .3600006 .20721436 .3600006 .17218018 .3600006 .112197879 .33599855 .07032776 .31199647 .031448366 .2749939 .0055389406 .22898865 .0055389406 .1559906 .0055389406 .09899902 .05836487 .08198547 .1171875 .084991458 .11685181 .08799744 .115859989 .09899902 .115859989 .13198853 .115859989 .14898682 .14085388 .14898682 .16485596 .14898682 .18885803 .13198853 .21386719 .09899902 .21386719 .084991458 .21386719 .049987794 .2068634 .049987794 .16085816 .049987794 .07432556 .11898804-.022460938 .23098755-.022460938 .34700013-.022460938 .44898988 .07331848 .44898988 .20019531V.20091248Z"/>
<path id="font_1_82" d="M.4189911 0V.0309906H.3869934C.29699708 .0309906 .2939911 .041992189 .2939911 .07902527V.64012148C.2939911 .6640167 .2939911 .6660156 .2709961 .6660156 .20899964 .60227969 .12098694 .60227969 .08898926 .60227969V.57128909C.10899353 .57128909 .16799927 .57128909 .21998596 .5972748V.07902527C.21998596 .042999269 .21699524 .0309906 .1269989 .0309906H.09498596V0C.12998963 .0029907227 .21699524 .0029907227 .25698854 .0029907227 .29699708 .0029907227 .38398744 .0029907227 .4189911 0Z"/>
<path id="font_1_107" d="M.44898988 .17396546H.42399598C.4189911 .14398194 .4119873 .099990848 .4019928 .084991458 .394989 .07699585 .32899476 .07699585 .30699159 .07699585H.1269989L.23298645 .17996216C.3889923 .31803895 .44898988 .37210084 .44898988 .47216798 .44898988 .5860901 .35899354 .6660156 .23699951 .6660156 .12399292 .6660156 .049987794 .57411196 .049987794 .48516847 .049987794 .4291687 .099990848 .4291687 .102996829 .4291687 .11999512 .4291687 .15499878 .44117738 .15499878 .48217774 .15499878 .5081787 .13699341 .5341797 .101989749 .5341797 .09399414 .5341797 .09199524 .5341797 .08898926 .5331726 .11199951 .59806826 .1659851 .63500979 .22399903 .63500979 .31498719 .63500979 .35798646 .5541382 .35798646 .47216798 .35798646 .39196778 .30799867 .31297303 .25299073 .25097657L.06098938 .036987306C.049987794 .025985718 .049987794 .023986817 .049987794 0H.42099L.44898988 .17396546Z"/>
<path id="font_1_101" d="M.45700074 .2036438C.45700074 .33070375 .36799623 .4267578 .25698854 .4267578 .18899536 .4267578 .1519928 .37573243 .13198853 .327713V.35173036C.13198853 .6047821 .2559967 .64100649 .30699159 .64100649 .33099366 .64100649 .37298585 .634964 .394989 .6007538 .37998963 .6007538 .33999635 .6007538 .33999635 .5557556 .33999635 .524765 .3639984 .5097656 .38598634 .5097656 .4019928 .5097656 .43199159 .51875308 .43199159 .5577545 .43199159 .6178589 .3880005 .6660156 .30499269 .6660156 .1769867 .6660156 .041992189 .5367584 .041992189 .31570436 .041992189 .048553468 .1579895-.022460938 .25099183-.022460938 .3619995-.022460938 .45700074 .07156372 .45700074 .2036438M.36698915 .20463562C.36698915 .15661621 .36698915 .10658264 .34999085 .0705719 .31999208 .010528564 .27398683 .0055389406 .25099183 .0055389406 .18798828 .0055389406 .1579895 .06556702 .1519928 .080566409 .13398743 .127594 .13398743 .2076416 .13398743 .22564698 .13398743 .30369569 .1659851 .40374757 .2559967 .40374757 .27198792 .40374757 .31799317 .40374757 .34899903 .34172059 .36698915 .30470277 .36698915 .2536621 .36698915 .20463562Z"/>
<path id="font_1_51" d="M.45700074 .16764832C.45700074 .20367432 .44599916 .24871826 .4079895 .29074098 .3889923 .31176759 .37298585 .32176209 .30899049 .36180116 .3809967 .39881898 .42999269 .4508667 .42999269 .51690676 .42999269 .6089783 .34098817 .6660156 .25 .6660156 .1499939 .6660156 .068984989 .5919647 .068984989 .49890138 .068984989 .48088075 .070999149 .43585206 .11299133 .38882447 .12399292 .3768158 .16099549 .35179139 .18598938 .33477784 .12799073 .30575563 .041992189 .24971009 .041992189 .15063477 .041992189 .044555665 .14399719-.022460938 .24899292-.022460938 .3619995-.022460938 .45700074 .060577394 .45700074 .16764832M.38598634 .51690676C.38598634 .45986939 .34700013 .41183473 .2869873 .3768158L.16299439 .4568634C.116989139 .4868927 .11299133 .5209198 .11299133 .53793337 .11299133 .5989685 .17799378 .64100649 .24899292 .64100649 .32199098 .64100649 .38598634 .588974 .38598634 .51690676M.40699769 .13162232C.40699769 .05757141 .33198548 .0055389406 .25 .0055389406 .1639862 .0055389406 .09199524 .06758118 .09199524 .15063477 .09199524 .2086792 .12399292 .2727356 .20899964 .31976319L.33198548 .24171448C.3600006 .22268677 .40699769 .19267273 .40699769 .13162232Z"/>
<path id="font_1_57" d="M.47099305 .16503906V.19602967H.37098695V.6507721C.37098695 .6707611 .37098695 .6767578 .35499574 .6767578 .34599305 .6767578 .34298707 .6767578 .33499146 .6647644L.027999878 .19602967V.16503906H.2939911V.07800293C.2939911 .041992189 .2919922 .0309906 .21798706 .0309906H.19699097V0C.23799134 .0029907227 .2899933 .0029907227 .33198548 .0029907227 .37399293 .0029907227 .4269867 .0029907227 .46798707 0V.0309906H.44699098C.37298585 .0309906 .37098695 .041992189 .37098695 .07800293V.16503906H.47099305M.2999878 .19602967H.055999757L.2999878 .56881716V.19602967Z"/>
<path id="font_1_106" d="M.45700074 .17037964C.45700074 .252594 .3939972 .33088685 .2899933 .35191346 .37199403 .37893678 .42999269 .4490509 .42999269 .52809146 .42999269 .6100464 .34199525 .6660156 .24598694 .6660156 .14498902 .6660156 .068984989 .60606387 .068984989 .53009036 .068984989 .49710084 .09098816 .47808839 .11999512 .47808839 .15098572 .47808839 .17098999 .50009158 .17098999 .5290985 .17098999 .57910159 .12399292 .57910159 .10899353 .57910159 .13999939 .62802127 .20599365 .64100649 .24198914 .64100649 .2829895 .64100649 .33799745 .6190338 .33799745 .5290985 .33799745 .51708987 .33599855 .45906068 .30999757 .4149933 .27999879 .36691285 .24598694 .36390687 .22099304 .36291505 .21299744 .36190797 .18899536 .35990907 .18199158 .35990907 .17399597 .35890199 .16699219 .35791017 .16699219 .3479004 .16699219 .33691407 .17399597 .33691407 .19099427 .33691407H.23498535C.31698609 .33691407 .35398866 .2686615 .35398866 .17037964 .35398866 .034469606 .2849884 .0055389406 .24099732 .0055389406 .19799805 .0055389406 .12298584 .022491456 .08799744 .08137512 .12298584 .07637024 .1539917 .09837341 .1539917 .1363678 .1539917 .17237854 .1269989 .19238281 .09799194 .19238281 .07398987 .19238281 .041992189 .17837525 .041992189 .1343689 .041992189 .043441774 .1349945-.022460938 .24398804-.022460938 .3659973-.022460938 .45700074 .06838989 .45700074 .17037964Z"/>
</defs>
<path transform="matrix(1.00002,0,0,-1.00006,33.27729,12.664801)" stroke-width=".3985" stroke-linecap="butt" stroke-miterlimit="10" stroke-linejoin="miter" fill="none" stroke="#000000" d="M10.86514 0C10.86514 6.00073 6.00073 10.86514 0 10.86514-6.00073 10.86514-10.86514 6.00073-10.86514 0-10.86514-6.00073-6.00073-10.86514 0-10.86514 6.00073-10.86514 10.86514-6.00073 10.86514 0ZM0 0"/>
<use data-text="5" xlink:href="#font_1_56" transform="matrix(9.962799,0,0,-9.963197,25.805138,15.872993)"/>
<use data-text="1" xlink:href="#font_1_82" transform="matrix(9.962799,0,0,-9.963197,30.786538,15.872993)"/>
<use data-text="2" xlink:href="#font_1_107" transform="matrix(9.962799,0,0,-9.963197,35.767938,15.872993)"/>
<path transform="matrix(1.00002,0,0,-1.00006,33.27729,12.664801)" stroke-width=".3985" stroke-linecap="butt" stroke-miterlimit="10" stroke-linejoin="miter" fill="none" stroke="#000000" d="M-14.17348-34.0161C-14.17348-29.3194-17.98082-25.51205-22.67752-25.51205-27.3742-25.51205-31.18155-29.3194-31.18155-34.0161-31.18155-38.71278-27.3742-42.52013-22.67752-42.52013-17.98082-42.52013-14.17348-38.71278-14.17348-34.0161ZM-22.67752-34.0161"/>
<use data-text="2" xlink:href="#font_1_107" transform="matrix(9.962799,0,0,-9.963197,8.108788,50.001039)"/>
<path transform="matrix(1.00002,0,0,-1.00006,33.27729,12.664801)" stroke-width=".3985" stroke-linecap="butt" stroke-miterlimit="10" stroke-linejoin="miter" fill="none" stroke="#000000" d="M-6.1371-9.20575-17.85005-26.77483"/>
<path transform="matrix(1.00002,0,0,-1.00006,33.27729,12.664801)" stroke-width=".3985" stroke-linecap="butt" stroke-miterlimit="10" stroke-linejoin="miter" fill="none" stroke="#000000" d="M33.54271-34.0161C33.54271-28.01535 28.6783-23.15094 22.67755-23.15094 16.67682-23.15094 11.81241-28.01535 11.81241-34.0161 11.81241-40.01683 16.67682-44.88126 22.67755-44.88126 28.6783-44.88126 33.54271-40.01683 33.54271-34.0161ZM22.67755-34.0161"/>
<use data-text="2" xlink:href="#font_1_107" transform="matrix(9.962799,0,0,-9.963197,48.482599,49.89103)"/>
<use data-text="5" xlink:href="#font_1_56" transform="matrix(9.962799,0,0,-9.963197,53.463998,49.89103)"/>
<use data-text="6" xlink:href="#font_1_101" transform="matrix(9.962799,0,0,-9.963197,58.445398,49.89103)"/>
<path transform="matrix(1.00002,0,0,-1.00006,33.27729,12.664801)" stroke-width=".3985" stroke-linecap="butt" stroke-miterlimit="10" stroke-linejoin="miter" fill="none" stroke="#000000" d="M6.1371-9.20575 16.54045-24.81033"/>
<path transform="matrix(1.00002,0,0,-1.00006,33.27729,12.664801)" stroke-width=".3985" stroke-linecap="butt" stroke-miterlimit="10" stroke-linejoin="miter" fill="none" stroke="#000000" d="M8.50407-68.0322C8.50407-63.3355 4.69673-59.52815 .00003-59.52815-4.69664-59.52815-8.50398-63.3355-8.50398-68.0322-8.50398-72.72888-4.69664-76.53622 .00003-76.53622 4.69673-76.53622 8.50407-72.72888 8.50407-68.0322ZM.00003-68.0322"/>
<use data-text="2" xlink:href="#font_1_107" transform="matrix(9.962799,0,0,-9.963197,30.78624,84.01908)"/>
<path transform="matrix(1.00002,0,0,-1.00006,33.27729,12.664801)" stroke-width=".3985" stroke-linecap="butt" stroke-miterlimit="10" stroke-linejoin="miter" fill="none" stroke="#000000" d="M16.54045-43.22185 4.8275-60.79092"/>
<path transform="matrix(1.00002,0,0,-1.00006,33.27729,12.664801)" stroke-width=".3985" stroke-linecap="butt" stroke-miterlimit="10" stroke-linejoin="miter" fill="none" stroke="#000000" d="M56.22028-68.0322C56.22028-62.03145 51.35587-57.16704 45.35512-57.16704 39.35439-57.16704 34.48996-62.03145 34.48996-68.0322 34.48996-74.03293 39.35439-78.89735 45.35512-78.89735 51.35587-78.89735 56.22028-74.03293 56.22028-68.0322ZM45.35512-68.0322"/>
<use data-text="1" xlink:href="#font_1_82" transform="matrix(9.962799,0,0,-9.963197,71.16105,83.90907)"/>
<use data-text="2" xlink:href="#font_1_107" transform="matrix(9.962799,0,0,-9.963197,76.14245,83.90907)"/>
<use data-text="8" xlink:href="#font_1_51" transform="matrix(9.962799,0,0,-9.963197,81.12385,83.90907)"/>
<path transform="matrix(1.00002,0,0,-1.00006,33.27729,12.664801)" stroke-width=".3985" stroke-linecap="butt" stroke-miterlimit="10" stroke-linejoin="miter" fill="none" stroke="#000000" d="M28.81467-43.22185 39.21802-58.82643"/>
<path transform="matrix(1.00002,0,0,-1.00006,33.27729,12.664801)" stroke-width=".3985" stroke-linecap="butt" stroke-miterlimit="10" stroke-linejoin="miter" fill="none" stroke="#000000" d="M31.18164-102.0483C31.18164-97.3516 27.3743-93.54425 22.6776-93.54425 17.98091-93.54425 14.17357-97.3516 14.17357-102.0483 14.17357-106.74498 17.98091-110.55232 22.6776-110.55232 27.3743-110.55232 31.18164-106.74498 31.18164-102.0483ZM22.6776-102.0483"/>
<use data-text="2" xlink:href="#font_1_107" transform="matrix(9.962799,0,0,-9.963197,53.464696,118.03712)"/>
<path transform="matrix(1.00002,0,0,-1.00006,33.27729,12.664801)" stroke-width=".3985" stroke-linecap="butt" stroke-miterlimit="10" stroke-linejoin="miter" fill="none" stroke="#000000" d="M39.21802-77.23795 27.50507-94.80702"/>
<path transform="matrix(1.00002,0,0,-1.00006,33.27729,12.664801)" stroke-width=".3985" stroke-linecap="butt" stroke-miterlimit="10" stroke-linejoin="miter" fill="none" stroke="#000000" d="M76.87076-102.0483C76.87076-97.1671 72.91388-93.21022 68.03268-93.21022 63.1515-93.21022 59.19463-97.1671 59.19463-102.0483 59.19463-106.92947 63.1515-110.88635 68.03268-110.88635 72.91388-110.88635 76.87076-106.92947 76.87076-102.0483ZM68.03268-102.0483"/>
<use data-text="6" xlink:href="#font_1_101" transform="matrix(9.962799,0,0,-9.963197,96.32955,117.98212)"/>
<use data-text="4" xlink:href="#font_1_57" transform="matrix(9.962799,0,0,-9.963197,101.31095,117.98212)"/>
<path transform="matrix(1.00002,0,0,-1.00006,33.27729,12.664801)" stroke-width=".3985" stroke-linecap="butt" stroke-miterlimit="10" stroke-linejoin="miter" fill="none" stroke="#000000" d="M51.49223-77.23795 63.01994-94.5291"/>
<path transform="matrix(1.00002,0,0,-1.00006,33.27729,12.664801)" stroke-width=".3985" stroke-linecap="butt" stroke-miterlimit="10" stroke-linejoin="miter" fill="none" stroke="#000000" d="M53.8592-136.06439C53.8592-131.36769 50.05186-127.56035 45.35516-127.56035 40.65848-127.56035 36.85114-131.36769 36.85114-136.06439 36.85114-140.76108 40.65848-144.56842 45.35516-144.56842 50.05186-144.56842 53.8592-140.76108 53.8592-136.06439ZM45.35516-136.06439"/>
<use data-text="2" xlink:href="#font_1_107" transform="matrix(9.962799,0,0,-9.963197,76.14215,152.05518)"/>
<path transform="matrix(1.00002,0,0,-1.00006,33.27729,12.664801)" stroke-width=".3985" stroke-linecap="butt" stroke-miterlimit="10" stroke-linejoin="miter" fill="none" stroke="#000000" d="M63.01994-109.56747 50.18263-128.82312"/>
<path transform="matrix(1.00002,0,0,-1.00006,33.27729,12.664801)" stroke-width=".3985" stroke-linecap="butt" stroke-miterlimit="10" stroke-linejoin="miter" fill="none" stroke="#000000" d="M99.54832-136.06439C99.54832-131.1832 95.59145-127.22632 90.71025-127.22632 85.82907-127.22632 81.8722-131.1832 81.8722-136.06439 81.8722-140.94557 85.82907-144.90245 90.71025-144.90245 95.59145-144.90245 99.54832-140.94557 99.54832-136.06439ZM90.71025-136.06439"/>
<use data-text="3" xlink:href="#font_1_106" transform="matrix(9.962799,0,0,-9.963197,119.008,151.94516)"/>
<use data-text="2" xlink:href="#font_1_107" transform="matrix(9.962799,0,0,-9.963197,123.9894,151.94516)"/>
<path transform="matrix(1.00002,0,0,-1.00006,33.27729,12.664801)" stroke-width=".3985" stroke-linecap="butt" stroke-miterlimit="10" stroke-linejoin="miter" fill="none" stroke="#000000" d="M73.04544-109.56747 85.69751-128.5452"/>
<path transform="matrix(1.00002,0,0,-1.00006,33.27729,12.664801)" stroke-width=".3985" stroke-linecap="butt" stroke-miterlimit="10" stroke-linejoin="miter" fill="none" stroke="#000000" d="M76.53677-170.08049C76.53677-165.38379 72.72943-161.57646 68.03273-161.57646 63.33604-161.57646 59.5287-165.38379 59.5287-170.08049 59.5287-174.77718 63.33604-178.58452 68.03273-178.58452 72.72943-178.58452 76.53677-174.77718 76.53677-170.08049ZM68.03273-170.08049"/>
<use data-text="2" xlink:href="#font_1_107" transform="matrix(9.962799,0,0,-9.963197,98.8206,186.0732)"/>
<path transform="matrix(1.00002,0,0,-1.00006,33.27729,12.664801)" stroke-width=".3985" stroke-linecap="butt" stroke-miterlimit="10" stroke-linejoin="miter" fill="none" stroke="#000000" d="M85.69751-143.58358 72.8602-162.83922"/>
<path transform="matrix(1.00002,0,0,-1.00006,33.27729,12.664801)" stroke-width=".3985" stroke-linecap="butt" stroke-miterlimit="10" stroke-linejoin="miter" fill="none" stroke="#000000" d="M122.22589-170.08049C122.22589-165.1993 118.26901-161.24242 113.38782-161.24242 108.50664-161.24242 104.54976-165.1993 104.54976-170.08049 104.54976-174.96167 108.50664-178.91855 113.38782-178.91855 118.26901-178.91855 122.22589-174.96167 122.22589-170.08049ZM113.38782-170.08049"/>
<use data-text="1" xlink:href="#font_1_82" transform="matrix(9.962799,0,0,-9.963197,141.68546,185.9642)"/>
<use data-text="6" xlink:href="#font_1_101" transform="matrix(9.962799,0,0,-9.963197,146.66687,185.9642)"/>
<path transform="matrix(1.00002,0,0,-1.00006,33.27729,12.664801)" stroke-width=".3985" stroke-linecap="butt" stroke-miterlimit="10" stroke-linejoin="miter" fill="none" stroke="#000000" d="M95.723-143.58358 108.37508-162.5613"/>
<path transform="matrix(1.00002,0,0,-1.00006,33.27729,12.664801)" stroke-width=".3985" stroke-linecap="butt" stroke-miterlimit="10" stroke-linejoin="miter" fill="none" stroke="#000000" d="M99.21434-204.09659C99.21434-199.39989 95.407-195.59256 90.7103-195.59256 86.01361-195.59256 82.20627-199.39989 82.20627-204.09659 82.20627-208.79329 86.01361-212.60062 90.7103-212.60062 95.407-212.60062 99.21434-208.79329 99.21434-204.09659ZM90.7103-204.09659"/>
<use data-text="2" xlink:href="#font_1_107" transform="matrix(9.962799,0,0,-9.963197,121.49906,220.09125)"/>
<path transform="matrix(1.00002,0,0,-1.00006,33.27729,12.664801)" stroke-width=".3985" stroke-linecap="butt" stroke-miterlimit="10" stroke-linejoin="miter" fill="none" stroke="#000000" d="M108.37508-177.59967 95.53777-196.85532"/>
<path transform="matrix(1.00002,0,0,-1.00006,33.27729,12.664801)" stroke-width=".3985" stroke-linecap="butt" stroke-miterlimit="10" stroke-linejoin="miter" fill="none" stroke="#000000" d="M144.56943-204.09659C144.56943-199.39989 140.76209-195.59256 136.06539-195.59256 131.3687-195.59256 127.56136-199.39989 127.56136-204.09659 127.56136-208.79329 131.3687-212.60062 136.06539-212.60062 140.76209-212.60062 144.56943-208.79329 144.56943-204.09659ZM136.06539-204.09659"/>
<use data-text="8" xlink:href="#font_1_51" transform="matrix(9.962799,0,0,-9.963197,166.85495,219.98224)"/>
<path transform="matrix(1.00002,0,0,-1.00006,33.27729,12.664801)" stroke-width=".3985" stroke-linecap="butt" stroke-miterlimit="10" stroke-linejoin="miter" fill="none" stroke="#000000" d="M118.40057-177.59967 131.23793-196.85532"/>
<path transform="matrix(1.00002,0,0,-1.00006,33.27729,12.664801)" stroke-width=".3985" stroke-linecap="butt" stroke-miterlimit="10" stroke-linejoin="miter" fill="none" stroke="#000000" d="M121.8919-238.11269C121.8919-233.41599 118.08456-229.60866 113.38786-229.60866 108.69118-229.60866 104.88383-233.41599 104.88383-238.11269 104.88383-242.80939 108.69118-246.61672 113.38786-246.61672 118.08456-246.61672 121.8919-242.80939 121.8919-238.11269ZM113.38786-238.11269"/>
<use data-text="2" xlink:href="#font_1_107" transform="matrix(9.962799,0,0,-9.963197,144.17652,254.10927)"/>
<path transform="matrix(1.00002,0,0,-1.00006,33.27729,12.664801)" stroke-width=".3985" stroke-linecap="butt" stroke-miterlimit="10" stroke-linejoin="miter" fill="none" stroke="#000000" d="M131.23793-211.33785 118.21533-230.87142"/>
<path transform="matrix(1.00002,0,0,-1.00006,33.27729,12.664801)" stroke-width=".3985" stroke-linecap="butt" stroke-miterlimit="10" stroke-linejoin="miter" fill="none" stroke="#000000" d="M167.247-238.11269C167.247-233.41599 163.43965-229.60866 158.74295-229.60866 154.04627-229.60866 150.23892-233.41599 150.23892-238.11269 150.23892-242.80939 154.04627-246.61672 158.74295-246.61672 163.43965-246.61672 167.247-242.80939 167.247-238.11269ZM158.74295-238.11269"/>
<use data-text="4" xlink:href="#font_1_57" transform="matrix(9.962799,0,0,-9.963197,189.53241,254.16429)"/>
<path transform="matrix(1.00002,0,0,-1.00006,33.27729,12.664801)" stroke-width=".3985" stroke-linecap="butt" stroke-miterlimit="10" stroke-linejoin="miter" fill="none" stroke="#000000" d="M140.89286-211.33785 153.9155-230.87142"/>
<path transform="matrix(1.00002,0,0,-1.00006,33.27729,12.664801)" stroke-width=".3985" stroke-linecap="butt" stroke-miterlimit="10" stroke-linejoin="miter" fill="none" stroke="#000000" d="M144.56948-272.12879C144.56948-267.43208 140.76213-263.62477 136.06543-263.62477 131.36875-263.62477 127.5614-267.43208 127.5614-272.12879 127.5614-276.8255 131.36875-280.6328 136.06543-280.6328 140.76213-280.6328 144.56948-276.8255 144.56948-272.12879ZM136.06543-272.12879"/>
<use data-text="2" xlink:href="#font_1_107" transform="matrix(9.962799,0,0,-9.963197,166.85495,288.12733)"/>
<path transform="matrix(1.00002,0,0,-1.00006,33.27729,12.664801)" stroke-width=".3985" stroke-linecap="butt" stroke-miterlimit="10" stroke-linejoin="miter" fill="none" stroke="#000000" d="M153.9155-245.35395 140.8929-264.8875"/>
<path transform="matrix(1.00002,0,0,-1.00006,33.27729,12.664801)" stroke-width=".3985" stroke-linecap="butt" stroke-miterlimit="10" stroke-linejoin="miter" fill="none" stroke="#000000" d="M189.92456-272.12879C189.92456-267.43208 186.11722-263.62477 181.42052-263.62477 176.72383-263.62477 172.91649-267.43208 172.91649-272.12879 172.91649-276.8255 176.72383-280.6328 181.42052-280.6328 186.11722-280.6328 189.92456-276.8255 189.92456-272.12879ZM181.42052-272.12879"/>
<use data-text="2" xlink:href="#font_1_107" transform="matrix(9.962799,0,0,-9.963197,212.21088,288.12733)"/>
<path transform="matrix(1.00002,0,0,-1.00006,33.27729,12.664801)" stroke-width=".3985" stroke-linecap="butt" stroke-miterlimit="10" stroke-linejoin="miter" fill="none" stroke="#000000" d="M163.57042-245.35395 176.59307-264.8875"/>
</svg>
