<svg xmlns="http://www.w3.org/2000/svg" xmlns:xlink="http://www.w3.org/1999/xlink" xmlns:inkscape="http://www.inkscape.org/namespaces/inkscape" version="1.1" width="231" height="231" viewBox="0 0 231 231">
<defs>
<path id="font_1_107" d="M.44898988 .17396546H.42399598C.4189911 .14398194 .4119873 .099990848 .4019928 .084991458 .394989 .07699585 .32899476 .07699585 .30699159 .07699585H.1269989L.23298645 .17996216C.3889923 .31803895 .44898988 .37210084 .44898988 .47216798 .44898988 .5860901 .35899354 .6660156 .23699951 .6660156 .12399292 .6660156 .049987794 .57411196 .049987794 .48516847 .049987794 .4291687 .099990848 .4291687 .102996829 .4291687 .11999512 .4291687 .15499878 .44117738 .15499878 .48217774 .15499878 .5081787 .13699341 .5341797 .101989749 .5341797 .09399414 .5341797 .09199524 .5341797 .08898926 .5331726 .11199951 .59806826 .1659851 .63500979 .22399903 .63500979 .31498719 .63500979 .35798646 .5541382 .35798646 .47216798 .35798646 .39196778 .30799867 .31297303 .25299073 .25097657L.06098938 .036987306C.049987794 .025985718 .049987794 .023986817 .049987794 0H.42099L.44898988 .17396546Z"/>
<path id="font_1_121" d="M.45999146 .31976319C.45999146 .39982606 .45498658 .47988893 .41999818 .5539398 .37399293 .65000918 .2919922 .6660156 .25 .6660156 .18998719 .6660156 .116989139 .64001467 .07598877 .54693606 .04399109 .47789 .038986207 .39982606 .038986207 .31976319 .038986207 .24472046 .042999269 .15464783 .083999637 .07859802 .1269989-.0024719239 .19999695-.022460938 .24899292-.022460938 .30299378-.022460938 .3789978-.0014648438 .4229889 .09359741 .45498658 .16265869 .45999146 .2407074 .45999146 .31976319M.3769989 .3317871C.3769989 .25672914 .3769989 .18867493 .3659973 .12461853 .35099793 .029556275 .2939911-.00047302247 .24899292-.00047302247 .20999146-.00047302247 .15098572 .024551392 .1329956 .12062073 .12199402 .18066406 .12199402 .2727356 .12199402 .3317871 .12199402 .39582826 .12199402 .46188355 .12998963 .5159149 .14898682 .63500979 .22399903 .64401248 .24899292 .64401248 .28199769 .64401248 .34799195 .6259918 .36698915 .52693179 .3769989 .47088624 .3769989 .39482118 .3769989 .3317871Z"/>
<path id="font_1_43" d="M.4149933 .119140628C.4149933 .12911988 .40499879 .12911988 .4019928 .12911988 .3929901 .12911988 .3909912 .12512207 .3889923 .119140628 .3600006 .026229859 .29499818 .014251709 .2579956 .014251709 .20498657 .014251709 .116989139 .0572052 .116989139 .21801758 .116989139 .38093568 .19898987 .42323304 .2519989 .42323304 .26098634 .42323304 .32398988 .42222596 .35899354 .38594056 .31799317 .38293458 .31199647 .3529358 .31199647 .3399353 .31199647 .31393434 .32998658 .2939453 .35798646 .2939453 .38398744 .2939453 .4039917 .3109436 .4039917 .34094239 .4039917 .40911866 .32798768 .4482422 .25099183 .4482422 .12599182 .4482422 .033996583 .3399353 .033996583 .21601868 .033996583 .08816528 .1329956-.0107421879 .24899292-.0107421879 .3829956-.0107421879 .4149933 .10914612 .4149933 .119140628Z"/>
<path id="font_1_75" d="M.8129883 0V.0309906C.7609863 .0309906 .73599246 .0309906 .7350006 .061019899V.25221253C.7350006 .3383026 .7350006 .36932374 .70399478 .405365 .6899872 .42237855 .6569977 .4423828 .598999 .4423828 .5149994 .4423828 .47099305 .38233949 .45399476 .34429933 .43998719 .43138124 .3659973 .4423828 .32099916 .4423828 .24798584 .4423828 .20098877 .39935304 .17298889 .33729554V.4423828L.03199768 .43066407V.3996582C.101989749 .3996582 .10998535 .39266969 .10998535 .34370423V.07595825C.10998535 .0309906 .09899902 .0309906 .03199768 .0309906V0L.14498902 .0029907227 .25698854 0V.0309906C.18998719 .0309906 .1789856 .0309906 .1789856 .07595825V.25978089C.1789856 .36431886 .25 .42037965 .31399537 .42037965 .3769989 .42037965 .3880005 .36631776 .3880005 .30926515V.076034549C.3880005 .0309906 .3769989 .0309906 .30999757 .0309906V0L.4229889 .0029907227 .5349884 0V.0309906C.46798707 .0309906 .45700074 .0309906 .45700074 .076034549V.2602234C.45700074 .36431886 .5279999 .42037965 .59199526 .42037965 .6549988 .42037965 .66600039 .36631776 .66600039 .30926515V.076034549C.66600039 .0309906 .6549988 .0309906 .58799746 .0309906V0L.70098879 .0029907227 .8129883 0Z"/>
<path id="font_2_2" d="M.2659912 .63912966C.2659912 .66012576 .2649994 .6611328 .25099183 .6611328 .21199036 .61424258 .15299988 .5993042 .09700012 .5973053 .09399414 .5973053 .08898926 .5973053 .08799744 .5953064 .08699036 .5933075 .08699036 .5913086 .08699036 .5703125 .117996219 .5703125 .16999817 .5763092 .20999146 .600296V.073013309C.20999146 .037994386 .20799256 .025985718 .12199402 .025985718H.09199524V0C.13999939 .0009918213 .18998719 .0019989014 .23799134 .0019989014 .28599549 .0019989014 .33599855 .0009918213 .38398744 0V.025985718H.35398866C.2679901 .025985718 .2659912 .037002565 .2659912 .073013309V.63912966Z"/>
<path id="font_2_3" d="M.4169922 .15492249H.39898683C.3889923 .083969119 .3809967 .07197571 .3769989 .06599426 .37199403 .057998659 .2999878 .057998659 .28599549 .057998659H.09399414C.12998963 .096969608 .19999695 .16792298 .2849884 .24986267 .34599305 .30781556 .4169922 .37576295 .4169922 .47473146 .4169922 .59298709 .32299806 .6611328 .21798706 .6611328 .10798645 .6611328 .040985109 .5639038 .040985109 .47373963 .040985109 .43473817 .069992069 .42973329 .08198547 .42973329 .09199524 .42973329 .12199402 .43572999 .12199402 .47073365 .12199402 .5017395 .09599304 .5107422 .08198547 .5107422 .07598877 .5107422 .069992069 .5097351 .06599426 .5077362 .084991458 .59298709 .14299011 .63513186 .20399475 .63513186 .29100038 .63513186 .34799195 .5659027 .34799195 .47473146 .34799195 .38775636 .29699708 .31282044 .23999024 .24786377L.040985109 .022994996V0H.3929901L.4169922 .15492249Z"/>
<path id="font_2_1" d="M.41999818 .3212433C.41999818 .38223268 .4189911 .4861908 .3769989 .5661621 .33999635 .6361389 .2809906 .6611328 .22898865 .6611328 .18099976 .6611328 .11999512 .63912966 .08198547 .56715396 .041992189 .4921875 .037994386 .3992157 .037994386 .3212433 .037994386 .26426698 .038986207 .17730713 .069992069 .10133362 .11299133-.0016326904 .18998719-.015625 .22898865-.015625 .2749939-.015625 .34498597 .0033721924 .38598634 .09832764 .41600038 .16731262 .41999818 .24827576 .41999818 .3212433M.22898865 .00036621095C.16499329 .00036621095 .1269989 .055343629 .11299133 .13131714 .101989749 .19029236 .101989749 .27626039 .101989749 .33224488 .101989749 .4092102 .101989749 .4731903 .114990238 .5341644 .13398743 .6191406 .18998719 .64512637 .22898865 .64512637 .269989 .64512637 .32299806 .61813357 .34199525 .53616335 .35499574 .479187 .35598756 .4122162 .35598756 .33224488 .35598756 .26727296 .35598756 .18730164 .34399415 .12832642 .32299806 .019363404 .2639923 .00036621095 .22898865 .00036621095Z"/>
<path id="font_3_1" d="M.44400025 .24998474C.44400025 .357193 .35499574 .44429017 .25 .44429017 .14199829 .44429017 .054992677 .3551941 .054992677 .24998474 .054992677 .14378357 .14199829 .05569458 .25 .05569458 .35499574 .05569458 .44400025 .14279175 .44400025 .24998474M.25 .095703128C.16299439 .095703128 .09498596 .16583252 .09498596 .24998474 .09498596 .33415223 .1639862 .40429688 .25 .40429688 .33299256 .40429688 .4039917 .33615113 .4039917 .24998474 .4039917 .16383362 .33299256 .095703128 .25 .095703128Z"/>
</defs>
<path transform="matrix(1,0,0,-1.00005,115.681,115.587978)" stroke-width=".79701" stroke-linecap="butt" stroke-miterlimit="10" stroke-linejoin="miter" fill="none" stroke="#000000" d="M113.38728 0C113.38728 62.62285 62.62285 113.38728 0 113.38728-62.62285 113.38728-113.38728 62.62285-113.38728 0-113.38728-62.62285-62.62285-113.38728 0-113.38728 62.62285-113.38728 113.38728-62.62285 113.38728 0ZM0 0"/>
<path transform="matrix(1,0,0,-1.00005,115.681,115.587978)" stroke-width=".79701" stroke-linecap="butt" stroke-miterlimit="10" stroke-linejoin="miter" fill="none" stroke="#000000" d="M0 0H113.38728"/>
<path transform="matrix(1,0,0,-1.00005,115.681,115.587978)" stroke-width=".79701" stroke-linecap="butt" stroke-miterlimit="10" stroke-linejoin="miter" fill="none" stroke="#000000" d="M0 0-56.69363 98.19653"/>
<path transform="matrix(1,0,0,-1.00005,115.681,115.587978)" stroke-width=".79701" stroke-linecap="butt" stroke-miterlimit="10" stroke-linejoin="miter" fill="none" stroke="#000000" d="M113.38728 0C113.38728 62.62285 62.62285 113.38728 0 113.38728-19.89847 113.38728-39.461 108.14577-56.69363 98.19653"/>
<path transform="matrix(1,0,0,-1.00005,115.681,115.587978)" stroke-width="1.19553" stroke-linecap="butt" stroke-miterlimit="10" stroke-linejoin="miter" fill="none" stroke="#0000ff" d="M0 0 112.95474 9.88261"/>
<path transform="matrix(1,0,0,-1.00005,115.681,115.587978)" stroke-width="1.19553" stroke-linecap="butt" stroke-miterlimit="10" stroke-linejoin="miter" fill="none" stroke="#0000ff" d="M0 0 111.66577 19.68912"/>
<path transform="matrix(1,0,0,-1.00005,115.681,115.587978)" stroke-width="1.19553" stroke-linecap="butt" stroke-miterlimit="10" stroke-linejoin="miter" fill="none" stroke="#0000ff" d="M0 0 109.52383 29.34683"/>
<path transform="matrix(1,0,0,-1.00005,115.681,115.587978)" stroke-width="1.19553" stroke-linecap="butt" stroke-miterlimit="10" stroke-linejoin="miter" fill="none" stroke="#0000ff" d="M0 0 106.5497 38.78136"/>
<path transform="matrix(1,0,0,-1.00005,115.681,115.587978)" stroke-width="1.19553" stroke-linecap="butt" stroke-miterlimit="10" stroke-linejoin="miter" fill="none" stroke="#0000ff" d="M0 0 102.76413 47.92001"/>
<path transform="matrix(1,0,0,-1.00005,115.681,115.587978)" stroke-width="1.19553" stroke-linecap="butt" stroke-miterlimit="10" stroke-linejoin="miter" fill="none" stroke="#0000ff" d="M0 0 98.19653 56.69363"/>
<path transform="matrix(1,0,0,-1.00005,115.681,115.587978)" stroke-width="1.19553" stroke-linecap="butt" stroke-miterlimit="10" stroke-linejoin="miter" fill="none" stroke="#0000ff" d="M0 0 92.8815 65.03642"/>
<path transform="matrix(1,0,0,-1.00005,115.681,115.587978)" stroke-width="1.19553" stroke-linecap="butt" stroke-miterlimit="10" stroke-linejoin="miter" fill="none" stroke="#0000ff" d="M0 0 86.85884 72.8844"/>
<path transform="matrix(1,0,0,-1.00005,115.681,115.587978)" stroke-width="1.19553" stroke-linecap="butt" stroke-miterlimit="10" stroke-linejoin="miter" fill="none" stroke="#0000ff" d="M0 0 80.17699 80.17699"/>
<path transform="matrix(1,0,0,-1.00005,115.681,115.587978)" stroke-width="1.19553" stroke-linecap="butt" stroke-miterlimit="10" stroke-linejoin="miter" fill="none" stroke="#0000ff" d="M0 0 72.8844 86.85884"/>
<path transform="matrix(1,0,0,-1.00005,115.681,115.587978)" stroke-width="1.19553" stroke-linecap="butt" stroke-miterlimit="10" stroke-linejoin="miter" fill="none" stroke="#0000ff" d="M0 0 65.03642 92.8815"/>
<path transform="matrix(1,0,0,-1.00005,115.681,115.587978)" stroke-width="1.19553" stroke-linecap="butt" stroke-miterlimit="10" stroke-linejoin="miter" fill="none" stroke="#0000ff" d="M0 0 56.69363 98.19653"/>
<path transform="matrix(1,0,0,-1.00005,115.681,115.587978)" stroke-width="1.19553" stroke-linecap="butt" stroke-miterlimit="10" stroke-linejoin="miter" fill="none" stroke="#0000ff" d="M0 0 47.92001 102.76413"/>
<path transform="matrix(1,0,0,-1.00005,115.681,115.587978)" stroke-width="1.19553" stroke-linecap="butt" stroke-miterlimit="10" stroke-linejoin="miter" fill="none" stroke="#0000ff" d="M0 0 38.78136 106.5497"/>
<path transform="matrix(1,0,0,-1.00005,115.681,115.587978)" stroke-width="1.19553" stroke-linecap="butt" stroke-miterlimit="10" stroke-linejoin="miter" fill="none" stroke="#0000ff" d="M0 0 29.34683 109.52383"/>
<path transform="matrix(1,0,0,-1.00005,115.681,115.587978)" stroke-width="1.19553" stroke-linecap="butt" stroke-miterlimit="10" stroke-linejoin="miter" fill="none" stroke="#0000ff" d="M0 0 19.68912 111.66577"/>
<path transform="matrix(1,0,0,-1.00005,115.681,115.587978)" stroke-width="1.19553" stroke-linecap="butt" stroke-miterlimit="10" stroke-linejoin="miter" fill="none" stroke="#0000ff" d="M0 0 9.88261 112.95474"/>
<path transform="matrix(1,0,0,-1.00005,115.681,115.587978)" stroke-width="1.19553" stroke-linecap="butt" stroke-miterlimit="10" stroke-linejoin="miter" fill="none" stroke="#0000ff" d="M0 0V113.38728"/>
<path transform="matrix(1,0,0,-1.00005,115.681,115.587978)" stroke-width="1.19553" stroke-linecap="butt" stroke-miterlimit="10" stroke-linejoin="miter" fill="none" stroke="#0000ff" d="M0 0-9.88261 112.95474"/>
<path transform="matrix(1,0,0,-1.00005,115.681,115.587978)" stroke-width="1.19553" stroke-linecap="butt" stroke-miterlimit="10" stroke-linejoin="miter" fill="none" stroke="#0000ff" d="M0 0-19.68912 111.66577"/>
<path transform="matrix(1,0,0,-1.00005,115.681,115.587978)" stroke-width="1.19553" stroke-linecap="butt" stroke-miterlimit="10" stroke-linejoin="miter" fill="none" stroke="#0000ff" d="M0 0-29.34683 109.52383"/>
<path transform="matrix(1,0,0,-1.00005,115.681,115.587978)" stroke-width="1.19553" stroke-linecap="butt" stroke-miterlimit="10" stroke-linejoin="miter" fill="none" stroke="#0000ff" d="M0 0-38.78136 106.5497"/>
<path transform="matrix(1,0,0,-1.00005,115.681,115.587978)" stroke-width="1.19553" stroke-linecap="butt" stroke-miterlimit="10" stroke-linejoin="miter" fill="none" stroke="#0000ff" d="M0 0-47.92001 102.76413"/>
<path transform="matrix(1,0,0,-1.00005,115.681,115.587978)" stroke-width=".3985" stroke-linecap="butt" stroke-miterlimit="10" stroke-linejoin="miter" fill="none" stroke="#000000" d="M34.0161 0"/>
<use data-text="2" xlink:href="#font_1_107" transform="matrix(9.9626,0,0,-9.963098,153.217,125.743488)"/>
<use data-text="0" xlink:href="#font_1_121" transform="matrix(9.9626,0,0,-9.963098,158.19829,125.743488)"/>
<use data-text="c" xlink:href="#font_1_43" transform="matrix(9.9626,0,0,-9.963098,166.48717,125.743488)"/>
<use data-text="m" xlink:href="#font_1_75" transform="matrix(9.9626,0,0,-9.963098,170.91057,125.743488)"/>
<path transform="matrix(1,0,0,-1.00005,115.681,115.587978)" stroke-width=".3985" stroke-linecap="butt" stroke-miterlimit="10" stroke-linejoin="miter" fill="none" stroke="#000000" d="M-17.00804 29.45888"/>
<use data-text="2" xlink:href="#font_1_107" transform="matrix(9.9626,0,0,-9.963098,69.15,96.283008)"/>
<use data-text="0" xlink:href="#font_1_121" transform="matrix(9.9626,0,0,-9.963098,74.131298,96.283008)"/>
<use data-text="c" xlink:href="#font_1_43" transform="matrix(9.9626,0,0,-9.963098,82.42017,96.283008)"/>
<use data-text="m" xlink:href="#font_1_75" transform="matrix(9.9626,0,0,-9.963098,86.843578,96.283008)"/>
<path transform="matrix(1,0,0,-1.00005,115.681,115.587978)" stroke-width=".3985" stroke-linecap="butt" stroke-miterlimit="10" stroke-linejoin="miter" fill="none" stroke="#000000" d="M28.3468 0C28.3468 15.6557 15.6557 28.3468 0 28.3468-4.97461 28.3468-9.86523 27.0364-14.17339 24.5491"/>
<use data-text="1" xlink:href="#font_2_2" transform="matrix(20.6625,0,0,-20.663533,130.203,95.192958)"/>
<use data-text="2" xlink:href="#font_2_3" transform="matrix(20.6625,0,0,-20.663533,139.66643,95.192958)"/>
<use data-text="0" xlink:href="#font_2_1" transform="matrix(20.6625,0,0,-20.663533,149.12985,95.192958)"/>
<use data-text="&#x25e6;" xlink:href="#font_3_1" transform="matrix(14.3462,0,0,-14.346916,158.632,87.69458)"/>
</svg>
