<svg xmlns="http://www.w3.org/2000/svg" xmlns:xlink="http://www.w3.org/1999/xlink" xmlns:inkscape="http://www.inkscape.org/namespaces/inkscape" version="1.1" width="119" height="203" viewBox="0 0 119 203">
<path transform="matrix(1.00003,0,0,-1.00005,2.4945145,58.893148)" d="M0 0 56.69362 56.69362 113.38724 0Z" fill="#ffbfbf"/>
<path transform="matrix(1.00003,0,0,-1.00005,2.4945145,58.893148)" stroke-width="1.19553" stroke-linecap="butt" stroke-miterlimit="10" stroke-linejoin="miter" fill="none" stroke="#000000" d="M0 0 56.69362 56.69362 113.38724 0Z"/>
<path transform="matrix(1.00003,0,0,-1.00005,2.4945145,58.893148)" d="M0-141.73404 56.69362-85.04042 113.38724-141.73404Z" fill="#ffbfbf"/>
<path transform="matrix(1.00003,0,0,-1.00005,2.4945145,58.893148)" stroke-width="1.19553" stroke-linecap="butt" stroke-miterlimit="10" stroke-linejoin="miter" fill="none" stroke="#000000" d="M0-141.73404 56.69362-85.04042 113.38724-141.73404Z"/>
<path transform="matrix(1.00003,0,0,-1.00005,2.4945145,58.893148)" stroke-width="1.19553" stroke-linecap="butt" stroke-miterlimit="10" stroke-linejoin="miter" fill="none" stroke="#000000" d="M0 0V-141.73404"/>
<path transform="matrix(1.00003,0,0,-1.00005,2.4945145,58.893148)" stroke-width="1.19553" stroke-linecap="butt" stroke-miterlimit="10" stroke-linejoin="miter" fill="none" stroke="#000000" d="M56.69362 56.69362V-85.04042"/>
<path transform="matrix(1.00003,0,0,-1.00005,2.4945145,58.893148)" stroke-width="1.19553" stroke-linecap="butt" stroke-miterlimit="10" stroke-linejoin="miter" fill="none" stroke="#000000" d="M113.38724 0V-141.73404"/>
<path transform="matrix(1.00003,0,0,-1.00005,2.4945145,58.893148)" stroke-width="1.19553" stroke-linecap="butt" stroke-miterlimit="10" stroke-linejoin="miter" fill="none" stroke="#000000" d="M0-141.73404H113.38724"/>
<path transform="matrix(1.00003,0,0,-1.00005,2.4945145,58.893148)" stroke-width="1.19553" stroke-linecap="butt" stroke-miterlimit="10" stroke-linejoin="miter" fill="none" stroke="#000000" d="M0 0H113.38724"/>
</svg>
