<svg xmlns="http://www.w3.org/2000/svg" xmlns:xlink="http://www.w3.org/1999/xlink" xmlns:inkscape="http://www.inkscape.org/namespaces/inkscape" version="1.1" width="169" height="161" viewBox="0 0 169 161">
<defs>
<path id="font_1_51" d="M.526001 .1875C.526001 .29545594 .44198609 .3424225 .3929901 .3704071 .46299745 .40638734 .49398805 .45036317 .49398805 .5083313 .49398805 .61027529 .40299989 .65527346 .2889862 .65527346 .1499939 .65527346 .07998657 .57629397 .07998657 .48034669 .07998657 .43637086 .09799194 .3734131 .17599488 .32943727 .09199524 .29244996 .04798889 .23548889 .04798889 .16145325 .04798889 .040267946 .1559906-.0107421879 .2849884-.0107421879 .44499208-.0107421879 .526001 .077316287 .526001 .1875M.4189911 .5073242C.4189911 .45835877 .3929901 .42437745 .34899903 .395401L.19898987 .4793396C.18299866 .4883423 .15499878 .5053253 .15499878 .53930667 .15499878 .6092682 .24499512 .616272 .2849884 .616272 .36898805 .616272 .4189911 .57528689 .4189911 .5073242M.43998719 .13240052C.43998719 .04827881 .34599305 .03225708 .2889862 .03225708 .19099427 .03225708 .13398743 .08332825 .13398743 .16145325 .13398743 .2394867 .18699646 .28245545 .22200012 .30244447L.35899354 .2264862C.40299989 .20149231 .43998719 .18048096 .43998719 .13240052Z"/>
<path id="font_1_43" d="M.47799684 .117126468C.47799684 .13113404 .46398927 .13113404 .45399476 .13113404 .43598939 .13113404 .43499757 .12913513 .42999269 .11613464 .4039917 .053131105 .35598756 .03413391 .30499269 .03413391 .1659851 .03413391 .1659851 .18112183 .1659851 .22712708 .1659851 .28312684 .1659851 .41311646 .29499818 .41311646 .32998658 .41311646 .34700013 .41011048 .3600006 .40711976 .34199525 .39111329 .33999635 .3701172 .33999635 .3611145 .33999635 .3171234 .375 .29811097 .4019928 .29811097 .43299867 .29811097 .46499635 .3191223 .46499635 .3611145 .46499635 .44711305 .34899903 .453125 .29100038 .453125 .11199951 .45314027 .037994386 .33813478 .037994386 .22213745 .037994386 .08912659 .13198853-.005859375 .28599549-.005859375 .44799806-.005859375 .47799684 .11013794 .47799684 .117126468Z"/>
<path id="font_1_75" d="M.93499758 0V.04699707H.8659973V.30613709C.8659973 .40919496 .8149872 .4501953 .71199038 .4501953 .62098696 .4501953 .56900027 .40019227 .54299929 .3541565 .522995 .44718934 .43099977 .4501953 .3929901 .4501953 .30599977 .4501953 .24899292 .40518189 .21699524 .3421631V.4501953L.04499817 .4423828V.39537049C.10699463 .39537049 .11399841 .39537049 .11399841 .3563385V.04699707H.04499817V0L.17098999 .0029907227 .29699708 0V.04699707H.22799683V.2562256C.22799683 .3653412 .31498719 .41436769 .3769989 .41436769 .41099549 .41436769 .43299867 .39437867 .43299867 .31729127V.04699707H.3639984V0L.48999024 .0029907227 .6159973 0V.04699707H.5469971V.2562256C.5469971 .3653412 .6339874 .41436769 .69599917 .41436769 .7299957 .41436769 .7519989 .39437867 .7519989 .31729127V.04699707H.68299868V0L.8089905 .0029907227 .93499758 0Z"/>
<path id="font_2_57" d="M.47099305 .16503906V.19602967H.37098695V.6507721C.37098695 .6707611 .37098695 .6767578 .35499574 .6767578 .34599305 .6767578 .34298707 .6767578 .33499146 .6647644L.027999878 .19602967V.16503906H.2939911V.07800293C.2939911 .041992189 .2919922 .0309906 .21798706 .0309906H.19699097V0C.23799134 .0029907227 .2899933 .0029907227 .33198548 .0029907227 .37399293 .0029907227 .4269867 .0029907227 .46798707 0V.0309906H.44699098C.37298585 .0309906 .37098695 .041992189 .37098695 .07800293V.16503906H.47099305M.2999878 .19602967H.055999757L.2999878 .56881716V.19602967Z"/>
<path id="font_2_43" d="M.4149933 .119140628C.4149933 .12911988 .40499879 .12911988 .4019928 .12911988 .3929901 .12911988 .3909912 .12512207 .3889923 .119140628 .3600006 .026229859 .29499818 .014251709 .2579956 .014251709 .20498657 .014251709 .116989139 .0572052 .116989139 .21801758 .116989139 .38093568 .19898987 .42323304 .2519989 .42323304 .26098634 .42323304 .32398988 .42222596 .35899354 .38594056 .31799317 .38293458 .31199647 .3529358 .31199647 .3399353 .31199647 .31393434 .32998658 .2939453 .35798646 .2939453 .38398744 .2939453 .4039917 .3109436 .4039917 .34094239 .4039917 .40911866 .32798768 .4482422 .25099183 .4482422 .12599182 .4482422 .033996583 .3399353 .033996583 .21601868 .033996583 .08816528 .1329956-.0107421879 .24899292-.0107421879 .3829956-.0107421879 .4149933 .10914612 .4149933 .119140628Z"/>
<path id="font_2_75" d="M.8129883 0V.0309906C.7609863 .0309906 .73599246 .0309906 .7350006 .061019899V.25221253C.7350006 .3383026 .7350006 .36932374 .70399478 .405365 .6899872 .42237855 .6569977 .4423828 .598999 .4423828 .5149994 .4423828 .47099305 .38233949 .45399476 .34429933 .43998719 .43138124 .3659973 .4423828 .32099916 .4423828 .24798584 .4423828 .20098877 .39935304 .17298889 .33729554V.4423828L.03199768 .43066407V.3996582C.101989749 .3996582 .10998535 .39266969 .10998535 .34370423V.07595825C.10998535 .0309906 .09899902 .0309906 .03199768 .0309906V0L.14498902 .0029907227 .25698854 0V.0309906C.18998719 .0309906 .1789856 .0309906 .1789856 .07595825V.25978089C.1789856 .36431886 .25 .42037965 .31399537 .42037965 .3769989 .42037965 .3880005 .36631776 .3880005 .30926515V.076034549C.3880005 .0309906 .3769989 .0309906 .30999757 .0309906V0L.4229889 .0029907227 .5349884 0V.0309906C.46798707 .0309906 .45700074 .0309906 .45700074 .076034549V.2602234C.45700074 .36431886 .5279999 .42037965 .59199526 .42037965 .6549988 .42037965 .66600039 .36631776 .66600039 .30926515V.076034549C.66600039 .0309906 .6549988 .0309906 .58799746 .0309906V0L.70098879 .0029907227 .8129883 0Z"/>
<path id="font_2_51" d="M.45700074 .16764832C.45700074 .20367432 .44599916 .24871826 .4079895 .29074098 .3889923 .31176759 .37298585 .32176209 .30899049 .36180116 .3809967 .39881898 .42999269 .4508667 .42999269 .51690676 .42999269 .6089783 .34098817 .6660156 .25 .6660156 .1499939 .6660156 .068984989 .5919647 .068984989 .49890138 .068984989 .48088075 .070999149 .43585206 .11299133 .38882447 .12399292 .3768158 .16099549 .35179139 .18598938 .33477784 .12799073 .30575563 .041992189 .24971009 .041992189 .15063477 .041992189 .044555665 .14399719-.022460938 .24899292-.022460938 .3619995-.022460938 .45700074 .060577394 .45700074 .16764832M.38598634 .51690676C.38598634 .45986939 .34700013 .41183473 .2869873 .3768158L.16299439 .4568634C.116989139 .4868927 .11299133 .5209198 .11299133 .53793337 .11299133 .5989685 .17799378 .64100649 .24899292 .64100649 .32199098 .64100649 .38598634 .588974 .38598634 .51690676M.40699769 .13162232C.40699769 .05757141 .33198548 .0055389406 .25 .0055389406 .1639862 .0055389406 .09199524 .06758118 .09199524 .15063477 .09199524 .2086792 .12399292 .2727356 .20899964 .31976319L.33198548 .24171448C.3600006 .22268677 .40699769 .19267273 .40699769 .13162232Z"/>
<path id="font_2_82" d="M.4189911 0V.0309906H.3869934C.29699708 .0309906 .2939911 .041992189 .2939911 .07902527V.64012148C.2939911 .6640167 .2939911 .6660156 .2709961 .6660156 .20899964 .60227969 .12098694 .60227969 .08898926 .60227969V.57128909C.10899353 .57128909 .16799927 .57128909 .21998596 .5972748V.07902527C.21998596 .042999269 .21699524 .0309906 .1269989 .0309906H.09498596V0C.12998963 .0029907227 .21699524 .0029907227 .25698854 .0029907227 .29699708 .0029907227 .38398744 .0029907227 .4189911 0Z"/>
<path id="font_2_121" d="M.45999146 .31976319C.45999146 .39982606 .45498658 .47988893 .41999818 .5539398 .37399293 .65000918 .2919922 .6660156 .25 .6660156 .18998719 .6660156 .116989139 .64001467 .07598877 .54693606 .04399109 .47789 .038986207 .39982606 .038986207 .31976319 .038986207 .24472046 .042999269 .15464783 .083999637 .07859802 .1269989-.0024719239 .19999695-.022460938 .24899292-.022460938 .30299378-.022460938 .3789978-.0014648438 .4229889 .09359741 .45498658 .16265869 .45999146 .2407074 .45999146 .31976319M.3769989 .3317871C.3769989 .25672914 .3769989 .18867493 .3659973 .12461853 .35099793 .029556275 .2939911-.00047302247 .24899292-.00047302247 .20999146-.00047302247 .15098572 .024551392 .1329956 .12062073 .12199402 .18066406 .12199402 .2727356 .12199402 .3317871 .12199402 .39582826 .12199402 .46188355 .12998963 .5159149 .14898682 .63500979 .22399903 .64401248 .24899292 .64401248 .28199769 .64401248 .34799195 .6259918 .36698915 .52693179 .3769989 .47088624 .3769989 .39482118 .3769989 .3317871Z"/>
<path id="font_2_56" d="M.44898988 .20091248C.44898988 .31991578 .36698915 .41992188 .25898744 .41992188 .21099854 .41992188 .16799927 .4039154 .13198853 .36891175V.5641022C.1519928 .55778506 .18499756 .55078127 .21699524 .55078127 .33999635 .55078127 .4099884 .6418457 .4099884 .65493777 .4099884 .6609802 .40699769 .6660156 .3999939 .6660156 .3999939 .66607668 .39698792 .66607668 .3919983 .66308596 .37199403 .65408328 .32299806 .63378909 .2559967 .63378909 .21598816 .63409426 .16999817 .641098 .12298584 .6621094 .114990238 .6651001 .11099243 .6651001 .11099243 .6651001 .100997928 .66508486 .100997928 .657074 .100997928 .64108279V.3447113C.100997928 .3266449 .100997928 .31861878 .114990238 .31861878 .12199402 .31861878 .12399292 .32164 .12799073 .32765199 .13899231 .34371949 .17599488 .3979187 .25698854 .3979187 .30899049 .3979187 .33399964 .3517456 .34199525 .3336792 .35798646 .2965393 .3600006 .2574005 .3600006 .20721436 .3600006 .17218018 .3600006 .112197879 .33599855 .07032776 .31199647 .031448366 .2749939 .0055389406 .22898865 .0055389406 .1559906 .0055389406 .09899902 .05836487 .08198547 .1171875 .084991458 .11685181 .08799744 .115859989 .09899902 .115859989 .13198853 .115859989 .14898682 .14085388 .14898682 .16485596 .14898682 .18885803 .13198853 .21386719 .09899902 .21386719 .084991458 .21386719 .049987794 .2068634 .049987794 .16085816 .049987794 .07432556 .11898804-.022460938 .23098755-.022460938 .34700013-.022460938 .44898988 .07331848 .44898988 .20019531V.20091248Z"/>
</defs>
<path transform="matrix(1.00002,0,0,-1.00003,29.841248,87.523159)" stroke-width="1.19553" stroke-linecap="butt" stroke-miterlimit="10" stroke-linejoin="miter" fill="none" stroke="#0000ff" d="M-28.3468-56.69363H56.69362L113.38724-28.34682"/>
<path transform="matrix(1.00002,0,0,-1.00003,29.841248,87.523159)" stroke-width="1.19553" stroke-linecap="butt" stroke-miterlimit="10" stroke-linejoin="miter" fill="none" stroke="#0000ff" d="M-28.3468-56.69363 0 0"/>
<path transform="matrix(1.00002,0,0,-1.00003,29.841248,87.523159)" stroke-width="1.19553" stroke-linecap="butt" stroke-dasharray="2.98883,2.98883" stroke-miterlimit="10" stroke-linejoin="miter" fill="none" stroke="#0000ff" d="M28.3468-28.34682 34.01608 14.17337"/>
<path transform="matrix(1.00002,0,0,-1.00003,29.841248,87.523159)" stroke-width="1.19553" stroke-linecap="butt" stroke-miterlimit="10" stroke-linejoin="miter" fill="none" stroke="#0000ff" d="M113.38724-28.34682 85.04042 17.00822"/>
<path transform="matrix(1.00002,0,0,-1.00003,29.841248,87.523159)" stroke-width="1.19553" stroke-linecap="butt" stroke-miterlimit="10" stroke-linejoin="miter" fill="none" stroke="#0000ff" d="M56.69362-56.69363 51.02432 0"/>
<path transform="matrix(1.00002,0,0,-1.00003,29.841248,87.523159)" stroke-width="1.19553" stroke-linecap="butt" stroke-dasharray="2.98883,2.98883" stroke-miterlimit="10" stroke-linejoin="miter" fill="none" stroke="#0000ff" d="M-28.3468-56.69363 28.3468-28.34682H113.38724"/>
<path transform="matrix(1.00002,0,0,-1.00003,29.841248,87.523159)" stroke-width="1.19553" stroke-linecap="butt" stroke-miterlimit="10" stroke-linejoin="miter" fill="none" stroke="#0000ff" d="M0 0H51.02432L85.04042 17.00822 34.01608 14.17337Z"/>
<path transform="matrix(1.00002,0,0,-1.00003,29.841248,87.523159)" stroke-width="1.19553" stroke-linecap="butt" stroke-dasharray="2.98883,2.98883" stroke-miterlimit="10" stroke-linejoin="miter" fill="none" stroke="#0000ff" d="M-28.3468-56.69363H56.69362L113.38724-28.34682"/>
<path transform="matrix(1.00002,0,0,-1.00003,29.841248,87.523159)" stroke-width="1.19553" stroke-linecap="butt" stroke-dasharray="2.98883,2.98883" stroke-miterlimit="10" stroke-linejoin="miter" fill="none" stroke="#0000ff" d="M-28.3468-56.69363 28.3468-28.34682H113.38724"/>
<path transform="matrix(1.00002,0,0,-1.00003,29.841248,87.523159)" stroke-width="1.19553" stroke-linecap="butt" stroke-dasharray="2.98883,2.98883" stroke-miterlimit="10" stroke-linejoin="miter" fill="none" stroke="#0000ff" d="M43.08727 85.32372-28.3468-56.69363"/>
<path transform="matrix(1.00002,0,0,-1.00003,29.841248,87.523159)" stroke-width="1.19553" stroke-linecap="butt" stroke-dasharray="2.98883,2.98883" stroke-miterlimit="10" stroke-linejoin="miter" fill="none" stroke="#0000ff" d="M43.08727 85.32372 28.3468-28.34682"/>
<path transform="matrix(1.00002,0,0,-1.00003,29.841248,87.523159)" stroke-width="1.19553" stroke-linecap="butt" stroke-dasharray="2.98883,2.98883" stroke-miterlimit="10" stroke-linejoin="miter" fill="none" stroke="#0000ff" d="M43.08727 85.32372 113.38724-28.34682"/>
<path transform="matrix(1.00002,0,0,-1.00003,29.841248,87.523159)" stroke-width="1.19553" stroke-linecap="butt" stroke-dasharray="2.98883,2.98883" stroke-miterlimit="10" stroke-linejoin="miter" fill="none" stroke="#0000ff" d="M43.08727 85.32372 56.69362-56.69363"/>
<path transform="matrix(1.00002,0,0,-1.00003,29.841248,87.523159)" stroke-width="1.19553" stroke-linecap="butt" stroke-miterlimit="10" stroke-linejoin="miter" fill="none" stroke="#0000ff" d="M0 0H51.02432L85.04042 17.00822"/>
<path transform="matrix(1.00002,0,0,-1.00003,29.841248,87.523159)" stroke-width="1.19553" stroke-linecap="butt" stroke-dasharray="2.98883,2.98883" stroke-miterlimit="10" stroke-linejoin="miter" fill="none" stroke="#0000ff" d="M85.04042 17.00822 34.01608 14.17337 0 0"/>
<path transform="matrix(1.00002,0,0,-1.00003,29.841248,87.523159)" stroke-width=".79701" stroke-linecap="butt" stroke-dasharray="2.98883,2.98883" stroke-miterlimit="10" stroke-linejoin="miter" fill="none" stroke="#ff0000" d="M43.06847 84.61664 39.68535-42.52023H84.33305"/>
<path transform="matrix(.026600533,-.99963006,-.99962,-.026600799,72.91056,2.9039765)" stroke-width=".6376" stroke-linecap="round" stroke-linejoin="round" fill="none" stroke="#ff0000" d="M-1.55415 2.0722C-1.42464 1.29512 0 .1295 .38852 0 0-.1295-1.42464-1.29512-1.55415-2.0722"/>
<path transform="matrix(1.00002,0,0,-1.00003,114.17599,130.04467)" stroke-width=".6376" stroke-linecap="round" stroke-linejoin="round" fill="none" stroke="#ff0000" d="M-1.55415 2.0722C-1.42464 1.29512 0 .1295 .38852 0 0-.1295-1.42464-1.29512-1.55415-2.0722"/>
<use data-text="8" xlink:href="#font_1_51" transform="matrix(9.962799,0,0,-9.962899,68.77702,104.90468)"/>
<use data-text="c" xlink:href="#font_1_43" transform="matrix(9.962799,0,0,-9.962899,78.31142,104.90468)"/>
<use data-text="m" xlink:href="#font_1_75" transform="matrix(9.962799,0,0,-9.962899,83.402408,104.90468)"/>
<path transform="matrix(1.00002,0,0,-1.00003,29.841248,87.523159)" d="M-28.3468-56.69363 28.3468-28.34682H113.38724L56.69362-56.69363Z" fill="#ff0000" fill-opacity=".5"/>
<path transform="matrix(1.00002,0,0,-1.00003,29.841248,87.523159)" d="M0 0H51.02432L85.04042 17.00822 34.01608 14.17337Z" fill="#fff200" fill-opacity=".5"/>
<path transform="matrix(1.00002,0,0,-1.00003,29.841248,87.523159)" d="M51.02432 0 85.04042 17.00822 113.38724-28.34682 56.69362-56.69363Z" fill="#00aeef" fill-opacity=".5"/>
<path transform="matrix(1.00002,0,0,-1.00003,29.841248,87.523159)" d="M28.3468-28.34682H113.38724L85.04042 17.00822 34.01608 14.17337Z" fill="#bf8040" fill-opacity=".5"/>
<path transform="matrix(1.00002,0,0,-1.00003,29.841248,87.523159)" d="M-28.3468-56.69363 28.3468-28.34682 34.01608 14.17337 0 0Z" fill="#00aeef" fill-opacity=".5"/>
<path transform="matrix(1.00002,0,0,-1.00003,29.841248,87.523159)" stroke-width="1.19553" stroke-linecap="butt" stroke-miterlimit="10" stroke-linejoin="miter" fill="none" stroke="#000000" d="M113.38724-27.3904V18.88623"/>
<path transform="matrix(0,1.00003,1.00002,0,143.23076,114.914379)" stroke-width=".9564" stroke-linecap="round" stroke-linejoin="round" fill="none" stroke="#000000" d="M-1.91284 2.55046C-1.75343 1.59402 0 .15938 .4782 0 0-.15938-1.75343-1.59402-1.91284-2.55046"/>
<path transform="matrix(0,-1.00003,-1.00002,-0,143.23076,68.63636)" stroke-width=".9564" stroke-linecap="round" stroke-linejoin="round" fill="none" stroke="#000000" d="M-1.91284 2.55046C-1.75343 1.59402 0 .15938 .4782 0 0-.15938-1.75343-1.59402-1.91284-2.55046"/>
<use data-text="4" xlink:href="#font_2_57" transform="matrix(9.962799,0,0,-9.962899,146.75058,90.841259)"/>
<use data-text="c" xlink:href="#font_2_43" transform="matrix(9.962799,0,0,-9.962899,155.03964,90.841259)"/>
<use data-text="m" xlink:href="#font_2_75" transform="matrix(9.962799,0,0,-9.962899,159.46312,90.841259)"/>
<use data-text="8" xlink:href="#font_2_51" transform="matrix(9.962799,0,0,-9.962899,118.403018,136.08762)"/>
<use data-text="c" xlink:href="#font_2_43" transform="matrix(9.962799,0,0,-9.962899,126.69206,136.08762)"/>
<use data-text="m" xlink:href="#font_2_75" transform="matrix(9.962799,0,0,-9.962899,131.11554,136.08762)"/>
<use data-text="1" xlink:href="#font_2_82" transform="matrix(9.962799,0,0,-9.962899,27.692208,158.76529)"/>
<use data-text="0" xlink:href="#font_2_121" transform="matrix(9.962799,0,0,-9.962899,32.673608,158.76529)"/>
<use data-text="c" xlink:href="#font_2_43" transform="matrix(9.962799,0,0,-9.962899,40.962656,158.76529)"/>
<use data-text="m" xlink:href="#font_2_75" transform="matrix(9.962799,0,0,-9.962899,45.386148,158.76529)"/>
<use data-text="5" xlink:href="#font_2_56" transform="matrix(9.962799,0,0,-9.962899,47.677606,97.67846)"/>
<use data-text="c" xlink:href="#font_2_43" transform="matrix(9.962799,0,0,-9.962899,55.966653,97.67846)"/>
<use data-text="m" xlink:href="#font_2_75" transform="matrix(9.962799,0,0,-9.962899,60.390138,97.67846)"/>
<use data-text="4" xlink:href="#font_2_57" transform="matrix(8.161027,-5.71452,-5.7144629,-8.161109,97.98747,93.45627)"/>
<use data-text="c" xlink:href="#font_2_43" transform="matrix(8.161027,-5.71452,-5.7144629,-8.161109,104.77745,88.70178)"/>
<use data-text="m" xlink:href="#font_2_75" transform="matrix(8.161027,-5.71452,-5.7144629,-8.161109,108.400959,86.164539)"/>
</svg>
