<svg xmlns="http://www.w3.org/2000/svg" xmlns:xlink="http://www.w3.org/1999/xlink" xmlns:inkscape="http://www.inkscape.org/namespaces/inkscape" version="1.1" width="459" height="401" viewBox="0 0 459 401">
<path transform="matrix(1.00005,0,0,-1.00002,115.88583,257.31886)" d="M0 0V113.38724H226.77448V0ZM226.77448 113.38724" fill="#ffbfbf"/>
<path transform="matrix(1.00005,0,0,-1.00002,115.88583,257.31886)" stroke-width="1.19553" stroke-linecap="butt" stroke-miterlimit="10" stroke-linejoin="miter" fill="none" stroke="#000000" d="M0 0V113.38724H226.77448V0ZM226.77448 113.38724"/>
<path transform="matrix(1.00005,0,0,-1.00002,115.88583,257.31886)" stroke-width="1.19553" stroke-linecap="butt" stroke-miterlimit="10" stroke-linejoin="miter" fill="none" stroke="#000000" d="M0 0 113.38724-141.73404 226.77448 0"/>
<path transform="matrix(1.00005,0,0,-1.00002,115.88583,257.31886)" stroke-width="1.19553" stroke-linecap="butt" stroke-miterlimit="10" stroke-linejoin="miter" fill="none" stroke="#000000" d="M0 113.38724 113.38724 255.12128 226.77448 113.38724"/>
<path transform="matrix(1.00005,0,0,-1.00002,115.88583,257.31886)" stroke-width="1.19553" stroke-linecap="butt" stroke-miterlimit="10" stroke-linejoin="miter" fill="none" stroke="#000000" d="M0 0-113.38724 56.69362 0 113.38724"/>
<path transform="matrix(1.00005,0,0,-1.00002,115.88583,257.31886)" stroke-width="1.19553" stroke-linecap="butt" stroke-miterlimit="10" stroke-linejoin="miter" fill="none" stroke="#000000" d="M226.77448 0 340.1617 56.69362 226.77448 113.38724"/>
</svg>
