<svg xmlns="http://www.w3.org/2000/svg" xmlns:xlink="http://www.w3.org/1999/xlink" xmlns:inkscape="http://www.inkscape.org/namespaces/inkscape" version="1.1" width="456" height="501" viewBox="0 0 456 501">
<defs>
<path id="font_1_116" d="M.58499148 0V.04699707H.5139923L.34599305 .2461853 .46299745 .37631227C.47599793 .39031983 .48199464 .3973236 .5649872 .3973236V.44433595L.47299195 .44132997 .36999513 .44433595V.3973236C.38398744 .3973236 .3959961 .3953247 .4079895 .38832093 .4039917 .38230897 .4039917 .38031007 .3999939 .37631227L.31599427 .2822113 .21798706 .3973236H.2579956V.44433595L.13699341 .44132997 .026992798 .44433595V.3973236H.09799194L.2539978 .21315003 .12298584 .06600952C.10598755 .04699707 .069992069 .04699707 .021987915 .04699707V0L.11399841 .0029907227 .21699524 0V.04699707C.19898987 .04699707 .17999268 .052001954 .17999268 .057998659 .17999268 .057998659 .17999268 .05999756 .18699646 .06800842L.28399659 .17712403 .3939972 .04699707H.35499574V0L.47499085 .0029907227 .58499148 0Z"/>
<path id="font_1_64" d="M.31799317 .17382813V.27082826H.0129852299V.17382813H.31799317Z"/>
<path id="font_1_28" d="M.5529938 .023986817C.5529938 .04699707 .5399933 .04699707 .5269928 .04699707 .46598817 .04798889 .46598817 .06100464 .46598817 .083999637V.29907228C.46598817 .3881073 .394989 .453125 .24598694 .453125 .18899536 .453125 .066986087 .44911195 .066986087 .36109925 .066986087 .3170929 .101989749 .29808045 .1289978 .29808045 .1599884 .29808045 .19198609 .3190918 .19198609 .36109925 .19198609 .39111329 .17298889 .40811158 .16999817 .41011048 .19799805 .41612245 .22999573 .41711427 .24198914 .41711427 .31698609 .41711427 .35198976 .3751068 .35198976 .29907228V.26506043C.2809906 .2620697 .026992798 .25306703 .026992798 .10801697 .026992798 .012130737 .15098572-.005859375 .21998596-.005859375 .2999878-.005859375 .34700013 .035125734 .36898805 .07713318 .36898805 .04598999 .36898805 0 .47299195 0H.5209961C.54100039 0 .5529938 0 .5529938 .023986817M.35198976 .13899231C.35198976 .043151857 .2599945 .030136109 .23498535 .030136109 .18399048 .030136109 .14399719 .06517029 .14399719 .10922241 .14399719 .21734619 .3019867 .23136902 .35198976 .234375V.13899231Z"/>
<path id="font_1_66" d="M.28599549 0V.04699707H.22399903V.4501953L.049987794 .4423828V.39537049C.10899353 .39537049 .115997318 .39537049 .115997318 .3563385V.04699707H.04699707V0L.16899109 .0029907227 .28599549 0M.23799134 .60728457C.23799134 .6502838 .20298767 .6852875 .1599884 .6852875 .116989139 .6852875 .08198547 .6502838 .08198547 .60728457 .08198547 .5642853 .116989139 .5292969 .1599884 .5292969 .20298767 .5292969 .23799134 .5642853 .23799134 .60728457Z"/>
<path id="font_1_98" d="M.4149933 .14012146C.4149933 .18312073 .394989 .21812439 .3600006 .24612427 .32099916 .27511598 .2889862 .28112794 .21099854 .29412843 .17399597 .30111695 .10899353 .31211854 .10899353 .3591156 .10899353 .42111207 .20199585 .42111207 .22099304 .42111207 .29599 .42111207 .33399964 .39212037 .33898927 .33711244 .33999635 .32211305 .34098817 .3171234 .3619995 .3171234 .38598634 .3171234 .38598634 .32211305 .38598634 .3451233V.42510987C.38598634 .4441223 .38598634 .453125 .36799623 .453125 .3639984 .453125 .3619995 .453125 .32299806 .43411256 .29699708 .44711305 .2619934 .453125 .22200012 .453125 .19198609 .453125 .037994386 .453125 .037994386 .32211305 .037994386 .28211976 .057998659 .25512696 .07798767 .23812866 .117996219 .203125 .1559906 .1971283 .23298645 .18312073 .2689972 .17712403 .34399415 .16412354 .34399415 .10513306 .34399415 .030136109 .2519989 .030136109 .22999573 .030136109 .12399292 .030136109 .09799194 .103134158 .085998538 .14613343 .08099365 .16012573 .07598877 .16012573 .06199646 .16012573 .037994386 .16012573 .037994386 .15412903 .037994386 .13113404V.022140503C.037994386 .0031280518 .037994386-.005859375 .055999757-.005859375 .06298828-.005859375 .06498718-.005859375 .085998538 .009140015L.11199951 .026138306C.1579895-.005859375 .20999146-.005859375 .22999573-.005859375 .26098634-.005859375 .4149933-.005859375 .4149933 .14013672V.14012146Z"/>
<path id="font_1_118" d="M.5799866 .3973236V.44433595C.55599978 .44232179 .526001 .44132997 .5009918 .44132997L.4099884 .44433595V.3973236C.4099884 .3973236 .45700074 .3973236 .45700074 .3853302L.45199586 .37332154 .33699037 .12713623 .20999146 .3973236H.2639923V.44433595L.13999939 .44132997 .025985718 .44433595V.3973236H.08999634L.2769928 .000045776369 .2539978-.04798889C.23199463-.09602356 .19999695-.1640625 .1289978-.1640625 .114990238-.1640625 .11299133-.16307068 .10499573-.1600647 .11399841-.1560669 .13699341-.14205933 .13699341-.10702515 .13699341-.07400513 .11299133-.049987794 .07899475-.049987794 .050994874-.049987794 .021987915-.069000247 .021987915-.10803223 .021987915-.15907288 .068984989-.20007324 .1289978-.20007324 .20599365-.20007324 .2639923-.13804627 .29100038-.08100891L.5059967 .37631227C.5130005 .39031983 .5159912 .3973236 .5799866 .3973236Z"/>
<path id="font_2_64" d="M.27598573 .18710327V.24511719H.010986328V.18710327H.27598573Z"/>
<path id="font_2_100" d="M.4850006 .6435547H.24198914C.11999512 .6435547 .117996219 .6566467 .11399841 .67578127H.08898926L.055999757 .46954347H.08099365C.083999637 .48554994 .09298706 .54855349 .10598755 .5605469 .11299133 .5665436 .19099427 .5665436 .20399475 .5665436H.41099549L.29899598 .40853883C.20899964 .2735443 .17599488 .13453675 .17599488 .03253174 .17599488 .022537232 .17599488-.022460938 .22200012-.022460938 .2679901-.022460938 .2679901 .022537232 .2679901 .03253174V.08354187C.2679901 .13853455 .2709961 .19354248 .2789917 .24754334 .2829895 .27053834 .29699708 .35653688 .34098817 .41854859L.47599793 .608551C.4850006 .62054446 .4850006 .62254336 .4850006 .6435547Z"/>
<path id="font_2_101" d="M.45700074 .2036438C.45700074 .33070375 .36799623 .4267578 .25698854 .4267578 .18899536 .4267578 .1519928 .37573243 .13198853 .327713V.35173036C.13198853 .6047821 .2559967 .64100649 .30699159 .64100649 .33099366 .64100649 .37298585 .634964 .394989 .6007538 .37998963 .6007538 .33999635 .6007538 .33999635 .5557556 .33999635 .524765 .3639984 .5097656 .38598634 .5097656 .4019928 .5097656 .43199159 .51875308 .43199159 .5577545 .43199159 .6178589 .3880005 .6660156 .30499269 .6660156 .1769867 .6660156 .041992189 .5367584 .041992189 .31570436 .041992189 .048553468 .1579895-.022460938 .25099183-.022460938 .3619995-.022460938 .45700074 .07156372 .45700074 .2036438M.36698915 .20463562C.36698915 .15661621 .36698915 .10658264 .34999085 .0705719 .31999208 .010528564 .27398683 .0055389406 .25099183 .0055389406 .18798828 .0055389406 .1579895 .06556702 .1519928 .080566409 .13398743 .127594 .13398743 .2076416 .13398743 .22564698 .13398743 .30369569 .1659851 .40374757 .2559967 .40374757 .27198792 .40374757 .31799317 .40374757 .34899903 .34172059 .36698915 .30470277 .36698915 .2536621 .36698915 .20463562Z"/>
<path id="font_2_56" d="M.44898988 .20091248C.44898988 .31991578 .36698915 .41992188 .25898744 .41992188 .21099854 .41992188 .16799927 .4039154 .13198853 .36891175V.5641022C.1519928 .55778506 .18499756 .55078127 .21699524 .55078127 .33999635 .55078127 .4099884 .6418457 .4099884 .65493777 .4099884 .6609802 .40699769 .6660156 .3999939 .6660156 .3999939 .66607668 .39698792 .66607668 .3919983 .66308596 .37199403 .65408328 .32299806 .63378909 .2559967 .63378909 .21598816 .63409426 .16999817 .641098 .12298584 .6621094 .114990238 .6651001 .11099243 .6651001 .11099243 .6651001 .100997928 .66508486 .100997928 .657074 .100997928 .64108279V.3447113C.100997928 .3266449 .100997928 .31861878 .114990238 .31861878 .12199402 .31861878 .12399292 .32164 .12799073 .32765199 .13899231 .34371949 .17599488 .3979187 .25698854 .3979187 .30899049 .3979187 .33399964 .3517456 .34199525 .3336792 .35798646 .2965393 .3600006 .2574005 .3600006 .20721436 .3600006 .17218018 .3600006 .112197879 .33599855 .07032776 .31199647 .031448366 .2749939 .0055389406 .22898865 .0055389406 .1559906 .0055389406 .09899902 .05836487 .08198547 .1171875 .084991458 .11685181 .08799744 .115859989 .09899902 .115859989 .13198853 .115859989 .14898682 .14085388 .14898682 .16485596 .14898682 .18885803 .13198853 .21386719 .09899902 .21386719 .084991458 .21386719 .049987794 .2068634 .049987794 .16085816 .049987794 .07432556 .11898804-.022460938 .23098755-.022460938 .34700013-.022460938 .44898988 .07331848 .44898988 .20019531V.20091248Z"/>
<path id="font_2_57" d="M.47099305 .16503906V.19602967H.37098695V.6507721C.37098695 .6707611 .37098695 .6767578 .35499574 .6767578 .34599305 .6767578 .34298707 .6767578 .33499146 .6647644L.027999878 .19602967V.16503906H.2939911V.07800293C.2939911 .041992189 .2919922 .0309906 .21798706 .0309906H.19699097V0C.23799134 .0029907227 .2899933 .0029907227 .33198548 .0029907227 .37399293 .0029907227 .4269867 .0029907227 .46798707 0V.0309906H.44699098C.37298585 .0309906 .37098695 .041992189 .37098695 .07800293V.16503906H.47099305M.2999878 .19602967H.055999757L.2999878 .56881716V.19602967Z"/>
<path id="font_2_106" d="M.45700074 .17037964C.45700074 .252594 .3939972 .33088685 .2899933 .35191346 .37199403 .37893678 .42999269 .4490509 .42999269 .52809146 .42999269 .6100464 .34199525 .6660156 .24598694 .6660156 .14498902 .6660156 .068984989 .60606387 .068984989 .53009036 .068984989 .49710084 .09098816 .47808839 .11999512 .47808839 .15098572 .47808839 .17098999 .50009158 .17098999 .5290985 .17098999 .57910159 .12399292 .57910159 .10899353 .57910159 .13999939 .62802127 .20599365 .64100649 .24198914 .64100649 .2829895 .64100649 .33799745 .6190338 .33799745 .5290985 .33799745 .51708987 .33599855 .45906068 .30999757 .4149933 .27999879 .36691285 .24598694 .36390687 .22099304 .36291505 .21299744 .36190797 .18899536 .35990907 .18199158 .35990907 .17399597 .35890199 .16699219 .35791017 .16699219 .3479004 .16699219 .33691407 .17399597 .33691407 .19099427 .33691407H.23498535C.31698609 .33691407 .35398866 .2686615 .35398866 .17037964 .35398866 .034469606 .2849884 .0055389406 .24099732 .0055389406 .19799805 .0055389406 .12298584 .022491456 .08799744 .08137512 .12298584 .07637024 .1539917 .09837341 .1539917 .1363678 .1539917 .17237854 .1269989 .19238281 .09799194 .19238281 .07398987 .19238281 .041992189 .17837525 .041992189 .1343689 .041992189 .043441774 .1349945-.022460938 .24398804-.022460938 .3659973-.022460938 .45700074 .06838989 .45700074 .17037964Z"/>
<path id="font_2_107" d="M.44898988 .17396546H.42399598C.4189911 .14398194 .4119873 .099990848 .4019928 .084991458 .394989 .07699585 .32899476 .07699585 .30699159 .07699585H.1269989L.23298645 .17996216C.3889923 .31803895 .44898988 .37210084 .44898988 .47216798 .44898988 .5860901 .35899354 .6660156 .23699951 .6660156 .12399292 .6660156 .049987794 .57411196 .049987794 .48516847 .049987794 .4291687 .099990848 .4291687 .102996829 .4291687 .11999512 .4291687 .15499878 .44117738 .15499878 .48217774 .15499878 .5081787 .13699341 .5341797 .101989749 .5341797 .09399414 .5341797 .09199524 .5341797 .08898926 .5331726 .11199951 .59806826 .1659851 .63500979 .22399903 .63500979 .31498719 .63500979 .35798646 .5541382 .35798646 .47216798 .35798646 .39196778 .30799867 .31297303 .25299073 .25097657L.06098938 .036987306C.049987794 .025985718 .049987794 .023986817 .049987794 0H.42099L.44898988 .17396546Z"/>
<path id="font_2_82" d="M.4189911 0V.0309906H.3869934C.29699708 .0309906 .2939911 .041992189 .2939911 .07902527V.64012148C.2939911 .6640167 .2939911 .6660156 .2709961 .6660156 .20899964 .60227969 .12098694 .60227969 .08898926 .60227969V.57128909C.10899353 .57128909 .16799927 .57128909 .21998596 .5972748V.07902527C.21998596 .042999269 .21699524 .0309906 .1269989 .0309906H.09498596V0C.12998963 .0029907227 .21699524 .0029907227 .25698854 .0029907227 .29699708 .0029907227 .38398744 .0029907227 .4189911 0Z"/>
<path id="font_2_121" d="M.45999146 .31976319C.45999146 .39982606 .45498658 .47988893 .41999818 .5539398 .37399293 .65000918 .2919922 .6660156 .25 .6660156 .18998719 .6660156 .116989139 .64001467 .07598877 .54693606 .04399109 .47789 .038986207 .39982606 .038986207 .31976319 .038986207 .24472046 .042999269 .15464783 .083999637 .07859802 .1269989-.0024719239 .19999695-.022460938 .24899292-.022460938 .30299378-.022460938 .3789978-.0014648438 .4229889 .09359741 .45498658 .16265869 .45999146 .2407074 .45999146 .31976319M.3769989 .3317871C.3769989 .25672914 .3769989 .18867493 .3659973 .12461853 .35099793 .029556275 .2939911-.00047302247 .24899292-.00047302247 .20999146-.00047302247 .15098572 .024551392 .1329956 .12062073 .12199402 .18066406 .12199402 .2727356 .12199402 .3317871 .12199402 .39582826 .12199402 .46188355 .12998963 .5159149 .14898682 .63500979 .22399903 .64401248 .24899292 .64401248 .28199769 .64401248 .34799195 .6259918 .36698915 .52693179 .3769989 .47088624 .3769989 .39482118 .3769989 .3317871Z"/>
<path id="font_2_51" d="M.45700074 .16764832C.45700074 .20367432 .44599916 .24871826 .4079895 .29074098 .3889923 .31176759 .37298585 .32176209 .30899049 .36180116 .3809967 .39881898 .42999269 .4508667 .42999269 .51690676 .42999269 .6089783 .34098817 .6660156 .25 .6660156 .1499939 .6660156 .068984989 .5919647 .068984989 .49890138 .068984989 .48088075 .070999149 .43585206 .11299133 .38882447 .12399292 .3768158 .16099549 .35179139 .18598938 .33477784 .12799073 .30575563 .041992189 .24971009 .041992189 .15063477 .041992189 .044555665 .14399719-.022460938 .24899292-.022460938 .3619995-.022460938 .45700074 .060577394 .45700074 .16764832M.38598634 .51690676C.38598634 .45986939 .34700013 .41183473 .2869873 .3768158L.16299439 .4568634C.116989139 .4868927 .11299133 .5209198 .11299133 .53793337 .11299133 .5989685 .17799378 .64100649 .24899292 .64100649 .32199098 .64100649 .38598634 .588974 .38598634 .51690676M.40699769 .13162232C.40699769 .05757141 .33198548 .0055389406 .25 .0055389406 .1639862 .0055389406 .09199524 .06758118 .09199524 .15063477 .09199524 .2086792 .12399292 .2727356 .20899964 .31976319L.33198548 .24171448C.3600006 .22268677 .40699769 .19267273 .40699769 .13162232Z"/>
<path id="font_1_52" d="M.82899478 .36203004C.82899478 .39302064 .7979889 .39302064 .7829895 .39302064H.10998535C.09498596 .39302064 .06399536 .39302064 .06399536 .36203004 .06399536 .33203126 .09298706 .33203126 .10499573 .33203126H.7879944C.7999878 .33203126 .82899478 .33203126 .82899478 .36203004M.82899478 .13893128C.82899478 .16894531 .7999878 .16894531 .7879944 .16894531H.10499573C.09298706 .16894531 .06399536 .16894531 .06399536 .13893128 .06399536 .107940677 .09498596 .107940677 .10998535 .107940677H.7829895C.7979889 .107940677 .82899478 .107940677 .82899478 .13893128Z"/>
<path id="font_1_107" d="M.5169983 .22200012H.46998597C.46699525 .20199585 .45799256 .13798523 .44400025 .1309967 .43299867 .125 .35798646 .125 .34199525 .125H.19499207C.24198914 .1639862 .2939911 .20698548 .33898927 .23999024 .45298768 .3242035 .5169983 .37124635 .5169983 .4663086 .5169983 .5812988 .41299439 .65527346 .27198792 .65527346 .15098572 .65527346 .056991579 .593277 .056991579 .50331118 .056991579 .44430543 .10499573 .42930604 .1289978 .42930604 .16099549 .42930604 .20098877 .4513092 .20098877 .50131228 .20098877 .55329897 .15899658 .5693054 .14399719 .5733032 .17298889 .5972748 .21099854 .6082611 .24699402 .6082611 .33299256 .6082611 .3789978 .54029849 .3789978 .4653015 .3789978 .39627076 .34098817 .3282013 .2709961 .25712586L.069992069 .051986696C.056991579 .039993287 .056991579 .037994386 .056991579 .017990113V0H.48599244L.5169983 .22200012Z"/>
<path id="font_1_89" d="M.82899478 .25024415C.82899478 .28125 .7999878 .28125 .7859955 .28125H.47698976V.59085085C.47698976 .60284426 .47698976 .6328125 .44699098 .6328125 .41600038 .6328125 .41600038 .60383608 .41600038 .59085085V.28125H.10699463C.09298706 .28125 .06399536 .28125 .06399536 .25024415 .06399536 .22024536 .09399414 .22024536 .10699463 .22024536H.41600038V-.08982849C.41600038-.10183716 .41600038-.13183594 .44599916-.13183594 .47698976-.13183594 .47698976-.10282898 .47698976-.08982849V.22024536H.7859955C.798996 .22024536 .82899478 .22024536 .82899478 .25024415Z"/>
<path id="font_1_106" d="M.526001 .18013C.526001 .23513794 .49699403 .32113648 .35198976 .35212709 .42099 .3731537 .49398805 .4303589 .49398805 .5164032 .49398805 .5933533 .41799928 .65527346 .2769928 .65527346 .1579895 .65527346 .07998657 .59135439 .07998657 .5113983 .07998657 .46839906 .11099243 .44140626 .14898682 .44140626 .19400025 .44140626 .21899414 .47340394 .21899414 .51039126 .21899414 .56840518 .16499329 .5793915 .16099549 .58039858 .19599915 .6082916 .23999024 .616272 .2709961 .616272 .35398866 .616272 .35699464 .5523987 .35699464 .5193939 .35699464 .50639346 .35598756 .3751526 .2519989 .36914063 .21099854 .36712647 .20899964 .36613465 .20399475 .36512757 .19400025 .36413575 .19198609 .35412599 .19198609 .34812928 .19198609 .33013917 .20199585 .33013917 .21998596 .33013917H.2639923C.37298585 .33013917 .37298585 .23243714 .37298585 .18159485 .37298585 .13456726 .37298585 .03225708 .2689972 .03225708 .24299622 .03225708 .19099427 .03627014 .14299011 .06636047 .17599488 .07537842 .20098877 .10046387 .20098877 .14160156 .20098877 .18644715 .16899109 .217453 .125 .217453 .08299255 .217453 .04798889 .19044495 .04798889 .13945008 .04798889 .049346925 .14498902-.0107421879 .27398683-.0107421879 .45298768-.010406494 .526001 .08959961 .526001 .18058777V.18013Z"/>
<path id="font_2_85" d="M.33099366-.2400055C.33099366-.23701477 .33099366-.23500061 .31399537-.21800232 .18899536-.0920105 .15699768 .09700012 .15699768 .25 .15699768 .42399598 .19499207 .59799197 .31799317 .72299197 .33099366 .7350006 .33099366 .7369995 .33099366 .73999026 .33099366 .746994 .32699586 .75 .32099916 .75 .31098939 .75 .22099304 .6819916 .1619873 .5549927 .11099243 .44499208 .09899902 .33399964 .09899902 .25 .09899902 .17199707 .10998535 .050994874 .16499329-.06201172 .22499085-.18501282 .31098939-.25 .32099916-.25 .32699586-.25 .33099366-.24700928 .33099366-.2400055Z"/>
<path id="font_2_45" d="M.20298767 .0009918213C.20298767 .06498718 .1789856 .10598755 .13899231 .10598755 .10398865 .10598755 .085998538 .07899475 .085998538 .052993776 .085998538 .026992798 .102996829 0 .13899231 0 .1539917 0 .16799927 .005996704 .1789856 .015991211 .18099976-.06312561 .15299988-.12423706 .10899353-.17132569 .102996829-.17733765 .101989749-.17834473 .101989749-.18234253 .101989749-.18936157 .10699463-.19335938 .11199951-.19335938 .12399292-.19335938 .20298767-.114227298 .20298767 .0009918213Z"/>
<path id="font_2_86" d="M.2889862 .25C.2889862 .32798768 .27799989 .44898988 .22299195 .56199648 .16299439 .68499758 .07699585 .75 .066986087 .75 .06098938 .75 .056991579 .74598696 .056991579 .73999026 .056991579 .7369995 .056991579 .7350006 .07598877 .71699526 .17399597 .6179962 .23098755 .45899964 .23098755 .25 .23098755 .07899475 .19400025-.09700012 .069992069-.2230072 .056991579-.23500061 .056991579-.23701477 .056991579-.2400055 .056991579-.2460022 .06098938-.25 .066986087-.25 .07699585-.25 .16699219-.18200684 .22599793-.055007936 .2769928 .054992677 .2889862 .16600037 .2889862 .25Z"/>
<path id="font_1_57" d="M.5419922 0V.04699707H.44499208V.15611267H.5419922V.203125H.44499208V.62423709C.44499208 .6512451 .44299317 .65625 .4149933 .65625 .3939972 .65625 .3929901 .6552429 .3809967 .6402283L.03199768 .203125V.15611267H.31999208V.04699707H.20799256V0C.24598694 .0029907227 .33699037 .0029907227 .37998963 .0029907227 .41999818 .0029907227 .5069885 .0029907227 .5419922 0M.33099366 .203125H.083999637L.33099366 .51319888V.203125Z"/>
</defs>
<path transform="matrix(1.00003,0,0,-1.00002,228.0743,268.57713)" stroke-width=".79701" stroke-linecap="butt" stroke-miterlimit="10" stroke-linejoin="miter" fill="none" stroke="#000000" d="M-226.77448 0H226.06711"/>
<path transform="matrix(1.00003,0,0,-1.00002,454.1482,268.57713)" stroke-width=".6376" stroke-linecap="round" stroke-linejoin="round" fill="none" stroke="#000000" d="M-1.55415 2.0722C-1.42464 1.29512 0 .1295 .38852 0 0-.1295-1.42464-1.29512-1.55415-2.0722"/>
<use data-text="x" xlink:href="#font_1_116" transform="matrix(9.962899,0,0,-9.962799,458.57524,271.9592)"/>
<use data-text="-" xlink:href="#font_1_64" transform="matrix(9.962899,0,0,-9.962799,464.6227,271.9592)"/>
<use data-text="a" xlink:href="#font_1_28" transform="matrix(9.962899,0,0,-9.962799,468.4385,271.9592)"/>
<use data-text="x" xlink:href="#font_1_116" transform="matrix(9.962899,0,0,-9.962799,474.00776,271.9592)"/>
<use data-text="i" xlink:href="#font_1_66" transform="matrix(9.962899,0,0,-9.962799,480.05525,271.9592)"/>
<use data-text="s" xlink:href="#font_1_98" transform="matrix(9.962899,0,0,-9.962799,483.2334,271.9592)"/>
<path transform="matrix(1.00003,0,0,-1.00002,228.0743,268.57713)" stroke-width=".79701" stroke-linecap="butt" stroke-miterlimit="10" stroke-linejoin="miter" fill="none" stroke="#000000" d="M0-226.77448V254.41393"/>
<path transform="matrix(0,-1.00002,-1.00003,-0,228.0743,14.158096)" stroke-width=".6376" stroke-linecap="round" stroke-linejoin="round" fill="none" stroke="#000000" d="M-1.55415 2.0722C-1.42464 1.29512 0 .1295 .38852 0 0-.1295-1.42464-1.29512-1.55415-2.0722"/>
<use data-text="y" xlink:href="#font_1_118" transform="matrix(9.962899,0,0,-9.962799,213.48386,7.7388918)"/>
<use data-text="-" xlink:href="#font_1_64" transform="matrix(9.962899,0,0,-9.962799,219.53134,7.7388918)"/>
<use data-text="a" xlink:href="#font_1_28" transform="matrix(9.962899,0,0,-9.962799,223.34714,7.7388918)"/>
<use data-text="x" xlink:href="#font_1_116" transform="matrix(9.962899,0,0,-9.962799,228.91638,7.7388918)"/>
<use data-text="i" xlink:href="#font_1_66" transform="matrix(9.962899,0,0,-9.962799,234.96387,7.7388918)"/>
<use data-text="s" xlink:href="#font_1_98" transform="matrix(9.962899,0,0,-9.962799,238.14203,7.7388918)"/>
<path transform="matrix(1.00003,0,0,-1.00002,228.0743,268.57713)" stroke-width=".3985" stroke-linecap="butt" stroke-miterlimit="10" stroke-linejoin="miter" fill="none" stroke="#000000" d="M-198.42766 0V-5.66927"/>
<use data-text="-" xlink:href="#font_2_64" transform="matrix(9.962899,0,0,-9.962799,25.49121,284.50144)"/>
<use data-text="7" xlink:href="#font_2_100" transform="matrix(9.962899,0,0,-9.962799,28.808838,284.50144)"/>
<path transform="matrix(1.00003,0,0,-1.00002,228.0743,268.57713)" stroke-width=".3985" stroke-linecap="butt" stroke-miterlimit="10" stroke-linejoin="miter" fill="none" stroke="#000000" d="M-170.08086 0V-5.66927"/>
<use data-text="-" xlink:href="#font_2_64" transform="matrix(9.962899,0,0,-9.962799,53.83905,284.40144)"/>
<use data-text="6" xlink:href="#font_2_101" transform="matrix(9.962899,0,0,-9.962799,57.156679,284.40144)"/>
<path transform="matrix(1.00003,0,0,-1.00002,228.0743,268.57713)" stroke-width=".3985" stroke-linecap="butt" stroke-miterlimit="10" stroke-linejoin="miter" fill="none" stroke="#000000" d="M-141.73404 0V-5.66927"/>
<use data-text="-" xlink:href="#font_2_64" transform="matrix(9.962899,0,0,-9.962799,82.18591,284.40144)"/>
<use data-text="5" xlink:href="#font_2_56" transform="matrix(9.962899,0,0,-9.962799,85.50354,284.40144)"/>
<path transform="matrix(1.00003,0,0,-1.00002,228.0743,268.57713)" stroke-width=".3985" stroke-linecap="butt" stroke-miterlimit="10" stroke-linejoin="miter" fill="none" stroke="#000000" d="M-113.38724 0V-5.66927"/>
<use data-text="-" xlink:href="#font_2_64" transform="matrix(9.962899,0,0,-9.962799,110.53375,284.51145)"/>
<use data-text="4" xlink:href="#font_2_57" transform="matrix(9.962899,0,0,-9.962799,113.85138,284.51145)"/>
<path transform="matrix(1.00003,0,0,-1.00002,228.0743,268.57713)" stroke-width=".3985" stroke-linecap="butt" stroke-miterlimit="10" stroke-linejoin="miter" fill="none" stroke="#000000" d="M-85.04042 0V-5.66927"/>
<use data-text="-" xlink:href="#font_2_64" transform="matrix(9.962899,0,0,-9.962799,138.88162,284.40144)"/>
<use data-text="3" xlink:href="#font_2_106" transform="matrix(9.962899,0,0,-9.962799,142.19925,284.40144)"/>
<path transform="matrix(1.00003,0,0,-1.00002,228.0743,268.57713)" stroke-width=".3985" stroke-linecap="butt" stroke-miterlimit="10" stroke-linejoin="miter" fill="none" stroke="#000000" d="M-56.69362 0V-5.66927"/>
<use data-text="-" xlink:href="#font_2_64" transform="matrix(9.962899,0,0,-9.962799,167.22946,284.40144)"/>
<use data-text="2" xlink:href="#font_2_107" transform="matrix(9.962899,0,0,-9.962799,170.54709,284.40144)"/>
<path transform="matrix(1.00003,0,0,-1.00002,228.0743,268.57713)" stroke-width=".3985" stroke-linecap="butt" stroke-miterlimit="10" stroke-linejoin="miter" fill="none" stroke="#000000" d="M-28.3468 0V-5.66927"/>
<use data-text="-" xlink:href="#font_2_64" transform="matrix(9.962899,0,0,-9.962799,195.57732,284.40144)"/>
<use data-text="1" xlink:href="#font_2_82" transform="matrix(9.962899,0,0,-9.962799,198.89495,284.40144)"/>
<path transform="matrix(1.00003,0,0,-1.00002,228.0743,268.57713)" stroke-width=".3985" stroke-linecap="butt" stroke-miterlimit="10" stroke-linejoin="miter" fill="none" stroke="#000000" d="M0 0V-5.66927"/>
<use data-text="0" xlink:href="#font_2_121" transform="matrix(9.962899,0,0,-9.962799,225.58322,284.40144)"/>
<path transform="matrix(1.00003,0,0,-1.00002,228.0743,268.57713)" stroke-width=".3985" stroke-linecap="butt" stroke-miterlimit="10" stroke-linejoin="miter" fill="none" stroke="#000000" d="M28.3468 0V-5.66927"/>
<use data-text="1" xlink:href="#font_2_82" transform="matrix(9.962899,0,0,-9.962799,253.93108,284.40144)"/>
<path transform="matrix(1.00003,0,0,-1.00002,228.0743,268.57713)" stroke-width=".3985" stroke-linecap="butt" stroke-miterlimit="10" stroke-linejoin="miter" fill="none" stroke="#000000" d="M56.69362 0V-5.66927"/>
<use data-text="2" xlink:href="#font_2_107" transform="matrix(9.962899,0,0,-9.962799,282.27894,284.40144)"/>
<path transform="matrix(1.00003,0,0,-1.00002,228.0743,268.57713)" stroke-width=".3985" stroke-linecap="butt" stroke-miterlimit="10" stroke-linejoin="miter" fill="none" stroke="#000000" d="M85.04042 0V-5.66927"/>
<use data-text="3" xlink:href="#font_2_106" transform="matrix(9.962899,0,0,-9.962799,310.62678,284.40144)"/>
<path transform="matrix(1.00003,0,0,-1.00002,228.0743,268.57713)" stroke-width=".3985" stroke-linecap="butt" stroke-miterlimit="10" stroke-linejoin="miter" fill="none" stroke="#000000" d="M113.38724 0V-5.66927"/>
<use data-text="4" xlink:href="#font_2_57" transform="matrix(9.962899,0,0,-9.962799,338.97465,284.51145)"/>
<path transform="matrix(1.00003,0,0,-1.00002,228.0743,268.57713)" stroke-width=".3985" stroke-linecap="butt" stroke-miterlimit="10" stroke-linejoin="miter" fill="none" stroke="#000000" d="M141.73404 0V-5.66927"/>
<use data-text="5" xlink:href="#font_2_56" transform="matrix(9.962899,0,0,-9.962799,367.32148,284.40144)"/>
<path transform="matrix(1.00003,0,0,-1.00002,228.0743,268.57713)" stroke-width=".3985" stroke-linecap="butt" stroke-miterlimit="10" stroke-linejoin="miter" fill="none" stroke="#000000" d="M170.08086 0V-5.66927"/>
<use data-text="6" xlink:href="#font_2_101" transform="matrix(9.962899,0,0,-9.962799,395.6693,284.40144)"/>
<path transform="matrix(1.00003,0,0,-1.00002,228.0743,268.57713)" stroke-width=".3985" stroke-linecap="butt" stroke-miterlimit="10" stroke-linejoin="miter" fill="none" stroke="#000000" d="M198.42766 0V-5.66927"/>
<use data-text="7" xlink:href="#font_2_100" transform="matrix(9.962899,0,0,-9.962799,424.01719,284.50144)"/>
<path transform="matrix(1.00003,0,0,-1.00002,228.0743,268.57713)" stroke-width=".3985" stroke-linecap="butt" stroke-miterlimit="10" stroke-linejoin="miter" fill="none" stroke="#000000" d="M0-226.77448H-5.66927"/>
<use data-text="-" xlink:href="#font_2_64" transform="matrix(9.962899,0,0,-9.962799,210.58577,498.56373)"/>
<use data-text="8" xlink:href="#font_2_51" transform="matrix(9.962899,0,0,-9.962799,213.9034,498.56373)"/>
<path transform="matrix(1.00003,0,0,-1.00002,228.0743,268.57713)" stroke-width=".3985" stroke-linecap="butt" stroke-miterlimit="10" stroke-linejoin="miter" fill="none" stroke="#000000" d="M0-198.42766H-5.66927"/>
<use data-text="-" xlink:href="#font_2_64" transform="matrix(9.962899,0,0,-9.962799,210.58577,470.26618)"/>
<use data-text="7" xlink:href="#font_2_100" transform="matrix(9.962899,0,0,-9.962799,213.9034,470.26618)"/>
<path transform="matrix(1.00003,0,0,-1.00002,228.0743,268.57713)" stroke-width=".3985" stroke-linecap="butt" stroke-miterlimit="10" stroke-linejoin="miter" fill="none" stroke="#000000" d="M0-170.08086H-5.66927"/>
<use data-text="-" xlink:href="#font_2_64" transform="matrix(9.962899,0,0,-9.962799,210.58577,441.86958)"/>
<use data-text="6" xlink:href="#font_2_101" transform="matrix(9.962899,0,0,-9.962799,213.9034,441.86958)"/>
<path transform="matrix(1.00003,0,0,-1.00002,228.0743,268.57713)" stroke-width=".3985" stroke-linecap="butt" stroke-miterlimit="10" stroke-linejoin="miter" fill="none" stroke="#000000" d="M0-141.73404H-5.66927"/>
<use data-text="-" xlink:href="#font_2_64" transform="matrix(9.962899,0,0,-9.962799,210.58577,413.52204)"/>
<use data-text="5" xlink:href="#font_2_56" transform="matrix(9.962899,0,0,-9.962799,213.9034,413.52204)"/>
<path transform="matrix(1.00003,0,0,-1.00002,228.0743,268.57713)" stroke-width=".3985" stroke-linecap="butt" stroke-miterlimit="10" stroke-linejoin="miter" fill="none" stroke="#000000" d="M0-113.38724H-5.66927"/>
<use data-text="-" xlink:href="#font_2_64" transform="matrix(9.962899,0,0,-9.962799,210.58577,385.33946)"/>
<use data-text="4" xlink:href="#font_2_57" transform="matrix(9.962899,0,0,-9.962799,213.9034,385.33946)"/>
<path transform="matrix(1.00003,0,0,-1.00002,228.0743,268.57713)" stroke-width=".3985" stroke-linecap="butt" stroke-miterlimit="10" stroke-linejoin="miter" fill="none" stroke="#000000" d="M0-85.04042H-5.66927"/>
<use data-text="-" xlink:href="#font_2_64" transform="matrix(9.962899,0,0,-9.962799,210.58577,356.8269)"/>
<use data-text="3" xlink:href="#font_2_106" transform="matrix(9.962899,0,0,-9.962799,213.9034,356.8269)"/>
<path transform="matrix(1.00003,0,0,-1.00002,228.0743,268.57713)" stroke-width=".3985" stroke-linecap="butt" stroke-miterlimit="10" stroke-linejoin="miter" fill="none" stroke="#000000" d="M0-56.69362H-5.66927"/>
<use data-text="-" xlink:href="#font_2_64" transform="matrix(9.962899,0,0,-9.962799,210.58577,328.58934)"/>
<use data-text="2" xlink:href="#font_2_107" transform="matrix(9.962899,0,0,-9.962799,213.9034,328.58934)"/>
<path transform="matrix(1.00003,0,0,-1.00002,228.0743,268.57713)" stroke-width=".3985" stroke-linecap="butt" stroke-miterlimit="10" stroke-linejoin="miter" fill="none" stroke="#000000" d="M0-28.3468H-5.66927"/>
<use data-text="-" xlink:href="#font_2_64" transform="matrix(9.962899,0,0,-9.962799,210.58577,300.24177)"/>
<use data-text="1" xlink:href="#font_2_82" transform="matrix(9.962899,0,0,-9.962799,213.9034,300.24177)"/>
<path transform="matrix(1.00003,0,0,-1.00002,228.0743,268.57713)" stroke-width=".3985" stroke-linecap="butt" stroke-miterlimit="10" stroke-linejoin="miter" fill="none" stroke="#000000" d="M0 0H-5.66927"/>
<use data-text="0" xlink:href="#font_2_121" transform="matrix(9.962899,0,0,-9.962799,213.90387,271.7852)"/>
<path transform="matrix(1.00003,0,0,-1.00002,228.0743,268.57713)" stroke-width=".3985" stroke-linecap="butt" stroke-miterlimit="10" stroke-linejoin="miter" fill="none" stroke="#000000" d="M0 28.3468H-5.66927"/>
<use data-text="1" xlink:href="#font_2_82" transform="matrix(9.962899,0,0,-9.962799,213.90387,243.54763)"/>
<path transform="matrix(1.00003,0,0,-1.00002,228.0743,268.57713)" stroke-width=".3985" stroke-linecap="butt" stroke-miterlimit="10" stroke-linejoin="miter" fill="none" stroke="#000000" d="M0 56.69362H-5.66927"/>
<use data-text="2" xlink:href="#font_2_107" transform="matrix(9.962899,0,0,-9.962799,213.90387,215.20005)"/>
<path transform="matrix(1.00003,0,0,-1.00002,228.0743,268.57713)" stroke-width=".3985" stroke-linecap="butt" stroke-miterlimit="10" stroke-linejoin="miter" fill="none" stroke="#000000" d="M0 85.04042H-5.66927"/>
<use data-text="3" xlink:href="#font_2_106" transform="matrix(9.962899,0,0,-9.962799,213.90387,186.74347)"/>
<path transform="matrix(1.00003,0,0,-1.00002,228.0743,268.57713)" stroke-width=".3985" stroke-linecap="butt" stroke-miterlimit="10" stroke-linejoin="miter" fill="none" stroke="#000000" d="M0 113.38724H-5.66927"/>
<use data-text="4" xlink:href="#font_2_57" transform="matrix(9.962899,0,0,-9.962799,213.90387,158.5599)"/>
<path transform="matrix(1.00003,0,0,-1.00002,228.0743,268.57713)" stroke-width=".3985" stroke-linecap="butt" stroke-miterlimit="10" stroke-linejoin="miter" fill="none" stroke="#000000" d="M0 141.73404H-5.66927"/>
<use data-text="5" xlink:href="#font_2_56" transform="matrix(9.962899,0,0,-9.962799,213.90387,130.04834)"/>
<path transform="matrix(1.00003,0,0,-1.00002,228.0743,268.57713)" stroke-width=".3985" stroke-linecap="butt" stroke-miterlimit="10" stroke-linejoin="miter" fill="none" stroke="#000000" d="M0 170.08086H-5.66927"/>
<use data-text="6" xlink:href="#font_2_101" transform="matrix(9.962899,0,0,-9.962799,213.90387,101.700778)"/>
<path transform="matrix(1.00003,0,0,-1.00002,228.0743,268.57713)" stroke-width=".3985" stroke-linecap="butt" stroke-miterlimit="10" stroke-linejoin="miter" fill="none" stroke="#000000" d="M0 198.42766H-5.66927"/>
<use data-text="7" xlink:href="#font_2_100" transform="matrix(9.962899,0,0,-9.962799,213.90387,73.40321)"/>
<path transform="matrix(1.00003,0,0,-1.00002,228.0743,268.57713)" stroke-width=".3985" stroke-linecap="butt" stroke-miterlimit="10" stroke-linejoin="miter" fill="none" stroke="#000000" d="M0 226.77448H-5.66927"/>
<use data-text="8" xlink:href="#font_2_51" transform="matrix(9.962899,0,0,-9.962799,213.90387,45.006654)"/>
<path transform="matrix(1.00003,0,0,-1.00002,228.0743,268.57713)" stroke-width=".19925" stroke-linecap="butt" stroke-dasharray="2.98883,2.98883" stroke-miterlimit="10" stroke-linejoin="miter" fill="none" stroke="#7f807f" d="M-226.77448-226.77448H226.77448M-226.77448-198.42766H226.77448M-226.77448-170.08086H226.77448M-226.77448-141.73404H226.77448M-226.77448-113.38724H226.77448M-226.77448-85.04042H226.77448M-226.77448-56.69362H226.77448M-226.77448-28.3468H226.77448M-226.77448 0H226.77448M-226.77448 28.3468H226.77448M-226.77448 56.69362H226.77448M-226.77448 85.04042H226.77448M-226.77448 113.38724H226.77448M-226.77448 141.73404H226.77448M-226.77448 170.08086H226.77448M-226.77448 198.42766H226.77448M-226.77448 226.77448H226.77448M-226.77448 255.11133H226.77448M-226.77448-226.77448V255.12128M-198.42766-226.77448V255.12128M-170.08086-226.77448V255.12128M-141.73404-226.77448V255.12128M-113.38724-226.77448V255.12128M-85.04042-226.77448V255.12128M-56.69362-226.77448V255.12128M-28.3468-226.77448V255.12128M0-226.77448V255.12128M28.3468-226.77448V255.12128M56.69362-226.77448V255.12128M85.04042-226.77448V255.12128M113.38724-226.77448V255.12128M141.73404-226.77448V255.12128M170.08086-226.77448V255.12128M198.42766-226.77448V255.12128M226.76451-226.77448V255.12128M226.77448 255.12128"/>
<path transform="matrix(1.00003,0,0,-1.00002,228.0743,268.57713)" stroke-width=".79701" stroke-linecap="butt" stroke-miterlimit="10" stroke-linejoin="miter" fill="none" stroke="#0000ff" d="M-56.69362-28.3468-51.96944-18.89844-47.24525-9.45007-42.52107-.00171-37.79689 9.44661-33.07271 18.89497-28.34853 28.34334-23.62434 37.7917-18.90018 47.24005-14.176 56.68842-9.45181 66.13678-4.72763 75.58514-.00345 85.0335 4.7207 94.48186 9.44489 103.93022 14.16905 113.37857 18.89323 122.82693 23.61742 132.2753 28.3416 141.72367 33.06578 151.17201 37.78996 160.62038 42.51414 170.06874 47.23833 179.5171 51.9625 188.96546 56.68668 198.41382"/>
<use data-text="y" xlink:href="#font_1_118" transform="matrix(9.962899,0,0,-9.962799,288.48213,64.44803)" fill="#0000ff"/>
<use data-text="=" xlink:href="#font_1_52" transform="matrix(9.962899,0,0,-9.962799,298.33546,64.44803)" fill="#0000ff"/>
<use data-text="2" xlink:href="#font_1_107" transform="matrix(9.962899,0,0,-9.962799,311.05805,64.44803)" fill="#0000ff"/>
<use data-text="x" xlink:href="#font_1_116" transform="matrix(9.962899,0,0,-9.962799,316.7867,64.44803)" fill="#0000ff"/>
<use data-text="+" xlink:href="#font_1_89" transform="matrix(9.962899,0,0,-9.962799,326.65,64.44803)" fill="#0000ff"/>
<use data-text="3" xlink:href="#font_1_106" transform="matrix(9.962899,0,0,-9.962799,339.3726,64.44803)" fill="#0000ff"/>
<path transform="matrix(1.00003,0,0,-1.00002,228.0743,268.57713)" d="M-26.35425 28.3468C-26.35425 29.44728-27.24634 30.33936-28.3468 30.33936-29.44728 30.33936-30.33936 29.44728-30.33936 28.3468-30.33936 27.24634-29.44728 26.35425-28.3468 26.35425-27.24634 26.35425-26.35425 27.24634-26.35425 28.3468ZM-28.3468 28.3468" fill="#0000ff"/>
<path transform="matrix(1.00003,0,0,-1.00002,228.0743,268.57713)" stroke-width=".3985" stroke-linecap="butt" stroke-miterlimit="10" stroke-linejoin="miter" fill="none" stroke="#0000ff" d="M-26.35425 28.3468C-26.35425 29.44728-27.24634 30.33936-28.3468 30.33936-29.44728 30.33936-30.33936 29.44728-30.33936 28.3468-30.33936 27.24634-29.44728 26.35425-28.3468 26.35425-27.24634 26.35425-26.35425 27.24634-26.35425 28.3468ZM-28.3468 28.3468"/>
<use data-text="(" xlink:href="#font_2_85" transform="matrix(9.962899,0,0,-9.962799,172.40464,242.7206)" fill="#0000ff"/>
<use data-text="-" xlink:href="#font_2_64" transform="matrix(9.962899,0,0,-9.962799,176.28022,242.7206)" fill="#0000ff"/>
<use data-text="1" xlink:href="#font_2_82" transform="matrix(9.962899,0,0,-9.962799,179.59784,242.7206)" fill="#0000ff"/>
<use data-text="," xlink:href="#font_2_45" transform="matrix(9.962899,0,0,-9.962799,184.57929,242.7206)" fill="#0000ff"/>
<use data-text="1" xlink:href="#font_2_82" transform="matrix(9.962899,0,0,-9.962799,187.34897,242.7206)" fill="#0000ff"/>
<use data-text=")" xlink:href="#font_2_86" transform="matrix(9.962899,0,0,-9.962799,192.33042,242.7206)" fill="#0000ff"/>
<path transform="matrix(1.00003,0,0,-1.00002,228.0743,268.57713)" d="M1.99255 85.04042C1.99255 86.1409 1.10046 87.03297 0 87.03297-1.10046 87.03297-1.99255 86.1409-1.99255 85.04042-1.99255 83.93996-1.10046 83.04787 0 83.04787 1.10046 83.04787 1.99255 83.93996 1.99255 85.04042ZM0 85.04042" fill="#0000ff"/>
<path transform="matrix(1.00003,0,0,-1.00002,228.0743,268.57713)" stroke-width=".3985" stroke-linecap="butt" stroke-miterlimit="10" stroke-linejoin="miter" fill="none" stroke="#0000ff" d="M1.99255 85.04042C1.99255 86.1409 1.10046 87.03297 0 87.03297-1.10046 87.03297-1.99255 86.1409-1.99255 85.04042-1.99255 83.93996-1.10046 83.04787 0 83.04787 1.10046 83.04787 1.99255 83.93996 1.99255 85.04042ZM0 85.04042"/>
<use data-text="(" xlink:href="#font_2_85" transform="matrix(9.962899,0,0,-9.962799,231.59439,194.52664)" fill="#0000ff"/>
<use data-text="0" xlink:href="#font_2_121" transform="matrix(9.962899,0,0,-9.962799,235.46997,194.52664)" fill="#0000ff"/>
<use data-text="," xlink:href="#font_2_45" transform="matrix(9.962899,0,0,-9.962799,240.45142,194.52664)" fill="#0000ff"/>
<use data-text="3" xlink:href="#font_2_106" transform="matrix(9.962899,0,0,-9.962799,243.2211,194.52664)" fill="#0000ff"/>
<use data-text=")" xlink:href="#font_2_86" transform="matrix(9.962899,0,0,-9.962799,248.20255,194.52664)" fill="#0000ff"/>
<path transform="matrix(1.00003,0,0,-1.00002,228.0743,268.57713)" d="M30.33936 141.73404C30.33936 142.83452 29.44728 143.7266 28.3468 143.7266 27.24634 143.7266 26.35425 142.83452 26.35425 141.73404 26.35425 140.63358 27.24634 139.74149 28.3468 139.74149 29.44728 139.74149 30.33936 140.63358 30.33936 141.73404ZM28.3468 141.73404" fill="#0000ff"/>
<path transform="matrix(1.00003,0,0,-1.00002,228.0743,268.57713)" stroke-width=".3985" stroke-linecap="butt" stroke-miterlimit="10" stroke-linejoin="miter" fill="none" stroke="#0000ff" d="M30.33936 141.73404C30.33936 142.83452 29.44728 143.7266 28.3468 143.7266 27.24634 143.7266 26.35425 142.83452 26.35425 141.73404 26.35425 140.63358 27.24634 139.74149 28.3468 139.74149 29.44728 139.74149 30.33936 140.63358 30.33936 141.73404ZM28.3468 141.73404"/>
<use data-text="(" xlink:href="#font_2_85" transform="matrix(9.962899,0,0,-9.962799,259.94227,129.33133)" fill="#0000ff"/>
<use data-text="1" xlink:href="#font_2_82" transform="matrix(9.962899,0,0,-9.962799,263.81785,129.33133)" fill="#0000ff"/>
<use data-text="," xlink:href="#font_2_45" transform="matrix(9.962899,0,0,-9.962799,268.7993,129.33133)" fill="#0000ff"/>
<use data-text="5" xlink:href="#font_2_56" transform="matrix(9.962899,0,0,-9.962799,271.56898,129.33133)" fill="#0000ff"/>
<use data-text=")" xlink:href="#font_2_86" transform="matrix(9.962899,0,0,-9.962799,276.5504,129.33133)" fill="#0000ff"/>
<path transform="matrix(1.00003,0,0,-1.00002,228.0743,268.57713)" stroke-width=".79701" stroke-linecap="butt" stroke-miterlimit="10" stroke-linejoin="miter" fill="none" stroke="#ff0000" d="M-56.69362-226.77448-51.96944-217.32611-47.24525-207.87775-42.52107-198.42938-37.79689-188.98104-33.07271-179.53267-28.34853-170.0843-23.62434-160.63594-18.90018-151.18759-14.176-141.73923-9.45181-132.29087-4.72763-122.8425-.00345-113.39415 4.7207-103.94579 9.44489-94.49742 14.16905-85.04907 18.89323-75.60071 23.61742-66.15234 28.3416-56.70398 33.06578-47.25563 37.78996-37.80727 42.51414-28.3589 47.23833-18.91054 51.9625-9.46219 56.68668-.01382"/>
<use data-text="y" xlink:href="#font_1_118" transform="matrix(9.962899,0,0,-9.962799,288.48213,278.84535)" fill="#ff0000"/>
<use data-text="=" xlink:href="#font_1_52" transform="matrix(9.962899,0,0,-9.962799,298.33546,278.84535)" fill="#ff0000"/>
<use data-text="2" xlink:href="#font_1_107" transform="matrix(9.962899,0,0,-9.962799,311.05805,278.84535)" fill="#ff0000"/>
<use data-text="x" xlink:href="#font_1_116" transform="matrix(9.962899,0,0,-9.962799,316.7867,278.84535)" fill="#ff0000"/>
<use data-text="-" xlink:href="#font_1_64" transform="matrix(9.962899,0,0,-9.962799,326.65,278.84535)" fill="#ff0000"/>
<use data-text="4" xlink:href="#font_1_57" transform="matrix(9.962899,0,0,-9.962799,334.28157,278.84535)" fill="#ff0000"/>
<path transform="matrix(1.00003,0,0,-1.00002,228.0743,268.57713)" d="M-26.35425-170.08086C-26.35425-168.98038-27.24634-168.0883-28.3468-168.0883-29.44728-168.0883-30.33936-168.98038-30.33936-170.08086-30.33936-171.18132-29.44728-172.07341-28.3468-172.07341-27.24634-172.07341-26.35425-171.18132-26.35425-170.08086ZM-28.3468-170.08086" fill="#ff0000"/>
<path transform="matrix(1.00003,0,0,-1.00002,228.0743,268.57713)" stroke-width=".3985" stroke-linecap="butt" stroke-miterlimit="10" stroke-linejoin="miter" fill="none" stroke="#ff0000" d="M-26.35425-170.08086C-26.35425-168.98038-27.24634-168.0883-28.3468-168.0883-29.44728-168.0883-30.33936-168.98038-30.33936-170.08086-30.33936-171.18132-29.44728-172.07341-28.3468-172.07341-27.24634-172.07341-26.35425-171.18132-26.35425-170.08086ZM-28.3468-170.08086"/>
<use data-text="(" xlink:href="#font_2_85" transform="matrix(9.962899,0,0,-9.962799,169.08753,449.65376)" fill="#ff0000"/>
<use data-text="-" xlink:href="#font_2_64" transform="matrix(9.962899,0,0,-9.962799,172.9631,449.65376)" fill="#ff0000"/>
<use data-text="1" xlink:href="#font_2_82" transform="matrix(9.962899,0,0,-9.962799,176.28073,449.65376)" fill="#ff0000"/>
<use data-text="," xlink:href="#font_2_45" transform="matrix(9.962899,0,0,-9.962799,181.26218,449.65376)" fill="#ff0000"/>
<use data-text="-" xlink:href="#font_2_64" transform="matrix(9.962899,0,0,-9.962799,184.03186,449.65376)" fill="#ff0000"/>
<use data-text="6" xlink:href="#font_2_101" transform="matrix(9.962899,0,0,-9.962799,187.34949,449.65376)" fill="#ff0000"/>
<use data-text=")" xlink:href="#font_2_86" transform="matrix(9.962899,0,0,-9.962799,192.33094,449.65376)" fill="#ff0000"/>
<path transform="matrix(1.00003,0,0,-1.00002,228.0743,268.57713)" d="M1.99255-113.38724C1.99255-112.28676 1.10046-111.39468 0-111.39468-1.10046-111.39468-1.99255-112.28676-1.99255-113.38724-1.99255-114.4877-1.10046-115.37979 0-115.37979 1.10046-115.37979 1.99255-114.4877 1.99255-113.38724ZM0-113.38724" fill="#ff0000"/>
<path transform="matrix(1.00003,0,0,-1.00002,228.0743,268.57713)" stroke-width=".3985" stroke-linecap="butt" stroke-miterlimit="10" stroke-linejoin="miter" fill="none" stroke="#ff0000" d="M1.99255-113.38724C1.99255-112.28676 1.10046-111.39468 0-111.39468-1.10046-111.39468-1.99255-112.28676-1.99255-113.38724-1.99255-114.4877-1.10046-115.37979 0-115.37979 1.10046-115.37979 1.99255-114.4877 1.99255-113.38724ZM0-113.38724"/>
<use data-text="(" xlink:href="#font_2_85" transform="matrix(9.962899,0,0,-9.962799,231.59439,392.95863)" fill="#ff0000"/>
<use data-text="0" xlink:href="#font_2_121" transform="matrix(9.962899,0,0,-9.962799,235.46997,392.95863)" fill="#ff0000"/>
<use data-text="," xlink:href="#font_2_45" transform="matrix(9.962899,0,0,-9.962799,240.45142,392.95863)" fill="#ff0000"/>
<use data-text="-" xlink:href="#font_2_64" transform="matrix(9.962899,0,0,-9.962799,243.2211,392.95863)" fill="#ff0000"/>
<use data-text="4" xlink:href="#font_2_57" transform="matrix(9.962899,0,0,-9.962799,246.53873,392.95863)" fill="#ff0000"/>
<use data-text=")" xlink:href="#font_2_86" transform="matrix(9.962899,0,0,-9.962799,251.52017,392.95863)" fill="#ff0000"/>
<path transform="matrix(1.00003,0,0,-1.00002,228.0743,268.57713)" d="M30.33936-56.69362C30.33936-55.59314 29.44728-54.70107 28.3468-54.70107 27.24634-54.70107 26.35425-55.59314 26.35425-56.69362 26.35425-57.79408 27.24634-58.68617 28.3468-58.68617 29.44728-58.68617 30.33936-57.79408 30.33936-56.69362ZM28.3468-56.69362" fill="#ff0000"/>
<path transform="matrix(1.00003,0,0,-1.00002,228.0743,268.57713)" stroke-width=".3985" stroke-linecap="butt" stroke-miterlimit="10" stroke-linejoin="miter" fill="none" stroke="#ff0000" d="M30.33936-56.69362C30.33936-55.59314 29.44728-54.70107 28.3468-54.70107 27.24634-54.70107 26.35425-55.59314 26.35425-56.69362 26.35425-57.79408 27.24634-58.68617 28.3468-58.68617 29.44728-58.68617 30.33936-57.79408 30.33936-56.69362ZM28.3468-56.69362"/>
<use data-text="(" xlink:href="#font_2_85" transform="matrix(9.962899,0,0,-9.962799,259.94227,319.26115)" fill="#ff0000"/>
<use data-text="1" xlink:href="#font_2_82" transform="matrix(9.962899,0,0,-9.962799,263.81785,319.26115)" fill="#ff0000"/>
<use data-text="," xlink:href="#font_2_45" transform="matrix(9.962899,0,0,-9.962799,268.7993,319.26115)" fill="#ff0000"/>
<use data-text="-" xlink:href="#font_2_64" transform="matrix(9.962899,0,0,-9.962799,271.56898,319.26115)" fill="#ff0000"/>
<use data-text="2" xlink:href="#font_2_107" transform="matrix(9.962899,0,0,-9.962799,274.8866,319.26115)" fill="#ff0000"/>
<use data-text=")" xlink:href="#font_2_86" transform="matrix(9.962899,0,0,-9.962799,279.86805,319.26115)" fill="#ff0000"/>
</svg>
