<svg xmlns="http://www.w3.org/2000/svg" xmlns:xlink="http://www.w3.org/1999/xlink" xmlns:inkscape="http://www.inkscape.org/namespaces/inkscape" version="1.1" width="129" height="127" viewBox="0 0 129 127">
<defs>
<path id="font_1_82" d="M.44699098 0V.032989503H.4119873C.31698609 .032989503 .31399537 .04499817 .31399537 .08203125V.6371765C.31399537 .664032 .31199647 .66503909 .2849884 .66503909 .24398804 .6252289 .19099427 .6013489 .09599304 .6013489V.5683594C.12298584 .5683594 .1769867 .5683594 .23498535 .5953522V.08203125C.23498535 .04499817 .23199463 .032989503 .13699341 .032989503H.101989749V0C.14299011 .0029907227 .22898865 .0029907227 .27398683 .0029907227 .31900025 .0029907227 .4059906 .0029907227 .44699098 0Z"/>
<path id="font_1_107" d="M.47698976 .17900086H.44599916C.44299317 .15899658 .43499757 .10899353 .4229889 .08999634 .4169922 .08198547 .34098817 .08198547 .32499696 .08198547H.14698792L.28199769 .20399475C.2979889 .2190094 .33999635 .2519989 .35598756 .26600648 .41799928 .3230133 .47698976 .37802125 .47698976 .46902467 .47698976 .58802798 .3769989 .66503909 .2519989 .66503909 .13198853 .6651764 .052993776 .574173 .052993776 .48516847 .052993776 .4361725 .09199524 .4291687 .10598755 .4291687 .1269989 .4291687 .1579895 .4441681 .1579895 .48217774 .1579895 .5341797 .10798645 .5341797 .09599304 .5341797 .125 .6070709 .19198609 .6320343 .24099732 .6320343 .33399964 .6320343 .38198854 .55314639 .38198854 .46917726 .38198854 .36517335 .30899049 .2891693 .19099427 .16816712L.06498718 .03817749C.052993776 .026992798 .052993776 .024993897 .052993776 0H.44799806L.47698976 .17900086Z"/>
<path id="font_1_88" d="M.20298767 .054992677C.20298767 .08898926 .17599488 .11099243 .147995 .11099243 .11399841 .11099243 .09199524 .083999637 .09199524 .055999757 .09199524 .021987915 .11898804 0 .14698792 0 .18099976 0 .20298767 .026992798 .20298767 .054992677Z"/>
<path id="font_1_57" d="M.5 .1640625V.197052H.3939972V.64682009C.3939972 .6668091 .3939972 .6748047 .37298585 .6748047 .3600006 .6748047 .35899354 .6737976 .34899903 .6598053L.02999878 .197052V.1640625H.31199647V.08100891C.31199647 .04399109 .30899049 .032989503 .23199463 .032989503H.20899964V0L.35299684 .0029907227 .49699403 0V.032989503H.47399903C.39698792 .032989503 .3939972 .04399109 .3939972 .08100891V.1640625H.5M.31900025 .197052H.06498718L.31900025 .56585696V.197052Z"/>
<path id="font_1_55" d="M.3769989 .63201907C.3769989 .6750946 .33499146 .70410159 .28199769 .70410159 .20698548 .70410159 .117996219 .65005496 .117996219 .54286196V.43066407H.035995485V.3976593H.117996219V.07795715C.117996219 .032989503 .10598755 .032989503 .041992189 .032989503V0C.08099365 .0029907227 .13598633 .0029907227 .1599884 .0029907227 .21899414 .0029907227 .22099304 .0029907227 .28599549 0V.032989503H.2659912C.19299317 .032989503 .19099427 .04397583 .19099427 .079956058V.3976593H.31098939V.43066407H.18798828V.54385378C.18798828 .63108828 .23699951 .6760864 .2809906 .6760864 .29699708 .6760864 .30599977 .6720886 .30999757 .6710968 .2919922 .6620941 .2869873 .6450958 .2869873 .63209536 .2869873 .60609439 .30599977 .58709719 .33198548 .58709719 .35899354 .58709719 .3769989 .60609439 .3769989 .63209536V.63201907Z"/>
<path id="font_1_105" d="M.35299684 .1250763V.1809845H.32199098V.12705994C.32199098 .058166505 .29100038 .021224976 .25299073 .021224976 .18598938 .021224976 .18598938 .10710144 .18598938 .12307739V.3976593H.33499146V.43066407H.18598938V.6142578H.15499878C.1539917 .52345278 .11299133 .4286499 .019989014 .42565919V.3976593H.10998535V.1250763C.10998535 .008224487 .19999695-.009765625 .24598694-.009765625 .31298829-.010009766 .35299684 .049987794 .35299684 .125V.1250763Z"/>
<path id="font_1_51" d="M.48599244 .16799927C.48599244 .23098755 .45199586 .272995 .43598939 .2899933 .4189911 .30599977 .41799928 .30699159 .33198548 .36099244 .3880005 .388031 .45599366 .43803407 .45599366 .516037 .45599366 .6110382 .35899354 .66503909 .2659912 .66503909 .1599884 .66503909 .07398987 .59202578 .07398987 .49803163 .07398987 .46102906 .08699036 .42703248 .11199951 .3980255 .1289978 .37702943 .1329956 .37503053 .19499207 .33602906 .070999149 .28050233 .04399109 .20750427 .04399109 .15150452 .04399109 .041503908 .15499878-.021484375 .2639923-.021484375 .3869934-.021484375 .48599244 .06150818 .48599244 .16751099V.16799927M.4059906 .5155029C.4059906 .45750428 .36099244 .4085083 .3019867 .37950135L.1769867 .45451356C.147995 .4718933 .12399292 .5009155 .12399292 .5359497 .12399292 .598999 .19299317 .6390381 .2639923 .6390381 .34199525 .6390381 .4059906 .5859833 .4059906 .5159302V.5155029M.42900086 .13360596C.42900086 .056549074 .34799195 .008514404 .2659912 .008514404 .1769867 .008987427 .100997928 .069992069 .100997928 .1519928 .100997928 .22698975 .15699768 .28599549 .22599793 .31799317L.36099244 .23498535C.3769989 .22599793 .42900086 .19400025 .42900086 .13398743V.13360596Z"/>
</defs>
<path transform="matrix(1.00002,0,0,-1,22.337067,115.584)" d="M0 0H85.04042L104.88309 65.19774 42.5202 113.38724-19.84267 65.19774Z" fill="#ffffff"/>
<path transform="matrix(1.00002,0,0,-1,22.337067,115.584)" stroke-width="1.19553" stroke-linecap="butt" stroke-miterlimit="10" stroke-linejoin="miter" fill="none" stroke="#996633" d="M0 0H85.04042L104.88309 65.19774 42.5202 113.38724-19.84267 65.19774Z"/>
<path transform="matrix(1.00002,0,0,-1,22.337067,115.584)" stroke-width=".79701" stroke-linecap="butt" stroke-miterlimit="10" stroke-linejoin="miter" fill="none" stroke="#7f807f" d="M42.5202 48.18947V0"/>
<path transform="matrix(1.00002,0,0,-1,22.337067,115.584)" d="M43.51648 48.18947C43.51648 48.73972 43.07043 49.18575 42.5202 49.18575 41.96997 49.18575 41.52393 48.73972 41.52393 48.18947 41.52393 47.63924 41.96997 47.19319 42.5202 47.19319 43.07043 47.19319 43.51648 47.63924 43.51648 48.18947ZM42.5202 48.18947" fill="#7f807f"/>
<path transform="matrix(1.00002,0,0,-1,22.337067,115.584)" stroke-width=".3985" stroke-linecap="butt" stroke-miterlimit="10" stroke-linejoin="miter" fill="none" stroke="#7f807f" d="M43.51648 48.18947C43.51648 48.73972 43.07043 49.18575 42.5202 49.18575 41.96997 49.18575 41.52393 48.73972 41.52393 48.18947 41.52393 47.63924 41.96997 47.19319 42.5202 47.19319 43.07043 47.19319 43.51648 47.63924 43.51648 48.18947ZM42.5202 48.18947"/>
<use data-text="1" xlink:href="#font_1_82" transform="matrix(7.9702599,0,0,-7.9701,41.643457,87.168)"/>
<use data-text="2" xlink:href="#font_1_107" transform="matrix(7.9702599,0,0,-7.9701,45.875665,87.168)"/>
<use data-text="." xlink:href="#font_1_88" transform="matrix(7.9702599,0,0,-7.9701,50.107873,87.168)"/>
<use data-text="4" xlink:href="#font_1_57" transform="matrix(7.9702599,0,0,-7.9701,52.459108,87.168)"/>
<use data-text="f" xlink:href="#font_1_55" transform="matrix(7.9702599,0,0,-7.9701,59.504816,87.168)"/>
<use data-text="t" xlink:href="#font_1_105" transform="matrix(7.9702599,0,0,-7.9701,62.095155,87.168)"/>
<path transform="matrix(1.00002,0,0,-1,22.337067,115.584)" stroke-width="1.19553" stroke-linecap="butt" stroke-miterlimit="10" stroke-linejoin="miter" fill="none" stroke="#000000" d="M0 0H85.04042"/>
<use data-text="1" xlink:href="#font_1_82" transform="matrix(7.9702599,0,0,-7.9701,56.273748,125.113)"/>
<use data-text="8" xlink:href="#font_1_51" transform="matrix(7.9702599,0,0,-7.9701,60.505956,125.113)"/>
<use data-text="f" xlink:href="#font_1_55" transform="matrix(7.9702599,0,0,-7.9701,67.55167,125.113)"/>
<use data-text="t" xlink:href="#font_1_105" transform="matrix(7.9702599,0,0,-7.9701,70.14201,125.113)"/>
</svg>
