<svg xmlns="http://www.w3.org/2000/svg" xmlns:xlink="http://www.w3.org/1999/xlink" xmlns:inkscape="http://www.inkscape.org/namespaces/inkscape" version="1.1" width="89" height="84" viewBox="0 0 89 84">
<defs>
<path id="font_1_100" d="M.5149994 .6435547H.26098634C.23599243 .6435547 .20498657 .64456179 .17999268 .6465759 .12799073 .65060427 .1269989 .65966799 .12399292 .67578127H.09298706L.05899048 .46455384H.08999634C.09199524 .47955323 .102996829 .54855349 .116989139 .5565491 .12799073 .56155398 .20298767 .56155398 .21798706 .56155398H.42999269L.32699586 .42355348C.21299744 .27153016 .18899536 .11351013 .18899536 .03451538 .18899536 .024505616 .18899536-.021484375 .23599243-.021484375 .2829895-.021484375 .2829895 .023513794 .2829895 .035507204V.08351135C.2829895 .2275238 .30699159 .34553529 .35598756 .41053773L.5059967 .608551C.5149994 .6195526 .5149994 .6215515 .5149994 .6435547Z"/>
<path id="font_1_88" d="M.20298767 .054992677C.20298767 .08898926 .17599488 .11099243 .147995 .11099243 .11399841 .11099243 .09199524 .083999637 .09199524 .055999757 .09199524 .021987915 .11898804 0 .14698792 0 .18099976 0 .20298767 .026992798 .20298767 .054992677Z"/>
<path id="font_1_56" d="M.47698976 .19924927C.47698976 .31576539 .3929901 .4189453 .2749939 .4189453 .22499085 .4189453 .17799378 .40293885 .13999939 .36886598V.5618439C.15299988 .55784609 .19299317 .54785159 .23498535 .54785159 .3600006 .54785159 .43598939 .63586428 .43598939 .6509552 .43598939 .6620178 .42900086 .66503909 .42399598 .66503909 .42399598 .66503909 .41999818 .66503909 .41099549 .66000369 .37199403 .6449127 .32598878 .632843 .27198792 .632843 .21299744 .632843 .1639862 .64793398 .1329956 .66000369 .12298584 .66503909 .11999512 .66503909 .11999512 .66503909 .10699463 .66503909 .10699463 .6539612 .10699463 .63586428V.34277345C.10699463 .32476808 .10699463 .3127594 .12298584 .3127594 .1309967 .3127594 .13398743 .31677247 .13899231 .32476808 .15098572 .33976747 .18899536 .39093019 .27398683 .39093019 .32998658 .39093019 .35699464 .34477235 .3659973 .3257599 .3829956 .2896576 .3849945 .24345398 .3849945 .20426941 .3849945 .16725159 .38398744 .11325073 .35598756 .069366458 .33699037 .03942871 .29699708 .008514404 .24398804 .008514404 .1789856 .008514404 .114990238 .04940796 .09199524 .11425781 .09498596 .11387634 .101989749 .11387634 .101989749 .11387634 .12998963 .11387634 .1519928 .13188172 .1519928 .16288758 .1519928 .19989014 .12298584 .21289063 .102996829 .21289063 .084991458 .21289063 .052993776 .20288086 .052993776 .15988159 .052993776 .069732669 .1309967-.021484375 .24598694-.021484375 .37098695-.021743775 .47698976 .07525635 .47698976 .19924927Z"/>
<path id="font_1_43" d="M.44099427 .12031555C.44099427 .13232422 .42799378 .13232422 .4249878 .13232422 .41799928 .13232422 .41299439 .13131714 .4099884 .12130737 .40299989 .10029602 .375 .021224976 .2749939 .021224976 .21299744 .021224976 .12399292 .0692749 .12399292 .21739197 .12399292 .3614807 .19799805 .4152832 .2709961 .4152832 .27999879 .4152832 .33299256 .4152832 .36799623 .39746095 .33999635 .3884735 .33599855 .36547853 .33599855 .35346986 .33599855 .32647706 .35499574 .30647279 .3829956 .30647279 .40899659 .30625917 .42999269 .32426454 .42999269 .35427857 .42999269 .41627503 .3619995 .44628907 .2679901 .44628907 .1289978 .44628907 .034988405 .3352661 .034988405 .21624756 .034988405 .0892334 .13899231-.009765625 .2649994-.009765625 .4059906-.009765625 .44099427 .10824585 .44099427 .12023926V.12031555Z"/>
<path id="font_1_75" d="M.8569946 0V.032989503C.79299929 .032989503 .7809906 .032989503 .7809906 .07803345V.3032837C.7809906 .3843689 .74598696 .44140626 .6369934 .44140626 .54499819 .44140626 .49899293 .37835694 .48298646 .34933473 .46499635 .42140199 .4079895 .44140626 .34298707 .44140626 .24598694 .44140626 .19999695 .37236024 .18699646 .34532167H.18598938V.44140626L.040985109 .43045045V.39746095C.10899353 .39746095 .116989139 .3904419 .116989139 .3413849V.078048709C.116989139 .032989503 .10499573 .032989503 .040985109 .032989503V0C.083999637 .0029907227 .12799073 .0029907227 .15499878 .0029907227 .18399048 .0029907227 .22599793 .0029907227 .2689972 0V.032989503C.20498657 .032989503 .19299317 .032989503 .19299317 .078048709V.25927735C.19299317 .36434938 .27198792 .4133911 .33499146 .4133911 .3999939 .4133911 .41099549 .36235047 .41099549 .3072815V.07803345C.41099549 .032989503 .39898683 .032989503 .33499146 .032989503V0C.37799073 .0029907227 .42199708 .0029907227 .44898988 .0029907227 .47799684 .0029907227 .519989 .0029907227 .5629883 0V.032989503C.49899293 .032989503 .4869995 .032989503 .4869995 .07803345V.25923158C.4869995 .36434938 .56599429 .4133911 .6289978 .4133911 .69400027 .4133911 .7049866 .36235047 .7049866 .3072815V.07803345C.7049866 .032989503 .69299319 .032989503 .6289978 .032989503V0C.6719971 .0029907227 .71598818 .0029907227 .7429962 .0029907227 .7719879 .0029907227 .81399539 .0029907227 .8569946 0Z"/>
<path id="font_1_82" d="M.44699098 0V.032989503H.4119873C.31698609 .032989503 .31399537 .04499817 .31399537 .08203125V.6371765C.31399537 .664032 .31199647 .66503909 .2849884 .66503909 .24398804 .6252289 .19099427 .6013489 .09599304 .6013489V.5683594C.12298584 .5683594 .1769867 .5683594 .23498535 .5953522V.08203125C.23498535 .04499817 .23199463 .032989503 .13699341 .032989503H.101989749V0C.14299011 .0029907227 .22898865 .0029907227 .27398683 .0029907227 .31900025 .0029907227 .4059906 .0029907227 .44699098 0Z"/>
<path id="font_1_121" d="M.4889984 .31877137C.4889984 .42585755 .47799684 .49090577 .44499208 .55496218 .40098573 .6430359 .31999208 .66503909 .2649994 .66503909 .13899231 .66503909 .09298706 .5709839 .07899475 .5429535 .042999269 .4698944 .040985109 .3708191 .040985109 .31877137 .040985109 .25271607 .04399109 .15162659 .09199524 .07156372 .13798523-.0024871827 .21199036-.021484375 .2649994-.021484375 .31298829-.021484375 .39898683-.0064849855 .44898988 .09257507 .48599244 .16464234 .4889984 .2537079 .4889984 .31877137M.3999939 .33078004C.3999939 .27172853 .3999939 .18165589 .3880005 .12561035 .36698915 .020523072 .2979889 .006515503 .2649994 .006515503 .23098755 .006515503 .1619873 .022521973 .14099121 .12760926 .12998963 .18466187 .12998963 .2787323 .12998963 .33078004 .12998963 .3998413 .12998963 .4698944 .14099121 .5249481 .1619873 .6270294 .23999024 .6370239 .2649994 .6370239 .29899598 .6370239 .36799623 .62002566 .3880005 .5289459 .3999939 .4738922 .3999939 .39883424 .3999939 .33078004Z"/>
</defs>
<path transform="matrix(1.00003,0,0,-1.00005,16.468934,72.86784)" d="M0 0H56.69362L70.867 42.5202 28.3468 70.867-14.17339 42.5202Z" fill="#ffffff"/>
<path transform="matrix(1.00003,0,0,-1.00005,16.468934,72.86784)" stroke-width=".79701" stroke-linecap="butt" stroke-miterlimit="10" stroke-linejoin="miter" fill="none" stroke="#0000cc" d="M0 0H56.69362L70.867 42.5202 28.3468 70.867-14.17339 42.5202Z"/>
<path transform="matrix(1.00003,0,0,-1.00005,16.468934,72.86784)" stroke-width=".79701" stroke-linecap="butt" stroke-miterlimit="10" stroke-linejoin="miter" fill="none" stroke="#7f807f" d="M28.3468 28.3468V0"/>
<path transform="matrix(1.00003,0,0,-1.00005,16.468934,72.86784)" d="M29.34308 28.3468C29.34308 28.89703 28.89703 29.34308 28.3468 29.34308 27.79657 29.34308 27.35052 28.89703 27.35052 28.3468 27.35052 27.79657 27.79657 27.35052 28.3468 27.35052 28.89703 27.35052 29.34308 27.79657 29.34308 28.3468ZM28.3468 28.3468" fill="#7f807f"/>
<path transform="matrix(1.00003,0,0,-1.00005,16.468934,72.86784)" stroke-width=".3985" stroke-linecap="butt" stroke-miterlimit="10" stroke-linejoin="miter" fill="none" stroke="#7f807f" d="M29.34308 28.3468C29.34308 28.89703 28.89703 29.34308 28.3468 29.34308 27.79657 29.34308 27.35052 28.89703 27.35052 28.3468 27.35052 27.79657 27.79657 27.35052 28.3468 27.35052 28.89703 27.35052 29.34308 27.79657 29.34308 28.3468ZM28.3468 28.3468"/>
<use data-text="7" xlink:href="#font_1_100" transform="matrix(7.9703395,0,0,-7.970498,28.182282,61.304269)"/>
<use data-text="." xlink:href="#font_1_88" transform="matrix(7.9703395,0,0,-7.970498,32.414529,61.304269)"/>
<use data-text="5" xlink:href="#font_1_56" transform="matrix(7.9703395,0,0,-7.970498,34.765787,61.304269)"/>
<use data-text="c" xlink:href="#font_1_43" transform="matrix(7.9703395,0,0,-7.970498,41.819536,61.304269)"/>
<use data-text="m" xlink:href="#font_1_75" transform="matrix(7.9703395,0,0,-7.970498,45.581537,61.304269)"/>
<path transform="matrix(1.00003,0,0,-1.00005,16.468934,72.86784)" stroke-width="1.19553" stroke-linecap="butt" stroke-miterlimit="10" stroke-linejoin="miter" fill="none" stroke="#000000" d="M0 0H56.69362"/>
<use data-text="1" xlink:href="#font_1_82" transform="matrix(7.9703395,0,0,-7.970498,33.76545,82.0873)"/>
<use data-text="0" xlink:href="#font_1_121" transform="matrix(7.9703395,0,0,-7.970498,37.997697,82.0873)"/>
<use data-text="c" xlink:href="#font_1_43" transform="matrix(7.9703395,0,0,-7.970498,45.051454,82.0873)"/>
<use data-text="m" xlink:href="#font_1_75" transform="matrix(7.9703395,0,0,-7.970498,48.813455,82.0873)"/>
</svg>
