<svg xmlns="http://www.w3.org/2000/svg" xmlns:xlink="http://www.w3.org/1999/xlink" xmlns:inkscape="http://www.inkscape.org/namespaces/inkscape" version="1.1" width="175" height="172" viewBox="0 0 175 172">
<defs>
<path id="font_1_80" d="M.72099307 .3387909C.72099307 .5429535 .56999209 .7050781 .3880005 .7050781 .20899964 .7050781 .055999757 .5449524 .055999757 .3387909 .055999757 .13363648 .20999146-.022460938 .3880005-.022460938 .56999209-.022460938 .72099307 .13664246 .72099307 .3387909M.6179962 .35281373C.6179962 .08760071 .48098756 .0035247803 .3889923 .0035247803 .29299928 .0035247803 .15899658 .09159851 .15899658 .35281373 .15899658 .6120148 .30499269 .68006899 .3880005 .68006899 .47499085 .68006899 .6179962 .6090088 .6179962 .35281373Z"/>
<path id="font_2_1" d="M.30299378 .3157959H.47299195C.61499026 .3157959 .7539978 .41973878 .7539978 .53167727 .7539978 .6086273 .6879883 .6826172 .5569916 .6826172H.23298645C.21398926 .6826172 .20298767 .6826172 .20298767 .66360476 .20298767 .6516113 .21199036 .6516113 .23199463 .6516113 .24499512 .6516113 .2630005 .65060427 .2749939 .6496124 .29100038 .6476135 .29699708 .64460757 .29699708 .6336212 .29699708 .6296234 .29599 .62661746 .29299928 .614624L.15899658 .07795715C.14898682 .038986207 .14698792 .0309906 .067993167 .0309906 .050994874 .0309906 .039993287 .0309906 .039993287 .011993408 .039993287 0 .051986696 0 .054992677 0 .08299255 0 .1539917 .0029907227 .18199158 .0029907227 .20298767 .0029907227 .22499085 .0019989014 .24598694 .0019989014 .2679901 .0019989014 .2899933 0 .31098939 0 .31799317 0 .33099366 0 .33099366 .019989014 .33099366 .0309906 .32199098 .0309906 .30299378 .0309906 .2659912 .0309906 .23799134 .0309906 .23799134 .048980714 .23799134 .054977418 .23999024 .05996704 .24099732 .065963748L.30299378 .3157959M.375 .6136322C.38398744 .64860537 .38598634 .6516113 .42900086 .6516113H.5249939C.60798647 .6516113 .6609955 .62461856 .6609955 .55566409 .6609955 .5166931 .6409912 .43074037 .60198977 .39476014 .5519867 .34977723 .49198915 .34179688 .44799806 .34179688H.30699159L.375 .6136322Z"/>
<path id="font_3_1" d="M.33499146 .63612368C.33499146 .6630554 .33299256 .6640625 .30499269 .6640625 .24099732 .6014404 .1499939 .6004486 .10899353 .6004486V.5644531C.1329956 .5644531 .19898987 .5644531 .2539978 .592453V.08203125C.2539978 .04899597 .2539978 .035995485 .1539917 .035995485H.115997318V0C.13398743 .0009918213 .25698854 .0039978029 .2939911 .0039978029 .32499696 .0039978029 .45098878 .0009918213 .47299195 0V.035995485H.43499757C.33499146 .035995485 .33499146 .04899597 .33499146 .08203125V.63612368Z"/>
<path id="font_3_2" d="M.5049896 .18203736H.47099305C.46798707 .16001892 .45799256 .100997928 .44499208 .09098816 .43699647 .084991458 .3600006 .084991458 .34599305 .084991458H.1619873C.2669983 .17803955 .3019867 .20603943 .3619995 .25306703 .43598939 .312088 .5049896 .374115 .5049896 .46914674 .5049896 .5900879 .39898683 .6640625 .2709961 .6640625 .14698792 .6640625 .06298828 .57710269 .06298828 .4851532 .06298828 .43414308 .10598755 .42915345 .115997318 .42915345 .13999939 .42915345 .16899109 .44615174 .16899109 .48214723 .16899109 .5001526 .1619873 .53515627 .10998535 .53515627 .14099121 .6060791 .20899964 .62805178 .2559967 .62805178 .35598756 .62805178 .4079895 .5501404 .4079895 .46914674 .4079895 .38212586 .34599305 .3130951 .31399537 .27708436L.07299805 .038986207C.06298828 .02999878 .06298828 .027999878 .06298828 0H.47499085L.5049896 .18203736Z"/>
<path id="font_3_3" d="M.272995 .33428956C.35099793 .33428956 .40699769 .2803192 .40699769 .1733551 .40699769 .04940796 .33499146 .012466431 .2769928 .012466431 .23699951 .012466431 .14898682 .0234375 .10699463 .082351688 .1539917 .084350589 .16499329 .11735535 .16499329 .13835144 .16499329 .17034912 .14099121 .19335938 .10998535 .19335938 .08198547 .19335938 .053985597 .17634583 .053985597 .13534546 .053985597 .041412355 .1579895-.01953125 .2789917-.01953125 .41799928-.01953125 .5139923 .07336426 .5139923 .1733551 .5139923 .2513275 .44999696 .32929994 .33999635 .35229493 .44499208 .39024354 .48298646 .4650879 .48298646 .5260773 .48298646 .60505679 .3919983 .6640625 .2809906 .6640625 .16999817 .6640625 .084991458 .61006167 .084991458 .5300751 .084991458 .49606324 .10699463 .47706605 .13699341 .47706605 .16799927 .47706605 .18798828 .5000763 .18798828 .5280762 .18798828 .5570679 .16799927 .57806399 .13699341 .5800781 .17199707 .62405398 .24099732 .63505557 .27799989 .63505557 .32299806 .63505557 .38598634 .6130676 .38598634 .5260773 .38598634 .48406983 .37199403 .43814088 .34599305 .4072113 .31298829 .36927796 .2849884 .3672943 .23498535 .36428834 .20999146 .3623047 .20799256 .3623047 .20298767 .3612976 .20098877 .3612976 .19299317 .3592987 .19299317 .34829713 .19299317 .33428956 .20199585 .33428956 .21899414 .33428956H.272995Z"/>
<path id="font_3_4" d="M.5289917 .1640625V.20005799H.41799928V.64582827C.41799928 .66682437 .41799928 .6738281 .3959961 .6738281 .38398744 .6738281 .37998963 .6738281 .36999513 .65982058L.038986207 .20005799V.1640625H.33299256V.08201599C.33299256 .04800415 .33299256 .035995485 .2519989 .035995485H.22499085V0C.2749939 .0019989014 .33898927 .0039978029 .375 .0039978029 .4119873 .0039978029 .47599793 .0019989014 .526001 0V.035995485H.49899293C.41799928 .035995485 .41799928 .04800415 .41799928 .08201599V.1640625H.5289917M.33999635 .5658722V.20005799H.07598877L.33999635 .5658722Z"/>
<path id="font_3_5" d="M.15499878 .5588074C.20599365 .5458069 .23599243 .5458069 .2519989 .5458069 .38398744 .5458069 .46199037 .6358032 .46199037 .6508026 .46199037 .6618042 .45498658 .6648102 .44999696 .6648102 .44799806 .6648102 .44599916 .6648102 .44198609 .6618042 .41799928 .6528015 .36499024 .6328125 .29100038 .6328125 .2630005 .6328125 .20999146 .6348114 .14498902 .6598053 .1349945 .6648102 .1329956 .6648102 .13198853 .6648102 .11898804 .6648102 .11898804 .6538086 .11898804 .6378021V.34251405C.11898804 .32548524 .11898804 .3134613 .1349945 .3134613 .14399719 .3134613 .14498902 .3154602 .15499878 .32748414 .19799805 .38259889 .25898744 .390625 .2939911 .390625 .35398866 .390625 .3809967 .34251405 .38598634 .33450318 .4039917 .30143739 .4099884 .26335145 .4099884 .20524597 .4099884 .17524719 .4099884 .116256717 .37998963 .07234192 .35499574 .03640747 .31199647 .012466431 .2630005 .012466431 .19799805 .012466431 .1309967 .04838562 .10598755 .11425781 .14399719 .11125183 .16299439 .13624573 .16299439 .16325379 .16299439 .20625305 .12599182 .21424866 .11299133 .21424866 .11099243 .21424866 .06298828 .21424866 .06298828 .1602478 .06298828 .07034302 .14498902-.01953125 .2649994-.01953125 .3929901-.01953125 .5049896 .07533264 .5049896 .20124817 .5049896 .31445313 .4189911 .41862489 .29499818 .41862489 .25099183 .41862489 .19898987 .4076233 .15499878 .36956788V.5588074Z"/>
</defs>
<path transform="matrix(1.00008,0,0,-1.00005,87.5358,100.0984)" stroke-width=".79701" stroke-linecap="butt" stroke-miterlimit="10" stroke-linejoin="miter" fill="none" stroke="#000000" d="M-80.87897 26.27925-49.98537-68.79948H49.98537L80.87897 26.27925 0 85.04042Z"/>
<path transform="matrix(1.00008,0,0,-1.00005,87.5358,100.0984)" stroke-width=".3985" stroke-linecap="butt" stroke-dasharray="2.98883,2.98883" stroke-miterlimit="10" stroke-linejoin="miter" fill="none" stroke="#000000" d="M0 0-80.87897 26.27925"/>
<path transform="matrix(1.00008,0,0,-1.00005,87.5358,100.0984)" stroke-width=".3985" stroke-linecap="butt" stroke-dasharray="2.98883,2.98883" stroke-miterlimit="10" stroke-linejoin="miter" fill="none" stroke="#000000" d="M0 0-49.98537-68.79948"/>
<path transform="matrix(1.00008,0,0,-1.00005,87.5358,100.0984)" stroke-width=".3985" stroke-linecap="butt" stroke-dasharray="2.98883,2.98883" stroke-miterlimit="10" stroke-linejoin="miter" fill="none" stroke="#000000" d="M0 0 49.98537-68.79948"/>
<path transform="matrix(1.00008,0,0,-1.00005,87.5358,100.0984)" stroke-width=".3985" stroke-linecap="butt" stroke-dasharray="2.98883,2.98883" stroke-miterlimit="10" stroke-linejoin="miter" fill="none" stroke="#000000" d="M0 0 80.87897 26.27925"/>
<path transform="matrix(1.00008,0,0,-1.00005,87.5358,100.0984)" stroke-width=".3985" stroke-linecap="butt" stroke-dasharray="2.98883,2.98883" stroke-miterlimit="10" stroke-linejoin="miter" fill="none" stroke="#000000" d="M0 0V85.04042"/>
<path transform="matrix(1.00008,0,0,-1.00005,87.5358,100.0984)" d="M1.99255 0C1.99255 1.10046 1.10046 1.99255 0 1.99255-1.10046 1.99255-1.99255 1.10046-1.99255 0-1.99255-1.10046-1.10046-1.99255 0-1.99255 1.10046-1.99255 1.99255-1.10046 1.99255 0ZM0 0"/>
<use data-text="O" xlink:href="#font_1_80" transform="matrix(9.963397,0,0,-9.963098,91.056079,110.64292)"/>
<path transform="matrix(1.00008,0,0,-1.00005,87.5358,100.0984)" d="M-78.76553 26.27925C-78.76553 27.44649-79.71175 28.3927-80.87897 28.3927-82.04619 28.3927-82.99242 27.44649-82.99242 26.27925-82.99242 25.11203-82.04619 24.16582-80.87897 24.16582-79.71175 24.16582-78.76553 25.11203-78.76553 26.27925ZM-80.87897 26.27925"/>
<use data-text="P" xlink:href="#font_2_1" transform="matrix(9.963397,0,0,-9.963098,1.2169037,66.49072)"/>
<use data-text="1" xlink:href="#font_3_1" transform="matrix(6.974358,0,0,-6.9741489,7.6134188,67.985797)"/>
<path transform="matrix(1.00008,0,0,-1.00005,87.5358,100.0984)" d="M-47.87193-68.79948C-47.87193-67.63226-48.81815-66.68604-49.98537-66.68604-51.1526-66.68604-52.09882-67.63226-52.09882-68.79948-52.09882-69.9667-51.1526-70.91292-49.98537-70.91292-48.81815-70.91292-47.87193-69.9667-47.87193-68.79948ZM-49.98537-68.79948"/>
<use data-text="P" xlink:href="#font_2_1" transform="matrix(9.963397,0,0,-9.963098,32.113359,161.57447)"/>
<use data-text="2" xlink:href="#font_3_2" transform="matrix(6.974358,0,0,-6.9741489,38.509874,163.06955)"/>
<path transform="matrix(1.00008,0,0,-1.00005,87.5358,100.0984)" d="M52.09882-68.79948C52.09882-67.63226 51.1526-66.68604 49.98537-66.68604 48.81815-66.68604 47.87193-67.63226 47.87193-68.79948 47.87193-69.9667 48.81815-70.91292 49.98537-70.91292 51.1526-70.91292 52.09882-69.9667 52.09882-68.79948ZM49.98537-68.79948"/>
<use data-text="P" xlink:href="#font_2_1" transform="matrix(9.963397,0,0,-9.963098,132.09236,161.57447)"/>
<use data-text="3" xlink:href="#font_3_3" transform="matrix(6.974358,0,0,-6.9741489,138.48888,163.06955)"/>
<path transform="matrix(1.00008,0,0,-1.00005,87.5358,100.0984)" d="M82.99242 26.27925C82.99242 27.44649 82.04619 28.3927 80.87897 28.3927 79.71175 28.3927 78.76553 27.44649 78.76553 26.27925 78.76553 25.11203 79.71175 24.16582 80.87897 24.16582 82.04619 24.16582 82.99242 25.11203 82.99242 26.27925ZM80.87897 26.27925"/>
<use data-text="P" xlink:href="#font_2_1" transform="matrix(9.963397,0,0,-9.963098,162.98783,66.49072)"/>
<use data-text="4" xlink:href="#font_3_4" transform="matrix(6.974358,0,0,-6.9741489,169.38434,67.985797)"/>
<path transform="matrix(1.00008,0,0,-1.00005,87.5358,100.0984)" d="M2.11343 85.04042C2.11343 86.20764 1.16722 87.15385 0 87.15385-1.16722 87.15385-2.11343 86.20764-2.11343 85.04042-2.11343 83.8732-1.16722 82.92699 0 82.92699 1.16722 82.92699 2.11343 83.8732 2.11343 85.04042ZM0 85.04042"/>
<use data-text="P" xlink:href="#font_2_1" transform="matrix(9.963397,0,0,-9.963098,82.10236,7.7267839)"/>
<use data-text="5" xlink:href="#font_3_5" transform="matrix(6.974358,0,0,-6.9741489,88.49888,9.221863)"/>
</svg>
