<svg xmlns="http://www.w3.org/2000/svg" xmlns:xlink="http://www.w3.org/1999/xlink" xmlns:inkscape="http://www.inkscape.org/namespaces/inkscape" version="1.1" width="319" height="384" viewBox="0 0 319 384">
<defs>
<path id="font_1_116" d="M.58499148 0V.04699707H.5139923L.34599305 .2461853 .46299745 .37631227C.47599793 .39031983 .48199464 .3973236 .5649872 .3973236V.44433595L.47299195 .44132997 .36999513 .44433595V.3973236C.38398744 .3973236 .3959961 .3953247 .4079895 .38832093 .4039917 .38230897 .4039917 .38031007 .3999939 .37631227L.31599427 .2822113 .21798706 .3973236H.2579956V.44433595L.13699341 .44132997 .026992798 .44433595V.3973236H.09799194L.2539978 .21315003 .12298584 .06600952C.10598755 .04699707 .069992069 .04699707 .021987915 .04699707V0L.11399841 .0029907227 .21699524 0V.04699707C.19898987 .04699707 .17999268 .052001954 .17999268 .057998659 .17999268 .057998659 .17999268 .05999756 .18699646 .06800842L.28399659 .17712403 .3939972 .04699707H.35499574V0L.47499085 .0029907227 .58499148 0Z"/>
<path id="font_1_64" d="M.31799317 .17382813V.27082826H.0129852299V.17382813H.31799317Z"/>
<path id="font_1_28" d="M.5529938 .023986817C.5529938 .04699707 .5399933 .04699707 .5269928 .04699707 .46598817 .04798889 .46598817 .06100464 .46598817 .083999637V.29907228C.46598817 .3881073 .394989 .453125 .24598694 .453125 .18899536 .453125 .066986087 .44911195 .066986087 .36109925 .066986087 .3170929 .101989749 .29808045 .1289978 .29808045 .1599884 .29808045 .19198609 .3190918 .19198609 .36109925 .19198609 .39111329 .17298889 .40811158 .16999817 .41011048 .19799805 .41612245 .22999573 .41711427 .24198914 .41711427 .31698609 .41711427 .35198976 .3751068 .35198976 .29907228V.26506043C.2809906 .2620697 .026992798 .25306703 .026992798 .10801697 .026992798 .012130737 .15098572-.005859375 .21998596-.005859375 .2999878-.005859375 .34700013 .035125734 .36898805 .07713318 .36898805 .04598999 .36898805 0 .47299195 0H.5209961C.54100039 0 .5529938 0 .5529938 .023986817M.35198976 .13899231C.35198976 .043151857 .2599945 .030136109 .23498535 .030136109 .18399048 .030136109 .14399719 .06517029 .14399719 .10922241 .14399719 .21734619 .3019867 .23136902 .35198976 .234375V.13899231Z"/>
<path id="font_1_66" d="M.28599549 0V.04699707H.22399903V.4501953L.049987794 .4423828V.39537049C.10899353 .39537049 .115997318 .39537049 .115997318 .3563385V.04699707H.04699707V0L.16899109 .0029907227 .28599549 0M.23799134 .60728457C.23799134 .6502838 .20298767 .6852875 .1599884 .6852875 .116989139 .6852875 .08198547 .6502838 .08198547 .60728457 .08198547 .5642853 .116989139 .5292969 .1599884 .5292969 .20298767 .5292969 .23799134 .5642853 .23799134 .60728457Z"/>
<path id="font_1_98" d="M.4149933 .14012146C.4149933 .18312073 .394989 .21812439 .3600006 .24612427 .32099916 .27511598 .2889862 .28112794 .21099854 .29412843 .17399597 .30111695 .10899353 .31211854 .10899353 .3591156 .10899353 .42111207 .20199585 .42111207 .22099304 .42111207 .29599 .42111207 .33399964 .39212037 .33898927 .33711244 .33999635 .32211305 .34098817 .3171234 .3619995 .3171234 .38598634 .3171234 .38598634 .32211305 .38598634 .3451233V.42510987C.38598634 .4441223 .38598634 .453125 .36799623 .453125 .3639984 .453125 .3619995 .453125 .32299806 .43411256 .29699708 .44711305 .2619934 .453125 .22200012 .453125 .19198609 .453125 .037994386 .453125 .037994386 .32211305 .037994386 .28211976 .057998659 .25512696 .07798767 .23812866 .117996219 .203125 .1559906 .1971283 .23298645 .18312073 .2689972 .17712403 .34399415 .16412354 .34399415 .10513306 .34399415 .030136109 .2519989 .030136109 .22999573 .030136109 .12399292 .030136109 .09799194 .103134158 .085998538 .14613343 .08099365 .16012573 .07598877 .16012573 .06199646 .16012573 .037994386 .16012573 .037994386 .15412903 .037994386 .13113404V.022140503C.037994386 .0031280518 .037994386-.005859375 .055999757-.005859375 .06298828-.005859375 .06498718-.005859375 .085998538 .009140015L.11199951 .026138306C.1579895-.005859375 .20999146-.005859375 .22999573-.005859375 .26098634-.005859375 .4149933-.005859375 .4149933 .14013672V.14012146Z"/>
<path id="font_1_118" d="M.5799866 .3973236V.44433595C.55599978 .44232179 .526001 .44132997 .5009918 .44132997L.4099884 .44433595V.3973236C.4099884 .3973236 .45700074 .3973236 .45700074 .3853302L.45199586 .37332154 .33699037 .12713623 .20999146 .3973236H.2639923V.44433595L.13999939 .44132997 .025985718 .44433595V.3973236H.08999634L.2769928 .000045776369 .2539978-.04798889C.23199463-.09602356 .19999695-.1640625 .1289978-.1640625 .114990238-.1640625 .11299133-.16307068 .10499573-.1600647 .11399841-.1560669 .13699341-.14205933 .13699341-.10702515 .13699341-.07400513 .11299133-.049987794 .07899475-.049987794 .050994874-.049987794 .021987915-.069000247 .021987915-.10803223 .021987915-.15907288 .068984989-.20007324 .1289978-.20007324 .20599365-.20007324 .2639923-.13804627 .29100038-.08100891L.5059967 .37631227C.5130005 .39031983 .5159912 .3973236 .5799866 .3973236Z"/>
<path id="font_2_64" d="M.27598573 .18710327V.24511719H.010986328V.18710327H.27598573Z"/>
<path id="font_2_57" d="M.47099305 .16503906V.19602967H.37098695V.6507721C.37098695 .6707611 .37098695 .6767578 .35499574 .6767578 .34599305 .6767578 .34298707 .6767578 .33499146 .6647644L.027999878 .19602967V.16503906H.2939911V.07800293C.2939911 .041992189 .2919922 .0309906 .21798706 .0309906H.19699097V0C.23799134 .0029907227 .2899933 .0029907227 .33198548 .0029907227 .37399293 .0029907227 .4269867 .0029907227 .46798707 0V.0309906H.44699098C.37298585 .0309906 .37098695 .041992189 .37098695 .07800293V.16503906H.47099305M.2999878 .19602967H.055999757L.2999878 .56881716V.19602967Z"/>
<path id="font_2_106" d="M.45700074 .17037964C.45700074 .252594 .3939972 .33088685 .2899933 .35191346 .37199403 .37893678 .42999269 .4490509 .42999269 .52809146 .42999269 .6100464 .34199525 .6660156 .24598694 .6660156 .14498902 .6660156 .068984989 .60606387 .068984989 .53009036 .068984989 .49710084 .09098816 .47808839 .11999512 .47808839 .15098572 .47808839 .17098999 .50009158 .17098999 .5290985 .17098999 .57910159 .12399292 .57910159 .10899353 .57910159 .13999939 .62802127 .20599365 .64100649 .24198914 .64100649 .2829895 .64100649 .33799745 .6190338 .33799745 .5290985 .33799745 .51708987 .33599855 .45906068 .30999757 .4149933 .27999879 .36691285 .24598694 .36390687 .22099304 .36291505 .21299744 .36190797 .18899536 .35990907 .18199158 .35990907 .17399597 .35890199 .16699219 .35791017 .16699219 .3479004 .16699219 .33691407 .17399597 .33691407 .19099427 .33691407H.23498535C.31698609 .33691407 .35398866 .2686615 .35398866 .17037964 .35398866 .034469606 .2849884 .0055389406 .24099732 .0055389406 .19799805 .0055389406 .12298584 .022491456 .08799744 .08137512 .12298584 .07637024 .1539917 .09837341 .1539917 .1363678 .1539917 .17237854 .1269989 .19238281 .09799194 .19238281 .07398987 .19238281 .041992189 .17837525 .041992189 .1343689 .041992189 .043441774 .1349945-.022460938 .24398804-.022460938 .3659973-.022460938 .45700074 .06838989 .45700074 .17037964Z"/>
<path id="font_2_107" d="M.44898988 .17396546H.42399598C.4189911 .14398194 .4119873 .099990848 .4019928 .084991458 .394989 .07699585 .32899476 .07699585 .30699159 .07699585H.1269989L.23298645 .17996216C.3889923 .31803895 .44898988 .37210084 .44898988 .47216798 .44898988 .5860901 .35899354 .6660156 .23699951 .6660156 .12399292 .6660156 .049987794 .57411196 .049987794 .48516847 .049987794 .4291687 .099990848 .4291687 .102996829 .4291687 .11999512 .4291687 .15499878 .44117738 .15499878 .48217774 .15499878 .5081787 .13699341 .5341797 .101989749 .5341797 .09399414 .5341797 .09199524 .5341797 .08898926 .5331726 .11199951 .59806826 .1659851 .63500979 .22399903 .63500979 .31498719 .63500979 .35798646 .5541382 .35798646 .47216798 .35798646 .39196778 .30799867 .31297303 .25299073 .25097657L.06098938 .036987306C.049987794 .025985718 .049987794 .023986817 .049987794 0H.42099L.44898988 .17396546Z"/>
<path id="font_2_82" d="M.4189911 0V.0309906H.3869934C.29699708 .0309906 .2939911 .041992189 .2939911 .07902527V.64012148C.2939911 .6640167 .2939911 .6660156 .2709961 .6660156 .20899964 .60227969 .12098694 .60227969 .08898926 .60227969V.57128909C.10899353 .57128909 .16799927 .57128909 .21998596 .5972748V.07902527C.21998596 .042999269 .21699524 .0309906 .1269989 .0309906H.09498596V0C.12998963 .0029907227 .21699524 .0029907227 .25698854 .0029907227 .29699708 .0029907227 .38398744 .0029907227 .4189911 0Z"/>
<path id="font_2_101" d="M.45700074 .2036438C.45700074 .33070375 .36799623 .4267578 .25698854 .4267578 .18899536 .4267578 .1519928 .37573243 .13198853 .327713V.35173036C.13198853 .6047821 .2559967 .64100649 .30699159 .64100649 .33099366 .64100649 .37298585 .634964 .394989 .6007538 .37998963 .6007538 .33999635 .6007538 .33999635 .5557556 .33999635 .524765 .3639984 .5097656 .38598634 .5097656 .4019928 .5097656 .43199159 .51875308 .43199159 .5577545 .43199159 .6178589 .3880005 .6660156 .30499269 .6660156 .1769867 .6660156 .041992189 .5367584 .041992189 .31570436 .041992189 .048553468 .1579895-.022460938 .25099183-.022460938 .3619995-.022460938 .45700074 .07156372 .45700074 .2036438M.36698915 .20463562C.36698915 .15661621 .36698915 .10658264 .34999085 .0705719 .31999208 .010528564 .27398683 .0055389406 .25099183 .0055389406 .18798828 .0055389406 .1579895 .06556702 .1519928 .080566409 .13398743 .127594 .13398743 .2076416 .13398743 .22564698 .13398743 .30369569 .1659851 .40374757 .2559967 .40374757 .27198792 .40374757 .31799317 .40374757 .34899903 .34172059 .36698915 .30470277 .36698915 .2536621 .36698915 .20463562Z"/>
<path id="font_1_52" d="M.82899478 .36203004C.82899478 .39302064 .7979889 .39302064 .7829895 .39302064H.10998535C.09498596 .39302064 .06399536 .39302064 .06399536 .36203004 .06399536 .33203126 .09298706 .33203126 .10499573 .33203126H.7879944C.7999878 .33203126 .82899478 .33203126 .82899478 .36203004M.82899478 .13893128C.82899478 .16894531 .7999878 .16894531 .7879944 .16894531H.10499573C.09298706 .16894531 .06399536 .16894531 .06399536 .13893128 .06399536 .107940677 .09498596 .107940677 .10998535 .107940677H.7829895C.7979889 .107940677 .82899478 .107940677 .82899478 .13893128Z"/>
<path id="font_1_107" d="M.5169983 .22200012H.46998597C.46699525 .20199585 .45799256 .13798523 .44400025 .1309967 .43299867 .125 .35798646 .125 .34199525 .125H.19499207C.24198914 .1639862 .2939911 .20698548 .33898927 .23999024 .45298768 .3242035 .5169983 .37124635 .5169983 .4663086 .5169983 .5812988 .41299439 .65527346 .27198792 .65527346 .15098572 .65527346 .056991579 .593277 .056991579 .50331118 .056991579 .44430543 .10499573 .42930604 .1289978 .42930604 .16099549 .42930604 .20098877 .4513092 .20098877 .50131228 .20098877 .55329897 .15899658 .5693054 .14399719 .5733032 .17298889 .5972748 .21099854 .6082611 .24699402 .6082611 .33299256 .6082611 .3789978 .54029849 .3789978 .4653015 .3789978 .39627076 .34098817 .3282013 .2709961 .25712586L.069992069 .051986696C.056991579 .039993287 .056991579 .037994386 .056991579 .017990113V0H.48599244L.5169983 .22200012Z"/>
<path id="font_1_89" d="M.82899478 .25024415C.82899478 .28125 .7999878 .28125 .7859955 .28125H.47698976V.59085085C.47698976 .60284426 .47698976 .6328125 .44699098 .6328125 .41600038 .6328125 .41600038 .60383608 .41600038 .59085085V.28125H.10699463C.09298706 .28125 .06399536 .28125 .06399536 .25024415 .06399536 .22024536 .09399414 .22024536 .10699463 .22024536H.41600038V-.08982849C.41600038-.10183716 .41600038-.13183594 .44599916-.13183594 .47698976-.13183594 .47698976-.10282898 .47698976-.08982849V.22024536H.7859955C.798996 .22024536 .82899478 .22024536 .82899478 .25024415Z"/>
<path id="font_1_57" d="M.5419922 0V.04699707H.44499208V.15611267H.5419922V.203125H.44499208V.62423709C.44499208 .6512451 .44299317 .65625 .4149933 .65625 .3939972 .65625 .3929901 .6552429 .3809967 .6402283L.03199768 .203125V.15611267H.31999208V.04699707H.20799256V0C.24598694 .0029907227 .33699037 .0029907227 .37998963 .0029907227 .41999818 .0029907227 .5069885 .0029907227 .5419922 0M.33099366 .203125H.083999637L.33099366 .51319888V.203125Z"/>
<path id="font_2_85" d="M.33099366-.2400055C.33099366-.23701477 .33099366-.23500061 .31399537-.21800232 .18899536-.0920105 .15699768 .09700012 .15699768 .25 .15699768 .42399598 .19499207 .59799197 .31799317 .72299197 .33099366 .7350006 .33099366 .7369995 .33099366 .73999026 .33099366 .746994 .32699586 .75 .32099916 .75 .31098939 .75 .22099304 .6819916 .1619873 .5549927 .11099243 .44499208 .09899902 .33399964 .09899902 .25 .09899902 .17199707 .10998535 .050994874 .16499329-.06201172 .22499085-.18501282 .31098939-.25 .32099916-.25 .32699586-.25 .33099366-.24700928 .33099366-.2400055Z"/>
<path id="font_2_45" d="M.20298767 .0009918213C.20298767 .06498718 .1789856 .10598755 .13899231 .10598755 .10398865 .10598755 .085998538 .07899475 .085998538 .052993776 .085998538 .026992798 .102996829 0 .13899231 0 .1539917 0 .16799927 .005996704 .1789856 .015991211 .18099976-.06312561 .15299988-.12423706 .10899353-.17132569 .102996829-.17733765 .101989749-.17834473 .101989749-.18234253 .101989749-.18936157 .10699463-.19335938 .11199951-.19335938 .12399292-.19335938 .20298767-.114227298 .20298767 .0009918213Z"/>
<path id="font_2_121" d="M.45999146 .31976319C.45999146 .39982606 .45498658 .47988893 .41999818 .5539398 .37399293 .65000918 .2919922 .6660156 .25 .6660156 .18998719 .6660156 .116989139 .64001467 .07598877 .54693606 .04399109 .47789 .038986207 .39982606 .038986207 .31976319 .038986207 .24472046 .042999269 .15464783 .083999637 .07859802 .1269989-.0024719239 .19999695-.022460938 .24899292-.022460938 .30299378-.022460938 .3789978-.0014648438 .4229889 .09359741 .45498658 .16265869 .45999146 .2407074 .45999146 .31976319M.3769989 .3317871C.3769989 .25672914 .3769989 .18867493 .3659973 .12461853 .35099793 .029556275 .2939911-.00047302247 .24899292-.00047302247 .20999146-.00047302247 .15098572 .024551392 .1329956 .12062073 .12199402 .18066406 .12199402 .2727356 .12199402 .3317871 .12199402 .39582826 .12199402 .46188355 .12998963 .5159149 .14898682 .63500979 .22399903 .64401248 .24899292 .64401248 .28199769 .64401248 .34799195 .6259918 .36698915 .52693179 .3769989 .47088624 .3769989 .39482118 .3769989 .3317871Z"/>
<path id="font_2_86" d="M.2889862 .25C.2889862 .32798768 .27799989 .44898988 .22299195 .56199648 .16299439 .68499758 .07699585 .75 .066986087 .75 .06098938 .75 .056991579 .74598696 .056991579 .73999026 .056991579 .7369995 .056991579 .7350006 .07598877 .71699526 .17399597 .6179962 .23098755 .45899964 .23098755 .25 .23098755 .07899475 .19400025-.09700012 .069992069-.2230072 .056991579-.23500061 .056991579-.23701477 .056991579-.2400055 .056991579-.2460022 .06098938-.25 .066986087-.25 .07699585-.25 .16699219-.18200684 .22599793-.055007936 .2769928 .054992677 .2889862 .16600037 .2889862 .25Z"/>
<path id="font_1_471" d="M.35598756 .3040161V.33203126H.25498963V.67840579C.25498963 .69140627 .25498963 .69740298 .23599243 .69740298 .22799683 .69740298 .22698975 .69740298 .21998596 .69340518 .16499329 .6591797 .09098816 .6591797 .07598877 .6591797H.06098938V.63116458H.07598877C.08699036 .63116458 .1269989 .63116458 .16899109 .6431732V.33203126H.068984989V.3040161C.100997928 .30603028 .1769867 .30603028 .21199036 .30603028 .24798584 .30603028 .32398988 .30603028 .35598756 .3040161M.92099 .13302613H.8880005C.8849945 .121017459 .8789978 .08302307 .86898806 .07902527 .86099246 .075027469 .8069916 .075027469 .79499819 .075027469H.6899872L.79299929 .14402771C.875 .19403076 .92099 .22302246 .92099 .2800293 .92099 .3491211 .8470001 .39323426 .7449951 .39323426 .6579895 .39323426 .58999636 .35617066 .58999636 .3020172 .58999636 .26605226 .625 .25706483 .6419983 .25706483 .6649933 .25706483 .69400027 .27105714 .69400027 .3010254 .69400027 .33203126 .6639862 .3410797 .6529999 .34410096 .673996 .3581848 .70098879 .36523438 .72698977 .36523438 .78900149 .36523438 .82199099 .3240204 .82199099 .27903749 .82199099 .23808289 .79499819 .19711304 .74398806 .15414429L.59999087 .03125C.58999636 .024246216 .58999636 .023239136 .58999636 .011245728V.00024414063H.8989868L.92099 .13302613M.7509918 .666275C.7509918 .6832886 .73799136 .69628909 .72099307 .69628909 .71099856 .69628909 .70199587 .6912842 .69699099 .6832886L.23699951 .037231447C.23298645 .032226564 .23098755 .026229859 .23098755 .020233155 .23098755 .0032196046 .24499512-.009765625 .26098634-.009765625 .2709961-.009750366 .27999879-.004760742 .28599549 .0032348633L.74598696 .64941409C.7489929 .6542816 .7509918 .6602783 .7509918 .666275Z"/>
<path id="font_1_82" d="M.49398805 0V.04699707H.35398866V.6231079C.35398866 .6452179 .35398866 .65527346 .32798768 .65527346 .31698609 .65527346 .31498719 .65527346 .30599977 .6482239 .22898865 .5909424 .12599182 .5909424 .10499573 .5909424H.084991458V.5439453H.10499573C.12098694 .5439453 .17599488 .54493716 .23498535 .5639343V.04699707H.09599304V0C.13999939 .0029907227 .24598694 .0029907227 .29499818 .0029907227 .34399415 .0029907227 .44999696 .0029907227 .49398805 0Z"/>
</defs>
<path transform="matrix(1.00005,0,0,-1.00003,143.03424,240.23586)" stroke-width=".79701" stroke-linecap="butt" stroke-miterlimit="10" stroke-linejoin="miter" fill="none" stroke="#000000" d="M-141.73404 0H141.02667"/>
<path transform="matrix(1.00005,0,0,-1.00003,284.06797,240.23586)" stroke-width=".6376" stroke-linecap="round" stroke-linejoin="round" fill="none" stroke="#000000" d="M-1.55415 2.0722C-1.42464 1.29512 0 .1295 .38852 0 0-.1295-1.42464-1.29512-1.55415-2.0722"/>
<use data-text="x" xlink:href="#font_1_116" transform="matrix(9.963098,0,0,-9.962899,288.4945,243.61795)"/>
<use data-text="-" xlink:href="#font_1_64" transform="matrix(9.963098,0,0,-9.962899,294.5421,243.61795)"/>
<use data-text="a" xlink:href="#font_1_28" transform="matrix(9.963098,0,0,-9.962899,298.35798,243.61795)"/>
<use data-text="x" xlink:href="#font_1_116" transform="matrix(9.963098,0,0,-9.962899,303.92735,243.61795)"/>
<use data-text="i" xlink:href="#font_1_66" transform="matrix(9.963098,0,0,-9.962899,309.97496,243.61795)"/>
<use data-text="s" xlink:href="#font_1_98" transform="matrix(9.963098,0,0,-9.962899,313.15318,243.61795)"/>
<path transform="matrix(1.00005,0,0,-1.00003,143.03424,240.23586)" stroke-width=".79701" stroke-linecap="butt" stroke-miterlimit="10" stroke-linejoin="miter" fill="none" stroke="#000000" d="M0-141.73404V226.06711"/>
<path transform="matrix(0,-1.00003,-1.00005,-0,143.03424,14.161957)" stroke-width=".6376" stroke-linecap="round" stroke-linejoin="round" fill="none" stroke="#000000" d="M-1.55415 2.0722C-1.42464 1.29512 0 .1295 .38852 0 0-.1295-1.42464-1.29512-1.55415-2.0722"/>
<use data-text="y" xlink:href="#font_1_118" transform="matrix(9.963098,0,0,-9.962899,128.44351,7.742874)"/>
<use data-text="-" xlink:href="#font_1_64" transform="matrix(9.963098,0,0,-9.962899,134.4911,7.742874)"/>
<use data-text="a" xlink:href="#font_1_28" transform="matrix(9.963098,0,0,-9.962899,138.30698,7.742874)"/>
<use data-text="x" xlink:href="#font_1_116" transform="matrix(9.963098,0,0,-9.962899,143.87635,7.742874)"/>
<use data-text="i" xlink:href="#font_1_66" transform="matrix(9.963098,0,0,-9.962899,149.92395,7.742874)"/>
<use data-text="s" xlink:href="#font_1_98" transform="matrix(9.963098,0,0,-9.962899,153.10218,7.742874)"/>
<path transform="matrix(1.00005,0,0,-1.00003,143.03424,240.23586)" stroke-width=".19925" stroke-linecap="butt" stroke-dasharray="2.98883,2.98883" stroke-miterlimit="10" stroke-linejoin="miter" fill="none" stroke="#7f807f" d="M-141.73404-141.73404H141.73404M-141.73404-113.38724H141.73404M-141.73404-85.04042H141.73404M-141.73404-56.69362H141.73404M-141.73404-28.3468H141.73404M-141.73404 0H141.73404M-141.73404 28.3468H141.73404M-141.73404 56.69362H141.73404M-141.73404 85.04042H141.73404M-141.73404 113.38724H141.73404M-141.73404 141.73404H141.73404M-141.73404 170.08086H141.73404M-141.73404 198.42766H141.73404M-141.73404 226.76451H141.73404M-141.73404-141.73404V226.77448M-113.38724-141.73404V226.77448M-85.04042-141.73404V226.77448M-56.69362-141.73404V226.77448M-28.3468-141.73404V226.77448M0-141.73404V226.77448M28.3468-141.73404V226.77448M56.69362-141.73404V226.77448M85.04042-141.73404V226.77448M113.38724-141.73404V226.77448M141.72409-141.73404V226.77448M141.73404 226.77448"/>
<path transform="matrix(1.00005,0,0,-1.00003,143.03424,240.23586)" stroke-width=".3985" stroke-linecap="butt" stroke-miterlimit="10" stroke-linejoin="miter" fill="none" stroke="#000000" d="M-113.38724 0V-5.66927"/>
<use data-text="-" xlink:href="#font_2_64" transform="matrix(9.963098,0,0,-9.962899,25.491364,256.17036)"/>
<use data-text="4" xlink:href="#font_2_57" transform="matrix(9.963098,0,0,-9.962899,28.809067,256.17036)"/>
<path transform="matrix(1.00005,0,0,-1.00003,143.03424,240.23586)" stroke-width=".3985" stroke-linecap="butt" stroke-miterlimit="10" stroke-linejoin="miter" fill="none" stroke="#000000" d="M-85.04042 0V-5.66927"/>
<use data-text="-" xlink:href="#font_2_64" transform="matrix(9.963098,0,0,-9.962899,53.839784,256.06034)"/>
<use data-text="3" xlink:href="#font_2_106" transform="matrix(9.963098,0,0,-9.962899,57.157487,256.06034)"/>
<path transform="matrix(1.00005,0,0,-1.00003,143.03424,240.23586)" stroke-width=".3985" stroke-linecap="butt" stroke-miterlimit="10" stroke-linejoin="miter" fill="none" stroke="#000000" d="M-56.69362 0V-5.66927"/>
<use data-text="-" xlink:href="#font_2_64" transform="matrix(9.963098,0,0,-9.962899,82.1882,256.06034)"/>
<use data-text="2" xlink:href="#font_2_107" transform="matrix(9.963098,0,0,-9.962899,85.505908,256.06034)"/>
<path transform="matrix(1.00005,0,0,-1.00003,143.03424,240.23586)" stroke-width=".3985" stroke-linecap="butt" stroke-miterlimit="10" stroke-linejoin="miter" fill="none" stroke="#000000" d="M-28.3468 0V-5.66927"/>
<use data-text="-" xlink:href="#font_2_64" transform="matrix(9.963098,0,0,-9.962899,110.53662,256.06034)"/>
<use data-text="1" xlink:href="#font_2_82" transform="matrix(9.963098,0,0,-9.962899,113.854328,256.06034)"/>
<path transform="matrix(1.00005,0,0,-1.00003,143.03424,240.23586)" stroke-width=".3985" stroke-linecap="butt" stroke-miterlimit="10" stroke-linejoin="miter" fill="none" stroke="#000000" d="M28.3468 0V-5.66927"/>
<use data-text="1" xlink:href="#font_2_82" transform="matrix(9.963098,0,0,-9.962899,168.89154,256.06034)"/>
<path transform="matrix(1.00005,0,0,-1.00003,143.03424,240.23586)" stroke-width=".3985" stroke-linecap="butt" stroke-miterlimit="10" stroke-linejoin="miter" fill="none" stroke="#000000" d="M56.69362 0V-5.66927"/>
<use data-text="2" xlink:href="#font_2_107" transform="matrix(9.963098,0,0,-9.962899,197.23995,256.06034)"/>
<path transform="matrix(1.00005,0,0,-1.00003,143.03424,240.23586)" stroke-width=".3985" stroke-linecap="butt" stroke-miterlimit="10" stroke-linejoin="miter" fill="none" stroke="#000000" d="M85.04042 0V-5.66927"/>
<use data-text="3" xlink:href="#font_2_106" transform="matrix(9.963098,0,0,-9.962899,225.58837,256.06034)"/>
<path transform="matrix(1.00005,0,0,-1.00003,143.03424,240.23586)" stroke-width=".3985" stroke-linecap="butt" stroke-miterlimit="10" stroke-linejoin="miter" fill="none" stroke="#000000" d="M113.38724 0V-5.66927"/>
<use data-text="4" xlink:href="#font_2_57" transform="matrix(9.963098,0,0,-9.962899,253.93679,256.17036)"/>
<path transform="matrix(1.00005,0,0,-1.00003,143.03424,240.23586)" stroke-width=".3985" stroke-linecap="butt" stroke-miterlimit="10" stroke-linejoin="miter" fill="none" stroke="#000000" d="M0-113.38724H-5.66927"/>
<use data-text="-" xlink:href="#font_2_64" transform="matrix(9.963098,0,0,-9.962899,125.545368,356.99937)"/>
<use data-text="4" xlink:href="#font_2_57" transform="matrix(9.963098,0,0,-9.962899,128.86307,356.99937)"/>
<path transform="matrix(1.00005,0,0,-1.00003,143.03424,240.23586)" stroke-width=".3985" stroke-linecap="butt" stroke-miterlimit="10" stroke-linejoin="miter" fill="none" stroke="#000000" d="M0-56.69362H-5.66927"/>
<use data-text="-" xlink:href="#font_2_64" transform="matrix(9.963098,0,0,-9.962899,125.545368,300.24867)"/>
<use data-text="2" xlink:href="#font_2_107" transform="matrix(9.963098,0,0,-9.962899,128.86307,300.24867)"/>
<path transform="matrix(1.00005,0,0,-1.00003,143.03424,240.23586)" stroke-width=".3985" stroke-linecap="butt" stroke-miterlimit="10" stroke-linejoin="miter" fill="none" stroke="#000000" d="M0 56.69362H-5.66927"/>
<use data-text="2" xlink:href="#font_2_107" transform="matrix(9.963098,0,0,-9.962899,128.86353,186.85825)"/>
<path transform="matrix(1.00005,0,0,-1.00003,143.03424,240.23586)" stroke-width=".3985" stroke-linecap="butt" stroke-miterlimit="10" stroke-linejoin="miter" fill="none" stroke="#000000" d="M0 113.38724H-5.66927"/>
<use data-text="4" xlink:href="#font_2_57" transform="matrix(9.963098,0,0,-9.962899,128.86353,130.21756)"/>
<path transform="matrix(1.00005,0,0,-1.00003,143.03424,240.23586)" stroke-width=".3985" stroke-linecap="butt" stroke-miterlimit="10" stroke-linejoin="miter" fill="none" stroke="#000000" d="M0 170.08086H-5.66927"/>
<use data-text="6" xlink:href="#font_2_101" transform="matrix(9.963098,0,0,-9.962899,128.86353,73.357837)"/>
<path transform="matrix(1.00005,0,0,-1.00003,143.03424,240.23586)" stroke-width=".79701" stroke-linecap="butt" stroke-miterlimit="10" stroke-linejoin="miter" fill="none" stroke="#0000ff" d="M-56.69362 0-52.55984 8.26752-48.42607 16.53505-44.29231 24.80258-40.15854 33.0701-36.02478 41.33763-31.891 49.60518-27.75723 57.87271-23.62349 66.14023-19.48972 74.40776-15.35596 82.6753-11.22218 90.94284-7.08841 99.21036-2.95465 107.47789 1.1791 115.74542 5.31285 124.01295 9.44661 132.28047 13.58038 140.54802 17.71414 148.81555 21.84792 157.08309 25.98167 165.3506 30.11545 173.61814 34.2492 181.88568 38.38298 190.15322 42.51674 198.42073"/>
<use data-text="y" xlink:href="#font_1_118" transform="matrix(9.963098,0,0,-9.962899,189.27256,36.097719)" fill="#0000ff"/>
<use data-text="=" xlink:href="#font_1_52" transform="matrix(9.963098,0,0,-9.962899,199.13602,36.097719)" fill="#0000ff"/>
<use data-text="2" xlink:href="#font_1_107" transform="matrix(9.963098,0,0,-9.962899,211.8589,36.097719)" fill="#0000ff"/>
<use data-text="x" xlink:href="#font_1_116" transform="matrix(9.963098,0,0,-9.962899,217.58768,36.097719)" fill="#0000ff"/>
<use data-text="+" xlink:href="#font_1_89" transform="matrix(9.963098,0,0,-9.962899,227.45114,36.097719)" fill="#0000ff"/>
<use data-text="4" xlink:href="#font_1_57" transform="matrix(9.963098,0,0,-9.962899,240.17401,36.097719)" fill="#0000ff"/>
<path transform="matrix(1.00005,0,0,-1.00003,143.03424,240.23586)" d="M-54.70107 0C-54.70107 1.10046-55.59314 1.99255-56.69362 1.99255-57.79408 1.99255-58.68617 1.10046-58.68617 0-58.68617-1.10046-57.79408-1.99255-56.69362-1.99255-55.59314-1.99255-54.70107-1.10046-54.70107 0ZM-56.69362 0" fill="#0000ff"/>
<path transform="matrix(1.00005,0,0,-1.00003,143.03424,240.23586)" stroke-width=".3985" stroke-linecap="butt" stroke-miterlimit="10" stroke-linejoin="miter" fill="none" stroke="#0000ff" d="M-54.70107 0C-54.70107 1.10046-55.59314 1.99255-56.69362 1.99255-57.79408 1.99255-58.68617 1.10046-58.68617 0-58.68617-1.10046-57.79408-1.99255-56.69362-1.99255-55.59314-1.99255-54.70107-1.10046-54.70107 0ZM-56.69362 0"/>
<use data-text="(" xlink:href="#font_2_85" transform="matrix(9.963098,0,0,-9.962899,59.016054,251.22818)" fill="#0000ff"/>
<use data-text="-" xlink:href="#font_2_64" transform="matrix(9.963098,0,0,-9.962899,62.891695,251.22818)" fill="#0000ff"/>
<use data-text="2" xlink:href="#font_2_107" transform="matrix(9.963098,0,0,-9.962899,66.20941,251.22818)" fill="#0000ff"/>
<use data-text="," xlink:href="#font_2_45" transform="matrix(9.963098,0,0,-9.962899,71.19095,251.22818)" fill="#0000ff"/>
<use data-text="0" xlink:href="#font_2_121" transform="matrix(9.963098,0,0,-9.962899,73.96071,251.22818)" fill="#0000ff"/>
<use data-text=")" xlink:href="#font_2_86" transform="matrix(9.963098,0,0,-9.962899,78.942249,251.22818)" fill="#0000ff"/>
<path transform="matrix(1.00005,0,0,-1.00003,143.03424,240.23586)" d="M1.99255 113.38724C1.99255 114.4877 1.10046 115.37979 0 115.37979-1.10046 115.37979-1.99255 114.4877-1.99255 113.38724-1.99255 112.28676-1.10046 111.39468 0 111.39468 1.10046 111.39468 1.99255 112.28676 1.99255 113.38724ZM0 113.38724" fill="#0000ff"/>
<path transform="matrix(1.00005,0,0,-1.00003,143.03424,240.23586)" stroke-width=".3985" stroke-linecap="butt" stroke-miterlimit="10" stroke-linejoin="miter" fill="none" stroke="#0000ff" d="M1.99255 113.38724C1.99255 114.4877 1.10046 115.37979 0 115.37979-1.10046 115.37979-1.99255 114.4877-1.99255 113.38724-1.99255 112.28676-1.10046 111.39468 0 111.39468 1.10046 111.39468 1.99255 112.28676 1.99255 113.38724ZM0 113.38724"/>
<use data-text="(" xlink:href="#font_2_85" transform="matrix(9.963098,0,0,-9.962899,146.55442,129.33551)" fill="#0000ff"/>
<use data-text="0" xlink:href="#font_2_121" transform="matrix(9.963098,0,0,-9.962899,150.43006,129.33551)" fill="#0000ff"/>
<use data-text="," xlink:href="#font_2_45" transform="matrix(9.963098,0,0,-9.962899,155.4116,129.33551)" fill="#0000ff"/>
<use data-text="4" xlink:href="#font_2_57" transform="matrix(9.963098,0,0,-9.962899,158.18135,129.33551)" fill="#0000ff"/>
<use data-text=")" xlink:href="#font_2_86" transform="matrix(9.963098,0,0,-9.962899,163.16289,129.33551)" fill="#0000ff"/>
<path transform="matrix(1.00005,0,0,-1.00003,143.03424,240.23586)" d="M30.33936 170.08086C30.33936 171.18132 29.44728 172.07341 28.3468 172.07341 27.24634 172.07341 26.35425 171.18132 26.35425 170.08086 26.35425 168.98038 27.24634 168.0883 28.3468 168.0883 29.44728 168.0883 30.33936 168.98038 30.33936 170.08086ZM28.3468 170.08086" fill="#0000ff"/>
<path transform="matrix(1.00005,0,0,-1.00003,143.03424,240.23586)" stroke-width=".3985" stroke-linecap="butt" stroke-miterlimit="10" stroke-linejoin="miter" fill="none" stroke="#0000ff" d="M30.33936 170.08086C30.33936 171.18132 29.44728 172.07341 28.3468 172.07341 27.24634 172.07341 26.35425 171.18132 26.35425 170.08086 26.35425 168.98038 27.24634 168.0883 28.3468 168.0883 29.44728 168.0883 30.33936 168.98038 30.33936 170.08086ZM28.3468 170.08086"/>
<use data-text="(" xlink:href="#font_2_85" transform="matrix(9.963098,0,0,-9.962899,174.90283,64.13956)" fill="#0000ff"/>
<use data-text="1" xlink:href="#font_2_82" transform="matrix(9.963098,0,0,-9.962899,178.77848,64.13956)" fill="#0000ff"/>
<use data-text="," xlink:href="#font_2_45" transform="matrix(9.963098,0,0,-9.962899,183.76003,64.13956)" fill="#0000ff"/>
<use data-text="6" xlink:href="#font_2_101" transform="matrix(9.963098,0,0,-9.962899,186.52977,64.13956)" fill="#0000ff"/>
<use data-text=")" xlink:href="#font_2_86" transform="matrix(9.963098,0,0,-9.962899,191.5113,64.13956)" fill="#0000ff"/>
<path transform="matrix(1.00005,0,0,-1.00003,143.03424,240.23586)" stroke-width=".79701" stroke-linecap="butt" stroke-miterlimit="10" stroke-linejoin="miter" fill="none" stroke="#ff0000" d="M-85.04042 70.867-77.95372 67.32365-70.867 63.7803-63.7803 60.23695-56.69362 56.69362-49.6069 53.15025-42.5202 49.6069-35.43349 46.06355-28.3468 42.5202-21.2601 38.97685-14.17339 35.43349-7.08669 31.89014 0 28.3468 7.08669 24.80345 14.17339 21.2601 21.2601 17.71674 28.3468 14.17339 35.43349 10.63004 42.5202 7.08669 49.6069 3.54333 56.69362 0 63.7803-3.54333 70.867-7.08669 77.95372-10.63004 85.04042-14.17339"/>
<use data-text="y" xlink:href="#font_1_118" transform="matrix(9.963098,0,0,-9.962899,231.79767,265.0736)" fill="#ff0000"/>
<use data-text="=" xlink:href="#font_1_52" transform="matrix(9.963098,0,0,-9.962899,241.66114,265.0736)" fill="#ff0000"/>
<use data-text="-" xlink:href="#font_1_64" transform="matrix(9.963098,0,0,-9.962899,254.38404,265.0736)" fill="#ff0000"/>
<use data-text="&#x00bd;" xlink:href="#font_1_471" transform="matrix(9.963098,0,0,-9.962899,258.1999,265.0736)" fill="#ff0000"/>
<use data-text="x" xlink:href="#font_1_116" transform="matrix(9.963098,0,0,-9.962899,267.99363,265.0736)" fill="#ff0000"/>
<use data-text="+" xlink:href="#font_1_89" transform="matrix(9.963098,0,0,-9.962899,277.8571,265.0736)" fill="#ff0000"/>
<use data-text="1" xlink:href="#font_1_82" transform="matrix(9.963098,0,0,-9.962899,290.57997,265.0736)" fill="#ff0000"/>
<path transform="matrix(1.00005,0,0,-1.00003,143.03424,240.23586)" d="M-54.70107 56.69362C-54.70107 57.79408-55.59314 58.68617-56.69362 58.68617-57.79408 58.68617-58.68617 57.79408-58.68617 56.69362-58.68617 55.59314-57.79408 54.70107-56.69362 54.70107-55.59314 54.70107-54.70107 55.59314-54.70107 56.69362ZM-56.69362 56.69362" fill="#ff0000"/>
<path transform="matrix(1.00005,0,0,-1.00003,143.03424,240.23586)" stroke-width=".3985" stroke-linecap="butt" stroke-miterlimit="10" stroke-linejoin="miter" fill="none" stroke="#ff0000" d="M-54.70107 56.69362C-54.70107 57.79408-55.59314 58.68617-56.69362 58.68617-57.79408 58.68617-58.68617 57.79408-58.68617 56.69362-58.68617 55.59314-57.79408 54.70107-56.69362 54.70107-55.59314 54.70107-54.70107 55.59314-54.70107 56.69362ZM-56.69362 56.69362"/>
<use data-text="(" xlink:href="#font_2_85" transform="matrix(9.963098,0,0,-9.962899,59.016054,177.52997)" fill="#ff0000"/>
<use data-text="-" xlink:href="#font_2_64" transform="matrix(9.963098,0,0,-9.962899,62.891695,177.52997)" fill="#ff0000"/>
<use data-text="2" xlink:href="#font_2_107" transform="matrix(9.963098,0,0,-9.962899,66.20941,177.52997)" fill="#ff0000"/>
<use data-text="," xlink:href="#font_2_45" transform="matrix(9.963098,0,0,-9.962899,71.19095,177.52997)" fill="#ff0000"/>
<use data-text="2" xlink:href="#font_2_107" transform="matrix(9.963098,0,0,-9.962899,73.96071,177.52997)" fill="#ff0000"/>
<use data-text=")" xlink:href="#font_2_86" transform="matrix(9.963098,0,0,-9.962899,78.942249,177.52997)" fill="#ff0000"/>
<path transform="matrix(1.00005,0,0,-1.00003,143.03424,240.23586)" d="M1.99255 28.3468C1.99255 29.44728 1.10046 30.33936 0 30.33936-1.10046 30.33936-1.99255 29.44728-1.99255 28.3468-1.99255 27.24634-1.10046 26.35425 0 26.35425 1.10046 26.35425 1.99255 27.24634 1.99255 28.3468ZM0 28.3468" fill="#ff0000"/>
<path transform="matrix(1.00005,0,0,-1.00003,143.03424,240.23586)" stroke-width=".3985" stroke-linecap="butt" stroke-miterlimit="10" stroke-linejoin="miter" fill="none" stroke="#ff0000" d="M1.99255 28.3468C1.99255 29.44728 1.10046 30.33936 0 30.33936-1.10046 30.33936-1.99255 29.44728-1.99255 28.3468-1.99255 27.24634-1.10046 26.35425 0 26.35425 1.10046 26.35425 1.99255 27.24634 1.99255 28.3468ZM0 28.3468"/>
<use data-text="(" xlink:href="#font_2_85" transform="matrix(9.963098,0,0,-9.962899,146.55442,222.88034)" fill="#ff0000"/>
<use data-text="0" xlink:href="#font_2_121" transform="matrix(9.963098,0,0,-9.962899,150.43006,222.88034)" fill="#ff0000"/>
<use data-text="," xlink:href="#font_2_45" transform="matrix(9.963098,0,0,-9.962899,155.4116,222.88034)" fill="#ff0000"/>
<use data-text="1" xlink:href="#font_2_82" transform="matrix(9.963098,0,0,-9.962899,158.18135,222.88034)" fill="#ff0000"/>
<use data-text=")" xlink:href="#font_2_86" transform="matrix(9.963098,0,0,-9.962899,163.16289,222.88034)" fill="#ff0000"/>
<path transform="matrix(1.00005,0,0,-1.00003,143.03424,240.23586)" d="M58.68617 0C58.68617 1.10046 57.79408 1.99255 56.69362 1.99255 55.59314 1.99255 54.70107 1.10046 54.70107 0 54.70107-1.10046 55.59314-1.99255 56.69362-1.99255 57.79408-1.99255 58.68617-1.10046 58.68617 0ZM56.69362 0" fill="#ff0000"/>
<path transform="matrix(1.00005,0,0,-1.00003,143.03424,240.23586)" stroke-width=".3985" stroke-linecap="butt" stroke-miterlimit="10" stroke-linejoin="miter" fill="none" stroke="#ff0000" d="M58.68617 0C58.68617 1.10046 57.79408 1.99255 56.69362 1.99255 55.59314 1.99255 54.70107 1.10046 54.70107 0 54.70107-1.10046 55.59314-1.99255 56.69362-1.99255 57.79408-1.99255 58.68617-1.10046 58.68617 0ZM56.69362 0"/>
<use data-text="(" xlink:href="#font_2_85" transform="matrix(9.963098,0,0,-9.962899,203.25025,251.22818)" fill="#ff0000"/>
<use data-text="2" xlink:href="#font_2_107" transform="matrix(9.963098,0,0,-9.962899,207.12589,251.22818)" fill="#ff0000"/>
<use data-text="," xlink:href="#font_2_45" transform="matrix(9.963098,0,0,-9.962899,212.10744,251.22818)" fill="#ff0000"/>
<use data-text="0" xlink:href="#font_2_121" transform="matrix(9.963098,0,0,-9.962899,214.87718,251.22818)" fill="#ff0000"/>
<use data-text=")" xlink:href="#font_2_86" transform="matrix(9.963098,0,0,-9.962899,219.85872,251.22818)" fill="#ff0000"/>
</svg>
