<svg xmlns="http://www.w3.org/2000/svg" xmlns:xlink="http://www.w3.org/1999/xlink" xmlns:inkscape="http://www.inkscape.org/namespaces/inkscape" version="1.1" width="231" height="203" viewBox="0 0 231 203">
<path transform="matrix(1.00005,0,0,-1.00005,2.4941788,200.63222)" d="M0 0H226.77448V113.38724H0Z" fill="#ffbfbf"/>
<path transform="matrix(1.00005,0,0,-1.00005,2.4941788,200.63222)" stroke-width="1.19553" stroke-linecap="butt" stroke-miterlimit="10" stroke-linejoin="miter" fill="none" stroke="#000000" d="M0 0H226.77448V113.38724H0Z"/>
<path transform="matrix(1.00005,0,0,-1.00005,2.4941788,200.63222)" stroke-width="1.19553" stroke-linecap="butt" stroke-miterlimit="10" stroke-linejoin="miter" fill="none" stroke="#000000" d="M113.38724 56.69362V198.42766"/>
<path transform="matrix(1.00005,0,0,-1.00005,2.4941788,200.63222)" stroke-width="1.19553" stroke-linecap="butt" stroke-miterlimit="10" stroke-linejoin="miter" fill="none" stroke="#000000" d="M0 0 113.38724 198.42766"/>
<path transform="matrix(1.00005,0,0,-1.00005,2.4941788,200.63222)" stroke-width="1.19553" stroke-linecap="butt" stroke-miterlimit="10" stroke-linejoin="miter" fill="none" stroke="#000000" d="M226.77448 0 113.38724 198.42766"/>
<path transform="matrix(1.00005,0,0,-1.00005,2.4941788,200.63222)" stroke-width="1.19553" stroke-linecap="butt" stroke-miterlimit="10" stroke-linejoin="miter" fill="none" stroke="#000000" d="M226.77448 113.38724 113.38724 198.42766"/>
<path transform="matrix(1.00005,0,0,-1.00005,2.4941788,200.63222)" stroke-width="1.19553" stroke-linecap="butt" stroke-miterlimit="10" stroke-linejoin="miter" fill="none" stroke="#000000" d="M0 113.38724 113.38724 198.42766"/>
</svg>
