<svg xmlns="http://www.w3.org/2000/svg" xmlns:xlink="http://www.w3.org/1999/xlink" xmlns:inkscape="http://www.inkscape.org/namespaces/inkscape" version="1.1" width="287" height="334" viewBox="0 0 287 334">
<defs>
<path id="font_1_28" d="M.48298646 .08912659V.14511109H.45799256V.08912659C.45799256 .03112793 .43299867 .025131226 .42199708 .025131226 .3889923 .025131226 .3849945 .070129398 .3849945 .07511902V.27508546C.3849945 .31707765 .3849945 .3560791 .34899903 .39312745 .30999757 .43223573 .2599945 .4482422 .21199036 .4482422 .12998963 .4482422 .06098938 .40115357 .06098938 .335083 .06098938 .30508424 .08099365 .28808595 .10699463 .28808595 .1349945 .28808595 .15299988 .30807496 .15299988 .33407594 .15299988 .3460846 .147995 .37908937 .101989749 .38008119 .1289978 .41519166 .17799378 .426239 .20999146 .426239 .25898744 .426239 .31599427 .38710023 .31599427 .29808045V.26107789C.2649994 .25808717 .19499207 .25508119 .13198853 .22509766 .056991579 .19110108 .03199768 .13911438 .03199768 .09512329 .03199768 .014251709 .1289978-.0107421879 .19198609-.0107421879 .2579956-.0107421879 .3039856 .029251099 .32299806 .07624817 .32699586 .036132814 .35398866-.005859375 .40098573-.005859375 .42199708-.005859375 .48298646 .008132935 .48298646 .08912659M.31599427 .14013672C.31599427 .04525757 .24398804 .011245728 .19898987 .011245728 .1499939 .011245728 .10899353 .04624939 .10899353 .09625244 .10899353 .15124512 .15098572 .23425293 .31599427 .24024964V.14013672Z"/>
<path id="font_2_1" d="M.94299319 .25C.94299319 .5108795 .7409973 .7158203 .5 .7158203 .25498963 .7158203 .055999757 .5088806 .055999757 .25 .055999757-.008895874 .25498963-.21582031 .5-.21582031 .74198916-.21582031 .94299319-.010894775 .94299319 .25M.9029999 .25C.9029999 .01109314 .71899417-.17582703 .5-.17582703 .2769928-.17582703 .09599304 .013092041 .09599304 .25 .09599304 .4888916 .27999879 .67581179 .49899293 .67581179 .7220001 .67581179 .9029999 .4868927 .9029999 .25Z"/>
<path id="font_1_35" d="M.5209961 .2163086C.5209961 .34335328 .4229889 .4423828 .30899049 .4423828 .23098755 .4423828 .18798828 .39537049 .17199707 .3773651V.69433596L.027999878 .68333438V.6523285C.09799194 .6523285 .10598755 .6453247 .10598755 .596344V.00024414063H.1309967L.16699219 .06227112C.18199158 .039260866 .22399903-.0107421879 .2979889-.0107421879 .4169922-.0107421879 .5209961 .08728027 .5209961 .2163086M.43798829 .21731568C.43798829 .18029785 .43598939 .120285037 .40699769 .07527161 .38598634 .044265748 .34799195 .011245728 .2939911 .011245728 .24899292 .011260986 .21299744 .03526306 .18899536 .072265628 .1749878 .09326172 .1749878 .09625244 .1749878 .11425781V.32034303C.1749878 .3393402 .1749878 .3403473 .18598938 .35635377 .22499085 .41236878 .27999879 .42037965 .3039856 .42037965 .34899903 .42037965 .3849945 .3943634 .40899659 .35635377 .43499757 .31533814 .43798829 .25831605 .43798829 .21730042V.21731568Z"/>
<path id="font_1_43" d="M.4149933 .119140628C.4149933 .12911988 .40499879 .12911988 .4019928 .12911988 .3929901 .12911988 .3909912 .12512207 .3889923 .119140628 .3600006 .026229859 .29499818 .014251709 .2579956 .014251709 .20498657 .014251709 .116989139 .0572052 .116989139 .21801758 .116989139 .38093568 .19898987 .42323304 .2519989 .42323304 .26098634 .42323304 .32398988 .42222596 .35899354 .38594056 .31799317 .38293458 .31199647 .3529358 .31199647 .3399353 .31199647 .31393434 .32998658 .2939453 .35798646 .2939453 .38398744 .2939453 .4039917 .3109436 .4039917 .34094239 .4039917 .40911866 .32798768 .4482422 .25099183 .4482422 .12599182 .4482422 .033996583 .3399353 .033996583 .21601868 .033996583 .08816528 .1329956-.0107421879 .24899292-.0107421879 .3829956-.0107421879 .4149933 .10914612 .4149933 .119140628Z"/>
<path id="font_1_47" d="M.5269928 0V.0309906C.45700074 .0309906 .44898988 .038009645 .44898988 .0871582V.69433596L.30499269 .6826172V.6516113C.375 .6516113 .3829956 .64463809 .3829956 .59580996V.38035584C.35398866 .41636659 .31098939 .4423828 .25698854 .4423828 .13899231 .4423828 .033996583 .3443451 .033996583 .21531677 .033996583 .088272098 .13198853-.0107421879 .24598694-.0107421879 .30999757-.0107421879 .35499574 .023254395 .37998963 .055267335V-.0107421879L.5269928 0M.37998963 .117996219C.37998963 .099990848 .37998963 .09799194 .36898805 .08099365 .33898927 .033218385 .2939911 .011245728 .25099183 .011245728 .20599365 .011245728 .16999817 .037216188 .1459961 .075164798 .11999512 .1161499 .116989139 .17320252 .116989139 .21421814 .116989139 .25125123 .11898804 .31129457 .147995 .35632325 .16899109 .38734437 .20698548 .42037965 .26098634 .42037965 .29599 .42037965 .33799745 .405365 .36898805 .3603363 .37998963 .34332276 .37998963 .34132386 .37998963 .32330323V.117996219Z"/>
<path id="font_1_50" d="M.4149933 .11933899C.4149933 .12934876 .40699769 .13134766 .4019928 .13134766 .3929901 .13134766 .3909912 .12535095 .3889923 .11734009 .35398866 .014251709 .2639923 .014251709 .2539978 .014251709 .20399475 .014251709 .1639862 .044281007 .14099121 .08131409 .11099243 .12934876 .11099243 .19540406 .11099243 .23144531H.3899994C.4119873 .23144531 .4149933 .23144531 .4149933 .2524414 .4149933 .35131837 .36099244 .4482422 .23599243 .4482422 .11999512 .4482422 .027999878 .34532167 .027999878 .22042847 .027999878 .08631897 .1329956-.0107421879 .24798584-.0107421879 .36999513-.0107421879 .4149933 .10032654 .4149933 .11933899M.34899903 .2524414H.11199951C.117996219 .40126039 .20199585 .426239 .23599243 .426239 .33898927 .426239 .34899903 .2913971 .34899903 .2524414Z"/>
<path id="font_1_55" d="M.35699464 .63479617C.35699464 .6717987 .31999208 .7050781 .2669983 .7050781 .19699097 .7050781 .11199951 .65179446 .11199951 .5457611V.43066407H.032989503V.3996582H.11199951V.07595825C.11199951 .0309906 .100997928 .0309906 .033996583 .0309906V0L.147995 .0029907227C.18798828 .0029907227 .23498535 .0029907227 .2749939 0V.0309906H.2539978C.17999268 .0309906 .17799378 .04197693 .17799378 .07795715V.3996582H.2919922V.43066407H.1749878V.5467529C.1749878 .63479617 .22299195 .68307498 .2669983 .68307498 .269989 .68307498 .2849884 .68307498 .2999878 .675827 .28799439 .6717987 .269989 .6587982 .269989 .6338043 .269989 .61079409 .28599549 .5907898 .31298829 .5907898 .34199525 .5907898 .35699464 .61079409 .35699464 .63479617Z"/>
<path id="font_1_59" d="M.4850006 .40411378C.4850006 .42111207 .47299195 .453125 .43399049 .453125 .4139862 .453125 .36999513 .44711305 .32798768 .40611268 .28599549 .43937684 .24398804 .4423828 .22200012 .4423828 .1289978 .4423828 .05999756 .37338258 .05999756 .29638673 .05999756 .25239564 .08198547 .21440125 .10699463 .19340515 .09399414 .17840576 .07598877 .14538574 .07598877 .11035156 .07598877 .07899475 .08898926 .04083252 .11999512 .020828248 .05999756 .003829956 .027999878-.039138795 .027999878-.07911682 .027999878-.15107727 .1269989-.20605469 .24899292-.20605469 .36698915-.20605469 .47099305-.15507508 .47099305-.07711792 .47099305-.042144777 .45700074 .008834839 .4059906 .036834718 .35299684 .064834598 .29499818 .064834598 .23399353 .064834598 .20899964 .064834598 .1659851 .064834598 .15899658 .065841678 .1269989 .069885257 .10598755 .101242069 .10598755 .13334656 .10598755 .13735962 .10598755 .16040039 .12298584 .18040467 .1619873 .15240479 .20298767 .14941406 .22200012 .14941406 .31498719 .14941406 .38398744 .21839905 .38398744 .2953949 .38398744 .3323822 .36799623 .36938478 .34298707 .39237977 .3789978 .42637635 .4149933 .43138124 .43299867 .43138124 .43299867 .43112184 .43998719 .43112184 .44299317 .43011476 .43199159 .42611695 .4269867 .41513063 .4269867 .40315248 .4269867 .38616944 .43998719 .37417604 .45599366 .37417604 .46598817 .37417604 .4850006 .3811798 .4850006 .4041443V.40411378M.30899049 .29626466C.30899049 .26930238 .30799867 .2373352 .29299928 .21235657 .2849884 .20037842 .2619934 .17240906 .22200012 .17240906 .1349945 .17240906 .1349945 .2722931 .1349945 .29527284 .1349945 .3222351 .13598633 .35420228 .15098572 .3791809 .15899658 .3913269 .18199158 .41937257 .22200012 .41937257 .30899049 .41937257 .30899049 .31922914 .30899049 .29618836V.29626466M.4189911-.07911682C.4189911-.13308716 .34799195-.18305969 .25-.18305969 .14898682-.18305969 .07998657-.13209534 .07998657-.07911682 .07998657-.03314209 .117996219 .003829956 .1619873 .0068359377H.22099304C.30699159 .0068359377 .4189911 .0068359377 .4189911-.07911682Z"/>
<path id="font_1_63" d="M.5349884 0V.0309906C.48298646 .0309906 .45799256 .0309906 .45700074 .061019899V.25221253C.45700074 .3383026 .45700074 .36932374 .42599488 .405365 .4119873 .42237855 .3789978 .4423828 .32099916 .4423828 .23699951 .4423828 .19299317 .38233949 .1769867 .34629823H.17599488V.69433596L.03199768 .6826172V.6516113C.101989749 .6516113 .10998535 .64463809 .10998535 .59580996V.076034549C.10998535 .0309906 .09899902 .0309906 .03199768 .0309906V0L.14498902 .0029907227 .25698854 0V.0309906C.18998719 .0309906 .1789856 .0309906 .1789856 .076034549V.2602234C.1789856 .36431886 .25 .42037965 .31399537 .42037965 .3769989 .42037965 .3880005 .36631776 .3880005 .30926515V.076034549C.3880005 .0309906 .3769989 .0309906 .30999757 .0309906V0L.4229889 .0029907227 .5349884 0Z"/>
<path id="font_1_66" d="M.24699402 0V.0309906C.18099976 .0309906 .1769867 .035995485 .1769867 .075042728V.4423828L.036987306 .43066407V.3996582C.101989749 .3996582 .11099243 .3936615 .11099243 .3447113V.07595825C.11099243 .0309906 .099990848 .0309906 .032989503 .0309906V0L.14299011 .0029907227C.17799378 .0029907227 .21299744 .0009918213 .24699402 0M.19198609 .603775C.19198609 .6307678 .16899109 .6567688 .13899231 .6567688 .10499573 .6567688 .084991458 .6287689 .084991458 .603775 .084991458 .57676699 .10798645 .55078127 .13798523 .55078127 .17199707 .55078127 .19198609 .5787811 .19198609 .603775Z"/>
<path id="font_1_68" d="M.20999146-.049972536V.4423828L.057998659 .43138124V.40037538C.1349945 .40037538 .14399719 .39337159 .14399719 .34432984V-.051971437C.14399719-.09700012 .1349945-.18309021 .070999149-.18309021 .06599426-.18309021 .042999269-.18309021 .016998291-.17001343 .03199768-.16600037 .051986696-.1519928 .051986696-.125 .051986696-.09899902 .033996583-.07899475 .005996704-.07899475-.022003174-.07899475-.040008546-.09899902-.040008546-.125-.040008546-.17704773 .015991211-.20507813 .07299805-.20507813 .147995-.20507813 .20999146-.14100647 .20999146-.049972536M.20999146 .6042175C.20999146 .6312256 .18699646 .65722659 .15699768 .65722659 .12298584 .65722659 .102996829 .6292114 .102996829 .6042175 .102996829 .57722476 .12599182 .55122378 .1559906 .55122378 .18998719 .55122378 .20999146 .57922366 .20999146 .6042175Z"/>
<path id="font_1_70" d="M.5109863 0V.0309906C.47399903 .0309906 .45199586 .0309906 .4139862 .0839386L.2869873 .26278688C.28599549 .26478578 .2809906 .2707672 .2809906 .2737732 .2809906 .277771 .35198976 .33770753 .3619995 .34570313 .4249878 .39666749 .46699525 .39865113 .48799134 .3996582V.43066407C.45899964 .42765809 .44599916 .42765809 .41799928 .42765809 .38198854 .42765809 .31999208 .42965699 .30599977 .43066407V.3996582C.32499696 .39865113 .33499146 .3876648 .33499146 .37467958 .33499146 .3547058 .32099916 .3427124 .31298829 .33570863L.17199707 .21382141V.69433596L.027999878 .6826172V.6516113C.09799194 .6516113 .10598755 .64460757 .10598755 .5956421V.07595825C.10598755 .0309906 .09498596 .0309906 .027999878 .0309906V0L.13699341 .0029907227 .24699402 0V.0309906C.17999268 .0309906 .16899109 .0309906 .16899109 .07595825V.17889405L.23298645 .23387146C.30999757 .12792969 .35198976 .07196045 .35198976 .053985597 .35198976 .034988405 .33499146 .0309906 .31599427 .0309906V0L.42399598 .0029907227C.45298768 .0029907227 .48199464 .0019989014 .5109863 0Z"/>
<path id="font_1_72" d="M.25498963 0V.0309906C.18798828 .0309906 .1769867 .0309906 .1769867 .07601929V.69433596L.032989503 .6826172V.6516113C.102996829 .6516113 .11099243 .64460757 .11099243 .5956421V.07595825C.11099243 .0309906 .099990848 .0309906 .032989503 .0309906V0L.14399719 .0029907227 .25498963 0Z"/>
</defs>
<path transform="matrix(1.00002,0,0,-1.00005,2.095665,58.493127)" stroke-width=".3985" stroke-linecap="butt" stroke-miterlimit="10" stroke-linejoin="miter" fill="none" stroke="#000000" d="M0 0V56.69362H56.69362V0ZM56.69362 56.69362"/>
<use data-text="a" xlink:href="#font_1_28" transform="matrix(9.962799,0,0,-9.963098,27.952183,73.78089)"/>
<use data-text="&#x20dd;" xlink:href="#font_2_1" transform="matrix(9.962799,0,0,-9.963098,25.461133,74.0809)"/>
<path transform="matrix(1.00002,0,0,-1.00005,2.095665,58.493127)" stroke-width=".3985" stroke-linecap="butt" stroke-miterlimit="10" stroke-linejoin="miter" fill="none" stroke="#000000" d="M85.04042 0 113.38724 42.5202 141.73404 0 113.38724-42.5202Z"/>
<use data-text="b" xlink:href="#font_1_35" transform="matrix(9.962799,0,0,-9.963098,112.71588,80.67523)"/>
<use data-text="&#x20dd;" xlink:href="#font_2_1" transform="matrix(9.962799,0,0,-9.963098,110.50384,80.97525)"/>
<path transform="matrix(1.00002,0,0,-1.00005,2.095665,58.493127)" stroke-width=".3985" stroke-linecap="butt" stroke-miterlimit="10" stroke-linejoin="miter" fill="none" stroke="#000000" d="M170.08086 0 187.0891 34.01608H221.10518L238.11344 0 204.09735-34.01608Z"/>
<use data-text="c" xlink:href="#font_1_43" transform="matrix(9.962799,0,0,-9.963098,203.98569,79.45018)"/>
<use data-text="&#x20dd;" xlink:href="#font_2_1" transform="matrix(9.962799,0,0,-9.963098,201.21564,79.75019)"/>
<path transform="matrix(1.00002,0,0,-1.00005,2.095665,58.493127)" stroke-width=".3985" stroke-linecap="butt" stroke-miterlimit="10" stroke-linejoin="miter" fill="none" stroke="#000000" d="M269.29469 14.17339C269.29469 22.00124 262.94914 28.34679 255.12128 28.34679 247.29343 28.34679 240.94789 22.00124 240.94789 14.17339 240.94789 6.34554 247.29343 0 255.12128 0 262.94914 0 269.29469 6.34554 269.29469 14.17339ZM255.12128 14.17339"/>
<use data-text="d" xlink:href="#font_1_47" transform="matrix(9.962799,0,0,-9.963098,254.45272,83.510379)"/>
<use data-text="&#x20dd;" xlink:href="#font_2_1" transform="matrix(9.962799,0,0,-9.963098,252.24066,83.810398)"/>
<path transform="matrix(1.00002,0,0,-1.00005,2.095665,58.493127)" stroke-width=".3985" stroke-linecap="butt" stroke-miterlimit="10" stroke-linejoin="miter" fill="none" stroke="#000000" d="M0-113.38724V-56.69362H28.3468V-113.38724ZM28.3468-56.69362"/>
<use data-text="e" xlink:href="#font_1_50" transform="matrix(9.962799,0,0,-9.963098,14.057899,187.17356)"/>
<use data-text="&#x20dd;" xlink:href="#font_2_1" transform="matrix(9.962799,0,0,-9.963098,11.287849,187.47357)"/>
<path transform="matrix(1.00002,0,0,-1.00005,2.095665,58.493127)" stroke-width=".3985" stroke-linecap="butt" stroke-miterlimit="10" stroke-linejoin="miter" fill="none" stroke="#000000" d="M113.38724-99.21382C113.38724-83.5581 100.69614-70.867 85.04042-70.867 69.3847-70.867 56.69362-83.5581 56.69362-99.21382 56.69362-114.86954 69.3847-127.56062 85.04042-127.56062 100.69614-127.56062 113.38724-114.86954 113.38724-99.21382ZM85.04042-99.21382"/>
<use data-text="f" xlink:href="#font_1_55" transform="matrix(9.962799,0,0,-9.963098,85.613338,196.95804)"/>
<use data-text="&#x20dd;" xlink:href="#font_2_1" transform="matrix(9.962799,0,0,-9.963098,82.156269,197.25806)"/>
<path transform="matrix(1.00002,0,0,-1.00005,2.095665,58.493127)" stroke-width=".3985" stroke-linecap="butt" stroke-miterlimit="10" stroke-linejoin="miter" fill="none" stroke="#000000" d="M170.08086-113.38724 192.75838-99.21384V-70.86702L170.08086-56.69363 147.40334-70.86702V-99.21384Z"/>
<use data-text="g" xlink:href="#font_1_59" transform="matrix(9.962799,0,0,-9.963098,169.68903,207.04154)"/>
<use data-text="&#x20dd;" xlink:href="#font_2_1" transform="matrix(9.962799,0,0,-9.963098,167.19797,207.34156)"/>
<path transform="matrix(1.00002,0,0,-1.00005,2.095665,58.493127)" stroke-width=".3985" stroke-linecap="butt" stroke-miterlimit="10" stroke-linejoin="miter" fill="none" stroke="#000000" d="M255.12128-99.21382V-70.867H283.4681V-99.21382ZM283.4681-70.867"/>
<use data-text="h" xlink:href="#font_1_63" transform="matrix(9.962799,0,0,-9.963098,268.62599,174.22492)"/>
<use data-text="&#x20dd;" xlink:href="#font_2_1" transform="matrix(9.962799,0,0,-9.963098,266.41395,174.52494)"/>
<path transform="matrix(1.00002,0,0,-1.00005,2.095665,58.493127)" stroke-width=".3985" stroke-linecap="butt" stroke-miterlimit="10" stroke-linejoin="miter" fill="none" stroke="#000000" d="M0-226.77448 11.33855-204.09696H34.01607L45.35461-226.77448 22.6771-249.452Z"/>
<use data-text="i" xlink:href="#font_1_66" transform="matrix(9.962799,0,0,-9.963098,23.388096,312.94685)"/>
<use data-text="&#x20dd;" xlink:href="#font_2_1" transform="matrix(9.962799,0,0,-9.963098,19.792019,313.24687)"/>
<path transform="matrix(1.00002,0,0,-1.00005,2.095665,58.493127)" stroke-width=".3985" stroke-linecap="butt" stroke-miterlimit="10" stroke-linejoin="miter" fill="none" stroke="#000000" d="M85.04042-226.77448 99.21382-204.09696 113.38722-226.77448 99.21382-249.452Z"/>
<use data-text="j" xlink:href="#font_1_68" transform="matrix(9.962799,0,0,-9.963098,99.78662,312.94685)"/>
<use data-text="&#x20dd;" xlink:href="#font_2_1" transform="matrix(9.962799,0,0,-9.963098,96.32955,313.24687)"/>
<path transform="matrix(1.00002,0,0,-1.00005,2.095665,58.493127)" stroke-width=".3985" stroke-linecap="butt" stroke-miterlimit="10" stroke-linejoin="miter" fill="none" stroke="#000000" d="M204.09696-226.77448C204.09696-207.98767 188.86766-192.75838 170.08086-192.75838 151.29405-192.75838 136.06476-207.98767 136.06476-226.77448 136.06476-245.56128 151.29405-260.79057 170.08086-260.79057 188.86766-260.79057 204.09696-245.56128 204.09696-226.77448ZM170.08086-226.77448"/>
<use data-text="k" xlink:href="#font_1_70" transform="matrix(9.962799,0,0,-9.963098,169.54901,330.1397)"/>
<use data-text="&#x20dd;" xlink:href="#font_2_1" transform="matrix(9.962799,0,0,-9.963098,167.19797,330.43974)"/>
<path transform="matrix(1.00002,0,0,-1.00005,2.095665,58.493127)" stroke-width=".3985" stroke-linecap="butt" stroke-miterlimit="10" stroke-linejoin="miter" fill="none" stroke="#000000" d="M255.12128-226.77448V-170.08086H283.4681V-226.77448ZM283.4681-170.08086"/>
<use data-text="l" xlink:href="#font_1_72" transform="matrix(9.962799,0,0,-9.963098,270.01,301.79127)"/>
<use data-text="&#x20dd;" xlink:href="#font_2_1" transform="matrix(9.962799,0,0,-9.963098,266.41395,302.09129)"/>
</svg>
