<svg xmlns="http://www.w3.org/2000/svg" xmlns:xlink="http://www.w3.org/1999/xlink" xmlns:inkscape="http://www.inkscape.org/namespaces/inkscape" version="1.1" width="118" height="190" viewBox="0 0 118 190">
<path transform="matrix(1.00003,0,0,-1.00002,59.18921,171.27913)" stroke-width="1.19553" stroke-linecap="butt" stroke-miterlimit="10" stroke-linejoin="miter" fill="none" stroke="#66ff66" d="M-56.69362 0C-56.69362-9.39351-31.31142-17.00824 0-17.00824 31.31142-17.00824 56.69362-9.39351 56.69362 0"/>
<path transform="matrix(1.00003,0,0,-1.00002,59.18921,171.27913)" stroke-width="1.19553" stroke-linecap="butt" stroke-dasharray="2.98883,2.98883" stroke-miterlimit="10" stroke-linejoin="miter" fill="none" stroke="#66ff66" d="M56.69362 0C56.69362 9.39351 31.31142 17.00824 0 17.00824-31.31142 17.00824-56.69362 9.39351-56.69362 0"/>
<path transform="matrix(1.00003,0,0,-1.00002,59.18921,171.27913)" stroke-width="1.19553" stroke-linecap="butt" stroke-miterlimit="10" stroke-linejoin="miter" fill="none" stroke="#6666ff" d="M-28.3468 85.04042C-28.3468 80.34366-15.6557 76.5363 0 76.5363 15.6557 76.5363 28.3468 80.34366 28.3468 85.04042"/>
<path transform="matrix(1.00003,0,0,-1.00002,59.18921,171.27913)" stroke-width="1.19553" stroke-linecap="butt" stroke-dasharray="2.98883,2.98883" stroke-miterlimit="10" stroke-linejoin="miter" fill="none" stroke="#b3b3ff" d="M28.3468 85.04042C28.3468 89.73718 15.6557 93.54454 0 93.54454-15.6557 93.54454-28.3468 89.73718-28.3468 85.04042"/>
<path transform="matrix(1.00003,0,0,-1.00002,59.18921,171.27913)" stroke-width="1.19553" stroke-linecap="butt" stroke-miterlimit="10" stroke-linejoin="miter" fill="none" stroke="#6666ff" d="M-56.69362 0-28.3468 85.04042"/>
<path transform="matrix(1.00003,0,0,-1.00002,59.18921,171.27913)" stroke-width="1.19553" stroke-linecap="butt" stroke-miterlimit="10" stroke-linejoin="miter" fill="none" stroke="#6666ff" d="M56.69362 0 28.3468 85.04042"/>
<path transform="matrix(1.00003,0,0,-1.00002,59.18921,171.27913)" stroke-width="1.19553" stroke-linecap="butt" stroke-miterlimit="10" stroke-linejoin="miter" fill="none" stroke="#6666ff" d="M-56.69362 0 0 170.08086"/>
<path transform="matrix(1.00003,0,0,-1.00002,59.18921,171.27913)" stroke-width="1.19553" stroke-linecap="butt" stroke-miterlimit="10" stroke-linejoin="miter" fill="none" stroke="#6666ff" d="M56.69362 0 0 170.08086"/>
<path transform="matrix(1.00003,0,0,-1.00002,59.18921,171.27913)" stroke-width="1.19553" stroke-linecap="butt" stroke-miterlimit="10" stroke-linejoin="miter" fill="none" stroke="#6666ff" d="M-28.3468 85.04042 0 170.08086"/>
<path transform="matrix(1.00003,0,0,-1.00002,59.18921,171.27913)" stroke-width="1.19553" stroke-linecap="butt" stroke-miterlimit="10" stroke-linejoin="miter" fill="none" stroke="#6666ff" d="M28.3468 85.04042 0 170.08086"/>
<path transform="matrix(1.00003,0,0,-1.00002,59.18921,171.27913)" stroke-width="1.19553" stroke-linecap="butt" stroke-dasharray="2.98883,2.98883" stroke-miterlimit="10" stroke-linejoin="miter" fill="none" stroke="#6666ff" d="M0 0V170.08086"/>
<path transform="matrix(1.00003,0,0,-1.00002,59.18921,171.27913)" stroke-width="1.19553" stroke-linecap="butt" stroke-dasharray="2.98883,2.98883" stroke-miterlimit="10" stroke-linejoin="miter" fill="none" stroke="#6666ff" d="M0 0V85.04042"/>
<path transform="matrix(1.00003,0,0,-1.00002,59.18921,171.27913)" stroke-width="1.19553" stroke-linecap="butt" stroke-dasharray="2.98883,2.98883" stroke-miterlimit="10" stroke-linejoin="miter" fill="none" stroke="#6666ff" d="M-56.69362 0H0"/>
<path transform="matrix(1.00003,0,0,-1.00002,59.18921,171.27913)" stroke-width="1.19553" stroke-linecap="butt" stroke-dasharray="2.98883,2.98883" stroke-miterlimit="10" stroke-linejoin="miter" fill="none" stroke="#6666ff" d="M0 85.04042H28.3468"/>
</svg>
