<svg xmlns="http://www.w3.org/2000/svg" xmlns:xlink="http://www.w3.org/1999/xlink" xmlns:inkscape="http://www.inkscape.org/namespaces/inkscape" version="1.1" width="118" height="118" viewBox="0 0 118 118">
<defs>
<path id="font_1_96" d="M.33299256 .3864746C.33299256 .4184723 .30099488 .43847657 .2669983 .43847657 .19099427 .43847657 .1579895 .36447145 .147995 .32946778H.14698792V.43847657L.0309906 .4273529V.4013672C.08999634 .4013672 .09899902 .39535523 .09899902 .3473053V.06903076C.09899902 .0309906 .09498596 .025985718 .0309906 .025985718V0C.054992677 .0019989014 .100997928 .0019989014 .1269989 .0019989014 .1559906 .0019989014 .20698548 .0019989014 .23399353 0V.025985718C.1619873 .026351929 .1499939 .026351929 .1499939 .07136536V.23635865C.1499939 .33236695 .19099427 .4224701 .2659912 .4224701 .272995 .4224701 .27999879 .421463 .2869873 .41844178 .2869873 .41844178 .2649994 .41140748 .2649994 .38536073 .2649994 .36135865 .28399659 .35136415 .29899598 .35136415 .31098939 .35136415 .33299256 .35835267 .33299256 .38635255V.3864746Z"/>
</defs>
<path transform="matrix(1.00003,0,0,-1.00002,59.18921,58.890859)" d="M56.69362 0C56.69362 31.31142 31.31142 56.69362 0 56.69362-31.31142 56.69362-56.69362 31.31142-56.69362 0-56.69362-31.31142-31.31142-56.69362 0-56.69362 31.31142-56.69362 56.69362-31.31142 56.69362 0ZM0 0" fill="#00ff00"/>
<path transform="matrix(1.00003,0,0,-1.00002,59.18921,58.890859)" stroke-width="1.19553" stroke-linecap="butt" stroke-miterlimit="10" stroke-linejoin="miter" fill="none" stroke="#000000" d="M56.69362 0C56.69362 31.31142 31.31142 56.69362 0 56.69362-31.31142 56.69362-56.69362 31.31142-56.69362 0-56.69362-31.31142-31.31142-56.69362 0-56.69362 31.31142-56.69362 56.69362-31.31142 56.69362 0ZM0 0"/>
<path transform="matrix(1.00003,0,0,-1.00002,59.18921,58.890859)" stroke-width="1.19553" stroke-linecap="butt" stroke-dasharray="2.98883,2.98883" stroke-miterlimit="10" stroke-linejoin="miter" fill="none" stroke="#000000" d="M-56.69362 0C-56.69362-7.82784-31.31142-14.17339 0-14.17339 31.31142-14.17339 56.69362-7.82784 56.69362 0"/>
<path transform="matrix(1.00003,0,0,-1.00002,59.18921,58.890859)" stroke-width="1.19553" stroke-linecap="butt" stroke-dasharray="2.98883,2.98883" stroke-miterlimit="10" stroke-linejoin="miter" fill="none" stroke="#000000" d="M56.69362 0C56.69362 7.82784 31.31142 14.17339 0 14.17339-31.31142 14.17339-56.69362 7.82784-56.69362 0"/>
<path transform="matrix(1.00003,0,0,-1.00002,59.18921,58.890859)" d="M1.4174 0C1.4174 .78282 .78282 1.4174 0 1.4174-.78282 1.4174-1.4174 .78282-1.4174 0-1.4174-.78282-.78282-1.4174 0-1.4174 .78282-1.4174 1.4174-.78282 1.4174 0ZM0 0"/>
<use data-text="r" xlink:href="#font_1_96" transform="matrix(20.66312,0,0,-20.662915,76.882747,55.37079)"/>
<path transform="matrix(1.00003,0,0,-1.00002,59.18921,58.890859)" stroke-width="1.19553" stroke-linecap="butt" stroke-dasharray="2.98883,2.98883" stroke-miterlimit="10" stroke-linejoin="miter" fill="none" stroke="#000000" d="M0 0H56.69362"/>
</svg>
