<svg xmlns="http://www.w3.org/2000/svg" xmlns:xlink="http://www.w3.org/1999/xlink" xmlns:inkscape="http://www.inkscape.org/namespaces/inkscape" version="1.1" width="231" height="231" viewBox="0 0 231 231">
<defs>
<path id="font_1_107" d="M.4169922 .15492249H.39898683C.3889923 .083969119 .3809967 .07197571 .3769989 .06599426 .37199403 .057998659 .2999878 .057998659 .28599549 .057998659H.09399414L.2849884 .24986267C.34599305 .30781556 .4169922 .37576295 .4169922 .47473146 .4169922 .59298709 .32299806 .6611328 .21798706 .6611328 .10798645 .6611328 .040985109 .5639038 .040985109 .47373963 .040985109 .43473817 .069992069 .42973329 .08198547 .42973329 .09199524 .42973329 .12199402 .43572999 .12199402 .47073365 .12199402 .5017395 .09599304 .5107422 .08198547 .5107422 .07598877 .5107422 .069992069 .5097351 .06599426 .5077362 .084991458 .59298709 .14299011 .63513186 .20399475 .63513186 .29100038 .63513186 .34799195 .5659027 .34799195 .47473146 .34799195 .38775636 .29699708 .31282044 .23999024 .24786377L.040985109 .022994996V0H.3929901L.4169922 .15492249Z"/>
<path id="font_1_82" d="M.38398744 0V.025985718H.35398866C.2679901 .025985718 .2659912 .037002565 .2659912 .073013309V.6391907C.2659912 .66012576 .2649994 .6611328 .25099183 .6611328 .21199036 .6142578 .15299988 .5993042 .09700012 .5973053 .09399414 .5973053 .08898926 .5973053 .08799744 .5953064 .08699036 .5933075 .08699036 .5913086 .08699036 .5703125 .117996219 .5703125 .16999817 .5763092 .20999146 .600296V.073013309C.20999146 .037994386 .20799256 .025985718 .12199402 .025985718H.09199524V0L.23799134 .0019989014 .38398744 0Z"/>
<path id="font_1_75" d="M.74398806 0V.025985718C.6799927 .025985718 .6759949 .02999878 .6759949 .06904602V.3043213C.6759949 .35438539 .6669922 .43847657 .5479889 .43847657 .47999574 .43847657 .43299867 .3924408 .4149933 .33836366H.4139862C.4019928 .4204712 .34298707 .43847657 .2869873 .43847657 .20799256 .43847657 .16699219 .3774109 .1519928 .33737184H.15098572V.43847657L.032989503 .4273529V.4013672C.09199524 .4013672 .100997928 .39535523 .100997928 .3473053V.06903076C.100997928 .0309906 .09700012 .025985718 .032989503 .025985718V0C.056991579 .0019989014 .100997928 .0019989014 .1269989 .0019989014 .15299988 .0019989014 .19799805 .0019989014 .22200012 0V.025985718C.1579895 .025985718 .1539917 .02999878 .1539917 .06903076V.26123048C.1539917 .35339356 .20999146 .4224701 .27999879 .4224701 .35398866 .4224701 .3619995 .35638429 .3619995 .30833436V.06904602C.3619995 .03100586 .35798646 .025985718 .2939911 .025985718V0C.31799317 .0019989014 .3619995 .0019989014 .3880005 .0019989014 .4139862 .0019989014 .45899964 .0019989014 .48298646 0V.025985718C.4189911 .025985718 .4149933 .02999878 .4149933 .06904602V.26127626C.4149933 .35339356 .47099305 .4224701 .54100039 .4224701 .61499026 .4224701 .6230011 .35638429 .6230011 .30833436V.06904602C.6230011 .03100586 .61898806 .025985718 .5549927 .025985718V0C.57899478 .0019989014 .6230011 .0019989014 .6489868 .0019989014 .6749878 .0019989014 .7200012 .0019989014 .74398806 0Z"/>
</defs>
<path transform="matrix(1.00003,0,0,-1.00002,115.88193,115.58299)" stroke-width="1.19553" stroke-linecap="butt" stroke-miterlimit="10" stroke-linejoin="miter" fill="none" stroke="#000000" d="M113.3855 0C113.3855 62.62189 62.62189 113.3855 0 113.3855-62.62189 113.3855-113.3855 62.62189-113.3855 0-113.3855-62.62189-62.62189-113.3855 0-113.3855 62.62189-113.3855 113.3855-62.62189 113.3855 0ZM0 0"/>
<path transform="matrix(1.00003,0,0,-1.00002,115.88193,115.58299)" stroke-width="1.19553" stroke-linecap="butt" stroke-dasharray="2.98883,2.98883" stroke-miterlimit="10" stroke-linejoin="miter" fill="none" stroke="#000000" d="M-113.3855 0C-113.3855-15.65546-62.62189-28.34636 0-28.34636 62.62189-28.34636 113.3855-15.65546 113.3855 0"/>
<path transform="matrix(1.00003,0,0,-1.00002,115.88193,115.58299)" stroke-width="1.19553" stroke-linecap="butt" stroke-dasharray="2.98883,2.98883" stroke-miterlimit="10" stroke-linejoin="miter" fill="none" stroke="#000000" stroke-opacity=".3" d="M113.3855 0C113.3855 15.65546 62.62189 28.34636 0 28.34636-62.62189 28.34636-113.3855 15.65546-113.3855 0"/>
<path transform="matrix(1.00003,0,0,-1.00002,115.88193,115.58299)" stroke-width=".79701" stroke-linecap="butt" stroke-miterlimit="10" stroke-linejoin="miter" fill="none" stroke="#ff0000" d="M0 0V-113.3855"/>
<use data-text="2" xlink:href="#font_1_107" transform="matrix(20.66312,0,0,-20.662915,134.9875,173.43715)" fill="#ff0000"/>
<use data-text="1" xlink:href="#font_1_82" transform="matrix(20.66312,0,0,-20.662915,144.47187,173.43715)" fill="#ff0000"/>
<use data-text="m" xlink:href="#font_1_75" transform="matrix(20.66312,0,0,-20.662915,160.1965,173.43715)" fill="#ff0000"/>
<path transform="matrix(1.00003,0,0,-1.00002,115.88193,115.58299)" d="M2.39102 0C2.39102 1.32053 1.32053 2.39102 0 2.39102-1.32053 2.39102-2.39102 1.32053-2.39102 0-2.39102-1.32053-1.32053-2.39102 0-2.39102 1.32053-2.39102 2.39102-1.32053 2.39102 0ZM0 0"/>
</svg>
