<svg xmlns="http://www.w3.org/2000/svg" xmlns:xlink="http://www.w3.org/1999/xlink" xmlns:inkscape="http://www.inkscape.org/namespaces/inkscape" version="1.1" width="118" height="174" viewBox="0 0 118 174">
<path transform="matrix(1.00003,0,0,-1.00005,2.4945145,172.28382)" d="M0 0H113.38724V113.38724H0Z" fill="#ffffff"/>
<path transform="matrix(1.00003,0,0,-1.00005,2.4945145,172.28382)" stroke-width="1.19553" stroke-linecap="butt" stroke-miterlimit="10" stroke-linejoin="miter" fill="none" stroke="#000000" d="M0 0H113.38724V113.38724H0Z"/>
<path transform="matrix(1.00003,0,0,-1.00005,2.4945145,172.28382)" stroke-width="1.19553" stroke-linecap="butt" stroke-miterlimit="10" stroke-linejoin="miter" fill="none" stroke="#000000" d="M56.69362 113.38724V170.08086"/>
<path transform="matrix(1.00003,0,0,-1.00005,2.4945145,172.28382)" stroke-width="1.19553" stroke-linecap="butt" stroke-miterlimit="10" stroke-linejoin="miter" fill="none" stroke="#000000" d="M0 0 56.69362 170.08086"/>
<path transform="matrix(1.00003,0,0,-1.00005,2.4945145,172.28382)" stroke-width="1.19553" stroke-linecap="butt" stroke-miterlimit="10" stroke-linejoin="miter" fill="none" stroke="#000000" d="M113.38724 0 56.69362 170.08086"/>
<path transform="matrix(1.00003,0,0,-1.00005,2.4945145,172.28382)" stroke-width="1.19553" stroke-linecap="butt" stroke-miterlimit="10" stroke-linejoin="miter" fill="none" stroke="#000000" d="M113.38724 113.38724 56.69362 170.08086"/>
<path transform="matrix(1.00003,0,0,-1.00005,2.4945145,172.28382)" stroke-width="1.19553" stroke-linecap="butt" stroke-miterlimit="10" stroke-linejoin="miter" fill="none" stroke="#000000" d="M0 113.38724 56.69362 170.08086"/>
</svg>
