<svg xmlns="http://www.w3.org/2000/svg" xmlns:xlink="http://www.w3.org/1999/xlink" xmlns:inkscape="http://www.inkscape.org/namespaces/inkscape" version="1.1" width="89" height="91" viewBox="0 0 89 91">
<defs>
<path id="font_1_82" d="M.4189911 0V.0309906H.3869934C.29699708 .0309906 .2939911 .041992189 .2939911 .07902527V.64012148C.2939911 .6640167 .2939911 .6660156 .2709961 .6660156 .20899964 .60227969 .12098694 .60227969 .08898926 .60227969V.57128909C.10899353 .57128909 .16799927 .57128909 .21998596 .5972748V.07902527C.21998596 .042999269 .21699524 .0309906 .1269989 .0309906H.09498596V0C.12998963 .0029907227 .21699524 .0029907227 .25698854 .0029907227 .29699708 .0029907227 .38398744 .0029907227 .4189911 0Z"/>
<path id="font_1_107" d="M.44898988 .17396546H.42399598C.4189911 .14398194 .4119873 .099990848 .4019928 .084991458 .394989 .07699585 .32899476 .07699585 .30699159 .07699585H.1269989L.23298645 .17996216C.3889923 .31803895 .44898988 .37210084 .44898988 .47216798 .44898988 .5860901 .35899354 .6660156 .23699951 .6660156 .12399292 .6660156 .049987794 .57411196 .049987794 .48516847 .049987794 .4291687 .099990848 .4291687 .102996829 .4291687 .11999512 .4291687 .15499878 .44117738 .15499878 .48217774 .15499878 .5081787 .13699341 .5341797 .101989749 .5341797 .09399414 .5341797 .09199524 .5341797 .08898926 .5331726 .11199951 .59806826 .1659851 .63500979 .22399903 .63500979 .31498719 .63500979 .35798646 .5541382 .35798646 .47216798 .35798646 .39196778 .30799867 .31297303 .25299073 .25097657L.06098938 .036987306C.049987794 .025985718 .049987794 .023986817 .049987794 0H.42099L.44898988 .17396546Z"/>
<path id="font_1_56" d="M.44898988 .20091248C.44898988 .31991578 .36698915 .41992188 .25898744 .41992188 .21099854 .41992188 .16799927 .4039154 .13198853 .36891175V.5641022C.1519928 .55778506 .18499756 .55078127 .21699524 .55078127 .33999635 .55078127 .4099884 .6418457 .4099884 .65493777 .4099884 .6609802 .40699769 .6660156 .3999939 .6660156 .3999939 .66607668 .39698792 .66607668 .3919983 .66308596 .37199403 .65408328 .32299806 .63378909 .2559967 .63378909 .21598816 .63409426 .16999817 .641098 .12298584 .6621094 .114990238 .6651001 .11099243 .6651001 .11099243 .6651001 .100997928 .66508486 .100997928 .657074 .100997928 .64108279V.3447113C.100997928 .3266449 .100997928 .31861878 .114990238 .31861878 .12199402 .31861878 .12399292 .32164 .12799073 .32765199 .13899231 .34371949 .17599488 .3979187 .25698854 .3979187 .30899049 .3979187 .33399964 .3517456 .34199525 .3336792 .35798646 .2965393 .3600006 .2574005 .3600006 .20721436 .3600006 .17218018 .3600006 .112197879 .33599855 .07032776 .31199647 .031448366 .2749939 .0055389406 .22898865 .0055389406 .1559906 .0055389406 .09899902 .05836487 .08198547 .1171875 .084991458 .11685181 .08799744 .115859989 .09899902 .115859989 .13198853 .115859989 .14898682 .14085388 .14898682 .16485596 .14898682 .18885803 .13198853 .21386719 .09899902 .21386719 .084991458 .21386719 .049987794 .2068634 .049987794 .16085816 .049987794 .07432556 .11898804-.022460938 .23098755-.022460938 .34700013-.022460938 .44898988 .07331848 .44898988 .20019531V.20091248Z"/>
</defs>
<path transform="matrix(1.00002,0,0,-1.00003,33.27729,12.6649)" stroke-width=".3985" stroke-linecap="butt" stroke-miterlimit="10" stroke-linejoin="miter" fill="none" stroke="#000000" d="M10.86514 0C10.86514 6.00073 6.00073 10.86514 0 10.86514-6.00073 10.86514-10.86514 6.00073-10.86514 0-10.86514-6.00073-6.00073-10.86514 0-10.86514 6.00073-10.86514 10.86514-6.00073 10.86514 0ZM0 0"/>
<use data-text="1" xlink:href="#font_1_82" transform="matrix(9.962799,0,0,-9.962899,25.805138,15.872996)"/>
<use data-text="2" xlink:href="#font_1_107" transform="matrix(9.962799,0,0,-9.962899,30.786538,15.872996)"/>
<use data-text="5" xlink:href="#font_1_56" transform="matrix(9.962799,0,0,-9.962899,35.767938,15.872996)"/>
<path transform="matrix(1.00002,0,0,-1.00003,33.27729,12.6649)" stroke-width=".3985" stroke-linecap="butt" stroke-miterlimit="10" stroke-linejoin="miter" fill="none" stroke="#000000" d="M-14.17348-34.0161C-14.17348-29.3194-17.98082-25.51205-22.67752-25.51205-27.3742-25.51205-31.18155-29.3194-31.18155-34.0161-31.18155-38.71278-27.3742-42.52013-22.67752-42.52013-17.98082-42.52013-14.17348-38.71278-14.17348-34.0161ZM-22.67752-34.0161"/>
<use data-text="5" xlink:href="#font_1_56" transform="matrix(9.962799,0,0,-9.962899,8.108788,49.89002)"/>
<path transform="matrix(1.00002,0,0,-1.00003,33.27729,12.6649)" stroke-width=".3985" stroke-linecap="butt" stroke-miterlimit="10" stroke-linejoin="miter" fill="none" stroke="#000000" d="M-6.1371-9.20575-17.85005-26.77483"/>
<path transform="matrix(1.00002,0,0,-1.00003,33.27729,12.6649)" stroke-width=".3985" stroke-linecap="butt" stroke-miterlimit="10" stroke-linejoin="miter" fill="none" stroke="#000000" d="M31.51563-34.0161C31.51563-29.1349 27.55875-25.17802 22.67755-25.17802 17.79637-25.17802 13.8395-29.1349 13.8395-34.0161 13.8395-38.89728 17.79637-42.85416 22.67755-42.85416 27.55875-42.85416 31.51563-38.89728 31.51563-34.0161ZM22.67755-34.0161"/>
<use data-text="2" xlink:href="#font_1_107" transform="matrix(9.962799,0,0,-9.962899,50.973646,49.89002)"/>
<use data-text="5" xlink:href="#font_1_56" transform="matrix(9.962799,0,0,-9.962899,55.955045,49.89002)"/>
<path transform="matrix(1.00002,0,0,-1.00003,33.27729,12.6649)" stroke-width=".3985" stroke-linecap="butt" stroke-miterlimit="10" stroke-linejoin="miter" fill="none" stroke="#000000" d="M6.1371-9.20575 17.66481-26.4969"/>
<path transform="matrix(1.00002,0,0,-1.00003,33.27729,12.6649)" stroke-width=".3985" stroke-linecap="butt" stroke-miterlimit="10" stroke-linejoin="miter" fill="none" stroke="#000000" d="M8.50407-68.0322C8.50407-63.3355 4.69673-59.52815 .00003-59.52815-4.69664-59.52815-8.50398-63.3355-8.50398-68.0322-8.50398-72.72888-4.69664-76.53622 .00003-76.53622 4.69673-76.53622 8.50407-72.72888 8.50407-68.0322ZM.00003-68.0322"/>
<use data-text="5" xlink:href="#font_1_56" transform="matrix(9.962799,0,0,-9.962899,30.78624,83.90704)"/>
<path transform="matrix(1.00002,0,0,-1.00003,33.27729,12.6649)" stroke-width=".3985" stroke-linecap="butt" stroke-miterlimit="10" stroke-linejoin="miter" fill="none" stroke="#000000" d="M17.66481-41.53528 4.8275-60.79092"/>
<path transform="matrix(1.00002,0,0,-1.00003,33.27729,12.6649)" stroke-width=".3985" stroke-linecap="butt" stroke-miterlimit="10" stroke-linejoin="miter" fill="none" stroke="#000000" d="M53.85916-68.0322C53.85916-63.3355 50.05182-59.52815 45.35512-59.52815 40.65843-59.52815 36.85109-63.3355 36.85109-68.0322 36.85109-72.72888 40.65843-76.53622 45.35512-76.53622 50.05182-76.53622 53.85916-72.72888 53.85916-68.0322ZM45.35512-68.0322"/>
<use data-text="5" xlink:href="#font_1_56" transform="matrix(9.962799,0,0,-9.962899,76.14215,83.90704)"/>
<path transform="matrix(1.00002,0,0,-1.00003,33.27729,12.6649)" stroke-width=".3985" stroke-linecap="butt" stroke-miterlimit="10" stroke-linejoin="miter" fill="none" stroke="#000000" d="M27.6903-41.53528 40.52766-60.79092"/>
</svg>
