<svg xmlns="http://www.w3.org/2000/svg" xmlns:xlink="http://www.w3.org/1999/xlink" xmlns:inkscape="http://www.inkscape.org/namespaces/inkscape" version="1.1" width="182" height="126" viewBox="0 0 182 126">
<defs>
<path id="font_1_80" d="M.72099307 .3387909C.72099307 .5429535 .56999209 .7050781 .3880005 .7050781 .20899964 .7050781 .055999757 .5449524 .055999757 .3387909 .055999757 .13363648 .20999146-.022460938 .3880005-.022460938 .56999209-.022460938 .72099307 .13664246 .72099307 .3387909M.6179962 .35281373C.6179962 .08760071 .48098756 .0035247803 .3889923 .0035247803 .29299928 .0035247803 .15899658 .09159851 .15899658 .35281373 .15899658 .6120148 .30499269 .68006899 .3880005 .68006899 .47499085 .68006899 .6179962 .6090088 .6179962 .35281373Z"/>
<path id="font_2_1" d="M.30299378 .3157959H.47299195C.61499026 .3157959 .7539978 .41973878 .7539978 .53167727 .7539978 .6086273 .6879883 .6826172 .5569916 .6826172H.23298645C.21398926 .6826172 .20298767 .6826172 .20298767 .66360476 .20298767 .6516113 .21199036 .6516113 .23199463 .6516113 .24499512 .6516113 .2630005 .65060427 .2749939 .6496124 .29100038 .6476135 .29699708 .64460757 .29699708 .6336212 .29699708 .6296234 .29599 .62661746 .29299928 .614624L.15899658 .07795715C.14898682 .038986207 .14698792 .0309906 .067993167 .0309906 .050994874 .0309906 .039993287 .0309906 .039993287 .011993408 .039993287 0 .051986696 0 .054992677 0 .08299255 0 .1539917 .0029907227 .18199158 .0029907227 .20298767 .0029907227 .22499085 .0019989014 .24598694 .0019989014 .2679901 .0019989014 .2899933 0 .31098939 0 .31799317 0 .33099366 0 .33099366 .019989014 .33099366 .0309906 .32199098 .0309906 .30299378 .0309906 .2659912 .0309906 .23799134 .0309906 .23799134 .048980714 .23799134 .054977418 .23999024 .05996704 .24099732 .065963748L.30299378 .3157959M.375 .6136322C.38398744 .64860537 .38598634 .6516113 .42900086 .6516113H.5249939C.60798647 .6516113 .6609955 .62461856 .6609955 .55566409 .6609955 .5166931 .6409912 .43074037 .60198977 .39476014 .5519867 .34977723 .49198915 .34179688 .44799806 .34179688H.30699159L.375 .6136322Z"/>
<path id="font_3_1" d="M.5159912 .31925965C.5159912 .42918397 .5029907 .50813296 .45700074 .5780945 .42599488 .62405398 .3639984 .6640625 .28399659 .6640625 .051986696 .6640625 .051986696 .39120484 .051986696 .31925965 .051986696 .2472992 .051986696-.01953125 .28399659-.01953125 .5159912-.01953125 .5159912 .2472992 .5159912 .31925965M.28399659 .008468628C.23799134 .008468628 .1769867 .035446168 .15699768 .117385867 .14299011 .17634583 .14299011 .25830079 .14299011 .33224488 .14299011 .40519715 .14299011 .4811554 .1579895 .53611758 .1789856 .6150665 .24299622 .63604739 .28399659 .63604739 .33799745 .63604739 .3899994 .6030731 .4079895 .545105 .42399598 .4911499 .4249878 .41918946 .4249878 .33224488 .4249878 .25830079 .4249878 .18434143 .4119873 .12138367 .3919983 .030441285 .32398988 .008468628 .28399659 .008468628Z"/>
<path id="font_4_1" d="M.5009918 .70599368C.5069885 .71899417 .5069885 .72099307 .5069885 .72499087 .5069885 .7409973 .49398805 .75 .48298646 .75 .46598817 .75 .46099855 .73799136 .45599366 .72499087L.08299255-.20600891C.07699585-.2190094 .07699585-.2210083 .07699585-.2250061 .07699585-.24101258 .08999634-.25 .100997928-.25 .117996219-.25 .12298584-.23800659 .12799073-.2250061L.5009918 .70599368Z"/>
<path id="font_3_6" d="M.1499939 .3274536C.1499939 .40945436 .15699768 .48303224 .19499207 .543869 .22898865 .5978699 .2829895 .63505557 .34700013 .63505557 .3769989 .63505557 .4169922 .62701418 .43699647 .5998688 .4119873 .5978699 .3909912 .5808716 .3909912 .5518799 .3909912 .5268707 .4079895 .5048828 .43798829 .5048828 .46798707 .5048828 .48599244 .5248718 .48599244 .5538788 .48599244 .6119385 .44400025 .6640625 .34498597 .6640625 .20098877 .6640625 .053985597 .5318756 .053985597 .3174591 .053985597 .05845642 .17599488-.01953125 .28599549-.01953125 .4079895-.01953125 .5139923 .07345581 .5139923 .20445252 .5139923 .33145143 .41299439 .42546083 .29599 .42546083 .21598816 .42546083 .17199707 .37245179 .1499939 .3274536M.28599549 .012466431C.23599243 .012466431 .19699097 .04145813 .17599488 .08546448 .16099549 .11546326 .15299988 .16545105 .15299988 .22544861 .15299988 .32244874 .21099854 .39746095 .29100038 .39746095 .33699037 .39746095 .36799623 .37945558 .3929901 .342453 .4169922 .30445863 .41799928 .26245118 .41799928 .20445252 .41799928 .14746094 .41799928 .10545349 .3909912 .066467288 .36698915 .031463624 .33499146 .012466431 .28599549 .012466431Z"/>
<path id="font_3_2" d="M.33499146 .63612368C.33499146 .6630554 .33299256 .6640625 .30499269 .6640625 .24099732 .6014404 .1499939 .6004486 .10899353 .6004486V.5644531C.1329956 .5644531 .19898987 .5644531 .2539978 .592453V.08203125C.2539978 .04899597 .2539978 .035995485 .1539917 .035995485H.115997318V0C.13398743 .0009918213 .25698854 .0039978029 .2939911 .0039978029 .32499696 .0039978029 .45098878 .0009918213 .47299195 0V.035995485H.43499757C.33499146 .035995485 .33499146 .04899597 .33499146 .08203125V.63612368Z"/>
<path id="font_3_3" d="M.5049896 .18203736H.47099305C.46798707 .16001892 .45799256 .100997928 .44499208 .09098816 .43699647 .084991458 .3600006 .084991458 .34599305 .084991458H.1619873C.2669983 .17803955 .3019867 .20603943 .3619995 .25306703 .43598939 .312088 .5049896 .374115 .5049896 .46914674 .5049896 .5900879 .39898683 .6640625 .2709961 .6640625 .14698792 .6640625 .06298828 .57710269 .06298828 .4851532 .06298828 .43414308 .10598755 .42915345 .115997318 .42915345 .13999939 .42915345 .16899109 .44615174 .16899109 .48214723 .16899109 .5001526 .1619873 .53515627 .10998535 .53515627 .14099121 .6060791 .20899964 .62805178 .2559967 .62805178 .35598756 .62805178 .4079895 .5501404 .4079895 .46914674 .4079895 .38212586 .34599305 .3130951 .31399537 .27708436L.07299805 .038986207C.06298828 .02999878 .06298828 .027999878 .06298828 0H.47499085L.5049896 .18203736Z"/>
<path id="font_3_7" d="M.35499574 .36123658C.43299867 .3992157 .48298646 .44618226 .48298646 .5151367 .48298646 .6120758 .38198854 .6640625 .2849884 .6640625 .1749878 .6640625 .084991458 .5920868 .084991458 .4971466 .084991458 .45018006 .10699463 .41619874 .125 .39620973 .14299011 .37522889 .1499939 .37123109 .20899964 .33624269 .15299988 .31227113 .053985597 .25830079 .053985597 .15336609 .053985597 .042434694 .16899109-.01953125 .2829895-.01953125 .4099884-.01953125 .5139923 .061431886 .5139923 .1693573 .5139923 .23532105 .47499085 .29127503 .4169922 .32525636 .4039917 .33325196 .36898805 .35324098 .35499574 .36123658M.19198609 .45617677C.1659851 .4711609 .13798523 .49813844 .13798523 .53512576 .13798523 .5980835 .21099854 .63505557 .2829895 .63505557 .36099244 .63505557 .42999269 .5860901 .42999269 .5151367 .42999269 .42619325 .32598878 .3812256 .32398988 .3812256 .32199098 .3812256 .31999208 .3822174 .31298829 .3862152L.19198609 .45617677M.24099732 .31726075 .37799073 .23831177C.4039917 .22332764 .45399476 .19334412 .45399476 .13438416 .45399476 .059432985 .37098695 .012466431 .2849884 .012466431 .19299317 .012466431 .11399841 .07142639 .11399841 .15336609 .11399841 .22732544 .16899109 .2842865 .24099732 .31726075Z"/>
<path id="font_3_5" d="M.5289917 .1640625V.20005799H.41799928V.64582827C.41799928 .66682437 .41799928 .6738281 .3959961 .6738281 .38398744 .6738281 .37998963 .6738281 .36999513 .65982058L.038986207 .20005799V.1640625H.33299256V.08201599C.33299256 .04800415 .33299256 .035995485 .2519989 .035995485H.22499085V0C.2749939 .0019989014 .33898927 .0039978029 .375 .0039978029 .4119873 .0039978029 .47599793 .0019989014 .526001 0V.035995485H.49899293C.41799928 .035995485 .41799928 .04800415 .41799928 .08201599V.1640625H.5289917M.33999635 .5658722V.20005799H.07598877L.33999635 .5658722Z"/>
<path id="font_3_4" d="M.272995 .33428956C.35099793 .33428956 .40699769 .2803192 .40699769 .1733551 .40699769 .04940796 .33499146 .012466431 .2769928 .012466431 .23699951 .012466431 .14898682 .0234375 .10699463 .082351688 .1539917 .084350589 .16499329 .11735535 .16499329 .13835144 .16499329 .17034912 .14099121 .19335938 .10998535 .19335938 .08198547 .19335938 .053985597 .17634583 .053985597 .13534546 .053985597 .041412355 .1579895-.01953125 .2789917-.01953125 .41799928-.01953125 .5139923 .07336426 .5139923 .1733551 .5139923 .2513275 .44999696 .32929994 .33999635 .35229493 .44499208 .39024354 .48298646 .4650879 .48298646 .5260773 .48298646 .60505679 .3919983 .6640625 .2809906 .6640625 .16999817 .6640625 .084991458 .61006167 .084991458 .5300751 .084991458 .49606324 .10699463 .47706605 .13699341 .47706605 .16799927 .47706605 .18798828 .5000763 .18798828 .5280762 .18798828 .5570679 .16799927 .57806399 .13699341 .5800781 .17199707 .62405398 .24099732 .63505557 .27799989 .63505557 .32299806 .63505557 .38598634 .6130676 .38598634 .5260773 .38598634 .48406983 .37199403 .43814088 .34599305 .4072113 .31298829 .36927796 .2849884 .3672943 .23498535 .36428834 .20999146 .3623047 .20799256 .3623047 .20298767 .3612976 .20098877 .3612976 .19299317 .3592987 .19299317 .34829713 .19299317 .33428956 .20199585 .33428956 .21899414 .33428956H.272995Z"/>
</defs>
<path transform="matrix(1.00003,0,0,-1.00005,66.37442,68.79984)" stroke-width=".79701" stroke-linecap="butt" stroke-miterlimit="10" stroke-linejoin="miter" fill="none" stroke="#000000" d="M0 0 28.3468 49.09824H85.04042L113.38724 0 85.04042-49.09824H28.3468Z"/>
<path transform="matrix(1.00003,0,0,-1.00005,66.37442,68.79984)" d="M1.99255 0C1.99255 1.10046 1.10046 1.99255 0 1.99255-1.10046 1.99255-1.99255 1.10046-1.99255 0-1.99255-1.10046-1.10046-1.99255 0-1.99255 1.10046-1.99255 1.99255-1.10046 1.99255 0ZM0 0"/>
<use data-text="O" xlink:href="#font_1_80" transform="matrix(9.962899,0,0,-9.963098,69.89452,79.34437)"/>
<path transform="matrix(1.00003,0,0,-1.00005,66.37442,68.79984)" d="M64.47632 0C64.47632 1.16722 63.5301 2.11343 62.36288 2.11343 61.19566 2.11343 60.24945 1.16722 60.24945 0 60.24945-1.16722 61.19566-2.11343 62.36288-2.11343 63.5301-2.11343 64.47632-1.16722 64.47632 0ZM62.36288 0"/>
<use data-text="P" xlink:href="#font_2_1" transform="matrix(9.962899,0,0,-9.963098,132.2594,61.73749)"/>
<use data-text="0" xlink:href="#font_3_1" transform="matrix(6.9740097,0,0,-6.9741489,138.6556,63.53658)"/>
<use data-text="/" xlink:href="#font_4_1" transform="matrix(6.9740097,0,0,-6.9741489,142.62772,63.53658)"/>
<use data-text="6" xlink:href="#font_3_6" transform="matrix(6.9740097,0,0,-6.9741489,146.70883,63.53658)"/>
<use data-text="0" xlink:href="#font_3_1" transform="matrix(6.9740097,0,0,-6.9741489,150.67704,63.53658)"/>
<path transform="matrix(1.00003,0,0,-1.00005,66.37442,68.79984)" d="M33.29465 54.00797C33.29465 55.17519 32.34843 56.12141 31.18121 56.12141 30.01399 56.12141 29.06776 55.17519 29.06776 54.00797 29.06776 52.84074 30.01399 51.89453 31.18121 51.89453 32.34843 51.89453 33.29465 52.84074 33.29465 54.00797ZM31.18121 54.00797"/>
<use data-text="P" xlink:href="#font_2_1" transform="matrix(9.962899,0,0,-9.963098,101.07646,7.7267916)"/>
<use data-text="6" xlink:href="#font_3_6" transform="matrix(6.9740097,0,0,-6.9741489,107.47266,9.525879)"/>
<use data-text="0" xlink:href="#font_3_1" transform="matrix(6.9740097,0,0,-6.9741489,111.44087,9.525879)"/>
<use data-text="/" xlink:href="#font_4_1" transform="matrix(6.9740097,0,0,-6.9741489,115.41588,9.525879)"/>
<use data-text="6" xlink:href="#font_3_6" transform="matrix(6.9740097,0,0,-6.9741489,119.498,9.525879)"/>
<use data-text="0" xlink:href="#font_3_1" transform="matrix(6.9740097,0,0,-6.9741489,123.46622,9.525879)"/>
<path transform="matrix(1.00003,0,0,-1.00005,66.37442,68.79984)" d="M-29.06776 54.00797C-29.06776 55.17519-30.01399 56.12141-31.18121 56.12141-32.34843 56.12141-33.29465 55.17519-33.29465 54.00797-33.29465 52.84074-32.34843 51.89453-31.18121 51.89453-30.01399 51.89453-29.06776 52.84074-29.06776 54.00797ZM-31.18121 54.00797"/>
<use data-text="P" xlink:href="#font_2_1" transform="matrix(9.962899,0,0,-9.963098,38.712587,7.7267916)"/>
<use data-text="1" xlink:href="#font_3_2" transform="matrix(6.9740097,0,0,-6.9741489,45.10878,9.525879)"/>
<use data-text="2" xlink:href="#font_3_3" transform="matrix(6.9740097,0,0,-6.9741489,49.076997,9.525879)"/>
<use data-text="0" xlink:href="#font_3_1" transform="matrix(6.9740097,0,0,-6.9741489,53.045198,9.525879)"/>
<use data-text="/" xlink:href="#font_4_1" transform="matrix(6.9740097,0,0,-6.9741489,57.023134,9.525879)"/>
<use data-text="6" xlink:href="#font_3_6" transform="matrix(6.9740097,0,0,-6.9741489,61.105257,9.525879)"/>
<use data-text="0" xlink:href="#font_3_1" transform="matrix(6.9740097,0,0,-6.9741489,65.07347,9.525879)"/>
<path transform="matrix(1.00003,0,0,-1.00005,66.37442,68.79984)" d="M-60.24945 0C-60.24945 1.16722-61.19566 2.11343-62.36288 2.11343-63.5301 2.11343-64.47632 1.16722-64.47632 0-64.47632-1.16722-63.5301-2.11343-62.36288-2.11343-61.19566-2.11343-60.24945-1.16722-60.24945 0ZM-62.36288 0"/>
<use data-text="P" xlink:href="#font_2_1" transform="matrix(9.962899,0,0,-9.963098,7.529648,61.73749)"/>
<use data-text="1" xlink:href="#font_3_2" transform="matrix(6.9740097,0,0,-6.9741489,13.925842,63.53658)"/>
<use data-text="8" xlink:href="#font_3_7" transform="matrix(6.9740097,0,0,-6.9741489,17.894059,63.53658)"/>
<use data-text="0" xlink:href="#font_3_1" transform="matrix(6.9740097,0,0,-6.9741489,21.862259,63.53658)"/>
<use data-text="/" xlink:href="#font_4_1" transform="matrix(6.9740097,0,0,-6.9741489,25.840195,63.53658)"/>
<use data-text="6" xlink:href="#font_3_6" transform="matrix(6.9740097,0,0,-6.9741489,29.922318,63.53658)"/>
<use data-text="0" xlink:href="#font_3_1" transform="matrix(6.9740097,0,0,-6.9741489,33.890535,63.53658)"/>
<path transform="matrix(1.00003,0,0,-1.00005,66.37442,68.79984)" d="M-29.06776-54.00797C-29.06776-52.84074-30.01399-51.89453-31.18121-51.89453-32.34843-51.89453-33.29465-52.84074-33.29465-54.00797-33.29465-55.17519-32.34843-56.12141-31.18121-56.12141-30.01399-56.12141-29.06776-55.17519-29.06776-54.00797ZM-31.18121-54.00797"/>
<use data-text="P" xlink:href="#font_2_1" transform="matrix(9.962899,0,0,-9.963098,38.712587,115.748188)"/>
<use data-text="2" xlink:href="#font_3_3" transform="matrix(6.9740097,0,0,-6.9741489,45.10878,117.54727)"/>
<use data-text="4" xlink:href="#font_3_5" transform="matrix(6.9740097,0,0,-6.9741489,49.076997,117.54727)"/>
<use data-text="0" xlink:href="#font_3_1" transform="matrix(6.9740097,0,0,-6.9741489,53.045198,117.54727)"/>
<use data-text="/" xlink:href="#font_4_1" transform="matrix(6.9740097,0,0,-6.9741489,57.023134,117.54727)"/>
<use data-text="6" xlink:href="#font_3_6" transform="matrix(6.9740097,0,0,-6.9741489,61.105257,117.54727)"/>
<use data-text="0" xlink:href="#font_3_1" transform="matrix(6.9740097,0,0,-6.9741489,65.07347,117.54727)"/>
<path transform="matrix(1.00003,0,0,-1.00005,66.37442,68.79984)" d="M33.29465-54.00797C33.29465-52.84074 32.34843-51.89453 31.18121-51.89453 30.01399-51.89453 29.06776-52.84074 29.06776-54.00797 29.06776-55.17519 30.01399-56.12141 31.18121-56.12141 32.34843-56.12141 33.29465-55.17519 33.29465-54.00797ZM31.18121-54.00797"/>
<use data-text="P" xlink:href="#font_2_1" transform="matrix(9.962899,0,0,-9.963098,101.07646,115.748188)"/>
<use data-text="3" xlink:href="#font_3_4" transform="matrix(6.9740097,0,0,-6.9741489,107.47266,117.54727)"/>
<use data-text="0" xlink:href="#font_3_1" transform="matrix(6.9740097,0,0,-6.9741489,111.44087,117.54727)"/>
<use data-text="0" xlink:href="#font_3_1" transform="matrix(6.9740097,0,0,-6.9741489,115.40907,117.54727)"/>
<use data-text="/" xlink:href="#font_4_1" transform="matrix(6.9740097,0,0,-6.9741489,119.38701,117.54727)"/>
<use data-text="6" xlink:href="#font_3_6" transform="matrix(6.9740097,0,0,-6.9741489,123.46913,117.54727)"/>
<use data-text="0" xlink:href="#font_3_1" transform="matrix(6.9740097,0,0,-6.9741489,127.43735,117.54727)"/>
</svg>
