<svg xmlns="http://www.w3.org/2000/svg" xmlns:xlink="http://www.w3.org/1999/xlink" xmlns:inkscape="http://www.inkscape.org/namespaces/inkscape" version="1.1" width="150" height="107" viewBox="0 0 150 107">
<defs>
<path id="font_1_27" d="M.82699587 0V.04699707H.7299957L.47399903 .6722412C.46299745 .6982422 .45098878 .6982422 .43399049 .6982422 .4059906 .6982422 .4019928 .6902313 .394989 .6722412L.14698792 .07002258C.14099121 .055007936 .13798523 .04699707 .06199646 .04699707H.040985109V0L.1579895 .0029907227C.19699097 .0029907227 .25299073 .0029907227 .2899933 0V.04699707C.2899933 .04699707 .20098877 .04699707 .20098877 .060012819L.20498657 .07203674 .25498963 .19322205H.522995L.58299258 .04699707H.48799134V0C.526001 .0029907227 .62098696 .0029907227 .6639862 .0029907227 .70399478 .0029907227 .7919922 .0029907227 .82699587 0M.5029907 .24023438H.2749939L.3889923 .51823428 .5029907 .24023438Z"/>
<path id="font_1_34" d="M.7529907 .18592835C.7529907 .28189088 .6669922 .3488617 .5479889 .35786439 .6559906 .37686158 .72099307 .43678285 .72099307 .51368716 .72099307 .60557559 .6339874 .6855469 .47299195 .6855469H.038986207V.63853457H.14698792V.04699707H.038986207V0H.5029907C.6689911 0 .7529907 .08796692 .7529907 .18592835M.57899478 .51368716C.57899478 .43678285 .5309906 .37486268 .43399049 .37486268H.27799989V.63853457H.45999146C.5609894 .63853457 .57899478 .55963137 .57899478 .51368716M.60598757 .18693543C.60598757 .17492676 .60598757 .04699707 .46199037 .04699707H.27799989V.3388672H.47200013C.49198915 .3388672 .5389862 .3388672 .57299807 .29588319 .60598757 .253891 .60598757 .19792176 .60598757 .18693543Z"/>
<path id="font_1_42" d="M.7659912 .22724915C.7659912 .24725342 .7589874 .2482605 .74198916 .2482605 .72898867 .2482605 .7200012 .2482605 .71899417 .23124695 .71199038 .09724426 .59098818 .036254884 .48999024 .036254884 .4119873 .036254884 .32798768 .060256959 .27598573 .12124634 .22898865 .17825318 .21699524 .25325013 .21699524 .34326173 .21699524 .39926148 .21998596 .5072632 .2829895 .57325747 .34799195 .63926699 .43499757 .6502533 .4869995 .6502533 .59498599 .6502533 .6899872 .5742645 .71199038 .44725038 .71499636 .42825318 .71598818 .42625428 .7389984 .42625428 .7649994 .42625428 .7659912 .42825318 .7659912 .45425416V.6692505C.7659912 .68826296 .7659912 .6972656 .7480011 .6972656 .7389984 .6972656 .7369995 .69525149 .72898867 .68826296L.6629944 .6292572C.6009979 .67926028 .5339966 .6972656 .46598817 .6972656 .21699524 .6972656 .06399536 .54826357 .06399536 .34326173 .06399536 .13824463 .21699524-.0107421879 .46598817-.0107421879 .6529999-.0107421879 .7659912 .11225891 .7659912 .22724915Z"/>
<path id="font_2_51" d="M.45700074 .16764832C.45700074 .20367432 .44599916 .24871826 .4079895 .29074098 .3889923 .31176759 .37298585 .32176209 .30899049 .36180116 .3809967 .39881898 .42999269 .4508667 .42999269 .51690676 .42999269 .6089783 .34098817 .6660156 .25 .6660156 .1499939 .6660156 .068984989 .5919647 .068984989 .49890138 .068984989 .48088075 .070999149 .43585206 .11299133 .38882447 .12399292 .3768158 .16099549 .35179139 .18598938 .33477784 .12799073 .30575563 .041992189 .24971009 .041992189 .15063477 .041992189 .044555665 .14399719-.022460938 .24899292-.022460938 .3619995-.022460938 .45700074 .060577394 .45700074 .16764832M.38598634 .51690676C.38598634 .45986939 .34700013 .41183473 .2869873 .3768158L.16299439 .4568634C.116989139 .4868927 .11299133 .5209198 .11299133 .53793337 .11299133 .5989685 .17799378 .64100649 .24899292 .64100649 .32199098 .64100649 .38598634 .588974 .38598634 .51690676M.40699769 .13162232C.40699769 .05757141 .33198548 .0055389406 .25 .0055389406 .1639862 .0055389406 .09199524 .06758118 .09199524 .15063477 .09199524 .2086792 .12399292 .2727356 .20899964 .31976319L.33198548 .24171448C.3600006 .22268677 .40699769 .19267273 .40699769 .13162232Z"/>
<path id="font_2_43" d="M.4149933 .119140628C.4149933 .12911988 .40499879 .12911988 .4019928 .12911988 .3929901 .12911988 .3909912 .12512207 .3889923 .119140628 .3600006 .026229859 .29499818 .014251709 .2579956 .014251709 .20498657 .014251709 .116989139 .0572052 .116989139 .21801758 .116989139 .38093568 .19898987 .42323304 .2519989 .42323304 .26098634 .42323304 .32398988 .42222596 .35899354 .38594056 .31799317 .38293458 .31199647 .3529358 .31199647 .3399353 .31199647 .31393434 .32998658 .2939453 .35798646 .2939453 .38398744 .2939453 .4039917 .3109436 .4039917 .34094239 .4039917 .40911866 .32798768 .4482422 .25099183 .4482422 .12599182 .4482422 .033996583 .3399353 .033996583 .21601868 .033996583 .08816528 .1329956-.0107421879 .24899292-.0107421879 .3829956-.0107421879 .4149933 .10914612 .4149933 .119140628Z"/>
<path id="font_2_75" d="M.8129883 0V.0309906C.7609863 .0309906 .73599246 .0309906 .7350006 .061019899V.25221253C.7350006 .3383026 .7350006 .36932374 .70399478 .405365 .6899872 .42237855 .6569977 .4423828 .598999 .4423828 .5149994 .4423828 .47099305 .38233949 .45399476 .34429933 .43998719 .43138124 .3659973 .4423828 .32099916 .4423828 .24798584 .4423828 .20098877 .39935304 .17298889 .33729554V.4423828L.03199768 .43066407V.3996582C.101989749 .3996582 .10998535 .39266969 .10998535 .34370423V.07595825C.10998535 .0309906 .09899902 .0309906 .03199768 .0309906V0L.14498902 .0029907227 .25698854 0V.0309906C.18998719 .0309906 .1789856 .0309906 .1789856 .07595825V.25978089C.1789856 .36431886 .25 .42037965 .31399537 .42037965 .3769989 .42037965 .3880005 .36631776 .3880005 .30926515V.076034549C.3880005 .0309906 .3769989 .0309906 .30999757 .0309906V0L.4229889 .0029907227 .5349884 0V.0309906C.46798707 .0309906 .45700074 .0309906 .45700074 .076034549V.2602234C.45700074 .36431886 .5279999 .42037965 .59199526 .42037965 .6549988 .42037965 .66600039 .36631776 .66600039 .30926515V.076034549C.66600039 .0309906 .6549988 .0309906 .58799746 .0309906V0L.70098879 .0029907227 .8129883 0Z"/>
<path id="font_2_101" d="M.45700074 .2036438C.45700074 .33070375 .36799623 .4267578 .25698854 .4267578 .18899536 .4267578 .1519928 .37573243 .13198853 .327713V.35173036C.13198853 .6047821 .2559967 .64100649 .30699159 .64100649 .33099366 .64100649 .37298585 .634964 .394989 .6007538 .37998963 .6007538 .33999635 .6007538 .33999635 .5557556 .33999635 .524765 .3639984 .5097656 .38598634 .5097656 .4019928 .5097656 .43199159 .51875308 .43199159 .5577545 .43199159 .6178589 .3880005 .6660156 .30499269 .6660156 .1769867 .6660156 .041992189 .5367584 .041992189 .31570436 .041992189 .048553468 .1579895-.022460938 .25099183-.022460938 .3619995-.022460938 .45700074 .07156372 .45700074 .2036438M.36698915 .20463562C.36698915 .15661621 .36698915 .10658264 .34999085 .0705719 .31999208 .010528564 .27398683 .0055389406 .25099183 .0055389406 .18798828 .0055389406 .1579895 .06556702 .1519928 .080566409 .13398743 .127594 .13398743 .2076416 .13398743 .22564698 .13398743 .30369569 .1659851 .40374757 .2559967 .40374757 .27198792 .40374757 .31799317 .40374757 .34899903 .34172059 .36698915 .30470277 .36698915 .2536621 .36698915 .20463562Z"/>
<path id="font_2_82" d="M.4189911 0V.0309906H.3869934C.29699708 .0309906 .2939911 .041992189 .2939911 .07902527V.64012148C.2939911 .6640167 .2939911 .6660156 .2709961 .6660156 .20899964 .60227969 .12098694 .60227969 .08898926 .60227969V.57128909C.10899353 .57128909 .16799927 .57128909 .21998596 .5972748V.07902527C.21998596 .042999269 .21699524 .0309906 .1269989 .0309906H.09498596V0C.12998963 .0029907227 .21699524 .0029907227 .25698854 .0029907227 .29699708 .0029907227 .38398744 .0029907227 .4189911 0Z"/>
<path id="font_2_121" d="M.45999146 .31976319C.45999146 .39982606 .45498658 .47988893 .41999818 .5539398 .37399293 .65000918 .2919922 .6660156 .25 .6660156 .18998719 .6660156 .116989139 .64001467 .07598877 .54693606 .04399109 .47789 .038986207 .39982606 .038986207 .31976319 .038986207 .24472046 .042999269 .15464783 .083999637 .07859802 .1269989-.0024719239 .19999695-.022460938 .24899292-.022460938 .30299378-.022460938 .3789978-.0014648438 .4229889 .09359741 .45498658 .16265869 .45999146 .2407074 .45999146 .31976319M.3769989 .3317871C.3769989 .25672914 .3769989 .18867493 .3659973 .12461853 .35099793 .029556275 .2939911-.00047302247 .24899292-.00047302247 .20999146-.00047302247 .15098572 .024551392 .1329956 .12062073 .12199402 .18066406 .12199402 .2727356 .12199402 .3317871 .12199402 .39582826 .12199402 .46188355 .12998963 .5159149 .14898682 .63500979 .22399903 .64401248 .24899292 .64401248 .28199769 .64401248 .34799195 .6259918 .36698915 .52693179 .3769989 .47088624 .3769989 .39482118 .3769989 .3317871Z"/>
</defs>
<path transform="matrix(1.00005,0,0,-1.00002,10.560776,93.69963)" d="M0 0H113.38724V85.04042Z" fill="#ccccff"/>
<path transform="matrix(1.00005,0,0,-1.00002,10.560776,93.69963)" stroke-width="1.19553" stroke-linecap="butt" stroke-miterlimit="10" stroke-linejoin="miter" fill="none" stroke="#0000ff" d="M0 0H113.38724V85.04042Z"/>
<use data-text="A" xlink:href="#font_1_27" transform="matrix(9.963098,0,0,-9.962799,1.217308,98.50473)" fill="#0000ff"/>
<use data-text="B" xlink:href="#font_1_34" transform="matrix(9.963098,0,0,-9.962799,124.63847,98.38472)" fill="#0000ff"/>
<use data-text="C" xlink:href="#font_1_42" transform="matrix(9.963098,0,0,-9.962799,121.80433,7.862915)" fill="#0000ff"/>
<use data-text="8" xlink:href="#font_2_51" transform="matrix(9.963098,0,0,-9.962799,56.746084,105.411869)" fill="#0000ff"/>
<use data-text="c" xlink:href="#font_2_43" transform="matrix(9.963098,0,0,-9.962799,65.035388,105.411869)" fill="#0000ff"/>
<use data-text="m" xlink:href="#font_2_75" transform="matrix(9.963098,0,0,-9.962799,69.459,105.411869)" fill="#0000ff"/>
<use data-text="6" xlink:href="#font_2_101" transform="matrix(9.963098,0,0,-9.962799,127.61662,54.386846)" fill="#0000ff"/>
<use data-text="c" xlink:href="#font_2_43" transform="matrix(9.963098,0,0,-9.962799,135.90592,54.386846)" fill="#0000ff"/>
<use data-text="m" xlink:href="#font_2_75" transform="matrix(9.963098,0,0,-9.962799,140.32953,54.386846)" fill="#0000ff"/>
<use data-text="1" xlink:href="#font_2_82" transform="matrix(9.963098,0,0,-9.962799,54.25496,40.21256)" fill="#0000ff"/>
<use data-text="0" xlink:href="#font_2_121" transform="matrix(9.963098,0,0,-9.962799,59.236505,40.21256)" fill="#0000ff"/>
<use data-text="c" xlink:href="#font_2_43" transform="matrix(9.963098,0,0,-9.962799,67.5258,40.21256)" fill="#0000ff"/>
<use data-text="m" xlink:href="#font_2_75" transform="matrix(9.963098,0,0,-9.962799,71.94942,40.21256)" fill="#0000ff"/>
<path transform="matrix(1.00005,0,0,-1.00002,10.560776,93.69963)" stroke-width="1.19553" stroke-linecap="butt" stroke-miterlimit="10" stroke-linejoin="miter" fill="none" stroke="#0000ff" d="M113.38724 0H104.88309V8.50412H113.38724Z"/>
<path transform="matrix(1.00005,0,0,-1.00002,10.560776,93.69963)" stroke-width=".3985" stroke-linecap="butt" stroke-miterlimit="10" stroke-linejoin="miter" fill="none" stroke="#0000ff" d="M14.17339 0C14.17339 3.06625 13.17798 6.05077 11.33832 8.50368"/>
</svg>
