<svg xmlns="http://www.w3.org/2000/svg" xmlns:xlink="http://www.w3.org/1999/xlink" xmlns:inkscape="http://www.inkscape.org/namespaces/inkscape" version="1.1" width="99" height="99" viewBox="0 0 99 99">
<defs>
<path id="font_1_70" d="M.5109863 0V.0309906C.47399903 .0309906 .45199586 .0309906 .4139862 .0839386L.2869873 .26278688C.28599549 .26478578 .2809906 .2707672 .2809906 .2737732 .2809906 .277771 .35198976 .33770753 .3619995 .34570313 .4249878 .39666749 .46699525 .39865113 .48799134 .3996582V.43066407C.45899964 .42765809 .44599916 .42765809 .41799928 .42765809 .38198854 .42765809 .31999208 .42965699 .30599977 .43066407V.3996582C.32499696 .39865113 .33499146 .3876648 .33499146 .37467958 .33499146 .3547058 .32099916 .3427124 .31298829 .33570863L.17199707 .21382141V.69433596L.027999878 .6826172V.6516113C.09799194 .6516113 .10598755 .64460757 .10598755 .5956421V.07595825C.10598755 .0309906 .09498596 .0309906 .027999878 .0309906V0L.13699341 .0029907227 .24699402 0V.0309906C.17999268 .0309906 .16899109 .0309906 .16899109 .07595825V.17889405L.23298645 .23387146C.30999757 .12792969 .35198976 .07196045 .35198976 .053985597 .35198976 .034988405 .33499146 .0309906 .31599427 .0309906V0L.42399598 .0029907227C.45298768 .0029907227 .48199464 .0019989014 .5109863 0Z"/>
</defs>
<path transform="matrix(1.00002,0,0,-1,49.718629,49.421)" d="M47.62231 0C47.62231 26.3014 26.3014 47.62231 0 47.62231-26.3014 47.62231-47.62231 26.3014-47.62231 0-47.62231-26.3014-26.3014-47.62231 0-47.62231 26.3014-47.62231 47.62231-26.3014 47.62231 0ZM0 0" fill="#e9e5c3"/>
<path transform="matrix(1.00002,0,0,-1,49.718629,49.421)" stroke-width=".3985" stroke-linecap="butt" stroke-miterlimit="10" stroke-linejoin="miter" fill="none" stroke="#968d00" d="M47.62231 0C47.62231 26.3014 26.3014 47.62231 0 47.62231-26.3014 47.62231-47.62231 26.3014-47.62231 0-47.62231-26.3014-26.3014-47.62231 0-47.62231 26.3014-47.62231 47.62231-26.3014 47.62231 0ZM0 0"/>
<use data-text="k" xlink:href="#font_1_70" transform="matrix(9.962799,0,0,-9.9626,47.088579,52.878004)"/>
</svg>
