<svg xmlns="http://www.w3.org/2000/svg" xmlns:xlink="http://www.w3.org/1999/xlink" xmlns:inkscape="http://www.inkscape.org/namespaces/inkscape" version="1.1" width="43" height="43" viewBox="0 0 43 43">
<defs>
<path id="font_1_50" d="M.4149933 .11933899C.4149933 .12934876 .40699769 .13134766 .4019928 .13134766 .3929901 .13134766 .3909912 .12535095 .3889923 .11734009 .35398866 .014251709 .2639923 .014251709 .2539978 .014251709 .20399475 .014251709 .1639862 .044281007 .14099121 .08131409 .11099243 .12934876 .11099243 .19540406 .11099243 .23144531H.3899994C.4119873 .23144531 .4149933 .23144531 .4149933 .2524414 .4149933 .35131837 .36099244 .4482422 .23599243 .4482422 .11999512 .4482422 .027999878 .34532167 .027999878 .22042847 .027999878 .08631897 .1329956-.0107421879 .24798584-.0107421879 .36999513-.0107421879 .4149933 .10032654 .4149933 .11933899M.34899903 .2524414H.11199951C.117996219 .40126039 .20199585 .426239 .23599243 .426239 .33898927 .426239 .34899903 .2913971 .34899903 .2524414Z"/>
</defs>
<path transform="matrix(1.00002,0,0,-1.00008,21.938065,41.487039)" d="M19.84265 19.84265C19.84265 30.80157 10.95892 39.6853 0 39.6853-10.95892 39.6853-19.84265 30.80157-19.84265 19.84265-19.84265 8.88373-10.95892 0 0 0 10.95892 0 19.84265 8.88373 19.84265 19.84265ZM0 19.84265" fill="#f2ccd9"/>
<path transform="matrix(1.00002,0,0,-1.00008,21.938065,41.487039)" stroke-width=".3985" stroke-linecap="butt" stroke-miterlimit="10" stroke-linejoin="miter" fill="none" stroke="#bf0040" d="M19.84265 19.84265C19.84265 30.80157 10.95892 39.6853 0 39.6853-10.95892 39.6853-19.84265 30.80157-19.84265 19.84265-19.84265 8.88373-10.95892 0 0 0 10.95892 0 19.84265 8.88373 19.84265 19.84265ZM0 19.84265"/>
<use data-text="e" xlink:href="#font_1_50" transform="matrix(9.962799,0,0,-9.963397,19.72602,23.819624)"/>
</svg>
