<svg xmlns="http://www.w3.org/2000/svg" xmlns:xlink="http://www.w3.org/1999/xlink" xmlns:inkscape="http://www.inkscape.org/namespaces/inkscape" version="1.1" width="67" height="67" viewBox="0 0 67 67">
<defs>
<path id="font_1_66" d="M.24699402 0V.0309906C.18099976 .0309906 .1769867 .035995485 .1769867 .075042728V.4423828L.036987306 .43066407V.3996582C.101989749 .3996582 .11099243 .3936615 .11099243 .3447113V.07595825C.11099243 .0309906 .099990848 .0309906 .032989503 .0309906V0L.14299011 .0029907227C.17799378 .0029907227 .21299744 .0009918213 .24699402 0M.19198609 .603775C.19198609 .6307678 .16899109 .6567688 .13899231 .6567688 .10499573 .6567688 .084991458 .6287689 .084991458 .603775 .084991458 .57676699 .10798645 .55078127 .13798523 .55078127 .17199707 .55078127 .19198609 .5787811 .19198609 .603775Z"/>
</defs>
<path transform="matrix(1.00003,0,0,-1.00002,2.0964967,33.54735)" d="M0 0 15.87389 31.74838H47.62227L63.49617 0 31.74777-31.74838Z" fill="#c7eafb"/>
<path transform="matrix(1.00003,0,0,-1.00002,2.0964967,33.54735)" stroke-width=".3985" stroke-linecap="butt" stroke-miterlimit="10" stroke-linejoin="miter" fill="none" stroke="#00aeef" d="M0 0 15.87389 31.74838H47.62227L63.49617 0 31.74777-31.74838Z"/>
<use data-text="i" xlink:href="#font_1_66" transform="matrix(9.962899,0,0,-9.962799,32.46141,36.82042)"/>
</svg>
