<svg xmlns="http://www.w3.org/2000/svg" xmlns:xlink="http://www.w3.org/1999/xlink" xmlns:inkscape="http://www.inkscape.org/namespaces/inkscape" version="1.1" width="99" height="99" viewBox="0 0 99 99">
<defs>
<path id="font_1_43" d="M.4149933 .119140628C.4149933 .12911988 .40499879 .12911988 .4019928 .12911988 .3929901 .12911988 .3909912 .12512207 .3889923 .119140628 .3600006 .026229859 .29499818 .014251709 .2579956 .014251709 .20498657 .014251709 .116989139 .0572052 .116989139 .21801758 .116989139 .38093568 .19898987 .42323304 .2519989 .42323304 .26098634 .42323304 .32398988 .42222596 .35899354 .38594056 .31799317 .38293458 .31199647 .3529358 .31199647 .3399353 .31199647 .31393434 .32998658 .2939453 .35798646 .2939453 .38398744 .2939453 .4039917 .3109436 .4039917 .34094239 .4039917 .40911866 .32798768 .4482422 .25099183 .4482422 .12599182 .4482422 .033996583 .3399353 .033996583 .21601868 .033996583 .08816528 .1329956-.0107421879 .24899292-.0107421879 .3829956-.0107421879 .4149933 .10914612 .4149933 .119140628Z"/>
</defs>
<path transform="matrix(1.00002,0,0,-1,2.095665,49.421)" d="M0 0 23.81143 47.62228H71.43375L95.24518 0 47.62286-47.62228Z" fill="#ccffcc"/>
<path transform="matrix(1.00002,0,0,-1,2.095665,49.421)" stroke-width=".3985" stroke-linecap="butt" stroke-miterlimit="10" stroke-linejoin="miter" fill="none" stroke="#00ff00" d="M0 0 23.81143 47.62228H71.43375L95.24518 0 47.62286-47.62228Z"/>
<use data-text="c" xlink:href="#font_1_43" transform="matrix(9.962799,0,0,-9.9626,47.507574,35.724004)"/>
</svg>
