<svg xmlns="http://www.w3.org/2000/svg" xmlns:xlink="http://www.w3.org/1999/xlink" xmlns:inkscape="http://www.inkscape.org/namespaces/inkscape" version="1.1" width="126" height="127" viewBox="0 0 126 127">
<defs>
<path id="font_1_95" d="M.7779999 .09051514C.7779999 .0965271 .7779999 .10952759 .7619934 .10952759 .7480011 .10952759 .7480011 .098526 .746994 .09152222 .74198916 .028518677 .70700076 .006515503 .67900088 .006515503 .625 .006515503 .61898806 .052520753 .6009979 .17953491 .59399417 .23654175 .58399966 .30555726 .47399903 .33955384 .5519867 .3595581 .647995 .41656495 .647995 .50257876 .647995 .601593 .5209961 .6826172 .37199403 .6826172H.04598999V.6496124H.067993167C.14498902 .6496124 .14698792 .63861086 .14698792 .601593V.08052063C.14698792 .04397583 .14498902 .032989503 .067993167 .032989503H.04598999V0L.19099427 .0029907227 .33699037 0V.032989503H.31498719C.23799134 .032989503 .23599243 .04397583 .23599243 .0809021V.3274536H.3619995C.43598939 .3274536 .46899415 .29052735 .47599793 .282547 .5049896 .2505951 .5049896 .23162842 .5049896 .16375733 .5049896 .100875858 .5049896 .05795288 .5469971 .020996094 .58999636-.016494751 .6459961-.021484375 .6749878-.021484375 .7579956-.021484375 .7779999 .0605011 .7779999 .09049988V.09051514M.5439911 .50253298C.5439911 .3914795 .46398927 .35546876 .35899354 .35546876H.23599243V.6085968C.23599243 .6345978 .23699951 .6456146 .26098634 .64860537 .269989 .6496124 .3019867 .6496124 .32199098 .6496124 .4119873 .6496124 .5439911 .6496124 .5439911 .50253298Z"/>
<path id="font_1_58" d="M.7819977 .24238587V.27539063C.73098757 .27238465 .7029877 .27238465 .6459961 .27238465 .6029968 .27238465 .5219879 .27238465 .48298646 .27539063V.24238587H.5179901C.61299136 .24272156 .6159973 .23069763 .6159973 .19366455V.12960816C.6159973 .10958862 .6159973 .06855774 .5629883 .039535524 .5130005 .011505127 .45700074 .011505127 .44499208 .011505127 .34298707 .011505127 .16299439 .07356262 .16299439 .34179688 .16299439 .61305239 .34599305 .6710968 .43798829 .6710968 .5379944 .6710968 .6499939 .5980377 .6749878 .43289186 .6759949 .42288209 .6769867 .41687013 .69099429 .41687013 .70799258 .41687013 .70799258 .4238739 .70799258 .4429016V.6781006C.70799258 .6940918 .70799258 .70410159 .69499209 .70410159 .6879883 .70410159 .68699648 .7030945 .6779938 .690094L.6269989 .6160431C.58399966 .6620941 .5179901 .70410159 .42799378 .70410159 .22799683 .70410159 .05899048 .542984 .05899048 .34179688 .05899048 .1426239 .22299195-.021484375 .43099977-.021484375 .5079956-.021484375 .59399417 .0015106201 .6339874 .060546876 .6519928 .03253174 .6859894-.00048828127 .69599917-.00048828127 .70799258 0 .70799258 .010986328 .70799258 .025985718V.19799805C.70799258 .23738098 .71199038 .24238587 .7819977 .24238587Z"/>
<path id="font_2_1" d="M.397995 .63591006C.397995 .6660156 .394989 .6660156 .3619995 .6660156 .29100038 .6016083 .17999268 .6016083 .1599884 .6016083H.14299011V.5576172H.1599884C.18299866 .5576172 .24798584 .5606079 .30599977 .58561709V.08596802C.30599977 .054977418 .30599977 .04399109 .19999695 .04399109H.1499939V0C.20498657 .0039978029 .2939911 .0039978029 .35198976 .0039978029 .4099884 .0039978029 .49899293 .0039978029 .55400088 0V.04399109H.5039978C.397995 .04399109 .397995 .054977418 .397995 .08596802V.63591006Z"/>
<path id="font_2_3" d="M.32998658 .3310547C.42199708 .3310547 .48298646 .2737732 .48298646 .17437744 .48298646 .07237244 .41999818 .01852417 .33099366 .01852417 .31999208 .01852417 .20098877 .01852417 .1499939 .070373538 .19099427 .07637024 .20298767 .1073761 .20298767 .13137818 .20298767 .16838074 .1749878 .19238281 .14199829 .19238281 .10998535 .19238281 .07998657 .17137146 .07998657 .12937927 .07998657 .025512696 .19799805-.022460938 .33399964-.022460938 .49798585-.022460938 .59999087 .07637024 .59999087 .17337036 .59999087 .25567628 .5269928 .3260193 .41299439 .35205079 .5329895 .3909912 .5649872 .46684266 .5649872 .5228424 .5649872 .60491946 .46299745 .6660156 .33699037 .6660156 .21398926 .6660156 .114990238 .61395266 .114990238 .5238342 .114990238 .47683717 .15299988 .46484376 .17199707 .46484376 .20098877 .46484376 .22898865 .48583985 .22898865 .5218353 .22898865 .5448303 .21699524 .5728302 .18099976 .57884219 .22399903 .625 .31298829 .628006 .33399964 .628006 .40699769 .628006 .45899964 .5908661 .45899964 .5228424 .45899964 .46484376 .42099 .37402345 .31599427 .368042 .28799439 .3670349 .28399659 .3660431 .2579956 .365036 .24699402 .3640442 .23599243 .36305238 .23599243 .34805299 .23599243 .3310547 .24598694 .3310547 .2639923 .3310547H.32998658Z"/>
<path id="font_2_2" d="M.58898928 .19296265H.5469971C.5439911 .17396546 .5339966 .11198425 .5179901 .101989749 .5099945 .09599304 .42599488 .09599304 .41099549 .09599304H.21499634C.2809906 .14497376 .35499574 .20095825 .4149933 .24093628 .5049896 .30291749 .58898928 .36090089 .58898928 .46687318 .58898928 .59495547 .46798707 .6660156 .32499696 .6660156 .18998719 .6660156 .09098816 .58795168 .09098816 .48986817 .09098816 .4378662 .1349945 .42886354 .14898682 .42886354 .17599488 .42886354 .20799256 .4468689 .20799256 .48786927 .20799256 .52386477 .18199158 .543869 .15098572 .546875 .1789856 .59194949 .23699951 .6220093 .3039856 .6220093 .40098573 .6220093 .48199464 .5639038 .48199464 .4658661 .48199464 .3818817 .42399598 .31791688 .34700013 .2529297L.102996829 .04598999C.09298706 .036987306 .09199524 .036987306 .09098816 .02999878V0H.55599978L.58898928 .19296265Z"/>
</defs>
<path transform="matrix(1.00002,0,0,-1,5.1127245,63.681)" stroke-width=".79701" stroke-linecap="butt" stroke-miterlimit="10" stroke-linejoin="miter" fill="none" stroke="#000000" d="M2.81807 0C2.81807 1.55638 1.55638 2.81807 0 2.81807-1.55638 2.81807-2.81807 1.55638-2.81807 0-2.81807-1.55638-1.55638-2.81807 0-2.81807 1.55638-2.81807 2.81807-1.55638 2.81807 0ZM0 0"/>
<path transform="matrix(1.00002,0,0,-1,5.1127245,63.681)" stroke-width=".3985" stroke-linecap="butt" stroke-miterlimit="10" stroke-linejoin="miter" fill="none" stroke="#000000" d="M61.41982-37.41785C61.41982-33.55519 58.28859-30.42397 54.42593-30.42397 50.56328-30.42397 47.43205-33.55519 47.43205-37.41785 47.43205-41.2805 50.56328-44.41174 54.42593-44.41174 58.28859-44.41174 61.41982-41.2805 61.41982-37.41785ZM54.42593-37.41785"/>
<use data-text="R" xlink:href="#font_1_95" transform="matrix(7.9702599,0,0,-7.9701,56.42375,103.737)"/>
<path transform="matrix(1.00002,0,0,-1,5.1127245,63.681)" stroke-width=".79701" stroke-linecap="butt" stroke-miterlimit="10" stroke-linejoin="miter" fill="none" stroke="#000000" d="M2.64809-1.82056 48.4985-33.34277"/>
<path transform="matrix(1.00002,0,0,-1,5.1127245,63.681)" stroke-width=".79701" stroke-linecap="butt" stroke-miterlimit="10" stroke-linejoin="miter" fill="none" stroke="#000000" d="M118.48117-52.15817C118.48117-46.84001 114.17004-42.52888 108.85187-42.52888 103.5337-42.52888 99.22258-46.84001 99.22258-52.15817 99.22258-57.47635 103.5337-61.78748 108.85187-61.78748 114.17004-61.78748 118.48117-57.47635 118.48117-52.15817ZM108.85187-52.15817"/>
<use data-text="R" xlink:href="#font_1_95" transform="matrix(7.9702599,0,0,-7.9701,107.645778,118.561008)"/>
<use data-text="G" xlink:href="#font_1_58" transform="matrix(7.9702599,0,0,-7.9701,113.647388,118.561008)"/>
<path transform="matrix(1.00002,0,0,-1,5.1127245,63.681)" stroke-width=".79701" stroke-linecap="butt" stroke-miterlimit="10" stroke-linejoin="miter" fill="none" stroke="#000000" d="M61.36652-39.29626 99.36499-49.58772"/>
<use data-text="1" xlink:href="#font_2_1" transform="matrix(4.9813997,0,0,-4.9813,83.78529,113.724)"/>
<path transform="matrix(1.00002,0,0,-1,-3.5254517,68.721)" stroke-width=".3387" stroke-linecap="butt" stroke-miterlimit="10" stroke-linejoin="miter" fill="none" stroke="#000000" d="M87.309-45.937H90.699"/>
<use data-text="3" xlink:href="#font_2_3" transform="matrix(4.9813997,0,0,-4.9813,83.78529,118.802)"/>
<path transform="matrix(1.00002,0,0,-1,5.1127245,63.681)" stroke-width=".79701" stroke-linecap="butt" stroke-miterlimit="10" stroke-linejoin="miter" fill="none" stroke="#000000" d="M118.37975-22.67743C118.37975-17.41525 114.11404-13.14955 108.85187-13.14955 103.5897-13.14955 99.324-17.41525 99.324-22.67743 99.324-27.93959 103.5897-32.20529 108.85187-32.20529 114.11404-32.20529 118.37975-27.93959 118.37975-22.67743ZM108.85187-22.67743"/>
<use data-text="R" xlink:href="#font_1_95" transform="matrix(7.9702599,0,0,-7.9701,107.73378,88.997)"/>
<use data-text="R" xlink:href="#font_1_95" transform="matrix(7.9702599,0,0,-7.9701,113.96652,88.997)"/>
<path transform="matrix(1.00002,0,0,-1,5.1127245,63.681)" stroke-width=".79701" stroke-linecap="butt" stroke-miterlimit="10" stroke-linejoin="miter" fill="none" stroke="#000000" d="M61.36652-35.5394 99.46289-25.22131"/>
<use data-text="2" xlink:href="#font_2_2" transform="matrix(4.9813997,0,0,-4.9813,83.834308,86.591999)"/>
<path transform="matrix(1.00002,0,0,-1,-3.4764405,41.589)" stroke-width=".3387" stroke-linecap="butt" stroke-miterlimit="10" stroke-linejoin="miter" fill="none" stroke="#000000" d="M87.309-45.937H90.699"/>
<use data-text="3" xlink:href="#font_2_3" transform="matrix(4.9813997,0,0,-4.9813,83.834308,91.67)"/>
<use data-text="2" xlink:href="#font_2_2" transform="matrix(4.9813997,0,0,-4.9813,28.992203,86.863)"/>
<path transform="matrix(1.00002,0,0,-1,-58.318544,41.86)" stroke-width=".3387" stroke-linecap="butt" stroke-miterlimit="10" stroke-linejoin="miter" fill="none" stroke="#000000" d="M87.309-45.937H90.699"/>
<use data-text="3" xlink:href="#font_2_3" transform="matrix(4.9813997,0,0,-4.9813,28.992203,91.941)"/>
<path transform="matrix(1.00002,0,0,-1,5.1127245,63.681)" stroke-width=".3985" stroke-linecap="butt" stroke-miterlimit="10" stroke-linejoin="miter" fill="none" stroke="#000000" d="M61.62656 37.41795C61.62656 41.39479 58.40277 44.61859 54.42593 44.61859 50.4491 44.61859 47.2253 41.39479 47.2253 37.41795 47.2253 33.44112 50.4491 30.21733 54.42593 30.21733 58.40277 30.21733 61.62656 33.44112 61.62656 37.41795ZM54.42593 37.41795"/>
<use data-text="G" xlink:href="#font_1_58" transform="matrix(7.9702599,0,0,-7.9701,56.215749,28.985)"/>
<path transform="matrix(1.00002,0,0,-1,5.1127245,63.681)" stroke-width=".79701" stroke-linecap="butt" stroke-miterlimit="10" stroke-linejoin="miter" fill="none" stroke="#000000" d="M2.64809 1.82056 48.32814 33.22577"/>
<path transform="matrix(1.00002,0,0,-1,5.1127245,63.681)" stroke-width=".79701" stroke-linecap="butt" stroke-miterlimit="10" stroke-linejoin="miter" fill="none" stroke="#000000" d="M118.76988 22.67763C118.76988 28.15527 114.32951 32.59564 108.85187 32.59564 103.37424 32.59564 98.93385 28.15527 98.93385 22.67763 98.93385 17.2 103.37424 12.75963 108.85187 12.75963 114.32951 12.75963 118.76988 17.2 118.76988 22.67763ZM108.85187 22.67763"/>
<use data-text="G" xlink:href="#font_1_58" transform="matrix(7.9702599,0,0,-7.9701,107.31977,43.725)"/>
<use data-text="G" xlink:href="#font_1_58" transform="matrix(7.9702599,0,0,-7.9701,113.966968,43.725)"/>
<path transform="matrix(1.00002,0,0,-1,5.1127245,63.681)" stroke-width=".79701" stroke-linecap="butt" stroke-miterlimit="10" stroke-linejoin="miter" fill="none" stroke="#000000" d="M61.56609 35.4855 99.08632 25.32358"/>
<use data-text="1" xlink:href="#font_2_1" transform="matrix(4.9813997,0,0,-4.9813,83.74629,38.877)"/>
<path transform="matrix(1.00002,0,0,-1,-3.5644532,-6.1259996)" stroke-width=".3387" stroke-linecap="butt" stroke-miterlimit="10" stroke-linejoin="miter" fill="none" stroke="#000000" d="M87.309-45.937H90.699"/>
<use data-text="3" xlink:href="#font_2_3" transform="matrix(4.9813997,0,0,-4.9813,83.74629,43.955)"/>
<path transform="matrix(1.00002,0,0,-1,5.1127245,63.681)" stroke-width=".79701" stroke-linecap="butt" stroke-miterlimit="10" stroke-linejoin="miter" fill="none" stroke="#000000" d="M118.57579 52.15839C118.57579 57.52882 114.2223 61.88231 108.85187 61.88231 103.48145 61.88231 99.12796 57.52882 99.12796 52.15839 99.12796 46.78796 103.48145 42.43448 108.85187 42.43448 114.2223 42.43448 118.57579 46.78796 118.57579 52.15839ZM108.85187 52.15839"/>
<use data-text="G" xlink:href="#font_1_58" transform="matrix(7.9702599,0,0,-7.9701,107.52678,14.2439999)"/>
<use data-text="R" xlink:href="#font_1_95" transform="matrix(7.9702599,0,0,-7.9701,114.17397,14.2439999)"/>
<path transform="matrix(1.00002,0,0,-1,5.1127245,63.681)" stroke-width=".79701" stroke-linecap="butt" stroke-miterlimit="10" stroke-linejoin="miter" fill="none" stroke="#000000" d="M61.56609 39.3504 99.27367 49.5632"/>
<use data-text="2" xlink:href="#font_2_2" transform="matrix(4.9813997,0,0,-4.9813,83.8393,11.754997)"/>
<path transform="matrix(1.00002,0,0,-1,-3.4714432,-33.248)" stroke-width=".3387" stroke-linecap="butt" stroke-miterlimit="10" stroke-linejoin="miter" fill="none" stroke="#000000" d="M87.309-45.937H90.699"/>
<use data-text="3" xlink:href="#font_2_3" transform="matrix(4.9813997,0,0,-4.9813,83.8393,16.833)"/>
<use data-text="1" xlink:href="#font_2_1" transform="matrix(4.9813997,0,0,-4.9813,28.906197,38.687997)"/>
<path transform="matrix(1.00002,0,0,-1,-58.40455,-6.3150007)" stroke-width=".3387" stroke-linecap="butt" stroke-miterlimit="10" stroke-linejoin="miter" fill="none" stroke="#000000" d="M87.309-45.937H90.699"/>
<use data-text="3" xlink:href="#font_2_3" transform="matrix(4.9813997,0,0,-4.9813,28.906197,43.766)"/>
</svg>
