<svg xmlns="http://www.w3.org/2000/svg" xmlns:xlink="http://www.w3.org/1999/xlink" xmlns:inkscape="http://www.inkscape.org/namespaces/inkscape" version="1.1" width="180" height="133" viewBox="0 0 180 133">
<path transform="matrix(1.00003,0,0,-1.00006,2.4945145,115.58998)" d="M0 0H113.38724L56.69362 85.04042Z" fill="#ffffff"/>
<path transform="matrix(1.00003,0,0,-1.00006,2.4945145,115.58998)" stroke-width="1.19553" stroke-linecap="butt" stroke-miterlimit="10" stroke-linejoin="miter" fill="none" stroke="#0000ff" d="M0 0H113.38724L56.69362 85.04042Z"/>
<path transform="matrix(1.00003,0,0,-1.00006,2.4945145,115.58998)" stroke-width="1.19553" stroke-linecap="butt" stroke-miterlimit="10" stroke-linejoin="miter" fill="none" stroke="#0000ff" d="M56.69362 28.3468H170.08086L113.38724 113.38724Z"/>
<path transform="matrix(1.00003,0,0,-1.00006,2.4945145,115.58998)" stroke-width=".79701" stroke-linecap="butt" stroke-miterlimit="10" stroke-linejoin="miter" fill="none" stroke="#0000ff" d="M0 0 56.69362 28.3468"/>
<path transform="matrix(1.00003,0,0,-1.00006,2.4945145,115.58998)" stroke-width=".79701" stroke-linecap="butt" stroke-miterlimit="10" stroke-linejoin="miter" fill="none" stroke="#0000ff" d="M113.38724 0 170.08086 28.3468"/>
<path transform="matrix(1.00003,0,0,-1.00006,2.4945145,115.58998)" stroke-width=".79701" stroke-linecap="butt" stroke-miterlimit="10" stroke-linejoin="miter" fill="none" stroke="#0000ff" d="M56.69362 85.04042 113.38724 113.38724"/>
<path transform="matrix(1.00003,0,0,-1.00006,2.4945145,115.58998)" stroke-width=".3985" stroke-linecap="butt" stroke-miterlimit="10" stroke-linejoin="miter" fill="none" stroke="#0000ff" d="M.45827-14.17339H112.92896"/>
<path transform="matrix(-1.00003,-0,0,1.00006,2.9527984,129.76422)" stroke-width=".31879" stroke-linecap="round" stroke-linejoin="round" fill="none" stroke="#0000ff" d="M-1.19551 1.59401C-1.09587 .99626 0 .09961 .29886 0 0-.09961-1.09587-.99626-1.19551-1.59401"/>
<path transform="matrix(1.00003,0,0,-1.00006,115.42687,129.76422)" stroke-width=".31879" stroke-linecap="round" stroke-linejoin="round" fill="none" stroke="#0000ff" d="M-1.19551 1.59401C-1.09587 .99626 0 .09961 .29886 0 0-.09961-1.09587-.99626-1.19551-1.59401"/>
<path transform="matrix(1.00003,0,0,-1.00006,2.4945145,115.58998)" stroke-width=".3985" stroke-linecap="butt" stroke-miterlimit="10" stroke-linejoin="miter" fill="none" stroke="#0000ff" d="M.45827-2.83484H112.92896"/>
<path transform="matrix(-1.00003,-0,0,1.00006,2.9527984,118.42499)" stroke-width=".31879" stroke-linecap="round" stroke-linejoin="round" fill="none" stroke="#0000ff" d="M-1.19551 1.59401C-1.09587 .99626 0 .09961 .29886 0 0-.09961-1.09587-.99626-1.19551-1.59401"/>
<path transform="matrix(1.00003,0,0,-1.00006,115.42687,118.42499)" stroke-width=".31879" stroke-linecap="round" stroke-linejoin="round" fill="none" stroke="#0000ff" d="M-1.19551 1.59401C-1.09587 .99626 0 .09961 .29886 0 0-.09961-1.09587-.99626-1.19551-1.59401"/>
<path transform="matrix(1.00003,0,0,-1.00006,2.4945145,115.58998)" stroke-width=".3985" stroke-linecap="butt" stroke-dasharray="2.98883,2.98883" stroke-miterlimit="10" stroke-linejoin="miter" fill="none" stroke="#0000ff" d="M56.69362 0V85.04042"/>
<path transform="matrix(1.00003,0,0,-1.00006,2.4945145,115.58998)" stroke-width="1.19553" stroke-linecap="butt" stroke-miterlimit="10" stroke-linejoin="miter" fill="none" stroke="#0000ff" d="M59.52846 .9564V84.084"/>
<path transform="matrix(0,1.00006,1.00003,0,62.024766,114.63352)" stroke-width=".9564" stroke-linecap="round" stroke-linejoin="round" fill="none" stroke="#0000ff" d="M-1.91284 2.55046C-1.75343 1.59402 0 .15938 .4782 0 0-.15938-1.75343-1.59402-1.91284-2.55046"/>
<path transform="matrix(0,-1.00006,-1.00003,-0,62.024766,31.500939)" stroke-width=".9564" stroke-linecap="round" stroke-linejoin="round" fill="none" stroke="#0000ff" d="M-1.91284 2.55046C-1.75343 1.59402 0 .15938 .4782 0 0-.15938-1.75343-1.59402-1.91284-2.55046"/>
<path transform="matrix(1.00003,0,0,-1.00006,2.4945145,115.58998)" stroke-width=".3985" stroke-linecap="butt" stroke-miterlimit="10" stroke-linejoin="miter" fill="none" stroke="#0000ff" d="M113.78952-5.44984 175.34784 28.12738"/>
<path transform="matrix(-.8778663,.4788487,.4788344,.8778926,116.287479,121.040149)" stroke-width=".31879" stroke-linecap="round" stroke-linejoin="round" fill="none" stroke="#0000ff" d="M-1.19551 1.59401C-1.09587 .99626 0 .09961 .29886 0 0-.09961-1.09587-.99626-1.19551-1.59401"/>
<path transform="matrix(.8778663,-.4788487,-.4788344,-.8778926,177.8476,87.460918)" stroke-width=".31879" stroke-linecap="round" stroke-linejoin="round" fill="none" stroke="#0000ff" d="M-1.19551 1.59401C-1.09587 .99626 0 .09961 .29886 0 0-.09961-1.09587-.99626-1.19551-1.59401"/>
</svg>
