<svg xmlns="http://www.w3.org/2000/svg" xmlns:xlink="http://www.w3.org/1999/xlink" xmlns:inkscape="http://www.inkscape.org/namespaces/inkscape" version="1.1" width="387" height="279" viewBox="0 0 387 279">
<defs>
<path id="font_1_116" d="M.57598879 0V.042999269H.5059967L.33699037 .24717713 .45298768 .38031007C.46398927 .3933258 .47299195 .4013214 .55599978 .4013214V.44433595L.46398927 .44232179C.43499757 .44232179 .3919983 .44232179 .3639984 .44433595V.4013214C.3829956 .4013214 .4039917 .3963318 .4039917 .38931275 .4039917 .38931275 .39898683 .38031007 .39698792 .37831117L.30999757 .2802124 .21099854 .4013214H.25299073V.44433595C.22999573 .44232179 .1619873 .44232179 .1349945 .44232179 .10499573 .44232179 .050994874 .44232179 .022994996 .44433595V.4013214H.09399414L.25 .21115113 .11999512 .06401062C.10798645 .05000305 .100997928 .042999269 .017990113 .042999269V0L.11099243 .0019989014C.13999939 .0019989014 .18199158 .0019989014 .20999146 0V.042999269C.19099427 .042999269 .16999817 .04800415 .16999817 .055007936 .16999817 .055007936 .16999817 .057006837 .1769867 .0650177L.2769928 .17811585 .3880005 .042999269H.34599305V0C.36999513 .0019989014 .43699647 .0019989014 .46499635 .0019989014 .49499513 .0019989014 .5479889 .0019989014 .57598879 0Z"/>
<path id="font_2_80" d="M.798996 .33924867C.798996 .5552521 .6539917 .6972656 .43199159 .6972656 .20298767 .6972656 .06399536 .5492554 .06399536 .33924867 .06399536 .13224793 .20399475-.0107421879 .43099977-.0107421879 .6609955-.0107421879 .798996 .13424683 .798996 .33924867M.6459961 .3542633C.6459961 .28425599 .6419983 .19525147 .59999087 .12625122 .5549927 .053253175 .4850006 .03125 .43099977 .03125 .37199403 .03125 .29899598 .059249879 .2579956 .1352539 .22499085 .19725037 .21699524 .2682495 .21699524 .3542633 .21699524 .41825868 .21998596 .5032654 .2639923 .57125857 .30499269 .6322632 .37199403 .6572571 .43099977 .6572571 .49499513 .6572571 .56399539 .6292572 .60398867 .56326296 .6419983 .49925233 .6459961 .42225648 .6459961 .3542633Z"/>
<path id="font_2_27" d="M.82699587 0V.04699707H.7299957L.47399903 .6722412C.46299745 .6982422 .45098878 .6982422 .43399049 .6982422 .4059906 .6982422 .4019928 .6902313 .394989 .6722412L.14698792 .07002258C.14099121 .055007936 .13798523 .04699707 .06199646 .04699707H.040985109V0L.1579895 .0029907227C.19699097 .0029907227 .25299073 .0029907227 .2899933 0V.04699707C.2899933 .04699707 .20098877 .04699707 .20098877 .060012819L.20498657 .07203674 .25498963 .19322205H.522995L.58299258 .04699707H.48799134V0C.526001 .0029907227 .62098696 .0029907227 .6639862 .0029907227 .70399478 .0029907227 .7919922 .0029907227 .82699587 0M.5029907 .24023438H.2749939L.3889923 .51823428 .5029907 .24023438Z"/>
<path id="font_2_34" d="M.7529907 .18592835C.7529907 .28189088 .6669922 .3488617 .5479889 .35786439 .6559906 .37686158 .72099307 .43678285 .72099307 .51368716 .72099307 .60557559 .6339874 .6855469 .47299195 .6855469H.038986207V.63853457H.14698792V.04699707H.038986207V0H.5029907C.6689911 0 .7529907 .08796692 .7529907 .18592835M.57899478 .51368716C.57899478 .43678285 .5309906 .37486268 .43399049 .37486268H.27799989V.63853457H.45999146C.5609894 .63853457 .57899478 .55963137 .57899478 .51368716M.60598757 .18693543C.60598757 .17492676 .60598757 .04699707 .46199037 .04699707H.27799989V.3388672H.47200013C.49198915 .3388672 .5389862 .3388672 .57299807 .29588319 .60598757 .253891 .60598757 .19792176 .60598757 .18693543Z"/>
<path id="font_2_42" d="M.7659912 .22724915C.7659912 .24725342 .7589874 .2482605 .74198916 .2482605 .72898867 .2482605 .7200012 .2482605 .71899417 .23124695 .71199038 .09724426 .59098818 .036254884 .48999024 .036254884 .4119873 .036254884 .32798768 .060256959 .27598573 .12124634 .22898865 .17825318 .21699524 .25325013 .21699524 .34326173 .21699524 .39926148 .21998596 .5072632 .2829895 .57325747 .34799195 .63926699 .43499757 .6502533 .4869995 .6502533 .59498599 .6502533 .6899872 .5742645 .71199038 .44725038 .71499636 .42825318 .71598818 .42625428 .7389984 .42625428 .7649994 .42625428 .7659912 .42825318 .7659912 .45425416V.6692505C.7659912 .68826296 .7659912 .6972656 .7480011 .6972656 .7389984 .6972656 .7369995 .69525149 .72898867 .68826296L.6629944 .6292572C.6009979 .67926028 .5339966 .6972656 .46598817 .6972656 .21699524 .6972656 .06399536 .54826357 .06399536 .34326173 .06399536 .13824463 .21699524-.0107421879 .46598817-.0107421879 .6529999-.0107421879 .7659912 .11225891 .7659912 .22724915Z"/>
<path id="font_2_83" d="M.72099307 .49064637C.72099307 .6005707 .621994 .6855469 .45599366 .6855469H.038986207V.63853457H.14698792V.04699707H.038986207V0C.07699585 .0029907227 .1749878 .0029907227 .21798706 .0029907227 .26098634 .0029907227 .35899354 .0029907227 .39698792 0V.04699707H.2889862V.30177308H.46598817C.6049957 .30177308 .72099307 .37374879 .72099307 .49064637M.56799319 .49064637C.56799319 .41970826 .56799319 .34277345 .4169922 .34277345H.2829895V.63853457H.41799928C.56799319 .63853457 .56799319 .56259158 .56799319 .49064637Z"/>
<path id="font_2_90" d="M.8049927-.008026123C.8049927-.000030517579 .8049927 .017974854 .7869873 .017974854 .7719879 .017974854 .769989 .0049743654 .7689972-.002029419 .7630005-.040023805 .70098879-.041015626 .6839905-.041015626 .6609955-.041015626 .6309967-.041015626 .59199526 .017974854 .7559967 .08224487 .798996 .23025513 .798996 .33924867 .798996 .5552521 .6539917 .6972656 .43199159 .6972656 .20298767 .6972656 .06399536 .5492554 .06399536 .33924867 .06399536 .1352539 .19999695-.0107421879 .43199159-.0107421879 .45399476-.0107421879 .4869995-.009750366 .5269928-.0017547608 .5549927-.11502075 .57499697-.19403076 .66799929-.19403076 .769989-.19371033 .8049927-.07571411 .8049927-.0077056887V-.008026123M.6519928 .340271C.6519928 .28427125 .6519928 .13526917 .55599978 .06929016 .5339966 .10227966 .49798585 .15527344 .43099977 .15527344 .37998963 .15527344 .33399964 .1212616 .33399964 .073287967 .33399964 .06729126 .33499146 .056289674 .33699037 .05128479 .21398926 .11027527 .21099854 .26226808 .21099854 .340271 .21099854 .38026429 .21099854 .4752655 .24798584 .54626467 .2999878 .6422577 .38598634 .6572571 .43099977 .6572571 .4850006 .6572571 .5629883 .6372528 .61099246 .55226138 .6489868 .48526 .6519928 .39926148 .6519928 .340271M.5139923 .045288087C.4889984 .0342865 .45899964 .029296875 .43199159 .029296875 .3769989 .029296875 .36999513 .061294557 .36999513 .073287967 .36999513 .10028076 .39898683 .119262699 .43199159 .119262699 .45999146 .119262699 .49398805 .10827637 .5139923 .045288087Z"/>
<path id="font_2_95" d="M.8580017 .09487915C.8580017 .11682129 .84399417 .11682129 .83399966 .11682129 .8129883 .11682129 .81199648 .1068573 .8109894 .09388733 .80599978 .04699707 .7769928 .024993897 .746994 .024993897 .68699648 .024993897 .6779938 .09587097 .6729889 .13778687 .67099 .14875794 .6629944 .21759033 .6619873 .22257996 .647995 .29241944 .59298709 .323349 .5499878 .3393402 .66600039 .36935426 .71699526 .43440248 .71699526 .5004425 .71699526 .6015167 .6069946 .6855469 .4189911 .6855469H.038986207V.63853457H.14698792V.04699707H.038986207V0C.07499695 .0029907227 .17298889 .0029907227 .21499634 .0029907227 .25698854 .0029907227 .35499574 .0029907227 .3909912 0V.04699707H.2829895V.32434083H.3999939C.4139862 .32434083 .45799256 .32434083 .4889984 .29042054 .5209961 .25550843 .5209961 .23654175 .5209961 .16371155 .5209961 .09786987 .5209961 .048980714 .59098818 .01499939 .6349945-.007003784 .69699099-.011001587 .73799136-.011001587 .8450012-.011001587 .8580017 .07891846 .8580017 .09487915M.56399539 .49943543C.56399539 .44340516 .56399539 .36035157 .39898683 .36035157H.2829895V.63853457H.40098573C.56199648 .63853457 .56399539 .56048586 .56399539 .49943543Z"/>
<path id="font_2_117" d="M.848999 .63853457V.6855469L.7350006 .6826172C.69599917 .6825409 .6399994 .6825409 .6029968 .6855469V.63853457C.6259918 .63853457 .6529999 .63853457 .67900088 .62854006 .6769867 .62454226 .6769867 .62254336 .6719971 .61654666L.4850006 .34153749 .28199769 .63853457H.36698915V.6855469C.32598878 .6826172 .22898865 .6826172 .18399048 .6826172 .14399719 .6825409 .053985597 .6825409 .018997193 .6855469V.63853457H.116989139L.3659973 .27381898V.04699707H.2579956V0C.2939911 .0029907227 .3919983 .0029907227 .43399049 .0029907227 .47698976 .0029907227 .57299807 .0029907227 .61099246 0V.04699707H.5019989V.27381898L.7369995 .61854556C.74598696 .63261416 .7539978 .63261416 .776001 .63560488 .79299929 .6375427 .8109894 .63853457 .8279877 .63853457H.848999Z"/>
<path id="font_3_1" d="M.45498658 .5001831C.45498658 .56614688 .43699647 .7050781 .33499146 .7050781 .19599915 .7050781 .041992189 .42323304 .041992189 .19425965 .041992189 .100250247 .070999149-.0107421879 .1619873-.0107421879 .30299378-.0107421879 .45498658 .27627564 .45498658 .5001831M.147995 .36328126C.16499329 .42723084 .18499756 .5071869 .22499085 .57814028 .2519989 .6271057 .2889862 .68307498 .33399964 .68307498 .3829956 .68307498 .3889923 .6191101 .3889923 .56214907 .3889923 .5131836 .3809967 .46220399 .35699464 .36328126H.147995M.34799195 .3312683C.33699037 .28527833 .31599427 .2002716 .27799989 .12826538 .24299622 .060256959 .20498657 .011245728 .1619873 .011245728 .1289978 .011245728 .10798645 .040252687 .10798645 .133255 .10798645 .17526245 .11399841 .23326111 .13999939 .3312683H.34799195Z"/>
</defs>
<path transform="matrix(1.00006,0,0,-1.00009,29.842713,266.4179)" stroke-width="1.19553" stroke-linecap="butt" stroke-miterlimit="10" stroke-linejoin="miter" fill="none" stroke="#000000" d="M-28.3468 0H340.1617"/>
<use data-text="x" xlink:href="#font_1_116" transform="matrix(20.66374,0,0,-20.66436,373.94334,271.0053)"/>
<path transform="matrix(1.00006,0,0,-1.00009,29.842713,266.4179)" d="M0 0 56.69362 48.18947V0Z" fill="#ffa64d"/>
<path transform="matrix(1.00006,0,0,-1.00009,29.842713,266.4179)" stroke-width=".3985" stroke-linecap="butt" stroke-miterlimit="10" stroke-linejoin="miter" fill="none" stroke="#000000" d="M0 0 56.69362 48.18947V0Z"/>
<path transform="matrix(1.00006,0,0,-1.00009,29.842713,266.4179)" d="M56.69362 0H141.73404V113.38724L56.69362 48.18947Z" fill="#6666ff"/>
<path transform="matrix(1.00006,0,0,-1.00009,29.842713,266.4179)" stroke-width=".3985" stroke-linecap="butt" stroke-miterlimit="10" stroke-linejoin="miter" fill="none" stroke="#000000" d="M56.69362 0H141.73404V113.38724L56.69362 48.18947Z"/>
<path transform="matrix(1.00006,0,0,-1.00009,29.842713,266.4179)" d="M141.73404 0H226.77448V184.25424L141.73404 113.38724Z" fill="#66ff66"/>
<path transform="matrix(1.00006,0,0,-1.00009,29.842713,266.4179)" stroke-width=".3985" stroke-linecap="butt" stroke-miterlimit="10" stroke-linejoin="miter" fill="none" stroke="#000000" d="M141.73404 0H226.77448V184.25424L141.73404 113.38724Z"/>
<path transform="matrix(1.00006,0,0,-1.00009,29.842713,266.4179)" stroke-width="1.19553" stroke-linecap="butt" stroke-miterlimit="10" stroke-linejoin="miter" fill="none" stroke="#000000" d="M0 0 311.8149 255.12128"/>
<path transform="matrix(1.00006,0,0,-1.00009,29.842713,266.4179)" stroke-width="1.19553" stroke-linecap="butt" stroke-dasharray="2.98883,2.98883" stroke-miterlimit="10" stroke-linejoin="miter" fill="none" stroke="#000000" d="M56.69362 0V48.18947"/>
<path transform="matrix(1.00006,0,0,-1.00009,29.842713,266.4179)" stroke-width="1.19553" stroke-linecap="butt" stroke-dasharray="2.98883,2.98883" stroke-miterlimit="10" stroke-linejoin="miter" fill="none" stroke="#000000" d="M141.73404 0V113.38724"/>
<path transform="matrix(1.00006,0,0,-1.00009,29.842713,266.4179)" stroke-width="1.19553" stroke-linecap="butt" stroke-dasharray="2.98883,2.98883" stroke-miterlimit="10" stroke-linejoin="miter" fill="none" stroke="#000000" d="M226.77448 0V184.25424"/>
<path transform="matrix(1.00006,0,0,-1.00009,29.842713,266.4179)" stroke-width="1.19553" stroke-linecap="butt" stroke-miterlimit="10" stroke-linejoin="miter" fill="none" stroke="#000000" d="M56.69362 8.50412H65.19774V0"/>
<path transform="matrix(1.00006,0,0,-1.00009,29.842713,266.4179)" stroke-width="1.19553" stroke-linecap="butt" stroke-miterlimit="10" stroke-linejoin="miter" fill="none" stroke="#000000" d="M141.73404 8.50412H150.23816V0"/>
<path transform="matrix(1.00006,0,0,-1.00009,29.842713,266.4179)" stroke-width="1.19553" stroke-linecap="butt" stroke-miterlimit="10" stroke-linejoin="miter" fill="none" stroke="#000000" d="M226.77448 8.50412H235.2786V0"/>
<path transform="matrix(1.00006,0,0,-1.00009,29.842713,266.4179)" stroke-width="1.19553" stroke-linecap="butt" stroke-miterlimit="10" stroke-linejoin="miter" fill="none" stroke="#000000" d="M141.73404 56.69362V61.40646"/>
<path transform="matrix(0,-1.00009,-1.00006,-0,171.58525,205.00592)" stroke-width=".9564" stroke-linecap="round" stroke-linejoin="round" fill="none" stroke="#000000" d="M-1.91284 2.55046C-1.75343 1.59402 0 .15938 .4782 0 0-.15938-1.75343-1.59402-1.91284-2.55046"/>
<path transform="matrix(1.00006,0,0,-1.00009,29.842713,266.4179)" stroke-width="1.19553" stroke-linecap="butt" stroke-miterlimit="10" stroke-linejoin="miter" fill="none" stroke="#000000" d="M56.69362 14.17339V18.88625"/>
<path transform="matrix(0,-1.00009,-1.00006,-0,86.539737,247.52996)" stroke-width=".9564" stroke-linecap="round" stroke-linejoin="round" fill="none" stroke="#000000" d="M-1.91284 2.55046C-1.75343 1.59402 0 .15938 .4782 0 0-.15938-1.75343-1.59402-1.91284-2.55046"/>
<path transform="matrix(1.00006,0,0,-1.00009,29.842713,266.4179)" stroke-width="1.19553" stroke-linecap="butt" stroke-miterlimit="10" stroke-linejoin="miter" fill="none" stroke="#000000" d="M226.77448 90.7097V95.42255"/>
<path transform="matrix(0,-1.00009,-1.00006,-0,256.6308,170.98677)" stroke-width=".9564" stroke-linecap="round" stroke-linejoin="round" fill="none" stroke="#000000" d="M-1.91284 2.55046C-1.75343 1.59402 0 .15938 .4782 0 0-.15938-1.75343-1.59402-1.91284-2.55046"/>
<use data-text="O" xlink:href="#font_2_80" transform="matrix(9.963197,0,0,-9.963496,25.538453,276.88285)"/>
<use data-text="A" xlink:href="#font_2_27" transform="matrix(9.963197,0,0,-9.963496,82.21085,276.89286)"/>
<use data-text="B" xlink:href="#font_2_34" transform="matrix(9.963197,0,0,-9.963496,167.50997,276.77284)"/>
<use data-text="C" xlink:href="#font_2_42" transform="matrix(9.963197,0,0,-9.963496,252.49106,276.88285)"/>
<use data-text="P" xlink:href="#font_2_83" transform="matrix(9.963197,0,0,-9.963496,82.62388,214.70426)"/>
<use data-text="Q" xlink:href="#font_2_90" transform="matrix(9.963197,0,0,-9.963496,167.28095,147.56722)"/>
<use data-text="R" xlink:href="#font_2_95" transform="matrix(9.963197,0,0,-9.963496,252.33206,78.517)"/>
<use data-text="Y" xlink:href="#font_2_117" transform="matrix(9.963197,0,0,-9.963496,337.34715,7.7536318)"/>
<path transform="matrix(1.00006,0,0,-1.00009,29.842713,266.4179)" stroke-width="1.19553" stroke-linecap="butt" stroke-miterlimit="10" stroke-linejoin="miter" fill="none" stroke="#000000" d="M22.67752 0C22.67752 4.92403 21.07434 9.71552 18.11128 13.64781"/>
<use data-text="&#x03b8;" xlink:href="#font_3_1" transform="matrix(9.963197,0,0,-9.963496,58.876455,261.37248)"/>
</svg>
